<svg width="754" height="209" viewBox="0 0 754 209" fill="none" xmlns="http://www.w3.org/2000/svg">
<path fill-rule="evenodd" clip-rule="evenodd" d="M84.7 0.0249023H0.375V39.1299H21.94V90.9999H63.135V85.7652C68.3311 89.8685 75.2578 91.9499 83.4959 91.9499C90.1122 91.9499 96.0697 90.6803 101.096 87.8769C104.614 90.1715 108.591 90.9999 112.186 90.9999H215.807V18.9299H117.232V26.1673C116.661 25.7083 116.071 25.2681 115.464 24.8471C108.178 19.7916 99.2104 17.9799 91.0009 17.9799C88.9065 17.9799 86.796 18.108 84.7 18.3795V0.0249023ZM88.3409 59.3349C88.1138 59.3702 87.8921 59.405 87.6759 59.4396C87.8921 59.405 88.1138 59.3702 88.3409 59.3349ZM89.5235 66.9373L89.4634 66.9433C89.4162 66.9479 89.3688 66.9524 89.3214 66.9566C89.3889 66.9506 89.4563 66.9441 89.5235 66.9373ZM227.076 18.9299V90.9999H268.051C272.889 90.9999 278.135 90.5809 283.019 89.0978V90.9999H345.932V111.235H382.442C387.067 111.235 392.546 109.97 396.863 105.726C401.219 101.444 402.612 95.883 402.612 90.9699V78.5705L413.125 57.2749H421.163V90.9999H461.408V57.2749H462.257V111.045H490.953C490.614 112.571 490.454 114.127 490.454 115.675C490.454 117.949 490.796 120.255 491.552 122.458C486.147 117.733 479.088 114.98 470.833 114.98C467.68 114.98 464.717 115.295 461.954 115.93H363.59V118.868C357.476 116.057 350.695 114.98 344.365 114.98C337.404 114.98 330.263 116.395 324.074 119.789V115.93H225.499V188H324.074V186.913C327.853 188.267 332.142 188.95 336.86 188.95C343.476 188.95 349.434 187.68 354.46 184.877C357.978 187.171 361.955 188 365.55 188H421.98V154.275H422.828V208.045H463.073V188.237C465.514 188.714 468.103 188.95 470.833 188.95C480.826 188.95 489.092 184.934 494.784 178.215C494.913 178.344 495.043 178.472 495.174 178.599C502.353 185.572 512.132 188.95 522.784 188.95C530.281 188.95 537.371 187.461 543.434 184.291V188H692.706C695.5 188.632 698.519 188.95 701.738 188.95C708.354 188.95 714.312 187.68 719.338 184.877C722.856 187.171 726.833 188 730.428 188H753.448V149.655H746.513V146.835C746.513 135.878 741.52 127.269 733.707 121.847C726.421 116.792 717.453 114.98 709.243 114.98C703.255 114.98 697.134 116.027 691.6 118.48V115.93H670.86C667.983 115.93 663.367 116.123 658.825 118.141V115.93H555.873C555.874 115.845 555.874 115.76 555.874 115.675C555.874 109.916 553.591 104.4 548.844 100.61C544.473 97.1191 539.256 96.0749 534.849 96.0749C531.203 96.0749 526.951 96.7764 523.102 99.0795C519.245 96.8098 514.987 96.0749 511.289 96.0749C508.558 96.0749 505.488 96.4683 502.502 97.6332V91.2371C504.943 91.714 507.532 91.9499 510.262 91.9499C516.207 91.9499 521.541 90.5285 526.085 87.9622V90.9999H607.94V18.9299H526.085V21.9835C521.547 19.4123 516.216 17.9799 510.262 17.9799C507.109 17.9799 504.145 18.2946 501.383 18.9299H386.057L382.354 28.3132L378.579 18.9299H283.019V21.6865C277.177 19.3609 270.41 18.9299 264.536 18.9299H227.076ZM522.499 126.982C522.474 126.982 522.449 126.982 522.424 126.982C522.449 126.982 522.474 126.982 522.499 126.982ZM354.623 168.21C354.538 168.37 354.45 168.528 354.36 168.685C354.45 168.528 354.538 168.37 354.623 168.21ZM341.705 156.335C341.478 156.37 341.256 156.405 341.04 156.44C341.256 156.405 341.478 156.37 341.705 156.335ZM342.888 163.937L342.828 163.943C342.78 163.948 342.733 163.952 342.686 163.957C342.753 163.951 342.821 163.944 342.888 163.937ZM707.564 163.957C707.574 163.956 707.584 163.955 707.594 163.954C707.584 163.955 707.574 163.956 707.564 163.957ZM736.232 34.9849H621.032V71.2399H736.232V34.9849ZM38.785 188.95C46.2819 188.95 53.3721 187.461 59.4346 184.291V188H122.99V201.395H163.235V186.154C168.076 188.028 173.402 188.95 178.966 188.95C188.279 188.95 196.964 186.652 203.832 181.688C208.913 178.015 212.664 173.102 214.763 167.385H216.426V160.502L216.428 160.483L218.114 146.995H216.239C215.565 139.671 213.04 132.854 208.342 127.328C210.865 123.947 212.056 119.858 212.056 115.675C212.056 109.916 209.773 104.4 205.026 100.61C200.655 97.1191 195.437 96.0749 191.031 96.0749C187.384 96.0749 183.133 96.7764 179.284 99.0795C175.427 96.8098 171.169 96.0749 167.471 96.0749C163.059 96.0749 157.76 97.1019 153.361 100.751C148.617 104.686 146.636 110.236 146.636 115.675C146.636 115.744 146.636 115.813 146.637 115.882L146.637 115.93H59.4346V120.126C53.1519 116.549 45.7563 114.98 38.025 114.98C28.0834 114.98 18.5619 118.112 11.425 124.837C4.19686 131.648 0.47 141.158 0.47 151.775C0.47 162.034 3.97146 171.603 11.1749 178.599C18.3541 185.572 28.1325 188.95 38.785 188.95Z" fill="black"/>
</svg>
