<svg width="611" height="152" viewBox="0 0 611 152" fill="none" xmlns="http://www.w3.org/2000/svg">
<path fill-rule="evenodd" clip-rule="evenodd" d="M81.7934 137.977C75.8464 137.977 70.3323 136.123 65.7978 132.961C61.2633 136.123 55.7493 137.977 49.8023 137.977H49.7919V147C49.7919 149.761 47.5533 152 44.7919 152H13.7767C11.0153 152 8.77669 149.761 8.77669 147V40.8089C8.77669 38.0475 11.0153 35.8089 13.7767 35.8089H14.7778H15.9616L1.53773 7.25437C-0.142174 3.92871 2.2748 0 6.00067 0L81.5787 6.29619e-06C85.3046 6.62233e-06 87.7215 3.92872 86.0416 7.25438L83.255 12.771H329.906C336.298 12.771 342.189 14.9126 346.902 18.5175C351.615 14.9126 357.506 12.771 363.898 12.771H394.922C397.683 12.771 399.922 15.0096 399.922 17.771V58.8418V71.8764V73.8715H455.953C462.345 73.8715 468.236 76.0131 472.949 79.6179C477.662 76.0131 483.553 73.8715 489.945 73.8715H489.953H496.968H606C608.761 73.8715 611 76.1101 611 78.8715V101.909V109.939V132.977C611 135.738 608.761 137.977 606 137.977H516.963C514.414 137.977 512.31 136.069 512.002 133.603C507.659 136.372 502.501 137.977 496.968 137.977H489.945C483.553 137.977 477.662 135.835 472.949 132.23C468.236 135.835 462.345 137.977 455.953 137.977H384.914C382.153 137.977 379.914 135.738 379.914 132.977V127.302C374.787 133.803 366.839 137.977 357.916 137.977H291.892H280.876H263.861C260.9 137.977 258.047 137.517 255.368 136.666C252.689 137.517 249.836 137.977 246.875 137.977H239.852C234.336 137.977 229.192 136.382 224.857 133.627C220.522 136.382 215.378 137.977 209.862 137.977H202.838C196.218 137.977 190.135 135.68 185.342 131.839C180.549 135.68 174.466 137.977 167.846 137.977H118.807C113.291 137.977 108.147 136.382 103.812 133.627C99.4769 136.382 94.3331 137.977 88.8167 137.977H81.7934Z" fill="white"/>
</svg>
