<svg width="609" height="152" viewBox="0 0 609 152" fill="none" xmlns="http://www.w3.org/2000/svg">
<path fill-rule="evenodd" clip-rule="evenodd" d="M63.7978 132.961C68.3323 136.123 73.8464 137.977 79.7934 137.977H86.8167C92.3331 137.977 97.4769 136.382 101.812 133.627C106.147 136.382 111.291 137.977 116.807 137.977H165.846C172.466 137.977 178.549 135.68 183.342 131.839C188.135 135.68 194.218 137.977 200.838 137.977H207.862C213.378 137.977 218.522 136.382 222.857 133.627C227.192 136.382 232.336 137.977 237.852 137.977H244.875C247.836 137.977 250.689 137.517 253.368 136.666C256.047 137.517 258.9 137.977 261.861 137.977H278.876H289.892H355.917C364.839 137.977 372.787 133.803 377.914 127.302V130.977C377.914 134.843 381.048 137.977 384.914 137.977H453.953C460.345 137.977 466.236 135.835 470.949 132.23C475.662 135.835 481.553 137.977 487.945 137.977H494.968C500.662 137.977 505.958 136.278 510.379 133.358C511.353 136.052 513.933 137.977 516.963 137.977H602C605.866 137.977 609 134.843 609 130.977V107.939V103.909V80.8715C609 77.0055 605.866 73.8715 602 73.8715H494.968H489.953H487.945C481.553 73.8715 475.662 76.0131 470.949 79.6179C466.236 76.0131 460.345 73.8715 453.953 73.8715H397.922V69.8764V58.8418V19.771C397.922 15.905 394.788 12.771 390.922 12.771H361.898C355.506 12.771 349.615 14.9126 344.902 18.5175C340.189 14.9126 334.298 12.771 327.906 12.771H81.255L82.5758 10.1561C84.9277 5.50021 81.544 6.46822e-06 76.3277 6.01162e-06L7.25161 0C2.0354 0 -1.34836 5.50019 1.0035 10.1561L13.9616 35.8089H13.7767C9.9107 35.8089 6.77669 38.9429 6.77669 42.8089V145C6.77669 148.866 9.91069 152 13.7767 152H40.7919C44.6579 152 47.7919 148.866 47.7919 145V137.977H47.8023C53.7493 137.977 59.2633 136.123 63.7978 132.961Z" fill="white"/>
</svg>
