<svg width="811" height="330" viewBox="0 0 811 330" fill="none" xmlns="http://www.w3.org/2000/svg">
<path d="M0 25.3098C0 13.155 9.85338 3.30164 22.0081 3.30164H89.6832C143.468 3.30164 187.069 46.9028 187.069 100.688V253.094H0V25.3098Z" fill="black"/>
<path d="M0 59.4215H101.237V305.913C101.237 318.067 91.384 327.921 79.2293 327.921H22.0081C9.85338 327.921 0 318.067 0 305.913V59.4215Z" fill="black"/>
<path d="M145.254 53.9202C145.254 41.7655 155.107 31.9121 167.262 31.9121H726.269C765.164 31.9121 796.695 63.4429 796.695 102.338V172.764H145.254V53.9202Z" fill="black"/>
<path d="M61.623 210.178H157.358V293.809H61.623V210.178Z" fill="black"/>
<path d="M656.943 92.4342H788.992C801.147 92.4342 811 102.288 811 114.442V167.262C811 179.417 801.147 189.27 788.992 189.27H656.943V92.4342Z" fill="black"/>
<path d="M101.236 161.76H691.054V307.013C691.054 319.168 681.201 329.022 669.046 329.022H174.964C134.245 329.022 101.236 296.013 101.236 255.294V161.76Z" fill="black"/>
<path d="M351.031 52.8196C351.031 23.6482 374.679 6.38162e-05 403.851 6.2541e-05L445.666 6.07132e-05C474.838 5.94381e-05 498.486 23.6482 498.486 52.8196L351.031 52.8196Z" fill="black"/>
</svg>
