<svg width="545" height="134" viewBox="0 0 545 134" fill="none" xmlns="http://www.w3.org/2000/svg">
<rect width="545" height="134" rx="59" fill="#535353"/>
<path d="M72.3183 91V23.32H91.9983C110.046 23.32 120.222 28.504 120.222 45.688C120.222 62.968 110.046 68.152 91.9983 68.152H81.0543V91H72.3183ZM81.0543 60.664H92.2863C103.518 60.664 111.582 58.36 111.582 45.688C111.582 33.112 103.518 30.808 92.2863 30.808H81.0543V60.664ZM129.081 66.52C129.081 51.064 138.297 42.328 151.929 42.328C166.041 42.328 175.257 50.872 175.257 65.656V68.728H137.337C137.625 78.04 142.521 85.144 152.409 85.144C160.569 85.144 165.369 80.92 167.001 74.296H175.449C173.529 83.128 167.193 91.96 152.505 91.96C136.953 91.96 129.081 80.632 129.081 66.52ZM137.433 62.68H166.905C166.329 54.04 160.473 49.048 151.929 49.048C144.057 49.048 138.105 54.04 137.433 62.68ZM186.876 91V43.288H203.1L215.388 88.6H216.06L228.348 43.288H244.572V91H236.508V45.592H236.028L223.452 91H207.9L195.516 45.592H194.94V91H186.876ZM256.206 66.52C256.206 51.064 265.422 42.328 279.054 42.328C293.166 42.328 302.382 50.872 302.382 65.656V68.728H264.462C264.75 78.04 269.646 85.144 279.534 85.144C287.694 85.144 292.494 80.92 294.126 74.296H302.574C300.654 83.128 294.318 91.96 279.63 91.96C264.078 91.96 256.206 80.632 256.206 66.52ZM264.558 62.68H294.03C293.454 54.04 287.598 49.048 279.054 49.048C271.182 49.048 265.23 54.04 264.558 62.68ZM312.081 67.096C312.081 53.176 321.105 42.328 336.561 42.328C346.161 42.328 357.969 47.704 359.121 61.528H350.577C349.233 52.792 343.473 49.624 336.561 49.624C325.809 49.624 320.529 57.496 320.529 67.096C320.529 76.792 325.809 84.664 336.561 84.664C343.473 84.664 349.233 81.496 350.577 72.76H359.121C357.969 86.584 346.161 91.96 336.561 91.96C321.105 91.96 312.081 81.112 312.081 67.096ZM412.59 43.288V91H404.046V50.584H385.806C385.614 76.408 384.174 91 368.142 91V83.704C377.262 83.704 377.262 70.36 377.262 43.288H412.59ZM424.206 67.096C424.206 52.984 434.286 42.328 449.55 42.328C464.718 42.328 474.798 52.984 474.798 67.096C474.798 81.304 464.718 91.96 449.55 91.96C434.286 91.96 424.206 81.304 424.206 67.096ZM432.654 67.096C432.654 76.792 438.606 84.664 449.55 84.664C460.398 84.664 466.35 76.792 466.35 67.096C466.35 57.496 460.398 49.624 449.55 49.624C438.606 49.624 432.654 57.496 432.654 67.096Z" fill="white"/>
</svg>
