<svg width="545" height="134" viewBox="0 0 545 134" fill="none" xmlns="http://www.w3.org/2000/svg">
<rect width="545" height="134" rx="59" fill="#765DB6"/>
<path d="M153.693 23.32V83.512H157.725C161.661 83.512 163.773 85.72 163.773 89.56V103.768H155.133V91H102.045V103.768H93.3085V89.56C93.3085 85.72 95.4205 83.512 99.3565 83.512H102.525C108.669 68.92 111.069 51.736 111.069 23.32H153.693ZM111.261 83.512H144.957V30.808H119.805C119.421 54.904 116.829 70.36 111.261 83.512ZM170.613 66.52C170.613 51.064 179.829 42.328 193.461 42.328C207.573 42.328 216.789 50.872 216.789 65.656V68.728H178.869C179.157 78.04 184.053 85.144 193.941 85.144C202.101 85.144 206.901 80.92 208.533 74.296H216.981C215.061 83.128 208.725 91.96 194.036 91.96C178.484 91.96 170.613 80.632 170.613 66.52ZM178.965 62.68H208.437C207.861 54.04 202.005 49.048 193.461 49.048C185.589 49.048 179.637 54.04 178.965 62.68ZM228.408 108.856V43.288H236.952V54.904C240.312 47.416 247.128 42.328 257.4 42.328C271.128 42.328 279.768 52.6 279.768 67.192C279.768 81.688 271.128 91.96 257.4 91.96C246.84 91.96 240.12 86.68 236.952 79.384V108.856H228.408ZM237.144 67.192C237.144 78.808 245.304 84.664 254.616 84.664C263.928 84.664 271.32 79.096 271.32 67.192C271.32 55.192 263.928 49.624 254.616 49.624C245.304 49.624 237.144 55.384 237.144 67.192ZM289.769 66.52C289.769 51.064 298.985 42.328 312.617 42.328C326.729 42.328 335.945 50.872 335.945 65.656V68.728H298.025C298.313 78.04 303.209 85.144 313.097 85.144C321.257 85.144 326.057 80.92 327.689 74.296H336.137C334.217 83.128 327.881 91.96 313.193 91.96C297.641 91.96 289.769 80.632 289.769 66.52ZM298.121 62.68H327.593C327.017 54.04 321.161 49.048 312.617 49.048C304.745 49.048 298.793 54.04 298.121 62.68ZM347.564 91V43.288H367.628C379.244 43.288 387.02 45.592 387.02 55.192C387.02 61.72 382.796 64.888 377.9 65.848C385.004 66.52 390.572 70.072 390.572 78.232C390.572 87.64 382.796 91 371.18 91H347.564ZM355.628 84.952H371.18C378.86 84.952 382.412 82.936 382.412 77.368C382.412 71.032 378.476 69.208 371.18 69.208H355.628V84.952ZM355.628 63.256H367.628C375.02 63.256 378.86 62.296 378.86 56.056C378.86 50.872 375.308 49.24 367.628 49.24H355.628V63.256ZM398.8 67.096C398.8 52.984 408.88 42.328 424.144 42.328C439.312 42.328 449.392 52.984 449.392 67.096C449.392 81.304 439.312 91.96 424.144 91.96C408.88 91.96 398.8 81.304 398.8 67.096ZM407.248 67.096C407.248 76.792 413.2 84.664 424.144 84.664C434.992 84.664 440.944 76.792 440.944 67.096C440.944 57.496 434.992 49.624 424.144 49.624C413.2 49.624 407.248 57.496 407.248 67.096Z" fill="white"/>
</svg>
