<svg width="545" height="134" viewBox="0 0 545 134" fill="none" xmlns="http://www.w3.org/2000/svg">
<rect width="545" height="134" rx="59" fill="#2C70BB"/>
<path d="M63.157 23.32H118.453V30.808H95.221V91H86.485V30.808H63.157V23.32ZM113.425 66.52C113.425 51.064 122.641 42.328 136.273 42.328C150.385 42.328 159.601 50.872 159.601 65.656V68.728H121.681C121.969 78.04 126.865 85.144 136.753 85.144C144.913 85.144 149.713 80.92 151.345 74.296H159.793C157.873 83.128 151.537 91.96 136.849 91.96C121.297 91.96 113.425 80.632 113.425 66.52ZM121.777 62.68H151.249C150.673 54.04 144.817 49.048 136.273 49.048C128.401 49.048 122.449 54.04 121.777 62.68ZM171.22 43.288H179.764V63.544H182.644L196.372 46.84C198.388 44.44 200.5 43.288 203.668 43.288H211.252V50.584H203.572L190.132 66.712L212.404 91H201.94L183.028 70.36H179.764V91H171.22V43.288ZM217.113 67.096C217.113 53.176 226.137 42.328 241.593 42.328C251.193 42.328 263 47.704 264.153 61.528H255.609C254.265 52.792 248.505 49.624 241.593 49.624C230.841 49.624 225.561 57.496 225.561 67.096C225.561 76.792 230.841 84.664 241.593 84.664C248.505 84.664 254.265 81.496 255.609 72.76H264.153C263 86.584 251.193 91.96 241.593 91.96C226.137 91.96 217.113 81.112 217.113 67.096ZM270.72 43.288H315.264V50.584H297.216V91H288.768V50.584H270.72V43.288ZM372.287 91H364.223V46.264L340.223 91H325.439V43.288H333.503V87.832L357.599 43.288H372.287V91ZM429.183 43.288V91H420.639V50.584H402.399C402.207 76.408 400.767 91 384.735 91V83.704C393.855 83.704 393.855 70.36 393.855 43.288H429.183ZM460.416 56.632C471.744 56.632 481.152 60.28 481.152 73.816C481.152 87.352 471.744 91 460.416 91H441.408V43.288H449.952V56.632H460.416ZM449.952 83.896H459.456C467.328 83.896 472.608 82.936 472.608 73.816C472.608 64.792 467.328 63.736 459.456 63.736H449.952V83.896Z" fill="white"/>
</svg>
