<svg width="603" height="117" viewBox="0 0 603 117" fill="none" xmlns="http://www.w3.org/2000/svg">
<path fill-rule="evenodd" clip-rule="evenodd" d="M0.415009 5.02496V96H95.32V116.235H131.83C136.454 116.235 141.934 114.97 146.251 110.726C150.607 106.444 152 100.883 152 95.97V83.5705L153.602 80.3255C155.447 84.0052 158.109 87.2681 161.674 89.9317C168.878 95.3141 178.085 96.95 187.05 96.95C195.707 96.95 203.929 95.3781 210.414 91.4085C212.291 90.2601 214.007 88.9093 215.515 87.3753C222.609 93.823 232.049 96.95 242.299 96.95C249.796 96.95 256.886 95.4607 262.948 92.2906V96H344.803V23.93H332.234C333.583 19.8747 334.068 15.7581 334.068 12.085V0.0849609H274.538V12.085C274.538 15.7409 275.012 19.862 276.356 23.93H262.948V28.1256C256.666 24.5491 249.27 22.98 241.539 22.98C231.646 22.98 222.17 26.0811 215.045 32.737C213.5 31.0946 211.71 29.6528 209.731 28.4369C203.356 24.5203 195.258 22.98 186.67 22.98C182.954 22.98 179.272 23.257 175.748 23.93H135.445L131.742 33.3133L127.967 23.93H109.155V5.02496H0.415009ZM289.471 23.93C289.503 23.9818 289.535 24.0335 289.567 24.085C289.535 24.0335 289.503 23.9818 289.471 23.93ZM319.008 24.085C319.01 24.0824 319.012 24.0799 319.013 24.0773C319.012 24.0799 319.01 24.0824 319.008 24.085ZM371.766 17.025V5.02496H602.61V96H481.9V44.13H480.059V96H455.711V109.49H414.421V96H393.961V109.49H352.671V77.54C352.671 72.6427 354.026 67.0095 358.384 62.617C360.88 60.1006 363.795 58.5618 366.766 57.7044C366.784 57.6586 366.803 57.6122 366.822 57.5653C367.658 55.4883 368.516 52.5945 369.276 48.7683C370.798 41.1078 371.766 30.54 371.766 17.025Z" fill="black"/>
</svg>
