<svg width="787" height="306" viewBox="0 0 787 306" fill="none" xmlns="http://www.w3.org/2000/svg">
<path d="M0 23.5403C0 12.2361 9.56177 3.07214 21.3568 3.07214H87.029C139.222 3.07214 181.533 43.6225 181.533 93.6438V235.386H0V23.5403Z" fill="white"/>
<path d="M0 55.2645H98.2413V284.508C98.2413 295.812 88.6796 304.976 76.8845 304.976H21.3568C9.56177 304.976 0 295.812 0 284.508V55.2645Z" fill="white"/>
<path d="M140.953 50.1458C140.953 38.8415 150.515 29.6776 162.31 29.6776H704.773C742.517 29.6776 773.115 59.0021 773.115 95.1758V160.674H140.953V50.1458Z" fill="white"/>
<path d="M59.8008 195.473H152.703V273.252H59.8008V195.473Z" fill="white"/>
<path d="M637.5 85.9679H765.641C777.436 85.9679 786.998 95.1318 786.998 106.436V155.56C786.998 166.864 777.436 176.028 765.641 176.028H637.5V85.9679Z" fill="white"/>
<path d="M98.2422 150.442H670.605V285.532C670.605 296.836 661.043 306 649.248 306H169.788C130.274 306 98.2422 275.301 98.2422 237.431V150.442Z" fill="white"/>
<path d="M340.645 49.1238V49.1238C340.645 21.9936 363.593 0.000159435 391.901 0.000158249L432.479 0.000156549C460.787 0.000155363 483.735 21.9935 483.735 49.1238V49.1238L340.645 49.1238Z" fill="white"/>
</svg>
