<svg width="1011" height="113" viewBox="0 0 1011 113" fill="none" xmlns="http://www.w3.org/2000/svg">
<path fill-rule="evenodd" clip-rule="evenodd" d="M41.705 1.02519H0.415039V92.0002H41.705V67.1102H47.06V92.0002H88.445V90.7599C92.3249 92.2159 96.7553 92.9502 101.648 92.9502C108.265 92.9502 114.222 91.6806 119.248 88.8772C122.766 91.1718 126.743 92.0002 130.338 92.0002H135.385V112.045H175.63V92.2374C178.071 92.7143 180.66 92.9502 183.39 92.9502C193.348 92.9502 201.59 88.9625 207.281 82.2859C207.917 82.9077 208.581 83.5068 209.273 84.0824C216.97 90.4871 226.812 92.9502 236.293 92.9502C241.945 92.9502 247.738 92.0574 253.127 89.9614V105.395H293.372V92.0002H306.612V105.395H346.857V92.0002H428.093C433.15 92.0002 439.714 91.4854 445.923 88.9333V92.0002H486.168V87.8346C492.206 91.2704 499.284 92.9502 506.796 92.9502C516.109 92.9502 524.795 90.6519 531.662 85.6881C536.743 82.015 540.495 77.1021 542.593 71.3852L543.5 68L544.256 64.5021L544.258 64.4836C544.258 64.4836 544.533 60.4233 544.5 57.5C544.474 55.1551 544.07 50.9952 544.07 50.9952C543.278 42.4014 539.939 34.5056 533.532 28.5748C526.238 21.8223 516.441 18.9802 506.036 18.9802C498.965 18.9802 492.107 20.5645 486.168 23.8987V19.9302H445.923V32.8158C440.34 30.5044 434.466 29.8411 429.643 29.7324V19.9302H269.657V31.9302C269.657 32.9857 269.65 33.9975 269.637 34.9679C267.856 32.2915 265.691 29.8901 263.168 27.8025C255.499 21.4572 245.708 18.9802 236.293 18.9802C226.812 18.9802 216.986 21.4428 209.299 27.8025C208.587 28.3913 207.904 29.005 207.251 29.6426C201.578 22.9932 193.356 18.9802 183.39 18.9802C180.237 18.9802 177.273 19.2949 174.51 19.9302H135.385V27.1676C134.813 26.7086 134.223 26.2684 133.617 25.8474C126.331 20.7919 117.363 18.9802 109.153 18.9802C102.035 18.9802 94.7292 20.4595 88.445 24.0221V1.02519H47.06V27.9102H41.705V1.02519ZM106.493 60.3352C106.266 60.3705 106.045 60.4053 105.828 60.4399C106.045 60.4053 106.266 60.3705 106.493 60.3352ZM107.676 67.9375L107.616 67.9436C107.569 67.9482 107.521 67.9527 107.474 67.9569C107.541 67.9509 107.609 67.9444 107.676 67.9375ZM516.391 51.0252L516.388 50.9952C516.389 51.0052 516.39 51.0152 516.391 51.0252ZM236.025 55.1401C236.089 55.081 236.152 55.0273 236.212 54.9786C236.239 55.0006 236.266 55.0236 236.293 55.0476C236.309 55.0615 236.325 55.0758 236.341 55.0904C236.624 55.3494 236.833 55.6254 236.978 55.8702C236.987 55.8852 236.996 55.9001 237.004 55.9149C236.849 56.2011 236.615 56.5259 236.293 56.8236C236.279 56.8363 236.265 56.849 236.251 56.8616C236.238 56.8738 236.224 56.8857 236.211 56.8974C236.19 56.8795 236.168 56.861 236.147 56.8418C236.136 56.8322 236.125 56.8225 236.114 56.8125C235.789 56.5176 235.554 56.1968 235.398 55.9158C235.407 55.9007 235.416 55.8855 235.425 55.8702C235.564 55.6417 235.761 55.3848 236.025 55.1401ZM236.994 57.3764C237.017 57.3839 237.03 57.386 237.03 57.386C237.03 57.386 237.027 57.3847 237.019 57.3826C237.013 57.3809 237.005 57.3788 236.994 57.3764ZM553.329 19.9302V112.045H593.574V92.2374C596.015 92.7143 598.604 92.9502 601.334 92.9502C611.327 92.9502 619.593 88.9342 625.285 82.2149C625.414 82.3439 625.544 82.4721 625.675 82.5994C632.854 89.5725 642.633 92.9502 653.285 92.9502C660.782 92.9502 667.872 91.4609 673.935 88.2908V92.0002H772.51V87.3699C778.717 91.119 786.086 92.9502 793.93 92.9502C803.243 92.9502 811.928 90.6519 818.796 85.6881C820.18 84.6876 821.465 83.595 822.646 82.4193C823.026 82.7936 823.416 83.1601 823.817 83.5186C831.25 90.1651 840.984 92.9502 850.804 92.9502C857.018 92.9502 863.295 91.7698 868.973 89.2398V92.0002H880.973C890.523 92.0002 898.888 89.7823 905.263 84.4951V92.0002H945.603V90.8714C949.41 92.2534 953.737 92.9502 958.504 92.9502C965.12 92.9502 971.078 91.6806 976.104 88.8772C979.621 91.1718 983.599 92.0002 987.194 92.0002H1010.21V53.6552H1003.28V50.8352C1003.28 39.8787 998.286 31.2689 990.472 25.8474C983.186 20.7919 974.218 18.9802 966.009 18.9802C959.004 18.9802 951.818 20.4126 945.603 23.8529V19.9302H878.378V28.7194C877.65 28.0695 876.893 27.4506 876.11 26.8636C868.87 21.4385 859.772 18.9802 850.804 18.9802C841.847 18.9802 832.944 21.2775 825.797 26.7222C826.621 24.484 827.02 22.0954 827.02 19.6752C827.02 13.9163 824.737 8.40037 819.99 4.60982C815.619 1.1194 810.401 0.0751953 805.995 0.0751953C802.348 0.0751953 798.097 0.776683 794.247 3.07981C790.391 0.810047 786.133 0.0751953 782.435 0.0751953C778.023 0.0751953 772.724 1.10221 768.325 4.75083C763.581 8.68581 761.6 14.2363 761.6 19.6752C761.6 19.7602 761.6 19.8452 761.601 19.9302H673.935V24.1258C667.652 20.5493 660.256 18.9802 652.525 18.9802C642.583 18.9802 633.062 22.1124 625.925 28.8371C625.662 29.0847 625.404 29.3358 625.151 29.5904C619.479 22.9722 611.274 18.9802 601.334 18.9802C598.181 18.9802 595.218 19.2949 592.455 19.9302H553.329ZM621.949 55.7752C621.949 55.8385 621.949 55.9018 621.949 55.9652C621.949 55.9018 621.949 55.8385 621.949 55.7752ZM889.308 56.2772C889.296 56.347 889.284 56.4163 889.272 56.4852C889.284 56.4163 889.296 56.347 889.308 56.2772ZM976.141 72.441C976.125 72.4704 976.109 72.4999 976.092 72.5293C976.097 72.5201 976.102 72.511 976.108 72.5018C976.119 72.4815 976.13 72.4613 976.141 72.441ZM962.935 60.4C962.976 60.3935 963.018 60.3869 963.059 60.3804L963.349 60.3352C963.209 60.357 963.071 60.3785 962.935 60.4ZM964.329 67.9569C964.343 67.9557 964.356 67.9545 964.369 67.9533C964.356 67.9545 964.343 67.9557 964.329 67.9569Z" fill="#F5F5F5"/>
</svg>
