<svg width="632" height="50" viewBox="0 0 632 50" fill="none" xmlns="http://www.w3.org/2000/svg">
<path fill-rule="evenodd" clip-rule="evenodd" d="M46.1185 19.7644C46.1117 19.7695 46.105 19.7746 46.0982 19.7798L46.1185 19.7644ZM45.055 21.9368C45.0535 21.9611 45.0523 21.9855 45.0512 22.01C45.0523 21.9855 45.0535 21.9611 45.055 21.9368ZM58.3232 35.198C58.2801 35.198 58.2375 35.1975 58.1952 35.1965C58.2375 35.1975 58.2801 35.198 58.3232 35.198ZM49.6427 29.6015C49.6214 29.6079 49.6 29.6142 49.5786 29.6204C49.5609 29.6256 49.5432 29.6306 49.5255 29.6356C49.5648 29.6246 49.6038 29.6132 49.6427 29.6015ZM34.4076 4.32244C36.6747 6.14627 38.3818 8.44947 39.4959 11.0892C42.4021 9.28489 45.8816 8.526 49.2512 8.526C52.8386 8.526 56.7751 9.31905 59.932 11.7327C60.2555 11.98 60.5647 12.2397 60.8595 12.5114V8.946H103.83V11.2634C106.89 9.31303 110.524 8.526 114.067 8.526C118.179 8.526 122.432 9.60824 125.754 12.3563C126.269 12.7823 126.749 13.2387 127.194 13.7237C127.478 13.4046 127.777 13.0967 128.091 12.8007C131.18 9.89028 135.31 8.526 139.642 8.526C144.189 8.526 148.437 9.76759 151.591 12.6866C154.427 15.312 155.88 18.8346 156.176 22.68L156.237 25.2851V27.3811L156 29.1982L155.589 31.084C154.697 33.6398 153.049 35.8342 150.792 37.4652C147.82 39.6139 144.047 40.618 139.978 40.618C135.333 40.618 131.091 39.146 127.984 36.1282C127.725 35.8772 127.478 35.6185 127.241 35.3526C126.787 35.8553 126.294 36.3277 125.765 36.7681C122.439 39.5355 118.179 40.618 114.067 40.618C110.528 40.618 106.892 39.8324 103.83 37.8741V40.198H58.3232C56.8043 40.198 55.1386 39.854 53.6608 38.9144C51.3847 40.0909 48.6849 40.618 45.6392 40.618C41.24 40.618 37.7416 39.258 35.4331 36.6259C35.2565 36.4245 35.0911 36.2205 34.9364 36.0147C34.7652 36.1642 34.5906 36.3108 34.4124 36.4544C30.7657 39.3956 26.0551 40.786 20.9258 40.786C14.893 40.786 9.6301 38.6964 5.87095 34.879C2.13022 31.0804 0.217773 25.9156 0.217773 20.372C0.217773 14.8433 2.13423 9.68902 5.8743 5.89832C9.63239 2.08934 14.8932 0 20.9258 0C26.0551 0 30.7629 1.39033 34.4076 4.32244ZM156.237 27.3811V28.3002C156.237 27.5499 156.239 26.8719 156.239 26.8719C156.239 26.8719 156.238 27.0208 156.237 27.3811ZM44.8416 28.1441C44.8413 28.1572 44.8412 28.1706 44.8412 28.184ZM23.1604 17.9802L23.6325 20.372L23.1604 22.7638C23.088 23.1309 22.9483 23.2987 22.7662 23.4294C22.5366 23.5943 21.9902 23.856 20.9678 23.856C19.6023 23.856 19.0577 23.4808 18.8529 23.2768C18.6606 23.0853 18.1138 22.396 18.1138 20.372C18.1138 18.3786 18.6551 17.7003 18.8461 17.5107C19.0527 17.3057 19.6018 16.93 20.9678 16.93C22.0131 16.93 22.5647 17.1928 22.7893 17.3521C22.9592 17.4726 23.0899 17.6228 23.1604 17.9802ZM114.156 24.4312L114.155 24.432L114.112 24.4067C114.132 24.3687 114.147 24.3357 114.157 24.3098C114.174 24.2676 114.175 24.2532 114.171 24.274C114.357 24.2666 114.441 24.2411 114.445 24.2399C114.445 24.2399 114.445 24.2399 114.445 24.2399C114.431 24.2447 114.307 24.2914 114.156 24.4312ZM114.112 24.4067L113.879 24.2702C113.881 24.277 113.885 24.2873 113.89 24.3008C113.907 24.3455 113.94 24.4139 113.995 24.4942C114 24.5017 114.005 24.5091 114.011 24.5166C114.014 24.521 114.017 24.5255 114.02 24.53L114.027 24.5391L114.034 24.53L114.047 24.5113C114.054 24.5013 114.06 24.4915 114.067 24.4819C114.084 24.4552 114.099 24.43 114.112 24.4067ZM193.074 8.946H160.856V40.198H193.074V37.844C196.146 39.8243 199.801 40.618 203.358 40.618C206.893 40.618 210.536 39.8183 213.602 37.8364V40.198H240.363V49.144H256.199C258.191 49.144 260.526 48.5995 262.36 46.7961C264.211 44.977 264.811 42.6072 264.811 40.49V40.198H268.694C273.124 40.198 276.932 39.1089 279.738 36.5115V40.198H297.979C299.814 40.198 301.438 39.7503 302.912 38.8838C303.137 38.7514 303.354 38.6116 303.563 38.467V40.198H314.254V49.018H331.436V40.3525C332.402 40.5278 333.424 40.618 334.5 40.618C337.533 40.618 340.232 39.8874 342.473 38.5078V40.198H376.623V37.8467C379.694 39.825 383.347 40.618 386.903 40.618C391.015 40.618 395.275 39.5355 398.601 36.7681C399.13 36.3277 399.622 35.8553 400.077 35.3526C400.314 35.6185 400.561 35.8772 400.82 36.1282C403.927 39.146 408.169 40.618 412.814 40.618C416.883 40.618 420.656 39.6139 423.628 37.4652C425.885 35.8342 427.533 33.6398 428.425 31.084L429 29.5L429.07 28.3271L429.073 28.3002L429.012 25V22.68C428.715 18.8346 427.263 15.312 424.427 12.6866C421.273 9.76759 417.025 8.526 412.478 8.526C408.146 8.526 404.016 9.89028 400.927 12.8007C400.613 13.0967 400.314 13.4046 400.03 13.7237C399.585 13.2387 399.105 12.7823 398.59 12.3563C395.268 9.60824 391.015 8.526 386.903 8.526C383.344 8.526 379.692 9.32037 376.623 11.2906V8.946H342.473V10.6474C340.234 9.26232 337.536 8.526 334.5 8.526C333.16 8.526 331.894 8.6672 330.706 8.946H303.271C301.386 8.946 299.118 9.2035 296.962 10.1092V8.946H258.167L256.162 13.424L254.125 8.946H213.602V11.301C210.538 9.32711 206.896 8.526 203.358 8.526C199.797 8.526 196.144 9.3211 193.074 11.2934V8.946ZM245.82 32.592V31.4232L246.394 32.592H245.82ZM203.447 24.4312L203.446 24.432L203.403 24.4067C203.423 24.3687 203.438 24.3357 203.448 24.3098C203.465 24.2676 203.466 24.2532 203.462 24.274C203.656 24.2663 203.739 24.2389 203.736 24.2399C203.722 24.2447 203.598 24.2914 203.447 24.4312ZM203.403 24.4067L203.17 24.2702C203.172 24.277 203.176 24.2873 203.181 24.3008C203.198 24.3455 203.231 24.4139 203.286 24.4942C203.294 24.5062 203.303 24.5182 203.312 24.53L203.318 24.5391L203.325 24.53L203.338 24.5113C203.345 24.5013 203.351 24.4915 203.358 24.4819C203.375 24.4552 203.39 24.43 203.403 24.4067ZM386.447 24.2306C386.458 24.234 386.541 24.2586 386.714 24.2701L387.007 24.274C387.201 24.2663 387.284 24.2389 387.281 24.2399C387.267 24.2447 387.143 24.2914 386.992 24.4312L386.991 24.432C386.989 24.4607 386.989 24.4933 386.989 24.53C386.989 24.5929 386.991 24.6452 386.994 24.6877C387.005 24.6988 387.017 24.7098 387.029 24.7206C387.103 24.7884 387.174 24.836 387.229 24.867C387.283 24.8975 387.315 24.9079 387.315 24.9079C387.309 24.9061 387.184 24.868 386.903 24.868C386.587 24.868 386.437 24.9096 386.414 24.9169L386.414 24.9171C386.414 24.917 386.529 24.8764 386.68 24.741C386.696 24.7268 386.712 24.7123 386.727 24.6973C386.73 24.6529 386.733 24.5974 386.733 24.53C386.733 24.489 386.732 24.4531 386.73 24.422L386.718 24.4105C386.645 24.3442 386.577 24.2978 386.524 24.2678C386.476 24.2402 386.447 24.2306 386.447 24.2306ZM387.007 24.274C387.009 24.2675 387.009 24.2646 387.009 24.2646L387.008 24.2677L387.007 24.274ZM449.236 26.8108C449.181 26.8081 449.125 26.8058 449.068 26.8039C449.125 26.8058 449.181 26.8081 449.236 26.8108ZM446.703 30.5393C446.739 30.5472 446.776 30.5548 446.813 30.5621C446.776 30.5548 446.739 30.5472 446.703 30.5393ZM448.393 35.6177C448.38 35.6178 448.368 35.6178 448.355 35.6179H448.355C448.368 35.6178 448.381 35.6178 448.393 35.6177ZM432.474 22.05H432.894V20.834C432.894 17.076 434.368 13.637 437.564 11.34C440.487 9.23932 444.26 8.526 448.142 8.526C452.004 8.526 455.589 9.25633 458.374 11.0663C459.229 11.6217 459.987 12.269 460.635 12.9948C461.147 12.4888 461.702 12.024 462.293 11.6024C465.343 9.42777 469.146 8.526 472.82 8.526C476.407 8.526 480.343 9.31905 483.5 11.7327C486.869 14.3082 488.698 18.2321 488.698 23.018V23.856H491.764V40.198H481.892C480.373 40.198 478.707 39.854 477.229 38.9144C474.953 40.0909 472.253 40.618 469.208 40.618C465.208 40.618 461.953 39.4937 459.659 37.3112C459.339 37.5687 459.002 37.8115 458.65 38.0388C455.808 39.8739 452.16 40.618 448.268 40.618C444.395 40.618 440.438 39.8903 437.347 37.5678C434 35.0526 432.474 31.2895 432.474 27.05V22.05ZM481.764 35.1965C481.806 35.1975 481.849 35.198 481.892 35.198C481.849 35.198 481.806 35.1975 481.764 35.1965ZM461.356 29.192C461.354 29.2614 461.354 29.3314 461.354 29.402C461.354 29.3314 461.354 29.2614 461.356 29.192ZM471.35 26.504C471.249 26.5196 471.151 26.535 471.056 26.5503C471.151 26.535 471.249 26.5196 471.35 26.504ZM473.094 29.6356C473.133 29.6246 473.172 29.6132 473.211 29.6015C473.172 29.6132 473.133 29.6246 473.094 29.6356ZM495.871 8.946V40.198H542.092V38.5389C544.568 39.9566 547.462 40.618 550.574 40.618C553.894 40.618 556.947 39.8436 559.486 38.2486V40.198H603.851C606.619 40.198 610.37 39.8449 613.56 37.8805C613.765 37.7546 613.964 37.6237 614.159 37.4877C614.226 37.5616 614.295 37.6346 614.365 37.7068C616.213 39.6138 618.754 40.618 621.504 40.618C627.177 40.618 631.418 36.2662 631.418 30.914C631.418 28.5365 630.568 26.3911 629.14 24.7364C630.55 23.0522 631.376 20.8855 631.376 18.524C631.376 13.1398 627.016 8.946 621.462 8.946C618.744 8.946 616.219 9.91679 614.366 11.7814C613.451 12.703 612.766 13.7765 612.31 14.9285C609.579 13.6219 606.599 13.3036 604.231 13.2743V8.946H559.486V10.8814C556.944 9.29329 553.891 8.526 550.574 8.526C547.459 8.526 544.565 9.18846 542.092 10.6012V8.946H495.871ZM468.41 28.1441C468.41 28.1572 468.41 28.1706 468.41 28.184C468.41 28.1706 468.41 28.1572 468.41 28.1441ZM468.62 22.01C468.621 21.9855 468.622 21.9611 468.623 21.9368C468.622 21.9611 468.621 21.9855 468.62 22.01ZM550.256 24.3807C550.388 24.3267 550.492 24.2995 550.558 24.2862L550.574 24.2901C550.629 24.3032 550.707 24.3258 550.801 24.3636C550.902 24.4038 551.014 24.4582 551.132 24.53C551.153 24.5428 551.174 24.5562 551.196 24.5702C551.061 24.6592 550.923 24.7307 550.79 24.7836C550.701 24.8191 550.627 24.8407 550.574 24.8535L550.557 24.8575C550.494 24.8443 550.394 24.818 550.268 24.7667C550.142 24.7155 550.016 24.6495 549.893 24.5704C549.915 24.5565 549.936 24.5431 549.958 24.53C550.056 24.4718 550.156 24.4218 550.256 24.3807Z" fill="#080808"/>
<rect x="242" y="27.1982" width="12" height="12" fill="#080808"/>
<rect x="467" y="18.1982" width="12" height="12" fill="#080808"/>
<rect x="381" y="18.1982" width="12" height="12" fill="#080808"/>
<rect x="544" y="18.1982" width="12" height="12" fill="#080808"/>
</svg>
