<svg width="353" height="138" viewBox="0 0 353 138" fill="none" xmlns="http://www.w3.org/2000/svg">
<path fill-rule="evenodd" clip-rule="evenodd" d="M7 0C3.13401 0 0 3.13401 0 7V33C0 36.866 3.13401 40 7 40H15V74H8C4.13401 74 1 77.134 1 81V131C1 134.866 4.134 138 7.99999 138H270H302H338C341.866 138 345 134.866 345 131V105C345 101.737 342.768 98.9958 339.747 98.2198C338.492 88.9229 332.675 81.0736 324.623 77H346C349.866 77 353 73.866 353 70V20C353 16.134 349.866 13 346 13H315C309.051 13 303.535 14.8553 299 18.0188C294.465 14.8553 288.949 13 283 13H196C190.051 13 184.535 14.8553 180 18.0188C175.465 14.8553 169.949 13 164 13H111C105.051 13 99.5353 14.8553 95 18.0188C90.4647 14.8553 84.949 13 79 13H72V7C72 3.13401 68.866 0 65 0H7Z" fill="white"/>
</svg>
