<svg width="435" height="152" viewBox="0 0 435 152" fill="none" xmlns="http://www.w3.org/2000/svg">
<path fill-rule="evenodd" clip-rule="evenodd" d="M7 0C3.13401 0 0 3.13401 0 7V39V57V74V97V145C0 148.866 3.13401 152 7 152H35C38.866 152 42 148.866 42 145V138C47.949 138 53.4647 136.145 58 132.981C62.5353 136.145 68.051 138 74 138H82C88.1694 138 93.8727 136.005 98.5 132.624C103.127 136.005 108.831 138 115 138H117H123H287H292H295C310.464 138 323 125.464 323 110V109C323 94.8941 312.569 83.2245 299 81.2836V77H377H387H428C431.866 77 435 73.866 435 70V20C435 16.134 431.866 13 428 13H398C392.051 13 386.535 14.8553 382 18.0188C377.465 14.8553 371.949 13 366 13H277C265.216 13 255.132 20.2798 251 30.5877V20C251 16.134 247.866 13 244 13H74C71.3282 13 68.7437 13.3742 66.2963 14.0731C61.4654 5.6636 52.3941 0 42 0H7Z" fill="white"/>
</svg>
