<svg width="466" height="157" viewBox="0 0 466 157" fill="none" xmlns="http://www.w3.org/2000/svg">
<path fill-rule="evenodd" clip-rule="evenodd" d="M92.945 0C89.079 0 85.945 3.13401 85.945 7V7.14813C79.9039 7.74793 74.3899 10.1398 69.9423 13.7847L68.5966 9.65544C68.0977 8.12472 67.1214 6.88312 65.8863 6.04182C64.6202 4.78003 62.8737 4 60.945 4H27.945C24.9096 4 22.3255 5.93198 21.3552 8.63333C21.1898 8.95739 21.0475 9.29856 20.9312 9.65545L0.346448 72.8149C-0.851523 76.4906 1.15708 80.4415 4.83278 81.6395L5.94501 82.002V110V136C5.94501 139.866 9.07902 143 12.945 143H84.945V150C84.945 153.866 88.079 157 91.945 157H119.945C123.811 157 126.945 153.866 126.945 150V143H128.945V150C128.945 153.866 132.079 157 135.945 157H161.945C170.9 157 178.481 151.114 181.029 143H324.945C328.811 143 331.945 139.866 331.945 136V110C331.945 106.737 329.713 103.996 326.692 103.22C325.437 93.9229 319.62 86.0736 311.568 82H407.945H416.945H458.945C462.811 82 465.945 78.866 465.945 75V25C465.945 21.134 462.811 18 458.945 18H428.945C422.776 18 417.072 19.9953 412.445 23.3757C407.818 19.9953 402.114 18 395.945 18H307.945C302.213 18 296.883 19.7224 292.445 22.6779C288.007 19.7224 282.677 18 276.945 18H128.945V7C128.945 3.13401 125.811 0 121.945 0H92.945Z" fill="white"/>
</svg>
