<svg width="813" height="117" viewBox="0 0 813 117" fill="none" xmlns="http://www.w3.org/2000/svg">
<path d="M12.415 17.025H72.835V84H55.545V32.13H29.705V84H12.415V17.025Z" fill="#F5F5F5"/>
<path d="M79.9779 59.87C79.9779 42.865 92.2328 34.98 107.338 34.98C122.253 34.98 134.603 42.865 134.603 59.87C134.603 77.065 122.253 84.95 107.338 84.95C92.2328 84.95 79.9779 77.065 79.9779 59.87ZM96.2229 59.87C96.2229 67.09 100.688 70.605 107.338 70.605C113.798 70.605 118.263 67.09 118.263 59.87C118.263 52.745 113.798 49.325 107.338 49.325C100.688 49.325 96.2229 52.745 96.2229 59.87Z" fill="#F5F5F5"/>
<path d="M199.673 84H184.378V48.565L187.513 39.92H183.428L171.648 84H141.818V35.93H157.018V70.89L153.978 79.915H157.968L169.843 35.93H199.673V84Z" fill="#F5F5F5"/>
<path d="M206.892 59.87C206.892 43.53 218.102 34.98 233.397 34.98C247.172 34.98 259.142 42.58 259.712 56.07H243.372C242.897 52.46 239.382 49.325 233.397 49.325C227.697 49.325 223.137 52.935 223.137 59.87C223.137 66.9 227.697 70.605 233.397 70.605C239.382 70.605 242.897 67.47 243.372 63.86H259.712C259.142 77.35 247.172 84.95 233.397 84.95C218.102 84.95 206.892 76.305 206.892 59.87Z" fill="#F5F5F5"/>
<path d="M266.97 35.93H283.215V52.175H287.49L296.705 39.825C299.08 36.595 302.975 35.93 307.25 35.93H315.99V50.275H308.295L302.405 57.875L316.37 84H298.795L289.58 66.52H283.215V84H266.97V35.93Z" fill="#F5F5F5"/>
<path d="M348.981 35.93H399.236V84H382.991V50.275H365.226V84H348.981V35.93Z" fill="#F5F5F5"/>
<path d="M406.448 59.87C406.448 42.865 418.703 34.98 433.808 34.98C448.723 34.98 461.073 42.865 461.073 59.87C461.073 77.065 448.723 84.95 433.808 84.95C418.703 84.95 406.448 77.065 406.448 59.87ZM422.693 59.87C422.693 67.09 427.158 70.605 433.808 70.605C440.268 70.605 444.733 67.09 444.733 59.87C444.733 52.745 440.268 49.325 433.808 49.325C427.158 49.325 422.693 52.745 422.693 59.87Z" fill="#F5F5F5"/>
<path d="M491.892 59.87C491.892 43.53 503.102 34.98 518.397 34.98C532.172 34.98 544.142 42.58 544.712 56.07H528.372C527.897 52.46 524.382 49.325 518.397 49.325C512.697 49.325 508.137 52.935 508.137 59.87C508.137 66.9 512.697 70.605 518.397 70.605C524.382 70.605 527.897 67.47 528.372 63.86H544.712C544.142 77.35 532.172 84.95 518.397 84.95C503.102 84.95 491.892 76.305 491.892 59.87Z" fill="#F5F5F5"/>
<path d="M550.07 70.89C550.07 62.53 554.915 57.59 569.64 56.07L584.27 54.455C584.27 49.42 581.42 47.425 575.91 47.425C570.02 47.425 566.695 49.895 566.505 54.17H551.21C551.495 41.535 562.135 34.98 575.34 34.98C588.64 34.98 600.61 40.965 600.61 54.835V69.655H607.545V84H596.525C591.87 84 589.115 81.34 589.115 76.685V76.21L591.68 70.415H587.69C585.885 78.205 581.325 84.95 567.835 84.95C552.635 84.95 550.07 75.83 550.07 70.89ZM566.03 68.135C566.03 71.27 568.88 72.03 572.015 72.03C578.76 72.03 584.27 68.42 584.27 62.625L572.68 64.335C568.405 65 566.03 65.475 566.03 68.135Z" fill="#F5F5F5"/>
<path d="M671.426 84H656.131V48.565L659.266 39.92H655.181L643.401 84H613.571V35.93H628.771V70.89L625.731 79.915H629.721L641.596 35.93H671.426V84ZM625.161 12.085H637.321C637.321 18.735 639.506 20.255 642.926 20.255C646.251 20.255 648.531 18.735 648.531 12.085H660.691C660.691 21.585 656.226 31.37 642.926 31.37C629.531 31.37 625.161 21.585 625.161 12.085Z" fill="#F5F5F5"/>
<path d="M678.093 35.93H730.628V50.275H712.483V84H696.238V50.275H678.093V35.93Z" fill="#F5F5F5"/>
<path d="M775.026 35.93H793.551L771.416 80.77V95.97C771.416 101.48 768.376 104.235 763.246 104.235H738.736V89.415H755.076V80.77L732.941 35.93H751.276L761.251 60.725V68.99H765.241V60.725L775.026 35.93Z" fill="#F5F5F5"/>
<path fill-rule="evenodd" clip-rule="evenodd" d="M0.415039 5.02496H84.835V28.6513C91.671 24.6124 99.6191 22.98 107.338 22.98C115.035 22.98 122.983 24.6356 129.818 28.707V23.93H211.673V28.5083C218.174 24.6475 225.766 22.98 233.397 22.98C240.882 22.98 248.459 24.6928 254.97 28.4144V23.93H295.215V26.1411C299.757 24.1228 304.373 23.93 307.25 23.93H327.99V62.275H318.364L336.391 96H254.97V91.5156C248.459 95.2371 240.882 96.95 233.397 96.95C225.756 96.95 218.167 95.2637 211.673 91.3841V96H129.818V91.21C122.979 95.2972 115.028 96.95 107.338 96.95C99.6266 96.95 91.6758 95.3204 84.835 91.2658V96H43.545V44.13H41.705V96H0.415039V5.02496ZM29.705 32.13H55.545V84H72.835V17.025H12.415V84H29.705V32.13ZM84.835 75.6005C89.775 81.9452 98.0134 84.95 107.338 84.95C116.603 84.95 124.878 81.9072 129.818 75.4802C132.831 71.561 134.603 66.3835 134.603 59.87C134.603 53.4285 132.831 48.2956 129.818 44.4042C124.878 38.0227 116.603 34.98 107.338 34.98C98.0134 34.98 89.775 37.9847 84.835 44.2847C81.7726 48.1903 79.9779 53.3623 79.9779 59.87C79.9779 66.4503 81.7726 71.6672 84.835 75.6005ZM171.648 84L183.428 39.92H187.513L184.378 48.565V84H199.673V35.93H169.843L157.968 79.915H153.978L157.018 70.89V35.93H141.818V84H171.648ZM211.673 75.6116C216.356 81.7737 224.126 84.95 233.397 84.95C242.127 84.95 250.132 81.8974 254.97 76.2275C255.073 76.1062 255.175 75.9837 255.276 75.86C257.081 73.6397 258.412 71.0348 259.129 68.07C259.451 66.7385 259.65 65.3344 259.712 63.86H243.372C243.166 65.4248 242.389 66.9003 241.087 68.07C239.386 69.5987 236.788 70.605 233.397 70.605C227.697 70.605 223.137 66.9 223.137 59.87C223.137 52.935 227.697 49.325 233.397 49.325C236.788 49.325 239.386 50.3312 241.087 51.86C242.389 53.0296 243.166 54.5052 243.372 56.07H259.712C259.65 54.5955 259.451 53.1914 259.129 51.86C258.412 48.8951 257.081 46.2902 255.276 44.07C255.175 43.9463 255.073 43.8237 254.97 43.7024C250.132 38.0325 242.127 34.98 233.397 34.98C224.126 34.98 216.356 38.1213 211.673 44.2347C208.631 48.2071 206.892 53.4343 206.892 59.87C206.892 66.343 208.631 71.6076 211.673 75.6116ZM266.97 84H283.215V66.52H289.58L298.795 84H316.37L302.405 57.875L308.295 50.275H315.99V35.93H307.25C306.13 35.93 305.037 35.9756 303.99 36.1009C301.039 36.4542 298.458 37.4408 296.705 39.825L287.49 52.175H283.215V35.93H266.97V84ZM107.257 58.9784C107.196 59.0271 107.134 59.0807 107.07 59.1398C106.806 59.3845 106.609 59.6414 106.47 59.87C106.461 59.8853 106.452 59.9005 106.443 59.9155C106.599 60.1966 106.834 60.5173 107.159 60.8123C107.192 60.842 107.224 60.8703 107.256 60.8971C107.269 60.8855 107.283 60.8735 107.296 60.8614C107.31 60.8487 107.324 60.8361 107.338 60.8233C107.66 60.5257 107.894 60.2008 108.049 59.9146C108.041 59.8999 108.032 59.885 108.023 59.87C107.878 59.6252 107.669 59.3492 107.386 59.0902C107.37 59.0755 107.354 59.0613 107.338 59.0473C107.311 59.0234 107.284 59.0004 107.257 58.9784ZM108.075 61.3858C108.075 61.3863 108.062 61.3836 108.039 61.3762C108.064 61.3815 108.076 61.3853 108.075 61.3858ZM336.981 23.93H411.236V28.6918C418.088 24.6232 426.063 22.98 433.808 22.98C443.223 22.98 453.013 25.457 460.683 31.8022C468.679 38.4179 473.073 48.1839 473.073 59.87C473.073 71.6074 468.711 81.4234 460.709 88.0822C453.03 94.4723 443.223 96.95 433.808 96.95C426.071 96.95 418.093 95.3096 411.236 91.2253V96H336.981V23.93ZM365.226 50.275H382.991V84H399.236V35.93H348.981V84H365.226V50.275ZM411.236 75.5123C416.169 81.9174 424.44 84.95 433.808 84.95C448.723 84.95 461.073 77.065 461.073 59.87C461.073 42.865 448.723 34.98 433.808 34.98C424.44 34.98 416.169 38.0125 411.236 44.3723C408.216 48.2675 406.448 53.4108 406.448 59.87C406.448 66.4013 408.216 71.5894 411.236 75.5123ZM433.727 58.9784C433.666 59.0271 433.604 59.0807 433.54 59.1398C433.275 59.3845 433.079 59.6414 432.94 59.87C432.931 59.8853 432.922 59.9005 432.913 59.9155C433.068 60.1966 433.304 60.5173 433.629 60.8123C433.661 60.842 433.694 60.8703 433.725 60.8971C433.739 60.8855 433.752 60.8735 433.766 60.8614C433.78 60.8487 433.794 60.8361 433.808 60.8233C434.129 60.5257 434.364 60.2008 434.519 59.9146C434.51 59.8999 434.502 59.885 434.493 59.87C434.348 59.6252 434.138 59.3492 433.855 59.0902C433.839 59.0755 433.823 59.0613 433.808 59.0473C433.78 59.0233 433.753 59.0004 433.727 58.9784ZM434.545 61.3858C434.544 61.3863 434.532 61.3836 434.509 61.3762C434.534 61.3816 434.545 61.3853 434.545 61.3858ZM550.727 66.17C550.535 66.7772 550.387 67.4106 550.281 68.07C550.137 68.9622 550.07 69.9022 550.07 70.89C550.07 73.1393 550.602 76.2553 552.616 78.9823C555.025 82.2444 559.556 84.95 567.835 84.95C571.374 84.95 574.298 84.4858 576.719 83.6604C577.193 83.4989 577.647 83.3235 578.083 83.1351C581.495 81.6613 583.778 79.3883 585.334 76.685C585.425 76.5281 585.513 76.3697 585.598 76.21C585.822 75.7921 586.029 75.3648 586.222 74.9294C586.855 73.4973 587.328 71.9771 587.69 70.415H591.68L589.115 76.21V76.685C589.115 77.1553 589.143 77.6053 589.198 78.0342C589.387 79.494 589.891 80.7099 590.676 81.655C590.905 81.9318 591.159 82.1853 591.437 82.415C592.37 83.1878 593.565 83.6897 594.991 83.8948C595.172 83.9208 595.357 83.942 595.545 83.9585C595.861 83.986 596.188 84 596.525 84H607.545V69.655H600.61V54.835C600.61 40.965 588.64 34.98 575.34 34.98C567.296 34.98 560.204 37.4124 555.824 42.17C555.236 42.8084 554.698 43.4887 554.212 44.2106C553.399 45.4179 552.736 46.7416 552.24 48.1804C551.843 49.3332 551.555 50.5599 551.384 51.86C551.286 52.6059 551.228 53.3759 551.21 54.17H566.505C566.518 53.8611 566.549 53.5617 566.595 53.272C566.857 51.6309 567.636 50.3001 568.895 49.325C568.91 49.3135 568.925 49.3021 568.94 49.2907C570.535 48.0769 572.884 47.425 575.91 47.425C579.711 47.425 582.246 48.3742 583.453 50.6156C583.688 51.0535 583.874 51.5408 584.008 52.08C584.182 52.7818 584.27 53.5716 584.27 54.455L569.64 56.07C568.54 56.1834 567.496 56.316 566.505 56.4676C562.484 57.0825 559.335 58.0111 556.917 59.2532C556.913 59.2556 556.908 59.2581 556.903 59.2606C556.888 59.2682 556.873 59.2759 556.858 59.2836C554.374 60.5715 552.669 62.1938 551.589 64.1506C551.453 64.3975 551.326 64.6498 551.21 64.9074C551.025 65.3149 550.865 65.7358 550.727 66.17ZM566.749 66.17C566.275 66.6521 566.03 67.2809 566.03 68.135C566.03 68.3484 566.043 68.5509 566.069 68.7429C566.419 71.3699 569.093 72.03 572.015 72.03C572.573 72.03 573.122 72.0053 573.66 71.9567C573.708 71.9524 573.755 71.948 573.802 71.9433C573.822 71.9414 573.842 71.9393 573.862 71.9373C575.142 71.8071 576.357 71.5412 577.476 71.1507C577.788 71.0419 578.092 70.9234 578.388 70.7955C579.51 70.311 580.514 69.691 581.361 68.9485C582.118 68.2852 582.75 67.5241 583.229 66.6744C583.235 66.6632 583.242 66.6519 583.248 66.6407C583.905 65.463 584.27 64.1163 584.27 62.625L572.68 64.335C572.453 64.3703 572.231 64.4051 572.015 64.4397C571.51 64.5204 571.035 64.6002 570.591 64.6835C570.57 64.6872 570.55 64.691 570.53 64.6949C568.761 65.0297 567.481 65.4247 566.749 66.17ZM547.175 33.8495C548.423 32.5182 549.798 31.2963 551.289 30.1927C558.233 25.0508 566.918 22.98 575.34 22.98C583.549 22.98 592.517 24.7916 599.803 29.8472C600.41 30.2681 601 30.7083 601.571 31.1674V23.93H614.979C613.635 19.862 613.161 15.7409 613.161 12.085V0.0849609H672.691V12.085C672.691 15.7581 672.206 19.8747 670.857 23.93H759.383L763.158 33.3133L766.861 23.93H812.857L783.416 83.5704V95.97C783.416 100.883 782.023 106.444 777.667 110.726C773.35 114.97 767.871 116.235 763.246 116.235H726.736V77.415H740.037L732.564 62.275H724.483V96H684.238V62.275H683.426V96H596.525C592.93 96 588.953 95.1715 585.435 92.8769C580.409 95.6804 574.451 96.95 567.835 96.95C558.057 96.95 550.127 94.018 544.745 88.2536C544.403 88.531 544.055 88.802 543.703 89.0666C536.463 94.4917 527.364 96.95 518.397 96.95C508.577 96.95 498.843 94.1648 491.41 87.5183C483.786 80.7012 479.892 70.9828 479.892 59.87C479.892 48.7795 483.805 39.0953 491.448 32.3186C498.886 25.7231 508.609 22.98 518.397 22.98C527.364 22.98 536.463 25.4382 543.703 30.8634C544.928 31.7818 546.089 32.7785 547.175 33.8495ZM538.879 77.4091C539.371 76.9157 539.838 76.3992 540.276 75.86C541.485 74.3733 542.481 72.7141 543.222 70.89C543.588 69.9899 543.892 69.0496 544.129 68.07C544.278 67.4522 544.401 66.8188 544.496 66.17C544.606 65.4204 544.679 64.6503 544.712 63.86H528.372C528.166 65.4248 527.389 66.9003 526.087 68.07C524.386 69.5987 521.788 70.605 518.397 70.605C512.697 70.605 508.137 66.9 508.137 59.87C508.137 52.935 512.697 49.325 518.397 49.325C521.788 49.325 524.386 50.3312 526.087 51.86C527.389 53.0296 528.166 54.5052 528.372 56.07H544.712C544.682 55.3705 544.622 54.6869 544.533 54.0193C544.518 53.913 544.503 53.8072 544.488 53.7017C544.394 53.0732 544.274 52.4592 544.129 51.86C543.477 49.1644 542.318 46.7664 540.756 44.6844C540.6 44.4764 540.44 44.2716 540.276 44.07C535.474 38.1646 527.314 34.98 518.397 34.98C503.102 34.98 491.892 43.53 491.892 59.87C491.892 76.305 503.102 84.95 518.397 84.95C526.5 84.95 533.978 82.3203 538.879 77.4091ZM643.401 84L655.181 39.92H659.266L656.131 48.565V84H671.426V35.93H641.596L629.721 79.915H625.731L628.771 70.89V35.93H613.571V84H643.401ZM659.489 20.0845C660.325 17.5525 660.691 14.8071 660.691 12.085H648.531C648.531 13.9 648.362 15.3329 648.047 16.457C647.209 19.4515 645.344 20.255 642.926 20.255C640.449 20.255 638.62 19.4575 637.8 16.4906C637.487 15.3615 637.321 13.9181 637.321 12.085H625.161C625.161 14.8087 625.521 17.5558 626.349 20.0891C626.791 21.4425 627.367 22.7349 628.094 23.93C628.126 23.9818 628.158 24.0335 628.19 24.085C628.374 24.3806 628.568 24.6702 628.771 24.953C629.509 25.9788 630.374 26.9165 631.378 27.7395C633.708 29.649 636.787 30.9406 640.771 31.2806C641.042 31.3038 641.317 31.3225 641.596 31.3367C642.029 31.3587 642.473 31.37 642.926 31.37C643.668 31.37 644.382 31.3396 645.069 31.2805C648.902 30.951 651.905 29.73 654.208 27.92C655.592 26.8324 656.724 25.5322 657.631 24.085C657.664 24.0335 657.696 23.9818 657.727 23.93C658.46 22.7335 659.041 21.4395 659.489 20.0845ZM696.238 50.275V84H712.483V50.275H730.628V35.93H678.093V50.275H696.238ZM755.076 80.77V89.415H738.736V104.235H763.246C768.376 104.235 771.416 101.48 771.416 95.97V80.77L793.551 35.93H775.026L765.241 60.725V68.99H761.251V60.725L751.276 35.93H732.941L755.076 80.77ZM107.338 70.605C100.688 70.605 96.2229 67.09 96.2229 59.87C96.2229 52.745 100.688 49.325 107.338 49.325C113.798 49.325 118.263 52.745 118.263 59.87C118.263 67.09 113.798 70.605 107.338 70.605ZM433.808 70.605C427.158 70.605 422.693 67.09 422.693 59.87C422.693 52.745 427.158 49.325 433.808 49.325C440.268 49.325 444.733 52.745 444.733 59.87C444.733 67.09 440.268 70.605 433.808 70.605Z" fill="#F5F5F5"/>
</svg>
