<svg width="606" height="87" viewBox="0 0 606 87" fill="none" xmlns="http://www.w3.org/2000/svg">
<path fill-rule="evenodd" clip-rule="evenodd" d="M504 7C504 3.13401 500.866 0 497 0H466C462.134 0 459 3.13401 459 7V18L386 18C371.088 18 359 30.0883 359 45C359 59.9117 371.088 72 386 72L543 72V80C543 83.866 546.134 87 550 87H581C584.866 87 588 83.866 588 80V60.4946L604.637 27.9352C607.017 23.2776 603.635 17.75 598.404 17.75L554.596 17.75C553.937 17.75 553.308 17.8376 552.716 18L504 18V7ZM0 11C0 7.13401 3.13401 4 7 4H56C59.866 4 63 7.13401 63 11V18.0709C63.3266 18.0242 63.6605 18 64 18H240C243.866 18 247 21.134 247 25V65C247 68.866 243.866 72 240 72H64C62.5128 72 61.1338 71.5362 60 70.7453C58.8662 71.5362 57.4872 72 56 72H7C3.13401 72 0 68.866 0 65V11ZM260 18C256.134 18 253 21.134 253 25V65C253 68.866 256.134 72 260 72H328C342.912 72 355 59.9117 355 45C355 30.0883 342.912 18 328 18H260Z" fill="#080808"/>
</svg>
