<svg width="441" height="152" viewBox="0 0 441 152" fill="none" xmlns="http://www.w3.org/2000/svg">
<path fill-rule="evenodd" clip-rule="evenodd" d="M21 0C9.40202 0 0 9.40202 0 21V74V81V145C0 148.866 3.13401 152 7 152H35C38.866 152 42 148.866 42 145V138C47.949 138 53.4647 136.145 58 132.981C62.5353 136.145 68.051 138 74 138H82C88.1694 138 93.8727 136.005 98.5 132.624C103.127 136.005 108.831 138 115 138H117H123H287H292H295C310.464 138 323 125.464 323 110V109C323 99.4733 318.242 91.0577 310.973 86H315C318.866 86 322 82.866 322 79V77H383H391H434C437.866 77 441 73.866 441 70V20C441 16.134 437.866 13 434 13H404C397.607 13 391.713 15.1429 387 18.7496C382.287 15.1429 376.394 13 370 13H315H281H235C231.67 13 228.475 13.5814 225.512 14.6483C224.294 13.6199 222.719 13 221 13H174C171.516 13 169.335 14.2933 168.092 16.2432C164.186 14.1727 159.73 13 155 13H147C141.051 13 135.535 14.8553 131 18.0188C126.465 14.8553 120.949 13 115 13H66V7C66 3.13401 62.866 0 59 0H21ZM94.6229 77C95.9828 77.688 97.2788 78.4836 98.5 79.3757C99.7212 78.4836 101.017 77.688 102.377 77H94.6229Z" fill="white"/>
</svg>
