<svg width="795" height="112" viewBox="0 0 795 112" fill="none" xmlns="http://www.w3.org/2000/svg">
<mask id="path-1-outside-1_233_1519" maskUnits="userSpaceOnUse" x="0.375" y="0.0250244" width="794" height="112" fill="black">
<rect fill="white" x="0.375" y="0.0250244" width="794" height="112"/>
<path d="M12.375 12.025H72.7V27.13H51.135V79H33.94V27.13H12.375V12.025Z"/>
<path d="M110.521 30.93H129.046L106.911 75.77V90.97C106.911 96.48 103.871 99.235 98.7411 99.235H74.2311V84.415H90.5711V75.77L68.4361 30.93H86.7711L96.7461 55.725V63.99H100.736V55.725L110.521 30.93Z"/>
<path d="M179.2 30.93V79H162.86V45.275H152.03C151.27 66.65 147.28 79 126.57 79V64.655C134.835 64.655 135.975 57.72 135.975 30.93H179.2Z"/>
<path d="M213.725 40.715C224.935 40.715 237.38 43.945 237.38 59.905C237.38 75.865 224.935 79 213.725 79H187.03V30.93H203.275V40.715H213.725ZM203.275 65.51H212.775C218.855 65.51 221.04 64.845 221.04 59.905C221.04 55.06 218.855 54.3 212.775 54.3H203.275V65.51Z"/>
<path d="M242.27 54.87C242.27 38.53 253.48 29.98 268.775 29.98C282.55 29.98 294.52 37.58 295.09 51.07H278.75C278.275 47.46 274.76 44.325 268.775 44.325C263.075 44.325 258.515 47.935 258.515 54.87C258.515 61.9 263.075 65.605 268.775 65.605C274.76 65.605 278.275 62.47 278.75 58.86H295.09C294.52 72.35 282.55 79.95 268.775 79.95C253.48 79.95 242.27 71.305 242.27 54.87Z"/>
<path d="M302.348 30.93H318.593V47.175H322.868L332.083 34.825C334.458 31.595 338.353 30.93 342.628 30.93H351.368V45.275H343.673L337.783 52.875L351.748 79H334.173L324.958 61.52H318.593V79H302.348V30.93Z"/>
<path d="M355.741 65.89C355.741 57.53 360.586 52.59 375.311 51.07L389.941 49.455C389.941 44.42 387.091 42.425 381.581 42.425C375.691 42.425 372.366 44.895 372.176 49.17H356.881C357.166 36.535 367.806 29.98 381.011 29.98C394.311 29.98 406.281 35.965 406.281 49.835V64.655H413.216V79H402.196C397.541 79 394.786 76.34 394.786 71.685V71.21L397.351 65.415H393.361C391.556 73.205 386.996 79.95 373.506 79.95C358.306 79.95 355.741 70.83 355.741 65.89ZM371.701 63.135C371.701 66.27 374.551 67.03 377.686 67.03C384.431 67.03 389.941 63.42 389.941 57.625L378.351 59.335C374.076 60 371.701 60.475 371.701 63.135Z"/>
<path d="M464.745 79H448.405V60.285H444.13L434.535 73.68C431.685 77.385 428.93 79 424.465 79H417.625V65.795H424.655L429.12 59.715C423.515 58.67 418.1 55.44 418.1 46.225C418.1 34.255 427.505 30.93 436.435 30.93H464.745V79ZM434.345 45.56C434.345 48.22 435.865 50.215 440.71 50.215H448.405V40.905H440.71C435.865 40.905 434.345 42.9 434.345 45.56Z"/>
<path d="M497.861 54.87C497.861 38.53 509.071 29.98 524.366 29.98C538.141 29.98 550.111 37.58 550.681 51.07H534.341C533.866 47.46 530.351 44.325 524.366 44.325C518.666 44.325 514.106 47.935 514.106 54.87C514.106 61.9 518.666 65.605 524.366 65.605C530.351 65.605 533.866 62.47 534.341 58.86H550.681C550.111 72.35 538.141 79.95 524.366 79.95C509.071 79.95 497.861 71.305 497.861 54.87Z"/>
<path d="M553.529 30.93H606.064V45.275H587.919V79H571.674V45.275H553.529V30.93Z"/>
<path d="M609.105 65.89C609.105 57.53 613.95 52.59 628.675 51.07L643.305 49.455C643.305 44.42 640.455 42.425 634.945 42.425C629.055 42.425 625.73 44.895 625.54 49.17H610.245C610.53 36.535 621.17 29.98 634.375 29.98C647.675 29.98 659.645 35.965 659.645 49.835V64.655H666.58V79H655.56C650.905 79 648.15 76.34 648.15 71.685V71.21L650.715 65.415H646.725C644.92 73.205 640.36 79.95 626.87 79.95C611.67 79.95 609.105 70.83 609.105 65.89ZM625.065 63.135C625.065 66.27 627.915 67.03 631.05 67.03C637.795 67.03 643.305 63.42 643.305 57.625L631.715 59.335C627.44 60 625.065 60.475 625.065 63.135Z"/>
<path d="M723.966 30.93V79H707.626V45.275H696.796C696.036 66.65 692.046 79 671.336 79V64.655C679.601 64.655 680.741 57.72 680.741 30.93H723.966Z"/>
<path d="M758.491 40.715C769.701 40.715 782.146 43.945 782.146 59.905C782.146 75.865 769.701 79 758.491 79H731.796V30.93H748.041V40.715H758.491ZM748.041 65.51H757.541C763.621 65.51 765.806 64.845 765.806 59.905C765.806 55.06 763.621 54.3 757.541 54.3H748.041V65.51Z"/>
</mask>
<path d="M12.375 12.025H72.7V27.13H51.135V79H33.94V27.13H12.375V12.025Z" fill="black"/>
<path d="M110.521 30.93H129.046L106.911 75.77V90.97C106.911 96.48 103.871 99.235 98.7411 99.235H74.2311V84.415H90.5711V75.77L68.4361 30.93H86.7711L96.7461 55.725V63.99H100.736V55.725L110.521 30.93Z" fill="black"/>
<path d="M179.2 30.93V79H162.86V45.275H152.03C151.27 66.65 147.28 79 126.57 79V64.655C134.835 64.655 135.975 57.72 135.975 30.93H179.2Z" fill="black"/>
<path d="M213.725 40.715C224.935 40.715 237.38 43.945 237.38 59.905C237.38 75.865 224.935 79 213.725 79H187.03V30.93H203.275V40.715H213.725ZM203.275 65.51H212.775C218.855 65.51 221.04 64.845 221.04 59.905C221.04 55.06 218.855 54.3 212.775 54.3H203.275V65.51Z" fill="black"/>
<path d="M242.27 54.87C242.27 38.53 253.48 29.98 268.775 29.98C282.55 29.98 294.52 37.58 295.09 51.07H278.75C278.275 47.46 274.76 44.325 268.775 44.325C263.075 44.325 258.515 47.935 258.515 54.87C258.515 61.9 263.075 65.605 268.775 65.605C274.76 65.605 278.275 62.47 278.75 58.86H295.09C294.52 72.35 282.55 79.95 268.775 79.95C253.48 79.95 242.27 71.305 242.27 54.87Z" fill="black"/>
<path d="M302.348 30.93H318.593V47.175H322.868L332.083 34.825C334.458 31.595 338.353 30.93 342.628 30.93H351.368V45.275H343.673L337.783 52.875L351.748 79H334.173L324.958 61.52H318.593V79H302.348V30.93Z" fill="black"/>
<path d="M355.741 65.89C355.741 57.53 360.586 52.59 375.311 51.07L389.941 49.455C389.941 44.42 387.091 42.425 381.581 42.425C375.691 42.425 372.366 44.895 372.176 49.17H356.881C357.166 36.535 367.806 29.98 381.011 29.98C394.311 29.98 406.281 35.965 406.281 49.835V64.655H413.216V79H402.196C397.541 79 394.786 76.34 394.786 71.685V71.21L397.351 65.415H393.361C391.556 73.205 386.996 79.95 373.506 79.95C358.306 79.95 355.741 70.83 355.741 65.89ZM371.701 63.135C371.701 66.27 374.551 67.03 377.686 67.03C384.431 67.03 389.941 63.42 389.941 57.625L378.351 59.335C374.076 60 371.701 60.475 371.701 63.135Z" fill="black"/>
<path d="M464.745 79H448.405V60.285H444.13L434.535 73.68C431.685 77.385 428.93 79 424.465 79H417.625V65.795H424.655L429.12 59.715C423.515 58.67 418.1 55.44 418.1 46.225C418.1 34.255 427.505 30.93 436.435 30.93H464.745V79ZM434.345 45.56C434.345 48.22 435.865 50.215 440.71 50.215H448.405V40.905H440.71C435.865 40.905 434.345 42.9 434.345 45.56Z" fill="black"/>
<path d="M497.861 54.87C497.861 38.53 509.071 29.98 524.366 29.98C538.141 29.98 550.111 37.58 550.681 51.07H534.341C533.866 47.46 530.351 44.325 524.366 44.325C518.666 44.325 514.106 47.935 514.106 54.87C514.106 61.9 518.666 65.605 524.366 65.605C530.351 65.605 533.866 62.47 534.341 58.86H550.681C550.111 72.35 538.141 79.95 524.366 79.95C509.071 79.95 497.861 71.305 497.861 54.87Z" fill="black"/>
<path d="M553.529 30.93H606.064V45.275H587.919V79H571.674V45.275H553.529V30.93Z" fill="black"/>
<path d="M609.105 65.89C609.105 57.53 613.95 52.59 628.675 51.07L643.305 49.455C643.305 44.42 640.455 42.425 634.945 42.425C629.055 42.425 625.73 44.895 625.54 49.17H610.245C610.53 36.535 621.17 29.98 634.375 29.98C647.675 29.98 659.645 35.965 659.645 49.835V64.655H666.58V79H655.56C650.905 79 648.15 76.34 648.15 71.685V71.21L650.715 65.415H646.725C644.92 73.205 640.36 79.95 626.87 79.95C611.67 79.95 609.105 70.83 609.105 65.89ZM625.065 63.135C625.065 66.27 627.915 67.03 631.05 67.03C637.795 67.03 643.305 63.42 643.305 57.625L631.715 59.335C627.44 60 625.065 60.475 625.065 63.135Z" fill="black"/>
<path d="M723.966 30.93V79H707.626V45.275H696.796C696.036 66.65 692.046 79 671.336 79V64.655C679.601 64.655 680.741 57.72 680.741 30.93H723.966Z" fill="black"/>
<path d="M758.491 40.715C769.701 40.715 782.146 43.945 782.146 59.905C782.146 75.865 769.701 79 758.491 79H731.796V30.93H748.041V40.715H758.491ZM748.041 65.51H757.541C763.621 65.51 765.806 64.845 765.806 59.905C765.806 55.06 763.621 54.3 757.541 54.3H748.041V65.51Z" fill="black"/>
<path d="M12.375 12.025H72.7V27.13H51.135V79H33.94V27.13H12.375V12.025Z" stroke="black" stroke-width="24" mask="url(#path-1-outside-1_233_1519)"/>
<path d="M110.521 30.93H129.046L106.911 75.77V90.97C106.911 96.48 103.871 99.235 98.7411 99.235H74.2311V84.415H90.5711V75.77L68.4361 30.93H86.7711L96.7461 55.725V63.99H100.736V55.725L110.521 30.93Z" stroke="black" stroke-width="24" mask="url(#path-1-outside-1_233_1519)"/>
<path d="M179.2 30.93V79H162.86V45.275H152.03C151.27 66.65 147.28 79 126.57 79V64.655C134.835 64.655 135.975 57.72 135.975 30.93H179.2Z" stroke="black" stroke-width="24" mask="url(#path-1-outside-1_233_1519)"/>
<path d="M213.725 40.715C224.935 40.715 237.38 43.945 237.38 59.905C237.38 75.865 224.935 79 213.725 79H187.03V30.93H203.275V40.715H213.725ZM203.275 65.51H212.775C218.855 65.51 221.04 64.845 221.04 59.905C221.04 55.06 218.855 54.3 212.775 54.3H203.275V65.51Z" stroke="black" stroke-width="24" mask="url(#path-1-outside-1_233_1519)"/>
<path d="M242.27 54.87C242.27 38.53 253.48 29.98 268.775 29.98C282.55 29.98 294.52 37.58 295.09 51.07H278.75C278.275 47.46 274.76 44.325 268.775 44.325C263.075 44.325 258.515 47.935 258.515 54.87C258.515 61.9 263.075 65.605 268.775 65.605C274.76 65.605 278.275 62.47 278.75 58.86H295.09C294.52 72.35 282.55 79.95 268.775 79.95C253.48 79.95 242.27 71.305 242.27 54.87Z" stroke="black" stroke-width="24" mask="url(#path-1-outside-1_233_1519)"/>
<path d="M302.348 30.93H318.593V47.175H322.868L332.083 34.825C334.458 31.595 338.353 30.93 342.628 30.93H351.368V45.275H343.673L337.783 52.875L351.748 79H334.173L324.958 61.52H318.593V79H302.348V30.93Z" stroke="black" stroke-width="24" mask="url(#path-1-outside-1_233_1519)"/>
<path d="M355.741 65.89C355.741 57.53 360.586 52.59 375.311 51.07L389.941 49.455C389.941 44.42 387.091 42.425 381.581 42.425C375.691 42.425 372.366 44.895 372.176 49.17H356.881C357.166 36.535 367.806 29.98 381.011 29.98C394.311 29.98 406.281 35.965 406.281 49.835V64.655H413.216V79H402.196C397.541 79 394.786 76.34 394.786 71.685V71.21L397.351 65.415H393.361C391.556 73.205 386.996 79.95 373.506 79.95C358.306 79.95 355.741 70.83 355.741 65.89ZM371.701 63.135C371.701 66.27 374.551 67.03 377.686 67.03C384.431 67.03 389.941 63.42 389.941 57.625L378.351 59.335C374.076 60 371.701 60.475 371.701 63.135Z" stroke="black" stroke-width="24" mask="url(#path-1-outside-1_233_1519)"/>
<path d="M464.745 79H448.405V60.285H444.13L434.535 73.68C431.685 77.385 428.93 79 424.465 79H417.625V65.795H424.655L429.12 59.715C423.515 58.67 418.1 55.44 418.1 46.225C418.1 34.255 427.505 30.93 436.435 30.93H464.745V79ZM434.345 45.56C434.345 48.22 435.865 50.215 440.71 50.215H448.405V40.905H440.71C435.865 40.905 434.345 42.9 434.345 45.56Z" stroke="black" stroke-width="24" mask="url(#path-1-outside-1_233_1519)"/>
<path d="M497.861 54.87C497.861 38.53 509.071 29.98 524.366 29.98C538.141 29.98 550.111 37.58 550.681 51.07H534.341C533.866 47.46 530.351 44.325 524.366 44.325C518.666 44.325 514.106 47.935 514.106 54.87C514.106 61.9 518.666 65.605 524.366 65.605C530.351 65.605 533.866 62.47 534.341 58.86H550.681C550.111 72.35 538.141 79.95 524.366 79.95C509.071 79.95 497.861 71.305 497.861 54.87Z" stroke="black" stroke-width="24" mask="url(#path-1-outside-1_233_1519)"/>
<path d="M553.529 30.93H606.064V45.275H587.919V79H571.674V45.275H553.529V30.93Z" stroke="black" stroke-width="24" mask="url(#path-1-outside-1_233_1519)"/>
<path d="M609.105 65.89C609.105 57.53 613.95 52.59 628.675 51.07L643.305 49.455C643.305 44.42 640.455 42.425 634.945 42.425C629.055 42.425 625.73 44.895 625.54 49.17H610.245C610.53 36.535 621.17 29.98 634.375 29.98C647.675 29.98 659.645 35.965 659.645 49.835V64.655H666.58V79H655.56C650.905 79 648.15 76.34 648.15 71.685V71.21L650.715 65.415H646.725C644.92 73.205 640.36 79.95 626.87 79.95C611.67 79.95 609.105 70.83 609.105 65.89ZM625.065 63.135C625.065 66.27 627.915 67.03 631.05 67.03C637.795 67.03 643.305 63.42 643.305 57.625L631.715 59.335C627.44 60 625.065 60.475 625.065 63.135Z" stroke="black" stroke-width="24" mask="url(#path-1-outside-1_233_1519)"/>
<path d="M723.966 30.93V79H707.626V45.275H696.796C696.036 66.65 692.046 79 671.336 79V64.655C679.601 64.655 680.741 57.72 680.741 30.93H723.966Z" stroke="black" stroke-width="24" mask="url(#path-1-outside-1_233_1519)"/>
<path d="M758.491 40.715C769.701 40.715 782.146 43.945 782.146 59.905C782.146 75.865 769.701 79 758.491 79H731.796V30.93H748.041V40.715H758.491ZM748.041 65.51H757.541C763.621 65.51 765.806 64.845 765.806 59.905C765.806 55.06 763.621 54.3 757.541 54.3H748.041V65.51Z" stroke="black" stroke-width="24" mask="url(#path-1-outside-1_233_1519)"/>
</svg>
