<svg width="574" height="91" viewBox="0 0 574 91" fill="none" xmlns="http://www.w3.org/2000/svg">
<path fill-rule="evenodd" clip-rule="evenodd" d="M7 0C3.13401 0 0 3.13401 0 7V34C0 37.866 3.13401 41 7 41H15V70C15 73.866 18.134 77 22 77H44V84C44 87.866 47.134 91 51 91H77C85.9553 91 93.5359 85.1142 96.0844 77H162C167.732 77 173.062 75.2776 177.5 72.3221C181.938 75.2776 187.268 77 193 77H293H301H343C346.866 77 350 73.866 350 70V66.3224C355.127 72.8253 363.076 77 372 77H381C386.358 77 391.365 75.495 395.62 72.8846C396.719 75.3116 399.162 77 402 77H432H480H537H546H547C547.337 77 547.668 76.9762 547.992 76.9302C562.526 75.9085 574 63.7942 574 49V48C574 33.8941 563.569 22.2245 550 20.2836V20C550 16.134 546.866 13 543 13H478C475.517 13 473.335 14.2933 472.092 16.2432C468.185 14.1727 463.73 13 459 13H441.2H395H381H374H372C363.076 13 355.127 17.1747 350 23.6776V20C350 16.134 346.866 13 343 13H314C307.607 13 301.713 15.1429 297 18.7496C292.287 15.1429 286.394 13 280 13H193C185.371 13 178.454 16.0513 173.404 21H166V20C166 16.134 162.866 13 159 13H72V7C72 3.13401 68.866 0 65 0H7Z" fill="white"/>
</svg>
