<svg width="31" height="38" viewBox="0 0 31 38" fill="none" xmlns="http://www.w3.org/2000/svg">
<path d="M15.4998 17.5498C16.1998 17.5498 16.7998 17.2998 17.2998 16.7998C17.7998 16.2998 18.0498 15.6998 18.0498 14.9998C18.0498 14.2998 17.7998 13.6998 17.2998 13.1998C16.7998 12.6998 16.1998 12.4498 15.4998 12.4498C14.7998 12.4498 14.1998 12.6998 13.6998 13.1998C13.1998 13.6998 12.9498 14.2998 12.9498 14.9998C12.9498 15.6998 13.1998 16.2998 13.6998 16.7998C14.1998 17.2998 14.7998 17.5498 15.4998 17.5498ZM15.4998 36.4498C19.7998 32.7498 23.1415 28.9665 25.5248 25.0998C27.9081 21.2331 29.0998 17.9998 29.0998 15.3998C29.0998 11.2998 27.7915 7.94147 25.1748 5.3248C22.5581 2.70814 19.3331 1.3998 15.4998 1.3998C11.6665 1.3998 8.44147 2.70814 5.8248 5.3248C3.20814 7.94147 1.8998 11.2998 1.8998 15.3998C1.8998 17.9998 3.0998 21.2331 5.4998 25.0998C7.8998 28.9665 11.2331 32.7498 15.4998 36.4498ZM15.4998 37.9998C10.5331 33.5331 6.84147 29.3915 4.4248 25.5748C2.00814 21.7581 0.799805 18.3665 0.799805 15.3998C0.799805 10.7998 2.28314 7.13314 5.2498 4.3998C8.21647 1.66647 11.6331 0.299805 15.4998 0.299805C19.3665 0.299805 22.7831 1.66647 25.7498 4.3998C28.7165 7.13314 30.1998 10.7998 30.1998 15.3998C30.1998 18.3665 28.9915 21.7581 26.5748 25.5748C24.1581 29.3915 20.4665 33.5331 15.4998 37.9998Z" fill="#080808"/>
</svg>
