<svg width="48" height="48" viewBox="0 0 48 48" fill="none" xmlns="http://www.w3.org/2000/svg">
<path d="M23.9998 22.55C24.6998 22.55 25.2998 22.3 25.7998 21.8C26.2998 21.3 26.5498 20.7 26.5498 20C26.5498 19.3 26.2998 18.7 25.7998 18.2C25.2998 17.7 24.6998 17.45 23.9998 17.45C23.2998 17.45 22.6998 17.7 22.1998 18.2C21.6998 18.7 21.4498 19.3 21.4498 20C21.4498 20.7 21.6998 21.3 22.1998 21.8C22.6998 22.3 23.2998 22.55 23.9998 22.55ZM23.9998 41.4501C28.2998 37.75 31.6415 33.9667 34.0248 30.1C36.4081 26.2334 37.5998 23 37.5998 20.4C37.5998 16.3 36.2915 12.9417 33.6748 10.325C31.0581 7.70838 27.8331 6.40005 23.9998 6.40005C20.1665 6.40005 16.9415 7.70838 14.3248 10.325C11.7081 12.9417 10.3998 16.3 10.3998 20.4C10.3998 23 11.5998 26.2334 13.9998 30.1C16.3998 33.9667 19.7331 37.75 23.9998 41.4501ZM23.9998 43C19.0331 38.5334 15.3415 34.3917 12.9248 30.5751C10.5081 26.7584 9.2998 23.3667 9.2998 20.4C9.2998 15.8 10.7831 12.1334 13.7498 9.40005C16.7165 6.66671 20.1331 5.30005 23.9998 5.30005C27.8665 5.30005 31.2831 6.66671 34.2498 9.40005C37.2165 12.1334 38.6998 15.8 38.6998 20.4C38.6998 23.3667 37.4915 26.7584 35.0748 30.5751C32.6581 34.3917 28.9665 38.5334 23.9998 43Z" fill="white"/>
</svg>
