<svg width="510" height="79" viewBox="0 0 510 79" fill="none" xmlns="http://www.w3.org/2000/svg">
<path fill-rule="evenodd" clip-rule="evenodd" d="M372.5 2.00673C374.706 0.730457 377.268 0 380 0H382C390.199 0 396.862 6.57858 396.998 14.7454C399.778 13.6198 402.816 13 406 13H412C417.909 13 423.318 15.1351 427.5 18.6759C431.682 15.1351 437.091 13 443 13H449C452.825 13 456.441 13.8947 459.65 15.4862C460.934 13.9657 462.854 13 465 13H482H486H503C506.866 13 510 16.134 510 20V60C510 63.866 506.866 67 503 67H482C479.483 67 477.276 65.6716 476.043 63.6776C472.878 65.7771 469.082 67 465 67H449H443C437.091 67 431.682 64.8649 427.5 61.3241C423.318 64.8649 417.908 67 412 67H406C400.091 67 394.682 64.8649 390.5 61.3241C386.318 64.8649 380.909 67 375 67H369C366.968 67 364.995 66.7475 363.111 66.2723C362.174 66.7381 361.118 67 360 67H296C294.467 67 293.049 66.5071 291.896 65.671C289.423 66.5321 286.766 67 284 67H278C272.552 67 267.528 65.1848 263.5 62.1262C259.472 65.1848 254.448 67 249 67H246V72C246 75.866 242.866 79 239 79H221C217.134 79 214 75.866 214 72V66H196C194.083 66 192.291 65.4604 190.77 64.5248C187.691 66.107 184.2 67 180.5 67H178.5C173.271 67 168.459 65.2165 164.639 62.2248C163.709 65.0001 161.088 67 158 67H140C136.681 67 133.901 64.6897 133.181 61.5894C129.045 64.9713 123.759 67 118 67H115V72C115 75.866 111.866 79 108 79H90C86.134 79 83 75.866 83 72V64.8238C80.5776 65.9356 77.9382 66.656 75.1627 66.9039C74.7846 66.9671 74.3961 67 74 67H73H67H7C3.13401 67 0 63.866 0 60V39V28V8C0 4.13401 3.13401 1 7 1H27C29.3249 1 31.3852 2.13345 32.6582 3.87792C35.6758 2.05134 39.2151 1 43 1H56C59.866 1 63 4.13401 63 8V13.3318C64.3008 13.1136 65.6372 13 67 13H73C77.1097 13 80.9781 14.033 84.3598 15.8534C85.6342 14.1228 87.686 13 90 13H103H108H112H118H140H158H179.5H184H188.5C200.759 13 210.729 22.8045 210.995 35H214V20C214 16.134 217.134 13 221 13H239C239.479 13 239.946 13.048 240.397 13.1395C241.252 13.0473 242.121 13 243 13H249C254.448 13 259.472 14.8152 263.5 17.8738C267.528 14.8152 272.552 13 278 13H284C287.152 13 290.162 13.6077 292.92 14.7123C293.849 14.2561 294.895 14 296 14H348.033C348.547 6.18197 355.052 0 363 0H365C367.732 0 370.294 0.730458 372.5 2.00673Z" fill="white"/>
</svg>
