<svg width="648" height="82" viewBox="0 0 648 82" fill="none" xmlns="http://www.w3.org/2000/svg">
<path fill-rule="evenodd" clip-rule="evenodd" d="M490 17.037C492.215 16.3628 494.565 16 497 16H503C506.021 16 508.911 16.5581 511.573 17.5768C512.779 16.5912 514.321 16 516 16H641C644.866 16 648 19.134 648 23V62C648 65.866 644.866 69 641 69H544V75C544 78.866 540.866 82 537 82H519C515.134 82 512 78.866 512 75V68.2556C509.221 69.3805 506.183 70 503 70H497C490.854 70 485.246 67.6891 481 63.8889C476.754 67.6891 471.146 70 465 70H459C456.928 70 454.918 69.7375 453 69.2439V71C453 74.866 449.866 78 446 78H428C424.134 78 421 74.866 421 71V69H418V71C418 74.866 414.866 78 411 78H393C389.134 78 386 74.866 386 71V69.4785C384.388 69.8203 382.715 70 381 70H375C371.848 70 368.838 69.3923 366.08 68.2877C365.15 68.7438 364.105 69 363 69H319C316.054 69 313.533 67.1801 312.5 64.6031C311.467 67.1801 308.946 69 306 69H259C256.054 69 253.533 67.1801 252.5 64.6031C251.467 67.1801 248.946 69 246 69H200C198.253 69 196.655 68.36 195.429 67.3016C193.533 68.3825 191.339 69 189 69H122C120.53 69 119.166 68.5469 118.04 67.7728C115.165 69.1985 111.926 70 108.5 70H102.5C98.3281 70 94.4336 68.8117 91.1367 66.7551C89.8584 68.1358 88.0303 69 86 69H65C61.1338 69 58 65.866 58 62V60.2483C52.1826 66.2615 44.0273 70 35 70H32C14.3271 70 0 55.6731 0 38V35C0 17.3269 14.3271 3 32 3H35C45.5586 3 54.9229 8.11389 60.751 16H183C186.866 16 190 19.134 190 23V23.0379C191.039 23.1169 192.044 23.3181 193 23.627V23C193 19.134 196.134 16 200 16H246C248.946 16 251.467 17.8199 252.5 20.3969C253.533 17.8199 256.054 16 259 16H306C308.946 16 311.467 17.8199 312.5 20.3969C313.533 17.8199 316.054 16 319 16H363C364.533 16 365.951 16.4929 367.104 17.329C369.577 16.4679 372.234 16 375 16H381C386.76 16 392.046 18.0287 396.182 21.4106C396.901 18.3103 399.681 16 403 16H438.552C443.3 10.3488 450.239 6.60083 458.062 6.06604C458.519 2.6416 461.45 0 465 0H483C486.866 0 490 3.13403 490 7V17.037Z" fill="white"/>
</svg>
