<svg width="1000" height="120" viewBox="0 0 1000 120" fill="none" xmlns="http://www.w3.org/2000/svg">
<path fill-rule="evenodd" clip-rule="evenodd" d="M52.1483 58.7418L53.1897 53.4654L52.1483 48.189C52.071 47.7973 51.9645 47.6029 51.9097 47.5178C51.855 47.4327 51.7682 47.3265 51.5868 47.1978C51.2176 46.9358 50.117 46.3704 47.8662 46.3704C44.9039 46.3704 43.8572 47.1822 43.5537 47.4834C43.2873 47.7478 42.1012 49.0844 42.1012 53.4654C42.1012 57.9171 43.3005 59.2783 43.5698 59.5466C43.8692 59.8448 44.9051 60.6554 47.8662 60.6554C50.0619 60.6554 51.15 60.0939 51.5315 59.82C51.7988 59.6281 52.018 59.4023 52.1483 58.7418ZM78.7102 90.3798C85.1263 85.2051 89.5814 78.3649 91.9533 70.4821V99.0004H132.198V85.762C133.051 87.4261 134.146 89.0908 135.545 90.6854C140.93 96.8255 149.055 99.9504 159.149 99.9504C165.765 99.9504 171.723 98.6808 176.749 95.8774C180.267 98.172 184.244 99.0004 187.839 99.0004H244.269V65.2754H245.117V99.0004H283.812C288.886 99.0004 295.479 98.4818 301.709 95.9059V99.0004H383.564V26.9304H301.709V39.8437C296.105 37.5099 290.204 36.8417 285.362 36.7326V26.9304H185.879V29.8684C179.765 27.0575 172.984 25.9804 166.654 25.9804C161.142 25.9804 155.518 26.8673 150.343 28.9214V26.9304H87.725C85.3644 23.0336 82.3475 19.5602 78.6987 16.6248C70.3073 9.87413 59.4959 6.69539 47.7712 6.69539C33.963 6.69539 21.8793 11.4807 13.2347 20.2424C4.63336 28.9601 0.241211 40.7997 0.241211 53.4654C0.241211 66.1639 4.62373 78.0274 13.2267 86.7634C21.8738 95.5443 33.9624 100.33 47.7712 100.33C59.4958 100.33 70.3141 97.1515 78.7102 90.3798ZM163.994 67.3354C163.767 67.3707 163.545 67.4055 163.329 67.4401C163.545 67.4055 163.767 67.3707 163.994 67.3354ZM165.177 74.9377L165.117 74.9438C165.069 74.9484 165.022 74.9529 164.975 74.9571C165.042 74.951 165.109 74.9446 165.177 74.9377ZM394.946 99.0004H476.801V26.9304H394.946V99.0004ZM562.438 26.9304H488.183V99.0004H562.438V94.2257C569.295 98.31 577.273 99.9504 585.01 99.9504C590.661 99.9504 596.454 99.0576 601.844 96.9616V112.395H642.089V99.0004H655.329V112.395H695.574V96.5645C701.018 98.8669 707.089 99.9504 713.484 99.9504C725.851 99.9504 736.486 96.5225 744.054 89.1451C744.447 88.7626 744.827 88.3736 745.194 87.9785C746.201 89.0771 747.288 90.1131 748.453 91.0826C756.15 97.4873 765.993 99.9504 775.473 99.9504C783.163 99.9504 791.114 98.2977 797.954 94.2104V119.045H838.199V99.2376C840.64 99.7145 843.229 99.9504 845.959 99.9504C851.904 99.9504 857.238 98.529 861.782 95.9627V99.0004H999.765V26.9304H914.062C911.185 26.9304 906.569 27.1232 902.027 29.1415V26.9304H861.782V29.984C857.245 27.4128 851.913 25.9804 845.959 25.9804C842.806 25.9804 839.842 26.2951 837.08 26.9304H797.954V31.7074C791.119 27.636 783.171 25.9804 775.473 25.9804C765.993 25.9804 756.167 28.443 748.48 34.8027C747.347 35.7393 746.289 36.7387 745.305 37.7972C744.548 36.9675 743.751 36.1749 742.917 35.4218C749.025 30.8386 753.892 24.0675 755.122 14.4183L756.846 0.900391H715.338L713.778 7.65912C713.309 7.86222 712.721 8.10246 711.986 8.38312C710.246 9.0475 707.995 9.82323 705.013 10.8018C696.326 13.6263 687.711 17.9499 681.425 25.7728C681.119 26.1539 680.821 26.5397 680.531 26.9304H618.374V38.9304C618.374 39.9858 618.367 40.9977 618.354 41.9681C616.573 39.2917 614.408 36.8903 611.885 34.8027C604.215 28.4574 594.425 25.9804 585.01 25.9804C577.265 25.9804 569.29 27.6237 562.438 31.6922V26.9304ZM684.227 56.49C684.226 56.3906 684.225 56.291 684.225 56.1912C684.225 56.291 684.226 56.3906 684.227 56.49ZM696.779 51.0809C696.812 51.0038 696.845 50.927 696.879 50.8505C696.864 50.8836 696.85 50.9168 696.835 50.95C696.816 50.9935 696.797 51.0371 696.779 51.0809ZM584.742 62.1403C584.806 62.0811 584.868 62.0275 584.929 61.9788C584.956 62.0008 584.982 62.0238 585.01 62.0478C585.025 62.0617 585.041 62.076 585.057 62.0906C585.34 62.3496 585.55 62.6256 585.695 62.8704L585.709 62.8945L585.721 62.9151C585.566 63.2013 585.331 63.5261 585.01 63.8238C584.996 63.8365 584.982 63.8492 584.968 63.8618L584.947 63.8806L584.927 63.8976C584.896 63.8707 584.863 63.8425 584.831 63.8127C584.506 63.5178 584.27 63.197 584.115 62.916C584.124 62.9009 584.133 62.8857 584.142 62.8704C584.281 62.6419 584.477 62.3849 584.742 62.1403ZM585.747 64.3862C585.746 64.3867 585.734 64.384 585.711 64.3766C585.736 64.382 585.747 64.3857 585.747 64.3862ZM775.206 62.1403C775.269 62.0811 775.332 62.0275 775.393 61.9788C775.419 62.0008 775.446 62.0238 775.473 62.0478L775.499 62.0705L775.521 62.0906C775.804 62.3496 776.014 62.6256 776.159 62.8704L776.173 62.8947L776.185 62.9151C776.03 63.2013 775.795 63.5261 775.473 63.8238C775.46 63.8365 775.446 63.8492 775.432 63.8618C775.418 63.874 775.405 63.8859 775.391 63.8976C775.373 63.8818 775.354 63.8656 775.335 63.8488C775.322 63.837 775.308 63.825 775.295 63.8127C774.969 63.5178 774.734 63.197 774.579 62.916C774.588 62.9009 774.597 62.8857 774.606 62.8704C774.745 62.6419 774.941 62.3849 775.206 62.1403ZM776.211 64.3862C776.21 64.3867 776.198 64.3841 776.174 64.3766C776.199 64.382 776.211 64.3857 776.211 64.3862Z" fill="#F5F5F5"/>
</svg>
