<svg width="479" height="152" viewBox="0 0 479 152" fill="none" xmlns="http://www.w3.org/2000/svg">
<path fill-rule="evenodd" clip-rule="evenodd" d="M11 7C11 3.13401 14.134 0 18 0H69C72.866 0 76 3.13401 76 7V13H290C295.732 13 301.062 14.7224 305.5 17.6779C309.938 14.7224 315.268 13 321 13H409C415.169 13 420.873 14.9953 425.5 18.3757C430.127 14.9953 435.831 13 442 13H472C475.866 13 479 16.134 479 20V70C479 73.866 475.866 77 472 77H437H421H321C315.268 77 309.938 75.2776 305.5 72.3221C303.915 73.3778 302.215 74.2763 300.425 74.995C311.106 77.925 319.236 87.0225 320.747 98.2198C323.768 98.9958 326 101.737 326 105V131C326 134.866 322.866 138 319 138H175.084C172.536 146.114 164.955 152 156 152H130C126.134 152 123 148.866 123 145V138H121V145C121 148.866 117.866 152 114 152H86C82.134 152 79 148.866 79 145V138H7C3.13401 138 0 134.866 0 131V117V105V58C0 48.9295 4.31298 40.8664 11 35.7496V7Z" fill="white"/>
</svg>
