<svg width="963" height="112" viewBox="0 0 963 112" fill="none" xmlns="http://www.w3.org/2000/svg">
<mask id="path-1-outside-1_236_1524" maskUnits="userSpaceOnUse" x="0.880005" y="0.59375" width="962" height="112" fill="black">
<rect fill="white" x="0.880005" y="0.59375" width="962" height="112"/>
<path d="M12.88 12.5938H73.205V27.6988H51.64V79.5688H34.445V27.6988H12.88V12.5938Z"/>
<path d="M73.6095 79.5688V31.4988H99.0695C111.324 31.4988 119.59 33.7788 119.59 42.7088C119.59 51.4488 112.654 52.4938 108.854 52.7788V56.7688C115.124 56.8638 123.104 58.0988 123.104 67.1238C123.104 76.3388 114.839 79.5688 102.584 79.5688H73.6095ZM88.8095 68.5488H102.584C106.289 68.5488 107.81 67.4088 107.81 64.4638C107.81 61.6138 106.289 60.6638 102.584 60.6638H88.8095V68.5488ZM88.8095 49.4538H99.0695C102.774 49.4538 104.295 48.7888 104.295 46.0338C104.295 43.4688 102.774 42.5188 99.0695 42.5188H88.8095V49.4538Z"/>
<path d="M127.736 55.3438C127.736 39.8588 138.376 30.5488 153.291 30.5488C169.916 30.5488 179.511 39.5738 179.511 54.6788V58.9538H144.076C144.646 64.9388 148.161 68.2638 154.051 68.2638C159.086 68.2638 162.506 66.2688 163.456 62.5638H179.606C178.276 73.2038 168.871 80.5188 154.051 80.5188C137.806 80.5188 127.736 70.3538 127.736 55.3438ZM144.076 50.5938H163.646C163.171 45.2738 159.466 42.3288 153.766 42.3288C148.161 42.3288 144.456 45.2738 144.076 50.5938Z"/>
<path d="M186.7 99.6138V31.4988H202.945V33.7788L199.905 42.8038H203.895C206.365 36.6288 210.64 30.5488 222.705 30.5488C236.67 30.5488 243.32 42.1388 243.32 55.5338C243.32 69.0238 236.67 80.5188 222.705 80.5188C210.64 80.5188 206.365 74.4388 203.895 68.1688H199.905L202.945 77.2888V99.6138H186.7ZM202.945 55.5338C202.945 63.1338 206.935 66.1738 214.915 66.1738C222.99 66.1738 227.075 63.1338 227.075 55.5338C227.075 48.0288 222.99 44.8938 214.915 44.8938C206.935 44.8938 202.945 48.0288 202.945 55.5338Z"/>
<path d="M248.248 55.4388C248.248 39.0988 259.458 30.5488 274.753 30.5488C288.528 30.5488 300.498 38.1488 301.068 51.6388H284.728C284.253 48.0288 280.738 44.8938 274.753 44.8938C269.053 44.8938 264.493 48.5038 264.493 55.4388C264.493 62.4688 269.053 66.1738 274.753 66.1738C280.738 66.1738 284.253 63.0388 284.728 59.4288H301.068C300.498 72.9188 288.528 80.5188 274.753 80.5188C259.458 80.5188 248.248 71.8738 248.248 55.4388Z"/>
<path d="M308.326 31.4988H324.571V47.7438H328.846L338.061 35.3938C340.436 32.1638 344.331 31.4988 348.606 31.4988H357.346V45.8438H349.651L343.761 53.4438L357.726 79.5688H340.151L330.936 62.0888H324.571V79.5688H308.326V31.4988Z"/>
<path d="M361.719 66.4588C361.719 58.0988 366.564 53.1588 381.289 51.6388L395.919 50.0238C395.919 44.9888 393.069 42.9938 387.559 42.9938C381.669 42.9938 378.344 45.4638 378.154 49.7388H362.859C363.144 37.1038 373.784 30.5488 386.989 30.5488C400.289 30.5488 412.259 36.5338 412.259 50.4038V65.2238H419.194V79.5688H408.174C403.519 79.5688 400.764 76.9088 400.764 72.2538V71.7788L403.329 65.9838H399.339C397.534 73.7738 392.974 80.5188 379.484 80.5188C364.284 80.5188 361.719 71.3988 361.719 66.4588ZM377.679 63.7038C377.679 66.8388 380.529 67.5988 383.664 67.5988C390.409 67.5988 395.919 63.9888 395.919 58.1938L384.329 59.9038C380.054 60.5688 377.679 61.0438 377.679 63.7038Z"/>
<path d="M470.724 79.5688H454.384V60.8538H450.109L440.514 74.2488C437.664 77.9538 434.909 79.5688 430.444 79.5688H423.604V66.3638H430.634L435.099 60.2838C429.494 59.2388 424.079 56.0088 424.079 46.7938C424.079 34.8238 433.484 31.4988 442.414 31.4988H470.724V79.5688ZM440.324 46.1287C440.324 48.7888 441.844 50.7838 446.689 50.7838H454.384V41.4738H446.689C441.844 41.4738 440.324 43.4688 440.324 46.1287Z"/>
<path d="M506.119 79.5688V31.4988H531.579C543.834 31.4988 552.099 33.7788 552.099 42.7088C552.099 51.4488 545.164 52.4938 541.364 52.7788V56.7688C547.634 56.8638 555.614 58.0988 555.614 67.1238C555.614 76.3388 547.349 79.5688 535.094 79.5688H506.119ZM521.319 68.5488H535.094C538.799 68.5488 540.319 67.4088 540.319 64.4638C540.319 61.6138 538.799 60.6638 535.094 60.6638H521.319V68.5488ZM521.319 49.4538H531.579C535.284 49.4538 536.804 48.7888 536.804 46.0338C536.804 43.4688 535.284 42.5188 531.579 42.5188H521.319V49.4538Z"/>
<path d="M588.757 41.2838C599.967 41.2838 612.412 44.5138 612.412 60.4738C612.412 76.4338 599.967 79.5688 588.757 79.5688H562.062V31.4988H578.307V41.2838H588.757ZM578.307 66.0788H587.807C593.887 66.0788 596.072 65.4138 596.072 60.4738C596.072 55.6288 593.887 54.8688 587.807 54.8688H578.307V66.0788ZM618.587 79.5688V31.4988H634.832V79.5688H618.587Z"/>
<path d="M642.403 79.5688V31.4988H658.648V65.2238H667.958V31.4988H684.203V65.2238H693.513V31.4988H709.758V79.5688H642.403Z"/>
<path d="M775.405 79.5688H760.11V44.1338L763.245 35.4888H759.16L747.38 79.5688H717.55V31.4988H732.75V66.4588L729.71 75.4838H733.7L745.575 31.4988H775.405V79.5688Z"/>
<path d="M783.234 79.5688V31.4988H808.694C820.949 31.4988 829.214 33.7788 829.214 42.7088C829.214 51.4488 822.279 52.4938 818.479 52.7788V56.7688C824.749 56.8638 832.729 58.0988 832.729 67.1238C832.729 76.3388 824.463 79.5688 812.208 79.5688H783.234ZM798.434 68.5488H812.208C815.913 68.5488 817.434 67.4088 817.434 64.4638C817.434 61.6138 815.913 60.6638 812.208 60.6638H798.434V68.5488ZM798.434 49.4538H808.694C812.399 49.4538 813.919 48.7888 813.919 46.0338C813.919 43.4688 812.399 42.5188 808.694 42.5188H798.434V49.4538Z"/>
<path d="M839.176 31.4988H855.421V47.7438H859.696L868.911 35.3938C871.286 32.1638 875.181 31.4988 879.456 31.4988H888.196V45.8438H880.501L874.611 53.4438L888.576 79.5688H871.001L861.786 62.0888H855.421V79.5688H839.176V31.4988Z"/>
<path d="M892.569 66.4588C892.569 58.0988 897.414 53.1588 912.139 51.6388L926.769 50.0238C926.769 44.9888 923.919 42.9938 918.409 42.9938C912.519 42.9938 909.194 45.4638 909.004 49.7388H893.709C893.994 37.1038 904.634 30.5488 917.839 30.5488C931.139 30.5488 943.109 36.5338 943.109 50.4038V65.2238H950.044V79.5688H939.024C934.369 79.5688 931.614 76.9088 931.614 72.2538V71.7788L934.179 65.9838H930.189C928.384 73.7738 923.824 80.5188 910.334 80.5188C895.134 80.5188 892.569 71.3988 892.569 66.4588ZM908.529 63.7038C908.529 66.8388 911.379 67.5988 914.514 67.5988C921.259 67.5988 926.769 63.9888 926.769 58.1938L915.179 59.9038C910.904 60.5688 908.529 61.0438 908.529 63.7038Z"/>
</mask>
<path d="M12.88 12.5938H73.205V27.6988H51.64V79.5688H34.445V27.6988H12.88V12.5938Z" fill="black"/>
<path d="M73.6095 79.5688V31.4988H99.0695C111.324 31.4988 119.59 33.7788 119.59 42.7088C119.59 51.4488 112.654 52.4938 108.854 52.7788V56.7688C115.124 56.8638 123.104 58.0988 123.104 67.1238C123.104 76.3388 114.839 79.5688 102.584 79.5688H73.6095ZM88.8095 68.5488H102.584C106.289 68.5488 107.81 67.4088 107.81 64.4638C107.81 61.6138 106.289 60.6638 102.584 60.6638H88.8095V68.5488ZM88.8095 49.4538H99.0695C102.774 49.4538 104.295 48.7888 104.295 46.0338C104.295 43.4688 102.774 42.5188 99.0695 42.5188H88.8095V49.4538Z" fill="black"/>
<path d="M127.736 55.3438C127.736 39.8588 138.376 30.5488 153.291 30.5488C169.916 30.5488 179.511 39.5738 179.511 54.6788V58.9538H144.076C144.646 64.9388 148.161 68.2638 154.051 68.2638C159.086 68.2638 162.506 66.2688 163.456 62.5638H179.606C178.276 73.2038 168.871 80.5188 154.051 80.5188C137.806 80.5188 127.736 70.3538 127.736 55.3438ZM144.076 50.5938H163.646C163.171 45.2738 159.466 42.3288 153.766 42.3288C148.161 42.3288 144.456 45.2738 144.076 50.5938Z" fill="black"/>
<path d="M186.7 99.6138V31.4988H202.945V33.7788L199.905 42.8038H203.895C206.365 36.6288 210.64 30.5488 222.705 30.5488C236.67 30.5488 243.32 42.1388 243.32 55.5338C243.32 69.0238 236.67 80.5188 222.705 80.5188C210.64 80.5188 206.365 74.4388 203.895 68.1688H199.905L202.945 77.2888V99.6138H186.7ZM202.945 55.5338C202.945 63.1338 206.935 66.1738 214.915 66.1738C222.99 66.1738 227.075 63.1338 227.075 55.5338C227.075 48.0288 222.99 44.8938 214.915 44.8938C206.935 44.8938 202.945 48.0288 202.945 55.5338Z" fill="black"/>
<path d="M248.248 55.4388C248.248 39.0988 259.458 30.5488 274.753 30.5488C288.528 30.5488 300.498 38.1488 301.068 51.6388H284.728C284.253 48.0288 280.738 44.8938 274.753 44.8938C269.053 44.8938 264.493 48.5038 264.493 55.4388C264.493 62.4688 269.053 66.1738 274.753 66.1738C280.738 66.1738 284.253 63.0388 284.728 59.4288H301.068C300.498 72.9188 288.528 80.5188 274.753 80.5188C259.458 80.5188 248.248 71.8738 248.248 55.4388Z" fill="black"/>
<path d="M308.326 31.4988H324.571V47.7438H328.846L338.061 35.3938C340.436 32.1638 344.331 31.4988 348.606 31.4988H357.346V45.8438H349.651L343.761 53.4438L357.726 79.5688H340.151L330.936 62.0888H324.571V79.5688H308.326V31.4988Z" fill="black"/>
<path d="M361.719 66.4588C361.719 58.0988 366.564 53.1588 381.289 51.6388L395.919 50.0238C395.919 44.9888 393.069 42.9938 387.559 42.9938C381.669 42.9938 378.344 45.4638 378.154 49.7388H362.859C363.144 37.1038 373.784 30.5488 386.989 30.5488C400.289 30.5488 412.259 36.5338 412.259 50.4038V65.2238H419.194V79.5688H408.174C403.519 79.5688 400.764 76.9088 400.764 72.2538V71.7788L403.329 65.9838H399.339C397.534 73.7738 392.974 80.5188 379.484 80.5188C364.284 80.5188 361.719 71.3988 361.719 66.4588ZM377.679 63.7038C377.679 66.8388 380.529 67.5988 383.664 67.5988C390.409 67.5988 395.919 63.9888 395.919 58.1938L384.329 59.9038C380.054 60.5688 377.679 61.0438 377.679 63.7038Z" fill="black"/>
<path d="M470.724 79.5688H454.384V60.8538H450.109L440.514 74.2488C437.664 77.9538 434.909 79.5688 430.444 79.5688H423.604V66.3638H430.634L435.099 60.2838C429.494 59.2388 424.079 56.0088 424.079 46.7938C424.079 34.8238 433.484 31.4988 442.414 31.4988H470.724V79.5688ZM440.324 46.1287C440.324 48.7888 441.844 50.7838 446.689 50.7838H454.384V41.4738H446.689C441.844 41.4738 440.324 43.4688 440.324 46.1287Z" fill="black"/>
<path d="M506.119 79.5688V31.4988H531.579C543.834 31.4988 552.099 33.7788 552.099 42.7088C552.099 51.4488 545.164 52.4938 541.364 52.7788V56.7688C547.634 56.8638 555.614 58.0988 555.614 67.1238C555.614 76.3388 547.349 79.5688 535.094 79.5688H506.119ZM521.319 68.5488H535.094C538.799 68.5488 540.319 67.4088 540.319 64.4638C540.319 61.6138 538.799 60.6638 535.094 60.6638H521.319V68.5488ZM521.319 49.4538H531.579C535.284 49.4538 536.804 48.7888 536.804 46.0338C536.804 43.4688 535.284 42.5188 531.579 42.5188H521.319V49.4538Z" fill="black"/>
<path d="M588.757 41.2838C599.967 41.2838 612.412 44.5138 612.412 60.4738C612.412 76.4338 599.967 79.5688 588.757 79.5688H562.062V31.4988H578.307V41.2838H588.757ZM578.307 66.0788H587.807C593.887 66.0788 596.072 65.4138 596.072 60.4738C596.072 55.6288 593.887 54.8688 587.807 54.8688H578.307V66.0788ZM618.587 79.5688V31.4988H634.832V79.5688H618.587Z" fill="black"/>
<path d="M642.403 79.5688V31.4988H658.648V65.2238H667.958V31.4988H684.203V65.2238H693.513V31.4988H709.758V79.5688H642.403Z" fill="black"/>
<path d="M775.405 79.5688H760.11V44.1338L763.245 35.4888H759.16L747.38 79.5688H717.55V31.4988H732.75V66.4588L729.71 75.4838H733.7L745.575 31.4988H775.405V79.5688Z" fill="black"/>
<path d="M783.234 79.5688V31.4988H808.694C820.949 31.4988 829.214 33.7788 829.214 42.7088C829.214 51.4488 822.279 52.4938 818.479 52.7788V56.7688C824.749 56.8638 832.729 58.0988 832.729 67.1238C832.729 76.3388 824.463 79.5688 812.208 79.5688H783.234ZM798.434 68.5488H812.208C815.913 68.5488 817.434 67.4088 817.434 64.4638C817.434 61.6138 815.913 60.6638 812.208 60.6638H798.434V68.5488ZM798.434 49.4538H808.694C812.399 49.4538 813.919 48.7888 813.919 46.0338C813.919 43.4688 812.399 42.5188 808.694 42.5188H798.434V49.4538Z" fill="black"/>
<path d="M839.176 31.4988H855.421V47.7438H859.696L868.911 35.3938C871.286 32.1638 875.181 31.4988 879.456 31.4988H888.196V45.8438H880.501L874.611 53.4438L888.576 79.5688H871.001L861.786 62.0888H855.421V79.5688H839.176V31.4988Z" fill="black"/>
<path d="M892.569 66.4588C892.569 58.0988 897.414 53.1588 912.139 51.6388L926.769 50.0238C926.769 44.9888 923.919 42.9938 918.409 42.9938C912.519 42.9938 909.194 45.4638 909.004 49.7388H893.709C893.994 37.1038 904.634 30.5488 917.839 30.5488C931.139 30.5488 943.109 36.5338 943.109 50.4038V65.2238H950.044V79.5688H939.024C934.369 79.5688 931.614 76.9088 931.614 72.2538V71.7788L934.179 65.9838H930.189C928.384 73.7738 923.824 80.5188 910.334 80.5188C895.134 80.5188 892.569 71.3988 892.569 66.4588ZM908.529 63.7038C908.529 66.8388 911.379 67.5988 914.514 67.5988C921.259 67.5988 926.769 63.9888 926.769 58.1938L915.179 59.9038C910.904 60.5688 908.529 61.0438 908.529 63.7038Z" fill="black"/>
<path d="M12.88 12.5938H73.205V27.6988H51.64V79.5688H34.445V27.6988H12.88V12.5938Z" stroke="black" stroke-width="24" mask="url(#path-1-outside-1_236_1524)"/>
<path d="M73.6095 79.5688V31.4988H99.0695C111.324 31.4988 119.59 33.7788 119.59 42.7088C119.59 51.4488 112.654 52.4938 108.854 52.7788V56.7688C115.124 56.8638 123.104 58.0988 123.104 67.1238C123.104 76.3388 114.839 79.5688 102.584 79.5688H73.6095ZM88.8095 68.5488H102.584C106.289 68.5488 107.81 67.4088 107.81 64.4638C107.81 61.6138 106.289 60.6638 102.584 60.6638H88.8095V68.5488ZM88.8095 49.4538H99.0695C102.774 49.4538 104.295 48.7888 104.295 46.0338C104.295 43.4688 102.774 42.5188 99.0695 42.5188H88.8095V49.4538Z" stroke="black" stroke-width="24" mask="url(#path-1-outside-1_236_1524)"/>
<path d="M127.736 55.3438C127.736 39.8588 138.376 30.5488 153.291 30.5488C169.916 30.5488 179.511 39.5738 179.511 54.6788V58.9538H144.076C144.646 64.9388 148.161 68.2638 154.051 68.2638C159.086 68.2638 162.506 66.2688 163.456 62.5638H179.606C178.276 73.2038 168.871 80.5188 154.051 80.5188C137.806 80.5188 127.736 70.3538 127.736 55.3438ZM144.076 50.5938H163.646C163.171 45.2738 159.466 42.3288 153.766 42.3288C148.161 42.3288 144.456 45.2738 144.076 50.5938Z" stroke="black" stroke-width="24" mask="url(#path-1-outside-1_236_1524)"/>
<path d="M186.7 99.6138V31.4988H202.945V33.7788L199.905 42.8038H203.895C206.365 36.6288 210.64 30.5488 222.705 30.5488C236.67 30.5488 243.32 42.1388 243.32 55.5338C243.32 69.0238 236.67 80.5188 222.705 80.5188C210.64 80.5188 206.365 74.4388 203.895 68.1688H199.905L202.945 77.2888V99.6138H186.7ZM202.945 55.5338C202.945 63.1338 206.935 66.1738 214.915 66.1738C222.99 66.1738 227.075 63.1338 227.075 55.5338C227.075 48.0288 222.99 44.8938 214.915 44.8938C206.935 44.8938 202.945 48.0288 202.945 55.5338Z" stroke="black" stroke-width="24" mask="url(#path-1-outside-1_236_1524)"/>
<path d="M248.248 55.4388C248.248 39.0988 259.458 30.5488 274.753 30.5488C288.528 30.5488 300.498 38.1488 301.068 51.6388H284.728C284.253 48.0288 280.738 44.8938 274.753 44.8938C269.053 44.8938 264.493 48.5038 264.493 55.4388C264.493 62.4688 269.053 66.1738 274.753 66.1738C280.738 66.1738 284.253 63.0388 284.728 59.4288H301.068C300.498 72.9188 288.528 80.5188 274.753 80.5188C259.458 80.5188 248.248 71.8738 248.248 55.4388Z" stroke="black" stroke-width="24" mask="url(#path-1-outside-1_236_1524)"/>
<path d="M308.326 31.4988H324.571V47.7438H328.846L338.061 35.3938C340.436 32.1638 344.331 31.4988 348.606 31.4988H357.346V45.8438H349.651L343.761 53.4438L357.726 79.5688H340.151L330.936 62.0888H324.571V79.5688H308.326V31.4988Z" stroke="black" stroke-width="24" mask="url(#path-1-outside-1_236_1524)"/>
<path d="M361.719 66.4588C361.719 58.0988 366.564 53.1588 381.289 51.6388L395.919 50.0238C395.919 44.9888 393.069 42.9938 387.559 42.9938C381.669 42.9938 378.344 45.4638 378.154 49.7388H362.859C363.144 37.1038 373.784 30.5488 386.989 30.5488C400.289 30.5488 412.259 36.5338 412.259 50.4038V65.2238H419.194V79.5688H408.174C403.519 79.5688 400.764 76.9088 400.764 72.2538V71.7788L403.329 65.9838H399.339C397.534 73.7738 392.974 80.5188 379.484 80.5188C364.284 80.5188 361.719 71.3988 361.719 66.4588ZM377.679 63.7038C377.679 66.8388 380.529 67.5988 383.664 67.5988C390.409 67.5988 395.919 63.9888 395.919 58.1938L384.329 59.9038C380.054 60.5688 377.679 61.0438 377.679 63.7038Z" stroke="black" stroke-width="24" mask="url(#path-1-outside-1_236_1524)"/>
<path d="M470.724 79.5688H454.384V60.8538H450.109L440.514 74.2488C437.664 77.9538 434.909 79.5688 430.444 79.5688H423.604V66.3638H430.634L435.099 60.2838C429.494 59.2388 424.079 56.0088 424.079 46.7938C424.079 34.8238 433.484 31.4988 442.414 31.4988H470.724V79.5688ZM440.324 46.1287C440.324 48.7888 441.844 50.7838 446.689 50.7838H454.384V41.4738H446.689C441.844 41.4738 440.324 43.4688 440.324 46.1287Z" stroke="black" stroke-width="24" mask="url(#path-1-outside-1_236_1524)"/>
<path d="M506.119 79.5688V31.4988H531.579C543.834 31.4988 552.099 33.7788 552.099 42.7088C552.099 51.4488 545.164 52.4938 541.364 52.7788V56.7688C547.634 56.8638 555.614 58.0988 555.614 67.1238C555.614 76.3388 547.349 79.5688 535.094 79.5688H506.119ZM521.319 68.5488H535.094C538.799 68.5488 540.319 67.4088 540.319 64.4638C540.319 61.6138 538.799 60.6638 535.094 60.6638H521.319V68.5488ZM521.319 49.4538H531.579C535.284 49.4538 536.804 48.7888 536.804 46.0338C536.804 43.4688 535.284 42.5188 531.579 42.5188H521.319V49.4538Z" stroke="black" stroke-width="24" mask="url(#path-1-outside-1_236_1524)"/>
<path d="M588.757 41.2838C599.967 41.2838 612.412 44.5138 612.412 60.4738C612.412 76.4338 599.967 79.5688 588.757 79.5688H562.062V31.4988H578.307V41.2838H588.757ZM578.307 66.0788H587.807C593.887 66.0788 596.072 65.4138 596.072 60.4738C596.072 55.6288 593.887 54.8688 587.807 54.8688H578.307V66.0788ZM618.587 79.5688V31.4988H634.832V79.5688H618.587Z" stroke="black" stroke-width="24" mask="url(#path-1-outside-1_236_1524)"/>
<path d="M642.403 79.5688V31.4988H658.648V65.2238H667.958V31.4988H684.203V65.2238H693.513V31.4988H709.758V79.5688H642.403Z" stroke="black" stroke-width="24" mask="url(#path-1-outside-1_236_1524)"/>
<path d="M775.405 79.5688H760.11V44.1338L763.245 35.4888H759.16L747.38 79.5688H717.55V31.4988H732.75V66.4588L729.71 75.4838H733.7L745.575 31.4988H775.405V79.5688Z" stroke="black" stroke-width="24" mask="url(#path-1-outside-1_236_1524)"/>
<path d="M783.234 79.5688V31.4988H808.694C820.949 31.4988 829.214 33.7788 829.214 42.7088C829.214 51.4488 822.279 52.4938 818.479 52.7788V56.7688C824.749 56.8638 832.729 58.0988 832.729 67.1238C832.729 76.3388 824.463 79.5688 812.208 79.5688H783.234ZM798.434 68.5488H812.208C815.913 68.5488 817.434 67.4088 817.434 64.4638C817.434 61.6138 815.913 60.6638 812.208 60.6638H798.434V68.5488ZM798.434 49.4538H808.694C812.399 49.4538 813.919 48.7888 813.919 46.0338C813.919 43.4688 812.399 42.5188 808.694 42.5188H798.434V49.4538Z" stroke="black" stroke-width="24" mask="url(#path-1-outside-1_236_1524)"/>
<path d="M839.176 31.4988H855.421V47.7438H859.696L868.911 35.3938C871.286 32.1638 875.181 31.4988 879.456 31.4988H888.196V45.8438H880.501L874.611 53.4438L888.576 79.5688H871.001L861.786 62.0888H855.421V79.5688H839.176V31.4988Z" stroke="black" stroke-width="24" mask="url(#path-1-outside-1_236_1524)"/>
<path d="M892.569 66.4588C892.569 58.0988 897.414 53.1588 912.139 51.6388L926.769 50.0238C926.769 44.9888 923.919 42.9938 918.409 42.9938C912.519 42.9938 909.194 45.4638 909.004 49.7388H893.709C893.994 37.1038 904.634 30.5488 917.839 30.5488C931.139 30.5488 943.109 36.5338 943.109 50.4038V65.2238H950.044V79.5688H939.024C934.369 79.5688 931.614 76.9088 931.614 72.2538V71.7788L934.179 65.9838H930.189C928.384 73.7738 923.824 80.5188 910.334 80.5188C895.134 80.5188 892.569 71.3988 892.569 66.4588ZM908.529 63.7038C908.529 66.8388 911.379 67.5988 914.514 67.5988C921.259 67.5988 926.769 63.9888 926.769 58.1938L915.179 59.9038C910.904 60.5688 908.529 61.0438 908.529 63.7038Z" stroke="black" stroke-width="24" mask="url(#path-1-outside-1_236_1524)"/>
</svg>
