<svg width="1155" height="114" viewBox="0 0 1155 114" fill="none" xmlns="http://www.w3.org/2000/svg">
<mask id="path-1-outside-1_231_1516" maskUnits="userSpaceOnUse" x="0.755005" y="0.695312" width="1154" height="113" fill="black">
<rect fill="white" x="0.755005" y="0.695312" width="1154" height="113"/>
<path d="M48.285 82.3303C26.34 82.3303 12.755 67.3203 12.755 47.4653C12.755 27.7053 26.34 12.6953 48.285 12.6953C67.475 12.6953 80.205 23.0503 82.2 39.8653H64.435C63.01 32.6453 56.835 28.3703 48.38 28.3703C38.025 28.3703 30.615 34.2603 30.615 47.4653C30.615 60.7653 38.025 66.6553 48.38 66.6553C56.835 66.6553 63.01 62.2853 64.435 55.0653H82.2C80.205 71.9753 67.475 82.3303 48.285 82.3303Z"/>
<path d="M89.3399 32.9303H105.585V49.1753H109.86L119.075 36.8253C121.45 33.5953 125.345 32.9303 129.62 32.9303H138.36V47.2753H130.665L124.775 54.8753L138.74 81.0003H121.165L111.95 63.5203H105.585V81.0003H89.3399V32.9303Z"/>
<path d="M141.611 56.8703C141.611 39.8653 153.866 31.9803 168.971 31.9803C183.886 31.9803 196.236 39.8653 196.236 56.8703C196.236 74.0653 183.886 81.9503 168.971 81.9503C153.866 81.9503 141.611 74.0653 141.611 56.8703ZM157.856 56.8703C157.856 64.0903 162.321 67.6053 168.971 67.6053C175.431 67.6053 179.896 64.0903 179.896 56.8703C179.896 49.7453 175.431 46.3253 168.971 46.3253C162.321 46.3253 157.856 49.7453 157.856 56.8703Z"/>
<path d="M203.451 32.9303H253.706V81.0003H237.461V47.2753H219.696V81.0003H203.451V32.9303Z"/>
<path d="M319.382 81.0003H304.087V45.5653L307.222 36.9203H303.137L291.357 81.0003H261.527V32.9303H276.727V67.8903L273.687 76.9153H277.677L289.552 32.9303H319.382V81.0003Z"/>
<path d="M327.211 32.9303H343.456V49.7453H365.496V32.9303H381.836V81.0003H365.496V63.9953H343.456V81.0003H327.211V32.9303Z"/>
<path d="M389.037 56.8703C389.037 40.5303 400.247 31.9803 415.542 31.9803C429.317 31.9803 441.287 39.5803 441.857 53.0703H425.517C425.042 49.4603 421.527 46.3253 415.542 46.3253C409.842 46.3253 405.282 49.9353 405.282 56.8703C405.282 63.9003 409.842 67.6053 415.542 67.6053C421.527 67.6053 425.042 64.4703 425.517 60.8603H441.857C441.287 74.3503 429.317 81.9503 415.542 81.9503C400.247 81.9503 389.037 73.3053 389.037 56.8703Z"/>
<path d="M449.115 32.9303H465.36V49.1753H469.635L478.85 36.8253C481.225 33.5953 485.12 32.9303 489.395 32.9303H498.135V47.2753H490.44L484.55 54.8753L498.515 81.0003H480.94L471.725 63.5203H465.36V81.0003H449.115V32.9303Z"/>
<path d="M502.508 67.8903C502.508 59.5303 507.353 54.5903 522.078 53.0703L536.708 51.4553C536.708 46.4203 533.858 44.4253 528.348 44.4253C522.458 44.4253 519.133 46.8953 518.943 51.1703H503.648C503.933 38.5353 514.573 31.9803 527.778 31.9803C541.078 31.9803 553.048 37.9653 553.048 51.8353V66.6553H559.983V81.0003H548.963C544.308 81.0003 541.553 78.3403 541.553 73.6853V73.2103L544.118 67.4153H540.128C538.323 75.2053 533.763 81.9503 520.273 81.9503C505.073 81.9503 502.508 72.8303 502.508 67.8903ZM518.468 65.1353C518.468 68.2703 521.318 69.0303 524.453 69.0303C531.198 69.0303 536.708 65.4203 536.708 59.6253L525.118 61.3353C520.843 62.0003 518.468 62.4753 518.468 65.1353Z"/>
<path d="M611.513 81.0003H595.173V62.2853H590.898L581.303 75.6803C578.453 79.3853 575.698 81.0003 571.233 81.0003H564.393V67.7953H571.423L575.888 61.7153C570.283 60.6703 564.868 57.4403 564.868 48.2253C564.868 36.2553 574.273 32.9303 583.203 32.9303H611.513V81.0003ZM581.113 47.5603C581.113 50.2203 582.633 52.2153 587.478 52.2153H595.173V42.9053H587.478C582.633 42.9053 581.113 44.9003 581.113 47.5603Z"/>
<path d="M646.908 32.9303H663.153V49.1753H667.428L676.643 36.8253C679.018 33.5953 682.913 32.9303 687.188 32.9303H695.928V47.2753H688.233L682.343 54.8753L696.308 81.0003H678.733L669.518 63.5203H663.153V81.0003H646.908V32.9303Z"/>
<path d="M699.272 56.7753C699.272 41.2903 709.912 31.9803 724.827 31.9803C741.452 31.9803 751.047 41.0053 751.047 56.1103V60.3853H715.612C716.182 66.3703 719.697 69.6953 725.587 69.6953C730.622 69.6953 734.042 67.7003 734.992 63.9953H751.142C749.812 74.6353 740.407 81.9503 725.587 81.9503C709.342 81.9503 699.272 71.7853 699.272 56.7753ZM715.612 52.0253H735.182C734.707 46.7053 731.002 43.7603 725.302 43.7603C719.697 43.7603 715.992 46.7053 715.612 52.0253Z"/>
<path d="M758.236 101.045V32.9303H774.481V35.2103L771.441 44.2353H775.431C777.901 38.0603 782.176 31.9803 794.241 31.9803C808.206 31.9803 814.856 43.5703 814.856 56.9653C814.856 70.4553 808.206 81.9503 794.241 81.9503C782.176 81.9503 777.901 75.8703 775.431 69.6003H771.441L774.481 78.7203V101.045H758.236ZM774.481 56.9653C774.481 64.5653 778.471 67.6053 786.451 67.6053C794.526 67.6053 798.611 64.5653 798.611 56.9653C798.611 49.4603 794.526 46.3253 786.451 46.3253C778.471 46.3253 774.481 49.4603 774.481 56.9653Z"/>
<path d="M820.164 67.8903C820.164 59.5303 825.009 54.5903 839.734 53.0703L854.364 51.4553C854.364 46.4203 851.514 44.4253 846.004 44.4253C840.114 44.4253 836.789 46.8953 836.599 51.1703H821.304C821.589 38.5353 832.229 31.9803 845.434 31.9803C858.734 31.9803 870.704 37.9653 870.704 51.8353V66.6553H877.639V81.0003H866.619C861.964 81.0003 859.209 78.3403 859.209 73.6853V73.2103L861.774 67.4153H857.784C855.979 75.2053 851.419 81.9503 837.929 81.9503C822.729 81.9503 820.164 72.8303 820.164 67.8903ZM836.124 65.1353C836.124 68.2703 838.974 69.0303 842.109 69.0303C848.854 69.0303 854.364 65.4203 854.364 59.6253L842.774 61.3353C838.499 62.0003 836.124 62.4753 836.124 65.1353Z"/>
<path d="M883.666 81.0003V32.9303H914.826L918.816 76.9153H922.901L926.891 32.9303H958.241V81.0003H942.946V46.0403L945.986 36.9203H941.996L935.631 81.0003H905.991L899.816 36.9203H895.731L898.866 46.0403V81.0003H883.666Z"/>
<path d="M1023.81 81.0003H1008.52V45.5653L1011.65 36.9203H1007.57L995.786 81.0003H965.956V32.9303H981.156V67.8903L978.116 76.9153H982.106L993.981 32.9303H1023.81V81.0003Z"/>
<path d="M1031.64 32.9303H1047.88V49.1753H1052.16L1061.37 36.8253C1063.75 33.5953 1067.64 32.9303 1071.92 32.9303H1080.66V47.2753H1072.96L1067.07 54.8753L1081.04 81.0003H1063.46L1054.25 63.5203H1047.88V81.0003H1031.64V32.9303Z"/>
<path d="M1085.03 67.8903C1085.03 59.5303 1089.88 54.5903 1104.6 53.0703L1119.23 51.4553C1119.23 46.4203 1116.38 44.4253 1110.87 44.4253C1104.98 44.4253 1101.66 46.8953 1101.47 51.1703H1086.17C1086.46 38.5353 1097.1 31.9803 1110.3 31.9803C1123.6 31.9803 1135.57 37.9653 1135.57 51.8353V66.6553H1142.51V81.0003H1131.49C1126.83 81.0003 1124.08 78.3403 1124.08 73.6853V73.2103L1126.64 67.4153H1122.65C1120.85 75.2053 1116.29 81.9503 1102.8 81.9503C1087.6 81.9503 1085.03 72.8303 1085.03 67.8903ZM1100.99 65.1353C1100.99 68.2703 1103.84 69.0303 1106.98 69.0303C1113.72 69.0303 1119.23 65.4203 1119.23 59.6253L1107.64 61.3353C1103.37 62.0003 1100.99 62.4753 1100.99 65.1353Z"/>
</mask>
<path d="M48.285 82.3303C26.34 82.3303 12.755 67.3203 12.755 47.4653C12.755 27.7053 26.34 12.6953 48.285 12.6953C67.475 12.6953 80.205 23.0503 82.2 39.8653H64.435C63.01 32.6453 56.835 28.3703 48.38 28.3703C38.025 28.3703 30.615 34.2603 30.615 47.4653C30.615 60.7653 38.025 66.6553 48.38 66.6553C56.835 66.6553 63.01 62.2853 64.435 55.0653H82.2C80.205 71.9753 67.475 82.3303 48.285 82.3303Z" fill="black"/>
<path d="M89.3399 32.9303H105.585V49.1753H109.86L119.075 36.8253C121.45 33.5953 125.345 32.9303 129.62 32.9303H138.36V47.2753H130.665L124.775 54.8753L138.74 81.0003H121.165L111.95 63.5203H105.585V81.0003H89.3399V32.9303Z" fill="black"/>
<path d="M141.611 56.8703C141.611 39.8653 153.866 31.9803 168.971 31.9803C183.886 31.9803 196.236 39.8653 196.236 56.8703C196.236 74.0653 183.886 81.9503 168.971 81.9503C153.866 81.9503 141.611 74.0653 141.611 56.8703ZM157.856 56.8703C157.856 64.0903 162.321 67.6053 168.971 67.6053C175.431 67.6053 179.896 64.0903 179.896 56.8703C179.896 49.7453 175.431 46.3253 168.971 46.3253C162.321 46.3253 157.856 49.7453 157.856 56.8703Z" fill="black"/>
<path d="M203.451 32.9303H253.706V81.0003H237.461V47.2753H219.696V81.0003H203.451V32.9303Z" fill="black"/>
<path d="M319.382 81.0003H304.087V45.5653L307.222 36.9203H303.137L291.357 81.0003H261.527V32.9303H276.727V67.8903L273.687 76.9153H277.677L289.552 32.9303H319.382V81.0003Z" fill="black"/>
<path d="M327.211 32.9303H343.456V49.7453H365.496V32.9303H381.836V81.0003H365.496V63.9953H343.456V81.0003H327.211V32.9303Z" fill="black"/>
<path d="M389.037 56.8703C389.037 40.5303 400.247 31.9803 415.542 31.9803C429.317 31.9803 441.287 39.5803 441.857 53.0703H425.517C425.042 49.4603 421.527 46.3253 415.542 46.3253C409.842 46.3253 405.282 49.9353 405.282 56.8703C405.282 63.9003 409.842 67.6053 415.542 67.6053C421.527 67.6053 425.042 64.4703 425.517 60.8603H441.857C441.287 74.3503 429.317 81.9503 415.542 81.9503C400.247 81.9503 389.037 73.3053 389.037 56.8703Z" fill="black"/>
<path d="M449.115 32.9303H465.36V49.1753H469.635L478.85 36.8253C481.225 33.5953 485.12 32.9303 489.395 32.9303H498.135V47.2753H490.44L484.55 54.8753L498.515 81.0003H480.94L471.725 63.5203H465.36V81.0003H449.115V32.9303Z" fill="black"/>
<path d="M502.508 67.8903C502.508 59.5303 507.353 54.5903 522.078 53.0703L536.708 51.4553C536.708 46.4203 533.858 44.4253 528.348 44.4253C522.458 44.4253 519.133 46.8953 518.943 51.1703H503.648C503.933 38.5353 514.573 31.9803 527.778 31.9803C541.078 31.9803 553.048 37.9653 553.048 51.8353V66.6553H559.983V81.0003H548.963C544.308 81.0003 541.553 78.3403 541.553 73.6853V73.2103L544.118 67.4153H540.128C538.323 75.2053 533.763 81.9503 520.273 81.9503C505.073 81.9503 502.508 72.8303 502.508 67.8903ZM518.468 65.1353C518.468 68.2703 521.318 69.0303 524.453 69.0303C531.198 69.0303 536.708 65.4203 536.708 59.6253L525.118 61.3353C520.843 62.0003 518.468 62.4753 518.468 65.1353Z" fill="black"/>
<path d="M611.513 81.0003H595.173V62.2853H590.898L581.303 75.6803C578.453 79.3853 575.698 81.0003 571.233 81.0003H564.393V67.7953H571.423L575.888 61.7153C570.283 60.6703 564.868 57.4403 564.868 48.2253C564.868 36.2553 574.273 32.9303 583.203 32.9303H611.513V81.0003ZM581.113 47.5603C581.113 50.2203 582.633 52.2153 587.478 52.2153H595.173V42.9053H587.478C582.633 42.9053 581.113 44.9003 581.113 47.5603Z" fill="black"/>
<path d="M646.908 32.9303H663.153V49.1753H667.428L676.643 36.8253C679.018 33.5953 682.913 32.9303 687.188 32.9303H695.928V47.2753H688.233L682.343 54.8753L696.308 81.0003H678.733L669.518 63.5203H663.153V81.0003H646.908V32.9303Z" fill="black"/>
<path d="M699.272 56.7753C699.272 41.2903 709.912 31.9803 724.827 31.9803C741.452 31.9803 751.047 41.0053 751.047 56.1103V60.3853H715.612C716.182 66.3703 719.697 69.6953 725.587 69.6953C730.622 69.6953 734.042 67.7003 734.992 63.9953H751.142C749.812 74.6353 740.407 81.9503 725.587 81.9503C709.342 81.9503 699.272 71.7853 699.272 56.7753ZM715.612 52.0253H735.182C734.707 46.7053 731.002 43.7603 725.302 43.7603C719.697 43.7603 715.992 46.7053 715.612 52.0253Z" fill="black"/>
<path d="M758.236 101.045V32.9303H774.481V35.2103L771.441 44.2353H775.431C777.901 38.0603 782.176 31.9803 794.241 31.9803C808.206 31.9803 814.856 43.5703 814.856 56.9653C814.856 70.4553 808.206 81.9503 794.241 81.9503C782.176 81.9503 777.901 75.8703 775.431 69.6003H771.441L774.481 78.7203V101.045H758.236ZM774.481 56.9653C774.481 64.5653 778.471 67.6053 786.451 67.6053C794.526 67.6053 798.611 64.5653 798.611 56.9653C798.611 49.4603 794.526 46.3253 786.451 46.3253C778.471 46.3253 774.481 49.4603 774.481 56.9653Z" fill="black"/>
<path d="M820.164 67.8903C820.164 59.5303 825.009 54.5903 839.734 53.0703L854.364 51.4553C854.364 46.4203 851.514 44.4253 846.004 44.4253C840.114 44.4253 836.789 46.8953 836.599 51.1703H821.304C821.589 38.5353 832.229 31.9803 845.434 31.9803C858.734 31.9803 870.704 37.9653 870.704 51.8353V66.6553H877.639V81.0003H866.619C861.964 81.0003 859.209 78.3403 859.209 73.6853V73.2103L861.774 67.4153H857.784C855.979 75.2053 851.419 81.9503 837.929 81.9503C822.729 81.9503 820.164 72.8303 820.164 67.8903ZM836.124 65.1353C836.124 68.2703 838.974 69.0303 842.109 69.0303C848.854 69.0303 854.364 65.4203 854.364 59.6253L842.774 61.3353C838.499 62.0003 836.124 62.4753 836.124 65.1353Z" fill="black"/>
<path d="M883.666 81.0003V32.9303H914.826L918.816 76.9153H922.901L926.891 32.9303H958.241V81.0003H942.946V46.0403L945.986 36.9203H941.996L935.631 81.0003H905.991L899.816 36.9203H895.731L898.866 46.0403V81.0003H883.666Z" fill="black"/>
<path d="M1023.81 81.0003H1008.52V45.5653L1011.65 36.9203H1007.57L995.786 81.0003H965.956V32.9303H981.156V67.8903L978.116 76.9153H982.106L993.981 32.9303H1023.81V81.0003Z" fill="black"/>
<path d="M1031.64 32.9303H1047.88V49.1753H1052.16L1061.37 36.8253C1063.75 33.5953 1067.64 32.9303 1071.92 32.9303H1080.66V47.2753H1072.96L1067.07 54.8753L1081.04 81.0003H1063.46L1054.25 63.5203H1047.88V81.0003H1031.64V32.9303Z" fill="black"/>
<path d="M1085.03 67.8903C1085.03 59.5303 1089.88 54.5903 1104.6 53.0703L1119.23 51.4553C1119.23 46.4203 1116.38 44.4253 1110.87 44.4253C1104.98 44.4253 1101.66 46.8953 1101.47 51.1703H1086.17C1086.46 38.5353 1097.1 31.9803 1110.3 31.9803C1123.6 31.9803 1135.57 37.9653 1135.57 51.8353V66.6553H1142.51V81.0003H1131.49C1126.83 81.0003 1124.08 78.3403 1124.08 73.6853V73.2103L1126.64 67.4153H1122.65C1120.85 75.2053 1116.29 81.9503 1102.8 81.9503C1087.6 81.9503 1085.03 72.8303 1085.03 67.8903ZM1100.99 65.1353C1100.99 68.2703 1103.84 69.0303 1106.98 69.0303C1113.72 69.0303 1119.23 65.4203 1119.23 59.6253L1107.64 61.3353C1103.37 62.0003 1100.99 62.4753 1100.99 65.1353Z" fill="black"/>
<path d="M48.285 82.3303C26.34 82.3303 12.755 67.3203 12.755 47.4653C12.755 27.7053 26.34 12.6953 48.285 12.6953C67.475 12.6953 80.205 23.0503 82.2 39.8653H64.435C63.01 32.6453 56.835 28.3703 48.38 28.3703C38.025 28.3703 30.615 34.2603 30.615 47.4653C30.615 60.7653 38.025 66.6553 48.38 66.6553C56.835 66.6553 63.01 62.2853 64.435 55.0653H82.2C80.205 71.9753 67.475 82.3303 48.285 82.3303Z" stroke="black" stroke-width="24" mask="url(#path-1-outside-1_231_1516)"/>
<path d="M89.3399 32.9303H105.585V49.1753H109.86L119.075 36.8253C121.45 33.5953 125.345 32.9303 129.62 32.9303H138.36V47.2753H130.665L124.775 54.8753L138.74 81.0003H121.165L111.95 63.5203H105.585V81.0003H89.3399V32.9303Z" stroke="black" stroke-width="24" mask="url(#path-1-outside-1_231_1516)"/>
<path d="M141.611 56.8703C141.611 39.8653 153.866 31.9803 168.971 31.9803C183.886 31.9803 196.236 39.8653 196.236 56.8703C196.236 74.0653 183.886 81.9503 168.971 81.9503C153.866 81.9503 141.611 74.0653 141.611 56.8703ZM157.856 56.8703C157.856 64.0903 162.321 67.6053 168.971 67.6053C175.431 67.6053 179.896 64.0903 179.896 56.8703C179.896 49.7453 175.431 46.3253 168.971 46.3253C162.321 46.3253 157.856 49.7453 157.856 56.8703Z" stroke="black" stroke-width="24" mask="url(#path-1-outside-1_231_1516)"/>
<path d="M203.451 32.9303H253.706V81.0003H237.461V47.2753H219.696V81.0003H203.451V32.9303Z" stroke="black" stroke-width="24" mask="url(#path-1-outside-1_231_1516)"/>
<path d="M319.382 81.0003H304.087V45.5653L307.222 36.9203H303.137L291.357 81.0003H261.527V32.9303H276.727V67.8903L273.687 76.9153H277.677L289.552 32.9303H319.382V81.0003Z" stroke="black" stroke-width="24" mask="url(#path-1-outside-1_231_1516)"/>
<path d="M327.211 32.9303H343.456V49.7453H365.496V32.9303H381.836V81.0003H365.496V63.9953H343.456V81.0003H327.211V32.9303Z" stroke="black" stroke-width="24" mask="url(#path-1-outside-1_231_1516)"/>
<path d="M389.037 56.8703C389.037 40.5303 400.247 31.9803 415.542 31.9803C429.317 31.9803 441.287 39.5803 441.857 53.0703H425.517C425.042 49.4603 421.527 46.3253 415.542 46.3253C409.842 46.3253 405.282 49.9353 405.282 56.8703C405.282 63.9003 409.842 67.6053 415.542 67.6053C421.527 67.6053 425.042 64.4703 425.517 60.8603H441.857C441.287 74.3503 429.317 81.9503 415.542 81.9503C400.247 81.9503 389.037 73.3053 389.037 56.8703Z" stroke="black" stroke-width="24" mask="url(#path-1-outside-1_231_1516)"/>
<path d="M449.115 32.9303H465.36V49.1753H469.635L478.85 36.8253C481.225 33.5953 485.12 32.9303 489.395 32.9303H498.135V47.2753H490.44L484.55 54.8753L498.515 81.0003H480.94L471.725 63.5203H465.36V81.0003H449.115V32.9303Z" stroke="black" stroke-width="24" mask="url(#path-1-outside-1_231_1516)"/>
<path d="M502.508 67.8903C502.508 59.5303 507.353 54.5903 522.078 53.0703L536.708 51.4553C536.708 46.4203 533.858 44.4253 528.348 44.4253C522.458 44.4253 519.133 46.8953 518.943 51.1703H503.648C503.933 38.5353 514.573 31.9803 527.778 31.9803C541.078 31.9803 553.048 37.9653 553.048 51.8353V66.6553H559.983V81.0003H548.963C544.308 81.0003 541.553 78.3403 541.553 73.6853V73.2103L544.118 67.4153H540.128C538.323 75.2053 533.763 81.9503 520.273 81.9503C505.073 81.9503 502.508 72.8303 502.508 67.8903ZM518.468 65.1353C518.468 68.2703 521.318 69.0303 524.453 69.0303C531.198 69.0303 536.708 65.4203 536.708 59.6253L525.118 61.3353C520.843 62.0003 518.468 62.4753 518.468 65.1353Z" stroke="black" stroke-width="24" mask="url(#path-1-outside-1_231_1516)"/>
<path d="M611.513 81.0003H595.173V62.2853H590.898L581.303 75.6803C578.453 79.3853 575.698 81.0003 571.233 81.0003H564.393V67.7953H571.423L575.888 61.7153C570.283 60.6703 564.868 57.4403 564.868 48.2253C564.868 36.2553 574.273 32.9303 583.203 32.9303H611.513V81.0003ZM581.113 47.5603C581.113 50.2203 582.633 52.2153 587.478 52.2153H595.173V42.9053H587.478C582.633 42.9053 581.113 44.9003 581.113 47.5603Z" stroke="black" stroke-width="24" mask="url(#path-1-outside-1_231_1516)"/>
<path d="M646.908 32.9303H663.153V49.1753H667.428L676.643 36.8253C679.018 33.5953 682.913 32.9303 687.188 32.9303H695.928V47.2753H688.233L682.343 54.8753L696.308 81.0003H678.733L669.518 63.5203H663.153V81.0003H646.908V32.9303Z" stroke="black" stroke-width="24" mask="url(#path-1-outside-1_231_1516)"/>
<path d="M699.272 56.7753C699.272 41.2903 709.912 31.9803 724.827 31.9803C741.452 31.9803 751.047 41.0053 751.047 56.1103V60.3853H715.612C716.182 66.3703 719.697 69.6953 725.587 69.6953C730.622 69.6953 734.042 67.7003 734.992 63.9953H751.142C749.812 74.6353 740.407 81.9503 725.587 81.9503C709.342 81.9503 699.272 71.7853 699.272 56.7753ZM715.612 52.0253H735.182C734.707 46.7053 731.002 43.7603 725.302 43.7603C719.697 43.7603 715.992 46.7053 715.612 52.0253Z" stroke="black" stroke-width="24" mask="url(#path-1-outside-1_231_1516)"/>
<path d="M758.236 101.045V32.9303H774.481V35.2103L771.441 44.2353H775.431C777.901 38.0603 782.176 31.9803 794.241 31.9803C808.206 31.9803 814.856 43.5703 814.856 56.9653C814.856 70.4553 808.206 81.9503 794.241 81.9503C782.176 81.9503 777.901 75.8703 775.431 69.6003H771.441L774.481 78.7203V101.045H758.236ZM774.481 56.9653C774.481 64.5653 778.471 67.6053 786.451 67.6053C794.526 67.6053 798.611 64.5653 798.611 56.9653C798.611 49.4603 794.526 46.3253 786.451 46.3253C778.471 46.3253 774.481 49.4603 774.481 56.9653Z" stroke="black" stroke-width="24" mask="url(#path-1-outside-1_231_1516)"/>
<path d="M820.164 67.8903C820.164 59.5303 825.009 54.5903 839.734 53.0703L854.364 51.4553C854.364 46.4203 851.514 44.4253 846.004 44.4253C840.114 44.4253 836.789 46.8953 836.599 51.1703H821.304C821.589 38.5353 832.229 31.9803 845.434 31.9803C858.734 31.9803 870.704 37.9653 870.704 51.8353V66.6553H877.639V81.0003H866.619C861.964 81.0003 859.209 78.3403 859.209 73.6853V73.2103L861.774 67.4153H857.784C855.979 75.2053 851.419 81.9503 837.929 81.9503C822.729 81.9503 820.164 72.8303 820.164 67.8903ZM836.124 65.1353C836.124 68.2703 838.974 69.0303 842.109 69.0303C848.854 69.0303 854.364 65.4203 854.364 59.6253L842.774 61.3353C838.499 62.0003 836.124 62.4753 836.124 65.1353Z" stroke="black" stroke-width="24" mask="url(#path-1-outside-1_231_1516)"/>
<path d="M883.666 81.0003V32.9303H914.826L918.816 76.9153H922.901L926.891 32.9303H958.241V81.0003H942.946V46.0403L945.986 36.9203H941.996L935.631 81.0003H905.991L899.816 36.9203H895.731L898.866 46.0403V81.0003H883.666Z" stroke="black" stroke-width="24" mask="url(#path-1-outside-1_231_1516)"/>
<path d="M1023.81 81.0003H1008.52V45.5653L1011.65 36.9203H1007.57L995.786 81.0003H965.956V32.9303H981.156V67.8903L978.116 76.9153H982.106L993.981 32.9303H1023.81V81.0003Z" stroke="black" stroke-width="24" mask="url(#path-1-outside-1_231_1516)"/>
<path d="M1031.64 32.9303H1047.88V49.1753H1052.16L1061.37 36.8253C1063.75 33.5953 1067.64 32.9303 1071.92 32.9303H1080.66V47.2753H1072.96L1067.07 54.8753L1081.04 81.0003H1063.46L1054.25 63.5203H1047.88V81.0003H1031.64V32.9303Z" stroke="black" stroke-width="24" mask="url(#path-1-outside-1_231_1516)"/>
<path d="M1085.03 67.8903C1085.03 59.5303 1089.88 54.5903 1104.6 53.0703L1119.23 51.4553C1119.23 46.4203 1116.38 44.4253 1110.87 44.4253C1104.98 44.4253 1101.66 46.8953 1101.47 51.1703H1086.17C1086.46 38.5353 1097.1 31.9803 1110.3 31.9803C1123.6 31.9803 1135.57 37.9653 1135.57 51.8353V66.6553H1142.51V81.0003H1131.49C1126.83 81.0003 1124.08 78.3403 1124.08 73.6853V73.2103L1126.64 67.4153H1122.65C1120.85 75.2053 1116.29 81.9503 1102.8 81.9503C1087.6 81.9503 1085.03 72.8303 1085.03 67.8903ZM1100.99 65.1353C1100.99 68.2703 1103.84 69.0303 1106.98 69.0303C1113.72 69.0303 1119.23 65.4203 1119.23 59.6253L1107.64 61.3353C1103.37 62.0003 1100.99 62.4753 1100.99 65.1353Z" stroke="black" stroke-width="24" mask="url(#path-1-outside-1_231_1516)"/>
</svg>
