<svg width="1395" height="119" viewBox="0 0 1395 119" fill="none" xmlns="http://www.w3.org/2000/svg">
<path fill-rule="evenodd" clip-rule="evenodd" d="M102.568 7.125H56.7996L51.6472 18.8889L46.4036 7.125H0.880859L26.764 58.9986L15.4043 59.0671V98.1H51.7243C56.432 98.1 62.0365 96.8423 66.4454 92.5052C68.549 90.4358 69.9669 88.073 70.8771 85.6287C72.5765 87.7017 74.5278 89.5546 76.6789 91.1666C83.9184 96.5917 93.0171 99.05 101.984 99.05C108.298 99.05 114.586 97.9084 120.25 95.3274V98.1H132.25C141.801 98.1 150.166 95.8821 156.54 90.5949V98.1H196.88V93.3999C203.111 97.1961 210.523 99.05 218.415 99.05C225.912 99.05 233.002 97.5607 239.065 94.3906V98.1H317.69V93.4943C324.179 97.3667 331.762 99.05 339.396 99.05C346.882 99.05 354.458 97.3371 360.969 93.6156V98.1H435.095C437.889 98.7322 440.908 99.05 444.127 99.05C450.743 99.05 456.701 97.7804 461.727 94.977C465.245 97.2716 469.222 98.1 472.817 98.1H495.837V98.0905C499.361 98.001 502.959 97.2644 506.435 95.385C506.635 95.2767 506.832 95.1661 507.026 95.0532V98.1H547.366V26.03H507.056C501.439 26.03 494.118 27.0195 487.852 31.2252C485.469 32.8252 483.422 34.7672 481.759 37.0121C480.104 35.103 478.202 33.4092 476.095 31.9472C468.81 26.8917 459.842 25.08 451.632 25.08C445.644 25.08 439.523 26.1269 433.989 28.5803V26.03H413.249C410.372 26.03 405.756 26.2229 401.214 28.2411V26.03H360.969V30.5144C354.458 26.7929 346.882 25.08 339.396 25.08C331.772 25.08 324.187 26.7446 317.69 30.5982V26.03H239.065V30.2256C232.782 26.6491 225.386 25.08 217.655 25.08C210.222 25.08 203.023 26.8312 196.88 30.5261V26.03H129.655V35.1401C129.431 34.928 129.203 34.7185 128.972 34.5116C121.539 27.8651 111.805 25.08 101.984 25.08C99.049 25.08 96.0994 25.3434 93.2056 25.8881L102.568 7.125ZM128.487 61.725C128.489 61.8694 128.489 62.0144 128.489 62.16V62.1413C128.489 62.002 128.489 61.8632 128.487 61.725ZM461.89 78.31C461.805 78.4697 461.717 78.6281 461.627 78.785C461.717 78.6281 461.805 78.4697 461.89 78.31ZM450.155 74.0374L450.095 74.0434C450.054 74.0473 450.014 74.0511 449.974 74.0548C450.034 74.0493 450.095 74.0435 450.155 74.0374ZM489.903 59.794C489.916 59.8244 489.929 59.8547 489.942 59.8848C489.929 59.8547 489.916 59.8244 489.903 59.794ZM558.762 26.03V118.145H599.007V98.3372C601.448 98.8141 604.037 99.05 606.767 99.05C616.76 99.05 625.026 95.034 630.718 88.3147C630.847 88.4437 630.977 88.5719 631.108 88.6992C638.287 95.6723 648.065 99.05 658.718 99.05C668.031 99.05 676.717 96.7517 683.584 91.7879C684.376 91.2152 685.136 90.6124 685.862 89.981C686.625 90.6984 687.44 91.3828 688.308 92.0317C695.512 97.4142 704.719 99.05 713.684 99.05C720.213 99.05 726.494 98.156 731.97 96.0137V98.1H770.665C776.966 98.1 785.608 97.3005 792.988 92.7556C795.319 91.3204 797.381 89.6032 799.145 87.6213C806.805 95.5071 817.308 99.05 828.872 99.05C840.32 99.05 850.284 96.1125 857.705 89.8239C863.091 95.9383 871.203 99.05 881.275 99.05C887.892 99.05 893.849 97.7804 898.875 94.977C902.393 97.2716 906.37 98.1 909.965 98.1H932.985V59.755H926.05V56.935C926.05 45.9785 921.057 37.3687 913.244 31.9472C905.958 26.8917 896.99 25.08 888.78 25.08C880.358 25.08 871.674 27.1508 864.73 32.2928C863.078 33.5156 861.568 34.8836 860.216 36.3848C859.603 35.7397 858.966 35.1182 858.305 34.5214C864.413 29.9382 869.28 23.1671 870.51 13.5179L872.234 0H830.726L829.166 6.75873C828.697 6.96183 828.109 7.20207 827.374 7.48273C825.634 8.14711 823.383 8.92284 820.401 9.90142C811.714 12.726 803.099 17.0495 796.813 24.8725C793.402 29.1167 791.017 33.9599 789.532 39.3657C783.645 36.6888 777.337 35.9476 772.215 35.8322V26.03H731.97V28.3085C726.442 26.0227 720.022 25.08 713.304 25.08C704.353 25.08 695.594 26.688 688.787 31.5646C687.508 32.4814 686.348 33.476 685.306 34.5381C678.027 27.8837 668.292 25.08 657.958 25.08C648.016 25.08 638.495 28.2122 631.358 34.9369C631.095 35.1845 630.837 35.4356 630.584 35.6902C624.912 29.072 616.707 25.08 606.767 25.08C603.614 25.08 600.65 25.3947 597.888 26.03H558.762ZM627.382 61.875C627.382 61.9383 627.382 62.0016 627.382 62.065C627.382 62.0016 627.382 61.9383 627.382 61.875ZM800.095 47.493C800.102 47.4389 800.11 47.3849 800.118 47.3311C800.11 47.3849 800.102 47.4389 800.095 47.493ZM812.106 50.3226C812.11 50.3135 812.113 50.3044 812.117 50.2953C812.113 50.3044 812.11 50.3135 812.106 50.3226ZM857.405 56.1066C857.408 56.1182 857.41 56.1298 857.412 56.1413C857.41 56.1298 857.408 56.1182 857.405 56.1066ZM1015.15 26.03H940.896V98.1H1015.15V93.3253C1022.01 97.4096 1029.98 99.05 1037.72 99.05C1047.14 99.05 1056.94 96.5724 1064.62 90.1822C1072.63 83.5235 1076.99 73.7074 1076.99 61.97C1076.99 50.284 1072.59 40.5179 1064.6 33.9023C1056.93 27.557 1047.14 25.08 1037.72 25.08C1029.98 25.08 1022 26.7233 1015.15 30.7918V26.03ZM1037.45 61.2399C1037.52 61.1808 1037.58 61.1271 1037.64 61.0784C1037.66 61.09 1037.67 61.1018 1037.68 61.1139C1037.7 61.1248 1037.71 61.136 1037.72 61.1474C1037.74 61.1613 1037.75 61.1756 1037.77 61.1902C1038.05 61.4492 1038.26 61.7252 1038.41 61.97L1038.42 61.9905L1038.43 62.0147C1038.28 62.3009 1038.04 62.6257 1037.72 62.9234C1037.71 62.9361 1037.69 62.9488 1037.68 62.9614C1037.67 62.9736 1037.65 62.9855 1037.64 62.9972C1037.61 62.9703 1037.58 62.9421 1037.54 62.9123C1037.22 62.6174 1036.98 62.2966 1036.83 62.0156C1036.84 62.0005 1036.85 61.9853 1036.85 61.97C1036.99 61.7415 1037.19 61.4846 1037.45 61.2399ZM1038.46 63.4858C1038.46 63.4864 1038.45 63.4837 1038.42 63.4762C1038.45 63.4815 1038.46 63.4852 1038.46 63.4858ZM1126.33 26.03H1086.09V98.1H1167.51L1167.47 98.0263C1170.85 98.7317 1174.31 99.05 1177.72 99.05C1187.13 99.05 1196.94 96.5724 1204.62 90.1822C1205.59 89.3717 1206.51 88.5144 1207.38 87.6125C1208.03 88.3061 1208.72 88.9752 1209.44 89.6184C1216.87 96.2649 1226.6 99.05 1236.42 99.05C1245.39 99.05 1254.49 96.5917 1261.73 91.1666C1265.97 87.9841 1269.44 83.8625 1271.73 78.9625V98.1H1311.98V64.375H1312.82V98.1H1394.68V26.03H1253.59V28.3592C1248.18 26.126 1242.27 25.08 1236.42 25.08C1226.64 25.08 1216.91 27.8231 1209.47 34.4186C1208.73 35.0742 1208.03 35.757 1207.36 36.4657C1206.49 35.5657 1205.57 34.7105 1204.59 33.9023C1196.92 27.557 1187.13 25.08 1177.72 25.08C1171.42 25.08 1164.98 26.1652 1159.11 28.7553V26.03H1138.37C1135.49 26.03 1130.87 26.2229 1126.33 28.2411V26.03ZM1177.45 61.2399C1177.51 61.1808 1177.58 61.1271 1177.64 61.0784C1177.66 61.1004 1177.69 61.1234 1177.72 61.1473C1177.73 61.1613 1177.75 61.1756 1177.76 61.1902C1178.05 61.4492 1178.26 61.7252 1178.4 61.97C1178.41 61.985 1178.42 61.9999 1178.43 62.0147C1178.27 62.3009 1178.04 62.6257 1177.72 62.9234L1177.68 62.9614C1177.66 62.9736 1177.65 62.9855 1177.63 62.9972C1177.6 62.9703 1177.57 62.9421 1177.54 62.9123C1177.21 62.6174 1176.98 62.2967 1176.82 62.0156C1176.83 62.0005 1176.84 61.9853 1176.85 61.97C1176.99 61.7415 1177.18 61.4846 1177.45 61.2399ZM1178.45 63.4858C1178.45 63.4863 1178.44 63.4836 1178.42 63.4762C1178.44 63.4816 1178.45 63.4854 1178.45 63.4858Z" fill="#080808"/>
</svg>
