<svg width="1126" height="112" viewBox="0 0 1126 112" fill="none" xmlns="http://www.w3.org/2000/svg">
<mask id="path-1-outside-1_236_1533" maskUnits="userSpaceOnUse" x="0.415039" y="0.0250244" width="1126" height="112" fill="black">
<rect fill="white" x="0.415039" y="0.0250244" width="1126" height="112"/>
<path d="M12.415 79V12.025H41.39C60.105 12.025 69.32 15.255 69.32 28.175C69.32 40.715 60.01 41.095 52.885 41.76V45.75C63.05 46.13 74.26 46.795 74.26 60.855C74.26 76.625 60.105 79 42.055 79H12.415ZM29.8 64.275H43.005C51.84 64.275 56.78 64.56 56.78 57.53C56.78 50.5 51.555 50.88 43.005 50.88H29.8V64.275ZM29.8 37.39H43.1C48.42 37.39 52.6 37.77 52.6 31.69C52.6 25.8 48.8 25.895 43.1 25.895H29.8V37.39Z"/>
<path d="M78.8646 54.87C78.8646 37.865 91.1196 29.98 106.225 29.98C121.14 29.98 133.49 37.865 133.49 54.87C133.49 72.065 121.14 79.95 106.225 79.95C91.1196 79.95 78.8646 72.065 78.8646 54.87ZM95.1096 54.87C95.1096 62.09 99.5746 65.605 106.225 65.605C112.685 65.605 117.15 62.09 117.15 54.87C117.15 47.745 112.685 44.325 106.225 44.325C99.5746 44.325 95.1096 47.745 95.1096 54.87Z"/>
<path d="M189.838 30.93V79H173.498V45.275H162.668C161.908 66.65 157.918 79 137.208 79V64.655C145.473 64.655 146.613 57.72 146.613 30.93H189.838Z"/>
<path d="M197.058 54.87C197.058 37.865 209.313 29.98 224.418 29.98C239.333 29.98 251.683 37.865 251.683 54.87C251.683 72.065 239.333 79.95 224.418 79.95C209.313 79.95 197.058 72.065 197.058 54.87ZM213.303 54.87C213.303 62.09 217.768 65.605 224.418 65.605C230.878 65.605 235.343 62.09 235.343 54.87C235.343 47.745 230.878 44.325 224.418 44.325C217.768 44.325 213.303 47.745 213.303 54.87Z"/>
<path d="M258.156 39.195C258.156 33.78 261.196 30.93 266.611 30.93H298.816V45.275H274.496V79H258.156V39.195Z"/>
<path d="M300.315 54.87C300.315 37.865 312.57 29.98 327.675 29.98C342.59 29.98 354.94 37.865 354.94 54.87C354.94 72.065 342.59 79.95 327.675 79.95C312.57 79.95 300.315 72.065 300.315 54.87ZM316.56 54.87C316.56 62.09 321.025 65.605 327.675 65.605C334.135 65.605 338.6 62.09 338.6 54.87C338.6 47.745 334.135 44.325 327.675 44.325C321.025 44.325 316.56 47.745 316.56 54.87Z"/>
<path d="M414.649 30.93V64.75H417.784C423.294 64.75 426.239 67.695 426.239 73.11V92.395H409.994V79H372.754V92.395H356.509V73.11C356.509 67.695 359.454 64.75 364.964 64.75H366.199C371.139 58.48 373.039 49.55 373.039 30.93H414.649ZM381.874 64.655H398.689V44.42H388.429C387.574 54.3 385.579 60.095 381.874 64.655Z"/>
<path d="M427.229 54.87C427.229 38.53 438.439 29.98 453.734 29.98C467.509 29.98 479.479 37.58 480.049 51.07H463.709C463.234 47.46 459.719 44.325 453.734 44.325C448.034 44.325 443.474 47.935 443.474 54.87C443.474 61.9 448.034 65.605 453.734 65.605C459.719 65.605 463.234 62.47 463.709 58.86H480.049C479.479 72.35 467.509 79.95 453.734 79.95C438.439 79.95 427.229 71.305 427.229 54.87Z"/>
<path d="M487.307 30.93H503.552V47.175H507.827L517.042 34.825C519.417 31.595 523.312 30.93 527.587 30.93H536.327V45.275H528.632L522.742 52.875L536.707 79H519.132L509.917 61.52H503.552V79H487.307V30.93Z"/>
<path d="M539.577 54.87C539.577 37.865 551.832 29.98 566.937 29.98C581.852 29.98 594.202 37.865 594.202 54.87C594.202 72.065 581.852 79.95 566.937 79.95C551.832 79.95 539.577 72.065 539.577 54.87ZM555.822 54.87C555.822 62.09 560.287 65.605 566.937 65.605C573.397 65.605 577.862 62.09 577.862 54.87C577.862 47.745 573.397 44.325 566.937 44.325C560.287 44.325 555.822 47.745 555.822 54.87Z"/>
<path d="M599.231 54.775C599.231 39.29 609.871 29.98 624.786 29.98C641.411 29.98 651.006 39.005 651.006 54.11V58.385H615.571C616.141 64.37 619.656 67.695 625.546 67.695C630.581 67.695 634.001 65.7 634.951 61.995H651.101C649.771 72.635 640.366 79.95 625.546 79.95C609.301 79.95 599.231 69.785 599.231 54.775ZM615.571 50.025H635.141C634.666 44.705 630.961 41.76 625.261 41.76C619.656 41.76 615.951 44.705 615.571 50.025Z"/>
<path d="M684.079 30.93H700.324V47.175H704.599L713.814 34.825C716.189 31.595 720.084 30.93 724.359 30.93H733.099V45.275H725.404L719.514 52.875L733.479 79H715.904L706.689 61.52H700.324V79H684.079V30.93Z"/>
<path d="M740.207 99.045V30.93H756.452V33.21L753.412 42.235H757.402C759.872 36.06 764.147 29.98 776.212 29.98C790.177 29.98 796.827 41.57 796.827 54.965C796.827 68.455 790.177 79.95 776.212 79.95C764.147 79.95 759.872 73.87 757.402 67.6H753.412L756.452 76.72V99.045H740.207ZM756.452 54.965C756.452 62.565 760.442 65.605 768.422 65.605C776.497 65.605 780.582 62.565 780.582 54.965C780.582 47.46 776.497 44.325 768.422 44.325C760.442 44.325 756.452 47.46 756.452 54.965Z"/>
<path d="M838.298 30.93H856.823L834.688 75.77V90.97C834.688 96.48 831.648 99.235 826.518 99.235H802.008V84.415H818.348V75.77L796.213 30.93H814.548L824.523 55.725V63.99H828.513V55.725L838.298 30.93Z"/>
<path d="M909.351 30.93V47.175H913.436L922.651 34.825C925.121 31.595 928.921 30.93 933.196 30.93H941.936V45.275H934.241L929.396 51.64L943.931 79H926.356L917.236 61.425L909.351 61.52V79H892.916V61.52L885.031 61.425L875.911 79H858.336L872.871 51.64L868.026 45.275H860.331V30.93H869.071C873.346 30.93 877.241 31.595 879.616 34.825L888.831 47.175H892.916V30.93H909.351Z"/>
<path d="M946.111 54.775C946.111 39.29 956.751 29.98 971.666 29.98C988.291 29.98 997.886 39.005 997.886 54.11V58.385H962.451C963.021 64.37 966.536 67.695 972.426 67.695C977.461 67.695 980.881 65.7 981.831 61.995H997.981C996.651 72.635 987.246 79.95 972.426 79.95C956.181 79.95 946.111 69.785 946.111 54.775ZM962.451 50.025H982.021C981.546 44.705 977.841 41.76 972.141 41.76C966.536 41.76 962.831 44.705 962.451 50.025Z"/>
<path d="M1005.08 79V30.93H1030.54C1042.79 30.93 1051.06 33.21 1051.06 42.14C1051.06 50.88 1044.12 51.925 1040.32 52.21V56.2C1046.59 56.295 1054.57 57.53 1054.57 66.555C1054.57 75.77 1046.31 79 1034.05 79H1005.08ZM1020.28 67.98H1034.05C1037.76 67.98 1039.28 66.84 1039.28 63.895C1039.28 61.045 1037.76 60.095 1034.05 60.095H1020.28V67.98ZM1020.28 48.885H1030.54C1034.24 48.885 1035.76 48.22 1035.76 45.465C1035.76 42.9 1034.24 41.95 1030.54 41.95H1020.28V48.885Z"/>
<path d="M1059.2 54.87C1059.2 37.865 1071.46 29.98 1086.56 29.98C1101.48 29.98 1113.83 37.865 1113.83 54.87C1113.83 72.065 1101.48 79.95 1086.56 79.95C1071.46 79.95 1059.2 72.065 1059.2 54.87ZM1075.45 54.87C1075.45 62.09 1079.91 65.605 1086.56 65.605C1093.02 65.605 1097.49 62.09 1097.49 54.87C1097.49 47.745 1093.02 44.325 1086.56 44.325C1079.91 44.325 1075.45 47.745 1075.45 54.87Z"/>
</mask>
<path d="M12.415 79V12.025H41.39C60.105 12.025 69.32 15.255 69.32 28.175C69.32 40.715 60.01 41.095 52.885 41.76V45.75C63.05 46.13 74.26 46.795 74.26 60.855C74.26 76.625 60.105 79 42.055 79H12.415ZM29.8 64.275H43.005C51.84 64.275 56.78 64.56 56.78 57.53C56.78 50.5 51.555 50.88 43.005 50.88H29.8V64.275ZM29.8 37.39H43.1C48.42 37.39 52.6 37.77 52.6 31.69C52.6 25.8 48.8 25.895 43.1 25.895H29.8V37.39Z" fill="black"/>
<path d="M78.8646 54.87C78.8646 37.865 91.1196 29.98 106.225 29.98C121.14 29.98 133.49 37.865 133.49 54.87C133.49 72.065 121.14 79.95 106.225 79.95C91.1196 79.95 78.8646 72.065 78.8646 54.87ZM95.1096 54.87C95.1096 62.09 99.5746 65.605 106.225 65.605C112.685 65.605 117.15 62.09 117.15 54.87C117.15 47.745 112.685 44.325 106.225 44.325C99.5746 44.325 95.1096 47.745 95.1096 54.87Z" fill="black"/>
<path d="M189.838 30.93V79H173.498V45.275H162.668C161.908 66.65 157.918 79 137.208 79V64.655C145.473 64.655 146.613 57.72 146.613 30.93H189.838Z" fill="black"/>
<path d="M197.058 54.87C197.058 37.865 209.313 29.98 224.418 29.98C239.333 29.98 251.683 37.865 251.683 54.87C251.683 72.065 239.333 79.95 224.418 79.95C209.313 79.95 197.058 72.065 197.058 54.87ZM213.303 54.87C213.303 62.09 217.768 65.605 224.418 65.605C230.878 65.605 235.343 62.09 235.343 54.87C235.343 47.745 230.878 44.325 224.418 44.325C217.768 44.325 213.303 47.745 213.303 54.87Z" fill="black"/>
<path d="M258.156 39.195C258.156 33.78 261.196 30.93 266.611 30.93H298.816V45.275H274.496V79H258.156V39.195Z" fill="black"/>
<path d="M300.315 54.87C300.315 37.865 312.57 29.98 327.675 29.98C342.59 29.98 354.94 37.865 354.94 54.87C354.94 72.065 342.59 79.95 327.675 79.95C312.57 79.95 300.315 72.065 300.315 54.87ZM316.56 54.87C316.56 62.09 321.025 65.605 327.675 65.605C334.135 65.605 338.6 62.09 338.6 54.87C338.6 47.745 334.135 44.325 327.675 44.325C321.025 44.325 316.56 47.745 316.56 54.87Z" fill="black"/>
<path d="M414.649 30.93V64.75H417.784C423.294 64.75 426.239 67.695 426.239 73.11V92.395H409.994V79H372.754V92.395H356.509V73.11C356.509 67.695 359.454 64.75 364.964 64.75H366.199C371.139 58.48 373.039 49.55 373.039 30.93H414.649ZM381.874 64.655H398.689V44.42H388.429C387.574 54.3 385.579 60.095 381.874 64.655Z" fill="black"/>
<path d="M427.229 54.87C427.229 38.53 438.439 29.98 453.734 29.98C467.509 29.98 479.479 37.58 480.049 51.07H463.709C463.234 47.46 459.719 44.325 453.734 44.325C448.034 44.325 443.474 47.935 443.474 54.87C443.474 61.9 448.034 65.605 453.734 65.605C459.719 65.605 463.234 62.47 463.709 58.86H480.049C479.479 72.35 467.509 79.95 453.734 79.95C438.439 79.95 427.229 71.305 427.229 54.87Z" fill="black"/>
<path d="M487.307 30.93H503.552V47.175H507.827L517.042 34.825C519.417 31.595 523.312 30.93 527.587 30.93H536.327V45.275H528.632L522.742 52.875L536.707 79H519.132L509.917 61.52H503.552V79H487.307V30.93Z" fill="black"/>
<path d="M539.577 54.87C539.577 37.865 551.832 29.98 566.937 29.98C581.852 29.98 594.202 37.865 594.202 54.87C594.202 72.065 581.852 79.95 566.937 79.95C551.832 79.95 539.577 72.065 539.577 54.87ZM555.822 54.87C555.822 62.09 560.287 65.605 566.937 65.605C573.397 65.605 577.862 62.09 577.862 54.87C577.862 47.745 573.397 44.325 566.937 44.325C560.287 44.325 555.822 47.745 555.822 54.87Z" fill="black"/>
<path d="M599.231 54.775C599.231 39.29 609.871 29.98 624.786 29.98C641.411 29.98 651.006 39.005 651.006 54.11V58.385H615.571C616.141 64.37 619.656 67.695 625.546 67.695C630.581 67.695 634.001 65.7 634.951 61.995H651.101C649.771 72.635 640.366 79.95 625.546 79.95C609.301 79.95 599.231 69.785 599.231 54.775ZM615.571 50.025H635.141C634.666 44.705 630.961 41.76 625.261 41.76C619.656 41.76 615.951 44.705 615.571 50.025Z" fill="black"/>
<path d="M684.079 30.93H700.324V47.175H704.599L713.814 34.825C716.189 31.595 720.084 30.93 724.359 30.93H733.099V45.275H725.404L719.514 52.875L733.479 79H715.904L706.689 61.52H700.324V79H684.079V30.93Z" fill="black"/>
<path d="M740.207 99.045V30.93H756.452V33.21L753.412 42.235H757.402C759.872 36.06 764.147 29.98 776.212 29.98C790.177 29.98 796.827 41.57 796.827 54.965C796.827 68.455 790.177 79.95 776.212 79.95C764.147 79.95 759.872 73.87 757.402 67.6H753.412L756.452 76.72V99.045H740.207ZM756.452 54.965C756.452 62.565 760.442 65.605 768.422 65.605C776.497 65.605 780.582 62.565 780.582 54.965C780.582 47.46 776.497 44.325 768.422 44.325C760.442 44.325 756.452 47.46 756.452 54.965Z" fill="black"/>
<path d="M838.298 30.93H856.823L834.688 75.77V90.97C834.688 96.48 831.648 99.235 826.518 99.235H802.008V84.415H818.348V75.77L796.213 30.93H814.548L824.523 55.725V63.99H828.513V55.725L838.298 30.93Z" fill="black"/>
<path d="M909.351 30.93V47.175H913.436L922.651 34.825C925.121 31.595 928.921 30.93 933.196 30.93H941.936V45.275H934.241L929.396 51.64L943.931 79H926.356L917.236 61.425L909.351 61.52V79H892.916V61.52L885.031 61.425L875.911 79H858.336L872.871 51.64L868.026 45.275H860.331V30.93H869.071C873.346 30.93 877.241 31.595 879.616 34.825L888.831 47.175H892.916V30.93H909.351Z" fill="black"/>
<path d="M946.111 54.775C946.111 39.29 956.751 29.98 971.666 29.98C988.291 29.98 997.886 39.005 997.886 54.11V58.385H962.451C963.021 64.37 966.536 67.695 972.426 67.695C977.461 67.695 980.881 65.7 981.831 61.995H997.981C996.651 72.635 987.246 79.95 972.426 79.95C956.181 79.95 946.111 69.785 946.111 54.775ZM962.451 50.025H982.021C981.546 44.705 977.841 41.76 972.141 41.76C966.536 41.76 962.831 44.705 962.451 50.025Z" fill="black"/>
<path d="M1005.08 79V30.93H1030.54C1042.79 30.93 1051.06 33.21 1051.06 42.14C1051.06 50.88 1044.12 51.925 1040.32 52.21V56.2C1046.59 56.295 1054.57 57.53 1054.57 66.555C1054.57 75.77 1046.31 79 1034.05 79H1005.08ZM1020.28 67.98H1034.05C1037.76 67.98 1039.28 66.84 1039.28 63.895C1039.28 61.045 1037.76 60.095 1034.05 60.095H1020.28V67.98ZM1020.28 48.885H1030.54C1034.24 48.885 1035.76 48.22 1035.76 45.465C1035.76 42.9 1034.24 41.95 1030.54 41.95H1020.28V48.885Z" fill="black"/>
<path d="M1059.2 54.87C1059.2 37.865 1071.46 29.98 1086.56 29.98C1101.48 29.98 1113.83 37.865 1113.83 54.87C1113.83 72.065 1101.48 79.95 1086.56 79.95C1071.46 79.95 1059.2 72.065 1059.2 54.87ZM1075.45 54.87C1075.45 62.09 1079.91 65.605 1086.56 65.605C1093.02 65.605 1097.49 62.09 1097.49 54.87C1097.49 47.745 1093.02 44.325 1086.56 44.325C1079.91 44.325 1075.45 47.745 1075.45 54.87Z" fill="black"/>
<path d="M12.415 79V12.025H41.39C60.105 12.025 69.32 15.255 69.32 28.175C69.32 40.715 60.01 41.095 52.885 41.76V45.75C63.05 46.13 74.26 46.795 74.26 60.855C74.26 76.625 60.105 79 42.055 79H12.415ZM29.8 64.275H43.005C51.84 64.275 56.78 64.56 56.78 57.53C56.78 50.5 51.555 50.88 43.005 50.88H29.8V64.275ZM29.8 37.39H43.1C48.42 37.39 52.6 37.77 52.6 31.69C52.6 25.8 48.8 25.895 43.1 25.895H29.8V37.39Z" stroke="black" stroke-width="24" mask="url(#path-1-outside-1_236_1533)"/>
<path d="M78.8646 54.87C78.8646 37.865 91.1196 29.98 106.225 29.98C121.14 29.98 133.49 37.865 133.49 54.87C133.49 72.065 121.14 79.95 106.225 79.95C91.1196 79.95 78.8646 72.065 78.8646 54.87ZM95.1096 54.87C95.1096 62.09 99.5746 65.605 106.225 65.605C112.685 65.605 117.15 62.09 117.15 54.87C117.15 47.745 112.685 44.325 106.225 44.325C99.5746 44.325 95.1096 47.745 95.1096 54.87Z" stroke="black" stroke-width="24" mask="url(#path-1-outside-1_236_1533)"/>
<path d="M189.838 30.93V79H173.498V45.275H162.668C161.908 66.65 157.918 79 137.208 79V64.655C145.473 64.655 146.613 57.72 146.613 30.93H189.838Z" stroke="black" stroke-width="24" mask="url(#path-1-outside-1_236_1533)"/>
<path d="M197.058 54.87C197.058 37.865 209.313 29.98 224.418 29.98C239.333 29.98 251.683 37.865 251.683 54.87C251.683 72.065 239.333 79.95 224.418 79.95C209.313 79.95 197.058 72.065 197.058 54.87ZM213.303 54.87C213.303 62.09 217.768 65.605 224.418 65.605C230.878 65.605 235.343 62.09 235.343 54.87C235.343 47.745 230.878 44.325 224.418 44.325C217.768 44.325 213.303 47.745 213.303 54.87Z" stroke="black" stroke-width="24" mask="url(#path-1-outside-1_236_1533)"/>
<path d="M258.156 39.195C258.156 33.78 261.196 30.93 266.611 30.93H298.816V45.275H274.496V79H258.156V39.195Z" stroke="black" stroke-width="24" mask="url(#path-1-outside-1_236_1533)"/>
<path d="M300.315 54.87C300.315 37.865 312.57 29.98 327.675 29.98C342.59 29.98 354.94 37.865 354.94 54.87C354.94 72.065 342.59 79.95 327.675 79.95C312.57 79.95 300.315 72.065 300.315 54.87ZM316.56 54.87C316.56 62.09 321.025 65.605 327.675 65.605C334.135 65.605 338.6 62.09 338.6 54.87C338.6 47.745 334.135 44.325 327.675 44.325C321.025 44.325 316.56 47.745 316.56 54.87Z" stroke="black" stroke-width="24" mask="url(#path-1-outside-1_236_1533)"/>
<path d="M414.649 30.93V64.75H417.784C423.294 64.75 426.239 67.695 426.239 73.11V92.395H409.994V79H372.754V92.395H356.509V73.11C356.509 67.695 359.454 64.75 364.964 64.75H366.199C371.139 58.48 373.039 49.55 373.039 30.93H414.649ZM381.874 64.655H398.689V44.42H388.429C387.574 54.3 385.579 60.095 381.874 64.655Z" stroke="black" stroke-width="24" mask="url(#path-1-outside-1_236_1533)"/>
<path d="M427.229 54.87C427.229 38.53 438.439 29.98 453.734 29.98C467.509 29.98 479.479 37.58 480.049 51.07H463.709C463.234 47.46 459.719 44.325 453.734 44.325C448.034 44.325 443.474 47.935 443.474 54.87C443.474 61.9 448.034 65.605 453.734 65.605C459.719 65.605 463.234 62.47 463.709 58.86H480.049C479.479 72.35 467.509 79.95 453.734 79.95C438.439 79.95 427.229 71.305 427.229 54.87Z" stroke="black" stroke-width="24" mask="url(#path-1-outside-1_236_1533)"/>
<path d="M487.307 30.93H503.552V47.175H507.827L517.042 34.825C519.417 31.595 523.312 30.93 527.587 30.93H536.327V45.275H528.632L522.742 52.875L536.707 79H519.132L509.917 61.52H503.552V79H487.307V30.93Z" stroke="black" stroke-width="24" mask="url(#path-1-outside-1_236_1533)"/>
<path d="M539.577 54.87C539.577 37.865 551.832 29.98 566.937 29.98C581.852 29.98 594.202 37.865 594.202 54.87C594.202 72.065 581.852 79.95 566.937 79.95C551.832 79.95 539.577 72.065 539.577 54.87ZM555.822 54.87C555.822 62.09 560.287 65.605 566.937 65.605C573.397 65.605 577.862 62.09 577.862 54.87C577.862 47.745 573.397 44.325 566.937 44.325C560.287 44.325 555.822 47.745 555.822 54.87Z" stroke="black" stroke-width="24" mask="url(#path-1-outside-1_236_1533)"/>
<path d="M599.231 54.775C599.231 39.29 609.871 29.98 624.786 29.98C641.411 29.98 651.006 39.005 651.006 54.11V58.385H615.571C616.141 64.37 619.656 67.695 625.546 67.695C630.581 67.695 634.001 65.7 634.951 61.995H651.101C649.771 72.635 640.366 79.95 625.546 79.95C609.301 79.95 599.231 69.785 599.231 54.775ZM615.571 50.025H635.141C634.666 44.705 630.961 41.76 625.261 41.76C619.656 41.76 615.951 44.705 615.571 50.025Z" stroke="black" stroke-width="24" mask="url(#path-1-outside-1_236_1533)"/>
<path d="M684.079 30.93H700.324V47.175H704.599L713.814 34.825C716.189 31.595 720.084 30.93 724.359 30.93H733.099V45.275H725.404L719.514 52.875L733.479 79H715.904L706.689 61.52H700.324V79H684.079V30.93Z" stroke="black" stroke-width="24" mask="url(#path-1-outside-1_236_1533)"/>
<path d="M740.207 99.045V30.93H756.452V33.21L753.412 42.235H757.402C759.872 36.06 764.147 29.98 776.212 29.98C790.177 29.98 796.827 41.57 796.827 54.965C796.827 68.455 790.177 79.95 776.212 79.95C764.147 79.95 759.872 73.87 757.402 67.6H753.412L756.452 76.72V99.045H740.207ZM756.452 54.965C756.452 62.565 760.442 65.605 768.422 65.605C776.497 65.605 780.582 62.565 780.582 54.965C780.582 47.46 776.497 44.325 768.422 44.325C760.442 44.325 756.452 47.46 756.452 54.965Z" stroke="black" stroke-width="24" mask="url(#path-1-outside-1_236_1533)"/>
<path d="M838.298 30.93H856.823L834.688 75.77V90.97C834.688 96.48 831.648 99.235 826.518 99.235H802.008V84.415H818.348V75.77L796.213 30.93H814.548L824.523 55.725V63.99H828.513V55.725L838.298 30.93Z" stroke="black" stroke-width="24" mask="url(#path-1-outside-1_236_1533)"/>
<path d="M909.351 30.93V47.175H913.436L922.651 34.825C925.121 31.595 928.921 30.93 933.196 30.93H941.936V45.275H934.241L929.396 51.64L943.931 79H926.356L917.236 61.425L909.351 61.52V79H892.916V61.52L885.031 61.425L875.911 79H858.336L872.871 51.64L868.026 45.275H860.331V30.93H869.071C873.346 30.93 877.241 31.595 879.616 34.825L888.831 47.175H892.916V30.93H909.351Z" stroke="black" stroke-width="24" mask="url(#path-1-outside-1_236_1533)"/>
<path d="M946.111 54.775C946.111 39.29 956.751 29.98 971.666 29.98C988.291 29.98 997.886 39.005 997.886 54.11V58.385H962.451C963.021 64.37 966.536 67.695 972.426 67.695C977.461 67.695 980.881 65.7 981.831 61.995H997.981C996.651 72.635 987.246 79.95 972.426 79.95C956.181 79.95 946.111 69.785 946.111 54.775ZM962.451 50.025H982.021C981.546 44.705 977.841 41.76 972.141 41.76C966.536 41.76 962.831 44.705 962.451 50.025Z" stroke="black" stroke-width="24" mask="url(#path-1-outside-1_236_1533)"/>
<path d="M1005.08 79V30.93H1030.54C1042.79 30.93 1051.06 33.21 1051.06 42.14C1051.06 50.88 1044.12 51.925 1040.32 52.21V56.2C1046.59 56.295 1054.57 57.53 1054.57 66.555C1054.57 75.77 1046.31 79 1034.05 79H1005.08ZM1020.28 67.98H1034.05C1037.76 67.98 1039.28 66.84 1039.28 63.895C1039.28 61.045 1037.76 60.095 1034.05 60.095H1020.28V67.98ZM1020.28 48.885H1030.54C1034.24 48.885 1035.76 48.22 1035.76 45.465C1035.76 42.9 1034.24 41.95 1030.54 41.95H1020.28V48.885Z" stroke="black" stroke-width="24" mask="url(#path-1-outside-1_236_1533)"/>
<path d="M1059.2 54.87C1059.2 37.865 1071.46 29.98 1086.56 29.98C1101.48 29.98 1113.83 37.865 1113.83 54.87C1113.83 72.065 1101.48 79.95 1086.56 79.95C1071.46 79.95 1059.2 72.065 1059.2 54.87ZM1075.45 54.87C1075.45 62.09 1079.91 65.605 1086.56 65.605C1093.02 65.605 1097.49 62.09 1097.49 54.87C1097.49 47.745 1093.02 44.325 1086.56 44.325C1079.91 44.325 1075.45 47.745 1075.45 54.87Z" stroke="black" stroke-width="24" mask="url(#path-1-outside-1_236_1533)"/>
</svg>
