<svg width="714" height="136" viewBox="0 0 714 136" fill="none" xmlns="http://www.w3.org/2000/svg">
<path fill-rule="evenodd" clip-rule="evenodd" d="M1.34952 3.068V62.663H60.6542V74.8103C58.6661 75.2065 56.7206 75.8111 54.8675 76.6511V74.809H0.936523V122.663H54.8675V120.805C58.6048 122.509 62.722 123.253 66.8116 123.253C70.8333 123.253 74.9293 122.494 78.6621 120.843V122.663H114.93V135.23H139.152C142.289 135.23 146.135 134.37 149.193 131.365C152.279 128.331 153.226 124.427 153.226 121.097V113.757L153.36 113.486C154.277 114.753 155.335 115.93 156.533 117.002C161.5 121.443 167.946 123.253 174.325 123.253C180.163 123.253 186.157 121.654 190.969 118.048C191.444 117.692 191.904 117.319 192.348 116.929L192.429 117.002C197.396 121.443 203.842 123.253 210.221 123.253C216.058 123.253 222.052 121.654 226.865 118.048C228.243 117.015 229.499 115.833 230.602 114.514V122.663H283.118C287.483 122.663 292.58 122.09 296.865 119.602C296.908 119.576 296.951 119.551 296.994 119.526C300.467 122.031 304.918 123.253 310.007 123.253C314.096 123.253 317.877 122.61 321.196 121.116C323.383 122.248 325.723 122.663 327.825 122.663H343.669V95.754H339.351C339.152 88.8422 336.37 83.0172 331.286 79.1299C326.388 75.385 320.377 74.219 315.081 74.219C309.623 74.219 303.847 75.5558 299.147 78.9079C298.727 79.2073 298.319 79.5211 297.923 79.8489C296.77 78.7754 295.501 77.935 294.218 77.287C289.977 75.1455 284.961 74.809 280.935 74.809H219.333V75.5945C216.381 74.6579 213.279 74.219 210.221 74.219C203.866 74.219 197.428 76.0007 192.457 80.4083C192.414 80.447 192.37 80.4859 192.327 80.5249C191.889 80.1411 191.436 79.774 190.969 79.4241C186.157 75.8177 180.163 74.219 174.325 74.219C172.266 74.219 170.198 74.4061 168.174 74.809H140.636L139.086 78.2713L137.511 74.809H88.5859C90.7601 74.2963 92.9947 73.2549 94.9173 71.3649C98.0033 68.3312 98.9502 64.4266 98.9502 61.097V54.6984C99.9978 56.128 101.274 57.4304 102.793 58.5719C107.622 62.2004 113.679 63.253 119.321 63.253C125.008 63.253 130.553 62.1709 134.978 59.3139C135.726 58.8305 136.433 58.3005 137.093 57.7275C141.701 61.4714 147.572 63.253 153.811 63.253C157.779 63.253 161.619 62.6085 165.088 61.2228V62.663H219.019V14.809H211.705C212.174 12.7851 212.352 10.8 212.352 9V0H172.286V9C172.286 10.792 172.459 12.7786 172.926 14.809H165.088V16.4659C161.466 14.9038 157.445 14.219 153.339 14.219C147.319 14.219 141.452 15.9792 136.829 19.8147C136.139 19.1958 135.393 18.625 134.595 18.1068C130.247 15.2804 124.786 14.219 119.144 14.219C116.854 14.219 114.542 14.3883 112.298 14.809H86.3605L84.8106 18.2712L83.2357 14.809H71.9775V3.068H1.34952ZM108.097 26.0666C108.141 26.0325 108.185 25.9987 108.23 25.9652C108.208 25.9815 108.186 25.9979 108.165 26.0143C108.142 26.0317 108.119 26.0491 108.097 26.0666ZM119.675 54.2513C119.558 54.2524 119.44 54.253 119.321 54.253C119.44 54.253 119.558 54.2524 119.675 54.2513ZM119.806 47.3495C119.841 47.3493 119.876 47.349 119.911 47.3485C119.834 47.3495 119.755 47.35 119.675 47.35C119.719 47.35 119.763 47.3498 119.806 47.3495ZM192.468 20.9763C192.438 20.9766 192.408 20.9768 192.378 20.9769H192.378C192.408 20.9768 192.438 20.9766 192.468 20.9763ZM78.6621 76.6292C77.3705 76.0578 76.0353 75.5932 74.6748 75.23H78.6621V76.6292ZM65.1458 105.162C65.1275 105.157 65.1093 105.153 65.0911 105.149L65.1458 105.162ZM284.18 92.8913C284.18 92.8955 284.18 92.8997 284.18 92.9039C284.179 92.9181 284.179 92.9323 284.179 92.9464L284.178 92.9565L284.178 92.9599C284.158 93.6643 283.964 94.1354 283.563 94.4425C283.436 94.5399 283.288 94.6208 283.118 94.6874M284.18 92.8913C284.179 92.9132 284.179 92.9349 284.178 92.9565ZM315.081 90.9526C315.009 90.9509 314.935 90.9497 314.861 90.949C314.935 90.9497 315.009 90.9509 315.081 90.9526ZM313.92 106.153C313.864 106.159 313.807 106.166 313.751 106.171L313.713 106.175C313.783 106.168 313.852 106.161 313.92 106.153ZM274.846 44.7865C274.831 44.7471 274.816 44.7076 274.802 44.668C274.816 44.7076 274.831 44.7471 274.846 44.7865ZM289.956 30.535C289.857 30.535 289.758 30.5365 289.661 30.5395C289.758 30.5365 289.857 30.535 289.956 30.535ZM329.499 14.809V15.6322C331.491 15.0249 333.5 14.809 335.426 14.809H349.854V15.9501C353.249 14.7318 356.844 14.219 360.326 14.219C364.475 14.219 368.793 14.9611 372.74 16.7675V14.809H397.604C399.362 14.4154 401.217 14.219 403.157 14.219C409.391 14.219 414.798 16.2809 418.804 20.1417C419.306 19.7069 419.83 19.2954 420.374 18.9079C425.074 15.5558 430.85 14.219 436.308 14.219C439.507 14.219 442.968 14.6447 446.287 15.8077V14.809H548.682C551.686 14.809 555.24 14.9963 558.613 15.9808V14.809H610.538V16.7592C614.497 14.9551 618.831 14.219 623.003 14.219C628.434 14.219 634.153 15.4902 638.951 18.7549C638.989 18.7179 639.026 18.6811 639.064 18.6444C642.151 15.6592 646.025 14.809 649.207 14.809H678.208V15.4462C681.136 14.5887 684.174 14.219 687.131 14.219C693.23 14.219 699.694 15.8226 704.808 20.0532C710.167 24.4867 713.064 31.0089 713.064 38.677C713.064 46.3714 710.191 52.925 704.828 57.3877C699.707 61.649 693.23 63.253 687.131 63.253C680.994 63.253 674.494 61.6599 669.36 57.3877C666.586 55.0796 664.487 52.2164 663.104 48.9321V62.663H634.956V60.9059C631.133 62.5685 626.987 63.253 623.003 63.253C618.835 63.253 614.5 62.5181 610.538 60.7082V62.663H558.613V61.8889C555.982 62.4835 553.309 62.663 550.865 62.663H449.052C446.949 62.663 444.61 62.2479 442.423 61.116C439.104 62.6097 435.322 63.253 431.234 63.253C425.636 63.253 420.81 61.7745 417.209 58.7365C413.404 61.6951 408.59 63.253 403.157 63.253C402.364 63.253 401.588 63.2205 400.829 63.156V75.053H372.74V60.6999C368.791 62.5122 364.471 63.253 360.326 63.253C358.248 63.253 356.129 63.0704 354.035 62.663H301.41V61.2228C297.941 62.6085 294.101 63.253 290.133 63.253C287.383 63.253 284.705 62.9069 282.175 62.1994V70.982H254.086V62.663H248.958V70.982H220.869V50.005C220.869 46.7435 221.78 42.826 224.874 39.7573C226.451 38.1938 228.245 37.1978 230.056 36.5979C230.653 34.4574 231.135 30.7327 231.135 23.809V14.809H274.977V18.4486C279.272 15.5591 284.409 14.219 289.661 14.219C293.767 14.219 297.788 14.9038 301.41 16.4659V14.809H329.499ZM238.694 39.1181C238.693 39.1198 238.693 39.1216 238.692 39.1233C238.693 39.1216 238.693 39.1198 238.694 39.1181ZM247.065 42.6216C247.038 42.6707 247.01 42.7196 246.983 42.7682C247.01 42.7196 247.038 42.6707 247.065 42.6216ZM360.308 36.3805L360.294 36.376C360.062 36.4423 359.612 36.6213 359.108 37.0882C358.657 37.506 358.37 37.9779 358.22 38.3672C358.167 38.5029 358.139 38.6085 358.124 38.677L358.121 38.6896C358.136 38.7676 358.169 38.9012 358.238 39.0775C358.404 39.4987 358.711 39.9866 359.175 40.4082C359.643 40.8327 360.057 41.0128 360.292 41.0867C360.303 41.0829 360.314 41.0789 360.326 41.0747C360.553 40.9931 360.919 40.8163 361.333 40.445C361.804 40.0224 362.12 39.5271 362.291 39.0938C362.364 38.909 362.398 38.7694 362.413 38.6893L362.411 38.677C362.395 38.6061 362.366 38.4947 362.31 38.3511C362.154 37.9498 361.858 37.4702 361.4 37.0509C360.951 36.6407 360.554 36.4616 360.326 36.3862L360.308 36.3805ZM360.085 41.1403C360.085 41.1401 360.092 41.1388 360.107 41.1371C360.093 41.1397 360.086 41.1405 360.085 41.1403ZM399.263 36.7801C399.285 36.7634 399.307 36.7473 399.328 36.7316C399.428 36.8025 399.532 36.8839 399.64 36.9773C400.236 37.4951 400.603 38.1043 400.783 38.5861C400.808 38.6529 400.828 38.7126 400.843 38.7643L400.833 38.795C400.824 38.8218 400.814 38.8506 400.803 38.8811C400.637 39.3343 400.285 39.9419 399.686 40.4692C399.551 40.5876 399.421 40.6875 399.299 40.7713L399.263 40.7456C399.187 40.6898 399.108 40.6274 399.028 40.5578C398.463 40.0724 398.104 39.4935 397.924 39.0204C397.89 38.9322 397.866 38.8565 397.848 38.795L397.847 38.7893C397.866 38.7166 397.895 38.6237 397.938 38.5139C398.137 38.0002 398.526 37.3922 399.12 36.8944C399.132 36.8849 399.143 36.8755 399.154 36.8662C399.191 36.8361 399.227 36.8074 399.263 36.7801ZM621.785 37.0882C622.289 36.6213 622.739 36.4423 622.971 36.376L623.003 36.3862C623.231 36.4616 623.628 36.6407 624.077 37.0509C624.535 37.4702 624.831 37.9498 624.987 38.3511C625.042 38.4947 625.072 38.6061 625.087 38.677L625.09 38.6894C625.075 38.7695 625.041 38.909 624.968 39.0938C624.797 39.5271 624.481 40.0224 624.01 40.445C623.595 40.8163 623.229 40.9931 623.003 41.0747C622.991 41.0789 622.98 41.0829 622.969 41.0867C622.734 41.0128 622.32 40.8327 621.852 40.4082C621.387 39.9866 621.08 39.4987 620.915 39.0775C620.846 38.9011 620.813 38.7675 620.798 38.6895L620.801 38.677C620.816 38.6085 620.844 38.5029 620.896 38.3672C621.047 37.9779 621.334 37.506 621.785 37.0882ZM622.762 41.1403C622.762 41.1401 622.769 41.1388 622.784 41.1371C622.77 41.1397 622.762 41.1405 622.762 41.1403ZM685.913 37.0882C686.417 36.6213 686.867 36.4423 687.099 36.376L687.131 36.3862C687.359 36.4616 687.756 36.6407 688.205 37.0509C688.663 37.4702 688.959 37.9498 689.115 38.3511C689.17 38.4947 689.2 38.6061 689.215 38.677L689.218 38.6894C689.203 38.7694 689.169 38.909 689.096 39.0938C688.925 39.5271 688.609 40.0224 688.138 40.445C687.723 40.8163 687.357 40.9931 687.131 41.0747C687.119 41.0789 687.107 41.0829 687.096 41.0867C686.862 41.0128 686.448 40.8327 685.98 40.4082C685.515 39.9866 685.208 39.4987 685.043 39.0775C684.974 38.9011 684.941 38.7675 684.926 38.6895L684.929 38.677C684.944 38.6085 684.972 38.5029 685.024 38.3672C685.175 37.9779 685.462 37.506 685.913 37.0882ZM686.912 41.1371C686.897 41.1388 686.89 41.14 686.89 41.1403C686.89 41.1405 686.894 41.1401 686.901 41.1389L686.912 41.1371Z" fill="#080808"/>
<rect x="331.986" y="24.6631" width="368" height="25" fill="#080808"/>
<rect x="63.9863" y="55.6631" width="22" height="45" fill="#080808"/>
</svg>
