<svg width="1046" height="112" viewBox="0 0 1046 112" fill="none" xmlns="http://www.w3.org/2000/svg">
<path d="M12.415 79.0004V12.0254H38.825C59.82 12.0254 69.13 19.0554 69.13 36.4404C69.13 53.6354 59.82 60.6654 38.825 60.6654H29.705V79.0004H12.415ZM29.705 45.5604H39.87C48.23 45.5604 51.935 43.2804 51.935 36.4404C51.935 29.4104 48.23 27.1304 39.87 27.1304H29.705V45.5604Z" fill="black"/>
<path d="M72.5649 65.8904C72.5649 57.5304 77.4099 52.5904 92.1349 51.0704L106.765 49.4554C106.765 44.4204 103.915 42.4254 98.4049 42.4254C92.5149 42.4254 89.1899 44.8954 88.9999 49.1704H73.7049C73.9899 36.5354 84.6299 29.9804 97.8349 29.9804C111.135 29.9804 123.105 35.9654 123.105 49.8354V64.6554H130.04V79.0004H119.02C114.365 79.0004 111.61 76.3404 111.61 71.6854V71.2104L114.175 65.4154H110.185C108.38 73.2054 103.82 79.9504 90.3299 79.9504C75.1299 79.9504 72.5649 70.8304 72.5649 65.8904ZM88.5249 63.1354C88.5249 66.2704 91.3749 67.0304 94.5099 67.0304C101.255 67.0304 106.765 63.4204 106.765 57.6254L95.1749 59.3354C90.8999 60.0004 88.5249 60.4754 88.5249 63.1354Z" fill="black"/>
<path d="M136.066 30.9304H152.311V47.1754H156.586L165.801 34.8254C168.176 31.5954 172.071 30.9304 176.346 30.9304H185.086V45.2754H177.391L171.501 52.8754L185.466 79.0004H167.891L158.676 61.5204H152.311V79.0004H136.066V30.9304Z" fill="black"/>
<path d="M229.518 30.9304H248.043L225.908 75.7704V90.9704C225.908 96.4804 222.868 99.2354 217.738 99.2354H193.228V84.4154H209.568V75.7704L187.433 30.9304H205.768L215.743 55.7254V63.9904H219.733V55.7254L229.518 30.9304Z" fill="black"/>
<path d="M298.197 30.9304V79.0004H281.857V45.2754H271.027C270.267 66.6504 266.277 79.0004 245.567 79.0004V64.6554C253.832 64.6554 254.972 57.7204 254.972 30.9304H298.197Z" fill="black"/>
<path d="M332.722 40.7154C343.932 40.7154 356.377 43.9454 356.377 59.9054C356.377 75.8654 343.932 79.0004 332.722 79.0004H306.027V30.9304H322.272V40.7154H332.722ZM322.272 65.5104H331.772C337.852 65.5104 340.037 64.8454 340.037 59.9054C340.037 55.0604 337.852 54.3004 331.772 54.3004H322.272V65.5104Z" fill="black"/>
<path d="M361.267 54.8704C361.267 38.5304 372.477 29.9804 387.772 29.9804C401.547 29.9804 413.517 37.5804 414.087 51.0704H397.747C397.272 47.4604 393.757 44.3254 387.772 44.3254C382.072 44.3254 377.512 47.9354 377.512 54.8704C377.512 61.9004 382.072 65.6054 387.772 65.6054C393.757 65.6054 397.272 62.4704 397.747 58.8604H414.087C413.517 72.3504 401.547 79.9504 387.772 79.9504C372.477 79.9504 361.267 71.3054 361.267 54.8704Z" fill="black"/>
<path d="M421.345 30.9304H437.59V47.1754H441.865L451.08 34.8254C453.455 31.5954 457.35 30.9304 461.625 30.9304H470.365V45.2754H462.67L456.78 52.8754L470.745 79.0004H453.17L443.955 61.5204H437.59V79.0004H421.345V30.9304Z" fill="black"/>
<path d="M474.738 65.8904C474.738 57.5304 479.583 52.5904 494.308 51.0704L508.938 49.4554C508.938 44.4204 506.088 42.4254 500.578 42.4254C494.688 42.4254 491.363 44.8954 491.173 49.1704H475.878C476.163 36.5354 486.803 29.9804 500.008 29.9804C513.308 29.9804 525.278 35.9654 525.278 49.8354V64.6554H532.213V79.0004H521.193C516.538 79.0004 513.783 76.3404 513.783 71.6854V71.2104L516.348 65.4154H512.358C510.553 73.2054 505.993 79.9504 492.503 79.9504C477.303 79.9504 474.738 70.8304 474.738 65.8904ZM490.698 63.1354C490.698 66.2704 493.548 67.0304 496.683 67.0304C503.428 67.0304 508.938 63.4204 508.938 57.6254L497.348 59.3354C493.073 60.0004 490.698 60.4754 490.698 63.1354Z" fill="black"/>
<path d="M583.742 79.0004H567.402V60.2854H563.127L553.532 73.6804C550.682 77.3854 547.927 79.0004 543.462 79.0004H536.622V65.7954H543.652L548.117 59.7154C542.512 58.6704 537.097 55.4404 537.097 46.2254C537.097 34.2554 546.502 30.9304 555.432 30.9304H583.742V79.0004ZM553.342 45.5604C553.342 48.2204 554.862 50.2154 559.707 50.2154H567.402V40.9054H559.707C554.862 40.9054 553.342 42.9004 553.342 45.5604Z" fill="black"/>
<path d="M619.138 99.0454V30.9304H635.383V33.2104L632.343 42.2354H636.333C638.803 36.0604 643.078 29.9804 655.143 29.9804C669.108 29.9804 675.758 41.5704 675.758 54.9654C675.758 68.4554 669.108 79.9504 655.143 79.9504C643.078 79.9504 638.803 73.8704 636.333 67.6004H632.343L635.383 76.7204V99.0454H619.138ZM635.383 54.9654C635.383 62.5654 639.373 65.6054 647.353 65.6054C655.428 65.6054 659.513 62.5654 659.513 54.9654C659.513 47.4604 655.428 44.3254 647.353 44.3254C639.373 44.3254 635.383 47.4604 635.383 54.9654Z" fill="black"/>
<path d="M680.686 54.8704C680.686 37.8654 692.941 29.9804 708.046 29.9804C722.961 29.9804 735.311 37.8654 735.311 54.8704C735.311 72.0654 722.961 79.9504 708.046 79.9504C692.941 79.9504 680.686 72.0654 680.686 54.8704ZM696.931 54.8704C696.931 62.0904 701.396 65.6054 708.046 65.6054C714.506 65.6054 718.971 62.0904 718.971 54.8704C718.971 47.7454 714.506 44.3254 708.046 44.3254C701.396 44.3254 696.931 47.7454 696.931 54.8704Z" fill="black"/>
<path d="M740.246 54.8704C740.246 38.5304 751.456 29.9804 766.751 29.9804C780.526 29.9804 792.496 37.5804 793.066 51.0704H776.726C776.251 47.4604 772.736 44.3254 766.751 44.3254C761.051 44.3254 756.491 47.9354 756.491 54.8704C756.491 61.9004 761.051 65.6054 766.751 65.6054C772.736 65.6054 776.251 62.4704 776.726 58.8604H793.066C792.496 72.3504 780.526 79.9504 766.751 79.9504C751.456 79.9504 740.246 71.3054 740.246 54.8704Z" fill="black"/>
<path d="M800.324 30.9304H850.579V79.0004H834.334V45.2754H816.569V79.0004H800.324V30.9304Z" fill="black"/>
<path d="M916.255 79.0004H900.96V43.5654L904.095 34.9204H900.01L888.23 79.0004H858.4V30.9304H873.6V65.8904L870.56 74.9154H874.55L886.425 30.9304H916.255V79.0004Z" fill="black"/>
<path d="M923.474 54.8704C923.474 38.5304 934.684 29.9804 949.979 29.9804C963.754 29.9804 975.724 37.5804 976.294 51.0704H959.954C959.479 47.4604 955.964 44.3254 949.979 44.3254C944.279 44.3254 939.719 47.9354 939.719 54.8704C939.719 61.9004 944.279 65.6054 949.979 65.6054C955.964 65.6054 959.479 62.4704 959.954 58.8604H976.294C975.724 72.3504 963.754 79.9504 949.979 79.9504C934.684 79.9504 923.474 71.3054 923.474 54.8704Z" fill="black"/>
<path d="M1010.25 40.7154C1021.46 40.7154 1033.9 43.9454 1033.9 59.9054C1033.9 75.8654 1021.46 79.0004 1010.25 79.0004H983.552V30.9304H999.797V40.7154H1010.25ZM999.797 65.5104H1009.3C1015.38 65.5104 1017.56 64.8454 1017.56 59.9054C1017.56 55.0604 1015.38 54.3004 1009.3 54.3004H999.797V65.5104Z" fill="black"/>
<path fill-rule="evenodd" clip-rule="evenodd" d="M0.415039 91.0004V0.0253906H38.825C50.1666 0.0253906 61.133 1.82296 69.3112 8.31457C74.0718 12.0933 77.1308 16.8208 78.9413 22.0643C84.795 19.1924 91.3917 17.9804 97.8349 17.9804C106.044 17.9804 115.012 19.7921 122.298 24.8476C122.905 25.2686 123.495 25.7088 124.066 26.1678V18.9304H164.311V21.1415C165.727 20.5125 167.15 20.0608 168.525 19.7369L168.127 18.9304H213.875L217.65 28.3137L221.353 18.9304H334.272V28.7326C340.404 28.8708 348.233 29.9054 355.007 34.0834C356.614 31.5985 358.554 29.3307 360.823 27.319C368.261 20.7235 377.984 17.9804 387.772 17.9804C395.257 17.9804 402.834 19.6933 409.345 23.4148V18.9304H449.59V21.1415C454.132 19.1232 458.748 18.9304 461.625 18.9304H482.365V21.4807C487.899 19.0273 494.019 17.9804 500.008 17.9804C508.217 17.9804 517.185 19.7921 524.471 24.8476C526.578 26.3095 528.48 28.0034 530.134 29.9125C531.798 27.6676 533.844 25.7256 536.228 24.1256C542.494 19.9199 549.815 18.9304 555.432 18.9304H595.742V91.0004H555.402V87.9536C555.208 88.0665 555.011 88.1771 554.811 88.2854C551.335 90.1648 547.737 90.9014 544.213 90.9909V91.0004H521.193C517.598 91.0004 513.62 90.172 510.103 87.8774C505.077 90.6808 499.119 91.9504 492.503 91.9504C489.283 91.9504 486.264 91.6325 483.471 91.0004H409.345V86.516C402.834 90.2375 395.257 91.9504 387.772 91.9504C377.952 91.9504 368.218 89.1653 360.785 82.5188C360.517 82.2796 360.254 82.0368 359.996 81.7905C358.519 83.2451 356.864 84.5364 355.046 85.656C347.665 90.2009 339.023 91.0004 332.722 91.0004H269.857V83.4953C263.483 88.7824 255.118 91.0004 245.567 91.0004H237.908C237.903 95.9061 236.506 101.454 232.159 105.727C227.842 109.971 222.363 111.235 217.738 111.235H181.228V91.0004H119.02C115.425 91.0004 111.448 90.172 107.93 87.8774C102.904 90.6808 96.9462 91.9504 90.3299 91.9504C80.236 91.9504 72.1108 88.8255 66.7256 82.6854C62.8226 78.2352 61.283 73.2396 60.7771 69.2318C54.976 71.5022 48.4485 72.4294 41.705 72.6247V91.0004H0.415039ZM73.2222 61.1704C72.7694 62.5993 72.5649 64.1727 72.5649 65.8904C72.5649 70.8304 75.1299 79.9504 90.3299 79.9504C93.8686 79.9504 96.7929 79.4862 99.2141 78.6608C99.6879 78.4993 100.142 78.324 100.578 78.1356C103.99 76.6618 106.274 74.3887 107.83 71.6854C107.92 71.5285 108.008 71.3701 108.093 71.2104C108.317 70.7925 108.524 70.3653 108.717 69.9299C109.35 68.4977 109.823 66.9776 110.185 65.4154H114.175L111.61 71.2104V71.6854C111.61 72.1557 111.638 72.6057 111.693 73.0346C111.882 74.4944 112.386 75.7104 113.171 76.6554C113.401 76.9322 113.655 77.1858 113.932 77.4154C114.865 78.1882 116.06 78.6901 117.486 78.8952C117.667 78.9212 117.852 78.9425 118.04 78.9589C118.356 78.9865 118.683 79.0004 119.02 79.0004H130.04V64.6554H123.105V49.8354C123.105 35.9654 111.135 29.9804 97.8349 29.9804C91.3226 29.9804 85.4341 31.5747 81.1039 34.7062C80.3662 35.2398 79.6737 35.8179 79.031 36.4404C78.7864 36.6773 78.5491 36.9206 78.3192 37.1704C76.7486 38.8765 75.527 40.8816 74.7354 43.1808C74.1108 44.9951 73.754 46.9924 73.7049 49.1704H88.9999C89.0136 48.8616 89.0437 48.5622 89.0899 48.2724C89.3518 46.6314 90.1316 45.3005 91.3903 44.3255C91.4052 44.314 91.4201 44.3025 91.4351 44.2911C93.0298 43.0774 95.3788 42.4254 98.4049 42.4254C102.206 42.4254 104.741 43.3746 105.948 45.616C106.184 46.0539 106.369 46.5411 106.503 47.0802C106.677 47.7821 106.765 48.5719 106.765 49.4554L92.1349 51.0704C91.0355 51.1839 89.9912 51.3164 88.9999 51.468C84.9712 52.0842 81.8175 53.0152 79.398 54.261C78.2256 54.8647 77.2257 55.5424 76.3821 56.2939C75.1946 57.352 74.317 58.5567 73.7049 59.9078C73.6408 60.0492 73.5797 60.1922 73.5213 60.3369C73.4116 60.609 73.312 60.8869 73.2222 61.1704ZM95.1749 59.3354C94.9478 59.3707 94.7261 59.4055 94.5099 59.4401C94.0053 59.5208 93.5303 59.6006 93.0857 59.6839C93.0655 59.6877 93.0453 59.6915 93.0252 59.6953C91.256 60.0302 89.9762 60.4251 89.2436 61.1704C88.7697 61.6526 88.5249 62.2814 88.5249 63.1354C88.5249 63.3489 88.5381 63.5514 88.5637 63.7433C88.9144 66.3704 91.5884 67.0304 94.5099 67.0304C95.0676 67.0304 95.617 67.0057 96.1554 66.9571C96.2029 66.9529 96.2502 66.9484 96.2974 66.9438C96.3175 66.9418 96.3375 66.9398 96.3575 66.9377C97.6368 66.8075 98.8524 66.5416 99.9714 66.1511C100.283 66.0423 100.587 65.9239 100.883 65.796C102.005 65.3114 103.009 64.6914 103.856 63.9489C104.613 63.2856 105.245 62.5245 105.724 61.6748C105.73 61.6636 105.737 61.6524 105.743 61.6411C106.4 60.4634 106.765 59.1168 106.765 57.6254L95.1749 59.3354ZM66.6524 49.0566C66.6597 49.0417 66.6671 49.0267 66.6744 49.0118C68.3314 45.6408 69.13 41.4766 69.13 36.4404C69.13 34.12 68.9642 31.984 68.6268 30.0247C66.4366 17.304 57.0178 12.0254 38.825 12.0254H12.415V79.0004H29.705V60.6654H38.825C49.1229 60.6654 56.6096 58.9741 61.5653 55.2216C62.2433 54.7082 62.8739 54.1563 63.4578 53.5649C64.7477 52.2584 65.81 50.759 66.6524 49.0566ZM136.066 79.0004H152.311V61.5204H158.676L167.891 79.0004H185.466L171.501 52.8754L177.391 45.2754H185.086V30.9304H176.346C175.579 30.9304 174.824 30.9518 174.088 31.0056C173.75 31.0304 173.416 31.0619 173.086 31.1013C170.136 31.4546 167.554 32.4413 165.801 34.8254L156.586 47.1754H152.311V30.9304H136.066V79.0004ZM193.228 84.4154V99.2354H217.738C222.868 99.2354 225.908 96.4804 225.908 90.9704V75.7704L248.043 30.9304H229.518L219.733 55.7254V63.9904H215.743V55.7254L205.768 30.9304H187.433L209.568 75.7704V84.4154H193.228ZM254.801 44.351C254.264 60.1457 252.232 64.6554 245.567 64.6554V79.0004C250.431 79.0004 254.373 78.3192 257.567 76.9997C264.893 73.9736 268.287 67.5906 269.857 58.3703C270.517 54.4939 270.855 50.1161 271.027 45.2754H281.857V79.0004H298.197V30.9304H254.972C254.972 32.1073 254.97 33.246 254.965 34.3474C254.948 38.0995 254.9 41.4196 254.801 44.351ZM352.835 71.823C355.035 69.0048 356.377 65.1467 356.377 59.9054C356.377 58.0621 356.211 56.3887 355.9 54.8704C355.025 50.5944 353 47.5491 350.296 45.4076C345.647 41.7256 338.992 40.7154 332.722 40.7154H322.272V30.9304H306.027V79.0004H332.722C340.251 79.0004 348.337 77.5864 352.835 71.823ZM366.576 71.2784C371.303 77.003 378.841 79.9504 387.772 79.9504C396.502 79.9504 404.507 76.8978 409.345 71.2279C409.448 71.1066 409.55 70.9841 409.651 70.8604C411.456 68.6401 412.787 66.0352 413.504 63.0704C413.826 61.7389 414.025 60.3348 414.087 58.8604H397.747C397.541 60.4252 396.764 61.9007 395.462 63.0704C393.761 64.5992 391.163 65.6054 387.772 65.6054C382.072 65.6054 377.512 61.9004 377.512 54.8704C377.512 47.9354 382.072 44.3254 387.772 44.3254C391.163 44.3254 393.761 45.3316 395.462 46.8604C396.764 48.0301 397.541 49.5056 397.747 51.0704H414.087C414.025 49.596 413.826 48.1919 413.504 46.8604C412.787 43.8956 411.456 41.2907 409.651 39.0704C409.55 38.9467 409.448 38.8242 409.345 38.7029C404.507 33.033 396.502 29.9804 387.772 29.9804C376.847 29.9804 368.005 34.3429 363.846 42.791C362.182 46.1698 361.267 50.2022 361.267 54.8704C361.267 56.6393 361.397 58.318 361.648 59.9054C362.367 64.4548 364.079 68.2541 366.576 71.2784ZM421.345 79.0004H437.59V61.5204H443.955L453.17 79.0004H470.745L456.78 52.8754L462.67 45.2754H470.365V30.9304H461.625C460.505 30.9304 459.412 30.976 458.365 31.1013C455.414 31.4546 452.833 32.4413 451.08 34.8254L441.865 47.1754H437.59V30.9304H421.345V79.0004ZM475.196 61.8716C474.882 63.1096 474.738 64.4492 474.738 65.8904C474.738 68.436 475.419 72.0915 478.159 75.0372C479.573 76.5569 481.534 77.8877 484.234 78.7795C486.455 79.5137 489.176 79.9504 492.503 79.9504C496.041 79.9504 498.966 79.4862 501.387 78.6608C501.861 78.4993 502.315 78.324 502.751 78.1356C506.163 76.6618 508.446 74.3887 510.002 71.6854C510.093 71.5285 510.181 71.3701 510.266 71.2104C510.49 70.7925 510.697 70.3653 510.89 69.9299C511.523 68.4977 511.996 66.9776 512.358 65.4154H516.348L513.783 71.2104V71.6854C513.783 72.1557 513.811 72.6057 513.866 73.0347C514.055 74.4944 514.559 75.7104 515.344 76.6554C515.573 76.9322 515.827 77.1858 516.105 77.4154C517.037 78.1882 518.233 78.6901 519.659 78.8952C519.84 78.9212 520.024 78.9425 520.213 78.9589C520.529 78.9865 520.856 79.0004 521.193 79.0004H532.213V64.6554H525.278V49.8354C525.278 49.7866 525.278 49.7379 525.277 49.6894C525.272 48.7752 525.214 47.8955 525.107 47.0498C523.603 35.1603 512.381 29.9804 500.008 29.9804C493.026 29.9804 486.761 31.8129 482.365 35.4076C481.696 35.9545 481.07 36.5422 480.492 37.1704C478.921 38.8765 477.7 40.8816 476.908 43.1808C476.677 43.8539 476.482 44.5521 476.326 45.2754C476.061 46.5018 475.909 47.8004 475.878 49.1704H491.173C491.186 48.8616 491.217 48.5622 491.263 48.2724C491.525 46.6314 492.304 45.3005 493.563 44.3255C493.578 44.314 493.593 44.3025 493.608 44.2911C495.203 43.0774 497.552 42.4254 500.578 42.4254C504.378 42.4254 506.914 43.3746 508.121 45.616C508.356 46.054 508.542 46.5412 508.676 47.0803C508.85 47.7822 508.938 48.572 508.938 49.4554L494.308 51.0704C493.208 51.1839 492.164 51.3164 491.173 51.468C487.571 52.0189 484.668 52.8214 482.365 53.8756C482.092 54.0006 481.827 54.129 481.571 54.261C479.908 55.1171 478.592 56.1219 477.578 57.2754C476.87 58.0804 476.308 58.9579 475.878 59.9078C475.693 60.3154 475.533 60.7362 475.395 61.1704C475.322 61.4004 475.256 61.6341 475.196 61.8716ZM491.416 61.1704C490.943 61.6526 490.698 62.2814 490.698 63.1354C490.698 63.3489 490.711 63.5514 490.737 63.7433C491.087 66.3704 493.761 67.0304 496.683 67.0304C497.241 67.0304 497.79 67.0057 498.328 66.9571C498.376 66.9529 498.423 66.9484 498.47 66.9438C498.49 66.9418 498.51 66.9398 498.53 66.9378C499.81 66.8075 501.025 66.5416 502.144 66.1511C502.456 66.0423 502.76 65.9239 503.056 65.796C504.178 65.3114 505.182 64.6914 506.029 63.9489C506.786 63.2856 507.417 62.5245 507.897 61.6748C507.903 61.6636 507.909 61.6524 507.916 61.6411C508.573 60.4634 508.938 59.1168 508.938 57.6254L497.348 59.3354C497.121 59.3707 496.899 59.4055 496.683 59.4401C496.178 59.5208 495.703 59.6006 495.259 59.6839C495.238 59.6877 495.218 59.6915 495.198 59.6953C493.429 60.0302 492.149 60.4251 491.416 61.1704ZM543.652 65.7954H536.622V79.0004H543.462C543.718 79.0004 543.968 78.9951 544.213 78.9844C545.895 78.911 547.328 78.5835 548.622 77.9729C548.742 77.9162 548.861 77.857 548.979 77.7954C549.46 77.5439 549.923 77.2514 550.373 76.9163C551.472 76.0989 552.496 75.0279 553.532 73.6804L563.127 60.2854H567.402V79.0004H583.742V30.9304H555.432C553.28 30.9304 551.1 31.1235 549.031 31.5843C542.515 33.0354 537.097 37.1404 537.097 46.2254C537.097 46.2451 537.097 46.2648 537.097 46.2844C537.099 47.2165 537.157 48.0871 537.266 48.9001C537.454 50.3203 537.796 51.5651 538.262 52.6554C538.28 52.6989 538.299 52.7422 538.318 52.7852C538.474 53.1382 538.643 53.4746 538.824 53.7954C540.008 55.895 541.713 57.3212 543.652 58.2822C543.837 58.3738 544.024 58.4612 544.213 58.5445C545.456 59.0932 546.781 59.4663 548.117 59.7154L543.652 65.7954ZM555.402 49.3587C555.585 49.4594 555.782 49.5522 555.994 49.6365C556.926 50.0075 558.143 50.2154 559.707 50.2154H567.402V40.9054H559.707C557.807 40.9054 556.418 41.2122 555.432 41.7457C555.422 41.7511 555.412 41.7566 555.402 41.7621C554.809 42.0886 554.363 42.4982 554.041 42.9731C553.546 43.7031 553.342 44.5873 553.342 45.5604C553.342 46.7938 553.669 47.8843 554.503 48.6991C554.754 48.9454 555.053 49.1665 555.402 49.3587ZM41.705 45.5195C41.1203 45.5471 40.5087 45.5604 39.87 45.5604H29.705V27.1304H39.87C40.5087 27.1304 41.1203 27.1437 41.705 27.1714C48.7745 27.5065 51.935 29.9475 51.935 36.4404C51.935 42.7578 48.7745 45.1854 41.705 45.5195ZM334.272 54.3642C333.576 54.321 332.807 54.3029 331.961 54.3006C331.899 54.3005 331.836 54.3004 331.772 54.3004H322.272V65.5104H331.772C331.816 65.5104 331.86 65.5105 331.903 65.5104C332.772 65.509 333.56 65.4931 334.272 65.4521C338.464 65.211 340.037 64.0974 340.037 59.9054C340.037 55.7941 338.464 54.6242 334.272 54.3642ZM607.138 111.045V18.9304H646.263C649.026 18.2951 651.99 17.9804 655.143 17.9804C665.109 17.9804 673.331 21.9934 679.004 28.6428C679.657 28.0052 680.34 27.3915 681.052 26.8027C688.739 20.443 698.565 17.9804 708.046 17.9804C717.461 17.9804 727.252 20.4574 734.921 26.8027C735.898 27.6109 736.821 28.4661 737.689 29.3661C738.358 28.6574 739.063 27.9746 739.802 27.319C747.241 20.7235 756.964 17.9804 766.751 17.9804C774.237 17.9804 781.814 19.6933 788.324 23.4148V18.9304H928.255V23.5087C934.756 19.6479 942.348 17.9804 949.979 17.9804C957.464 17.9804 965.041 19.6933 971.552 23.4148V18.9304H1011.8V28.7326C1017.95 28.8713 1025.82 29.9133 1032.61 34.1314C1040.99 39.3375 1045.9 48.199 1045.9 59.9054C1045.9 71.6189 1040.98 80.4753 1032.57 85.656C1025.19 90.2009 1016.55 91.0004 1010.25 91.0004H971.552V86.516C965.041 90.2375 957.464 91.9504 949.979 91.9504C942.338 91.9504 934.749 90.2641 928.255 86.3845V91.0004H788.324V86.516C781.814 90.2375 774.237 91.9504 766.751 91.9504C756.931 91.9504 747.197 89.1653 739.764 82.5188C739.045 81.8756 738.359 81.2065 737.706 80.5129C736.841 81.4148 735.921 82.2721 734.947 83.0826C727.268 89.4728 717.461 91.9504 708.046 91.9504C698.565 91.9504 688.722 89.4873 681.026 83.0826C680.334 82.507 679.67 81.9079 679.034 81.2861C673.343 87.9627 665.101 91.9504 655.143 91.9504C652.413 91.9504 649.824 91.7145 647.383 91.2376V111.045H607.138ZM635.383 76.7204L632.343 67.6004H636.333C637.362 70.2141 638.706 72.7949 640.796 74.9159C641.435 75.5644 642.145 76.17 642.936 76.7204C643.317 76.9854 643.717 77.2376 644.138 77.4757C645.105 78.0235 646.182 78.4964 647.383 78.8777C649.535 79.561 652.09 79.9504 655.143 79.9504C662.955 79.9504 668.479 76.3528 671.829 70.8209C674.467 66.4645 675.758 60.9085 675.758 54.9654C675.758 54.9337 675.758 54.902 675.758 54.8704C675.744 48.9819 674.443 43.4472 671.798 39.0991C668.445 33.5859 662.932 29.9804 655.143 29.9804C652.09 29.9804 649.535 30.3698 647.383 31.0515C646.174 31.4343 645.092 31.9093 644.12 32.4593C643.701 32.6962 643.303 32.947 642.923 33.2104C642.125 33.7639 641.411 34.3728 640.768 35.0244C638.694 37.1266 637.358 39.6728 636.333 42.2354H632.343L635.383 33.2104V30.9304H619.138V99.0454H635.383V76.7204ZM635.392 55.6004C635.45 57.461 635.763 59.0316 636.333 60.3369C637.251 62.4417 638.836 63.8567 641.087 64.6856C641.561 64.8602 642.065 65.0088 642.598 65.1323C643.125 65.2546 643.682 65.3523 644.267 65.4265C645.219 65.5471 646.248 65.6054 647.353 65.6054C647.795 65.6054 648.224 65.5963 648.642 65.5778C655.863 65.259 659.513 62.1495 659.513 54.9654C659.513 47.8624 655.854 44.6738 648.616 44.3526C648.206 44.3344 647.785 44.3254 647.353 44.3254C646.236 44.3254 645.198 44.3867 644.238 44.5128C643.703 44.5831 643.192 44.6735 642.706 44.7845C642.177 44.9052 641.677 45.0503 641.205 45.2206C638.891 46.0563 637.267 47.4983 636.333 49.6353C635.774 50.9137 635.461 52.4407 635.396 54.2354C635.387 54.474 635.383 54.7173 635.383 54.9654C635.383 55.1807 635.386 55.3924 635.392 55.6004ZM685.279 70.2545C690.186 76.8363 698.553 79.9504 708.046 79.9504C717.596 79.9504 726.095 76.7174 730.973 69.8773C733.713 66.0352 735.311 61.055 735.311 54.8704C735.311 48.7404 733.706 43.7955 730.955 39.9778C726.074 33.2052 717.584 29.9804 708.046 29.9804C698.539 29.9804 690.162 33.1035 685.258 39.6576C682.369 43.5176 680.686 48.5675 680.686 54.8704C680.686 54.9021 680.686 54.9338 680.686 54.9654C680.703 61.31 682.392 66.3823 685.279 70.2545ZM744.531 69.9304C749.149 76.5398 757.145 79.9504 766.751 79.9504C775.482 79.9504 783.487 76.8978 788.324 71.2279C788.428 71.1066 788.53 70.9841 788.63 70.8604C790.436 68.6401 791.766 66.0352 792.483 63.0704C792.806 61.7389 793.004 60.3348 793.066 58.8604H776.726C776.521 60.4252 775.743 61.9007 774.442 63.0704C772.74 64.5992 770.142 65.6054 766.751 65.6054C761.051 65.6054 756.491 61.9004 756.491 54.8704C756.491 47.9354 761.051 44.3254 766.751 44.3254C770.142 44.3254 772.74 45.3316 774.442 46.8604C775.743 48.0301 776.521 49.5056 776.726 51.0704H793.066C793.004 49.596 792.806 48.1919 792.483 46.8604C791.766 43.8956 790.436 41.2907 788.63 39.0704C788.53 38.9467 788.428 38.8242 788.324 38.7029C783.487 33.033 775.482 29.9804 766.751 29.9804C757.144 29.9804 749.148 33.354 744.53 39.9127C741.797 43.7954 740.246 48.7943 740.246 54.8704C740.246 60.9824 741.797 66.0171 744.531 69.9304ZM800.324 79.0004H816.569V45.2754H834.334V79.0004H850.579V30.9304H800.324V79.0004ZM888.23 79.0004L900.01 34.9204H904.095L900.96 43.5654V79.0004H916.255V30.9304H886.425L874.55 74.9154H870.56L873.6 65.8904V30.9304H858.4V79.0004H888.23ZM928.255 70.612C932.938 76.7741 940.708 79.9504 949.979 79.9504C958.709 79.9504 966.714 76.8978 971.552 71.2279C971.655 71.1066 971.757 70.9841 971.858 70.8604C973.663 68.6401 974.994 66.0352 975.711 63.0704C976.033 61.7389 976.232 60.3348 976.294 58.8604H959.954C959.748 60.4252 958.971 61.9007 957.669 63.0704C955.968 64.5992 953.37 65.6054 949.979 65.6054C944.279 65.6054 939.719 61.9004 939.719 54.8704C939.719 47.9354 944.279 44.3254 949.979 44.3254C953.37 44.3254 955.968 45.3316 957.669 46.8604C958.971 48.0301 959.748 49.5056 959.954 51.0704H976.294C976.232 49.596 976.033 48.1919 975.711 46.8604C974.994 43.8956 973.663 41.2907 971.858 39.0704C971.757 38.9467 971.655 38.8242 971.552 38.7029C966.714 33.033 958.709 29.9804 949.979 29.9804C940.708 29.9804 932.938 33.1217 928.255 39.2352C925.213 43.2076 923.474 48.4348 923.474 54.8704C923.474 61.3434 925.213 66.6081 928.255 70.612ZM983.552 79.0004H1010.25C1021.46 79.0004 1033.9 75.8654 1033.9 59.9054C1033.9 43.9454 1021.46 40.7154 1010.25 40.7154H999.797V30.9304H983.552V79.0004ZM707.965 53.9788C707.905 54.0275 707.842 54.0811 707.778 54.1403C707.514 54.3849 707.317 54.6419 707.178 54.8704C707.169 54.8857 707.16 54.9009 707.151 54.916C707.307 55.197 707.542 55.5178 707.867 55.8127C707.9 55.8425 707.932 55.8707 707.964 55.8976C707.977 55.8859 707.991 55.874 708.004 55.8618C708.018 55.8492 708.032 55.8365 708.046 55.8238C708.368 55.5261 708.602 55.2013 708.757 54.9151C708.749 54.9003 708.74 54.8854 708.731 54.8704C708.586 54.6256 708.377 54.3496 708.094 54.0906C708.078 54.076 708.062 54.0617 708.046 54.0478C708.019 54.0238 707.992 54.0008 707.965 53.9788ZM708.783 56.3862C708.783 56.3867 708.77 56.384 708.747 56.3766C708.772 56.382 708.784 56.3857 708.783 56.3862ZM706.942 54.4162C706.942 54.4166 706.942 54.4172 706.942 54.4183ZM1011.8 54.3642C1011.1 54.321 1010.33 54.3029 1009.49 54.3006C1009.42 54.3005 1009.36 54.3004 1009.3 54.3004H999.797V65.5104H1009.3C1009.34 65.5104 1009.38 65.5105 1009.43 65.5104C1010.3 65.509 1011.08 65.4931 1011.8 65.4521C1015.99 65.211 1017.56 64.0974 1017.56 59.9054C1017.56 55.7941 1015.99 54.6242 1011.8 54.3642ZM708.046 65.6054C701.396 65.6054 696.931 62.0904 696.931 54.8704C696.931 47.7454 701.396 44.3254 708.046 44.3254C714.506 44.3254 718.971 47.7454 718.971 54.8704C718.971 62.0904 714.506 65.6054 708.046 65.6054Z" fill="black"/>
</svg>
