<svg width="1112" height="112" viewBox="0 0 1112 112" fill="none" xmlns="http://www.w3.org/2000/svg">
<path fill-rule="evenodd" clip-rule="evenodd" d="M73.6259 18.432V0.0249939H20.9659C16.1693 0.0249939 10.5633 1.30043 6.13327 5.55607C1.62276 9.889 0.130859 15.5752 0.130859 20.67V91H41.4209V59.6875C42.4528 69.2762 46.6113 77.344 53.5071 83.0822C61.2038 89.4869 71.0465 91.95 80.5272 91.95C88.2169 91.95 96.168 90.2973 103.008 86.21V111.045H143.253V91.2372C145.694 91.7141 148.283 91.95 151.013 91.95C160.971 91.95 169.213 87.9623 174.903 81.2857C175.54 81.9075 176.204 82.5066 176.896 83.0822C184.592 89.4869 194.435 91.95 203.916 91.95C209.568 91.95 215.361 91.0572 220.75 88.9612V104.395H260.995V91H274.235V104.395H314.48V89.3164C319.207 91.0816 324.383 91.95 329.785 91.95C337.282 91.95 344.372 90.4607 350.434 87.2906V91H396.889V104.395H437.134V89.2402C442.117 91.1065 447.496 91.95 452.9 91.95C460.385 91.95 467.962 90.2371 474.473 86.5156V91H548.599C551.392 91.6321 554.411 91.95 557.63 91.95C564.247 91.95 570.204 90.6804 575.23 87.877C578.748 90.1716 582.726 91 586.32 91H609.341V90.9905C612.865 90.901 616.463 90.1644 619.938 88.285C620.138 88.1767 620.336 88.0661 620.53 87.9532V91H660.87V18.93H620.56C614.943 18.93 607.621 19.9195 601.356 24.1252C598.972 25.7252 596.926 27.6672 595.262 29.9121C593.608 28.003 591.706 26.3092 589.599 24.8472C582.313 19.7917 573.345 17.98 565.135 17.98C559.147 17.98 553.026 19.0269 547.493 21.4803V18.93H526.753C523.875 18.93 519.26 19.1229 514.718 21.1411V18.93H474.473V23.4144C467.962 19.6929 460.385 17.98 452.9 17.98C443.112 17.98 433.389 20.7231 425.95 27.3186C425.518 27.7019 425.098 28.0945 424.689 28.4961V18.93H350.434V23.1256C344.152 19.5491 336.756 17.98 329.025 17.98C319.298 17.98 309.973 20.9786 302.89 27.407V18.93H237.28V30.93C237.28 31.9854 237.273 32.9973 237.26 33.9677C235.479 31.2913 233.314 28.8899 230.791 26.8023C223.121 20.457 213.331 17.98 203.916 17.98C194.435 17.98 184.609 20.4426 176.922 26.8023C176.21 27.3911 175.527 28.0048 174.874 28.6424C169.201 21.993 160.979 17.98 151.013 17.98C147.859 17.98 144.896 18.2947 142.133 18.93H103.008V23.7071C96.1727 19.6356 88.2244 17.98 80.5272 17.98C78.2352 17.98 75.9231 18.1239 73.6259 18.432ZM44.266 39.13C42.8053 42.4885 41.8468 46.1604 41.4209 50.0896V39.13H44.266ZM590.405 49.757C590.405 49.7675 590.405 49.778 590.405 49.7885V49.7718L590.405 49.757ZM563.456 66.9567C563.47 66.9555 563.485 66.9541 563.499 66.9528C563.485 66.9542 563.471 66.9554 563.456 66.9567ZM603.421 52.7282C603.429 52.7471 603.438 52.766 603.446 52.7848C603.438 52.766 603.429 52.7471 603.421 52.7282ZM80.2593 54.1399C80.3231 54.0807 80.3858 54.0271 80.4465 53.9784C80.473 54.0004 80.4999 54.0234 80.5272 54.0474C80.5429 54.0613 80.5588 54.0756 80.5748 54.0902C80.858 54.3492 81.0674 54.6252 81.2125 54.87C81.2214 54.885 81.2301 54.8999 81.2385 54.9147C81.0836 55.2009 80.8491 55.5257 80.5272 55.8234C80.5134 55.8361 80.4995 55.8488 80.4854 55.8614C80.4718 55.8736 80.4583 55.8855 80.4449 55.8972C80.4132 55.8703 80.381 55.8421 80.3483 55.8123C80.0232 55.5174 79.7881 55.1966 79.6325 54.9156C79.6413 54.9005 79.6504 54.8853 79.6597 54.87C79.7984 54.6415 79.995 54.3846 80.2593 54.1399ZM81.2644 56.3858C81.2639 56.3863 81.2514 56.3837 81.2281 56.3762C81.2532 56.3816 81.2648 56.3853 81.2644 56.3858ZM203.648 54.1399C203.712 54.0808 203.774 54.0271 203.835 53.9784C203.862 54.0004 203.889 54.0234 203.916 54.0474C203.932 54.0613 203.947 54.0756 203.963 54.0902C204.247 54.3492 204.456 54.6252 204.601 54.87C204.61 54.885 204.619 54.8999 204.627 54.9147C204.472 55.2009 204.238 55.5257 203.916 55.8234C203.902 55.8361 203.888 55.8488 203.874 55.8614C203.86 55.8736 203.847 55.8855 203.834 55.8972C203.813 55.8797 203.792 55.8617 203.771 55.8431C203.76 55.833 203.748 55.8228 203.737 55.8123C203.412 55.5174 203.177 55.1966 203.021 54.9156C203.03 54.9005 203.039 54.8853 203.048 54.87C203.187 54.6415 203.384 54.3846 203.648 54.1399ZM204.653 56.3858C204.653 56.3863 204.64 56.3836 204.617 56.3762C204.642 56.3816 204.654 56.3853 204.653 56.3858ZM672.266 18.93V111.045H712.51V91.2372C714.951 91.7141 717.541 91.95 720.271 91.95C730.228 91.95 738.471 87.9623 744.161 81.2857C744.798 81.9075 745.462 82.5066 746.154 83.0822C753.85 89.4869 763.693 91.95 773.174 91.95C782.589 91.95 792.396 89.4724 800.075 83.0822C801.049 82.2717 801.969 81.4144 802.834 80.5125C803.487 81.2061 804.173 81.8752 804.892 82.5184C812.325 89.1649 822.059 91.95 831.879 91.95C839.365 91.95 846.941 90.2371 853.452 86.5156V91H993.383V86.3841C999.877 90.2637 1007.47 91.95 1015.11 91.95C1022.59 91.95 1030.17 90.2371 1036.68 86.5156V91H1075.37C1081.68 91 1090.32 90.2005 1097.7 85.6556C1106.11 80.4749 1111.03 71.6185 1111.03 59.905C1111.03 48.1986 1106.12 39.3371 1097.74 34.131C1090.95 29.913 1083.08 28.8709 1076.92 28.7322V18.93H1036.68V23.4144C1030.17 19.6929 1022.59 17.98 1015.11 17.98C1007.48 17.98 999.884 19.6475 993.383 23.5083V18.93H853.452V23.4144C846.941 19.6929 839.365 17.98 831.879 17.98C822.092 17.98 812.369 20.7231 804.93 27.3186C804.19 27.9742 803.486 28.657 802.817 29.3657C801.949 28.4657 801.026 27.6105 800.049 26.8023C792.379 20.457 782.589 17.98 773.174 17.98C763.693 17.98 753.867 20.4426 746.18 26.8023C745.468 27.3911 744.785 28.0048 744.132 28.6424C738.459 21.993 730.236 17.98 720.271 17.98C717.117 17.98 714.154 18.2947 711.391 18.93H672.266ZM853.452 38.7025C853.556 38.8238 853.658 38.9463 853.758 39.07C853.658 38.9463 853.556 38.8238 853.452 38.7025ZM853.758 70.86C853.658 70.9837 853.556 71.1062 853.452 71.2275C853.556 71.1062 853.658 70.9837 853.758 70.86ZM772.906 54.1399C772.97 54.0807 773.032 54.0271 773.093 53.9784C773.12 54.0004 773.146 54.0234 773.174 54.0474C773.189 54.0613 773.205 54.0756 773.221 54.0902C773.504 54.3492 773.714 54.6252 773.859 54.87C773.868 54.885 773.877 54.8999 773.885 54.9147C773.73 55.2009 773.496 55.5257 773.174 55.8234C773.16 55.8361 773.146 55.8488 773.132 55.8614C773.118 55.8736 773.105 55.8855 773.091 55.8972C773.06 55.8703 773.028 55.8421 772.995 55.8123C772.67 55.5174 772.435 55.1966 772.279 54.9156L772.295 54.8891L772.306 54.87C772.445 54.6415 772.641 54.3846 772.906 54.1399ZM773.911 56.3858C773.91 56.3863 773.898 56.3836 773.875 56.3762C773.9 56.3816 773.911 56.3853 773.911 56.3858Z" fill="black"/>
</svg>
