<svg width="545" height="134" viewBox="0 0 545 134" fill="none" xmlns="http://www.w3.org/2000/svg">
<rect width="545" height="134" rx="59" fill="#F8D277"/>
<path d="M141.225 91V23.32H149.961V53.272H154.473L176.169 26.968C178.185 24.664 180.201 23.224 183.465 23.224H195.081V30.712H183.465L162.345 56.536L194.697 91H183.369L154.089 60.088H149.961V91H141.225ZM197.706 67.096C197.706 52.984 207.786 42.328 223.05 42.328C238.218 42.328 248.298 52.984 248.298 67.096C248.298 81.304 238.218 91.96 223.05 91.96C207.786 91.96 197.706 81.304 197.706 67.096ZM206.154 67.096C206.154 76.792 212.106 84.664 223.05 84.664C233.898 84.664 239.85 76.792 239.85 67.096C239.85 57.496 233.898 49.624 223.05 49.624C212.106 49.624 206.154 57.496 206.154 67.096ZM257.894 67.096C257.894 53.176 266.918 42.328 282.374 42.328C291.974 42.328 303.782 47.704 304.934 61.528H296.39C295.046 52.792 289.286 49.624 282.374 49.624C271.622 49.624 266.342 57.496 266.342 67.096C266.342 76.792 271.622 84.664 282.374 84.664C289.286 84.664 295.046 81.496 296.39 72.76H304.934C303.782 86.584 291.974 91.96 282.374 91.96C266.918 91.96 257.894 81.112 257.894 67.096ZM311.501 43.288H356.045V50.584H337.997V91H329.549V50.584H311.501V43.288ZM385.228 56.632C396.556 56.632 405.964 60.28 405.964 73.816C405.964 87.352 396.556 91 385.228 91H366.22V43.288H374.764V56.632H385.228ZM374.764 83.896H384.268C392.14 83.896 397.42 82.936 397.42 73.816C397.42 64.792 392.14 63.736 384.268 63.736H374.764V83.896Z" fill="white"/>
</svg>
