<svg width="453" height="153" viewBox="0 0 453 153" fill="none" xmlns="http://www.w3.org/2000/svg">
<path fill-rule="evenodd" clip-rule="evenodd" d="M35 0C15.67 0 0 15.67 0 35V42C0 52.9953 5.07013 62.8063 13 69.2228V75H8C4.13401 75 1 78.134 1 82V132C1 135.866 4.13401 139 8 139H51H80V146C80 149.866 83.134 153 87 153H115C118.866 153 122 149.866 122 146V139C126.692 139 131.115 137.846 135 135.806C138.885 137.846 143.308 139 148 139H173H230H285H333H342H349H375C378.866 139 382 135.866 382 132V106C382 102.737 379.768 99.9958 376.747 99.2198C375.492 89.9229 369.675 82.0736 361.623 78H396H405H446C449.866 78 453 74.866 453 71V21C453 17.134 449.866 14 446 14H417C410.831 14 405.127 15.9953 400.5 19.3757C395.873 15.9953 390.169 14 384 14H73.0026C66.6171 5.49887 56.4507 0 45 0H35Z" fill="white"/>
</svg>
