<svg width="27" height="27" viewBox="0 0 27 27" fill="none" xmlns="http://www.w3.org/2000/svg">
<path d="M11.532 2.25C13.2959 2.24981 15.0234 2.75229 16.5121 3.69859C18.0007 4.64488 19.1888 5.9958 19.9373 7.59309C20.6858 9.19037 20.9636 10.9679 20.7381 12.7174C20.5127 14.4669 19.7934 16.1159 18.6645 17.4712L25.0657 23.8725C25.1768 23.9756 25.258 24.1068 25.3008 24.2522C25.3435 24.3976 25.3463 24.5519 25.3087 24.6987C25.2712 24.8455 25.1947 24.9795 25.0874 25.0866C24.9801 25.1936 24.8459 25.2697 24.699 25.3069C24.5523 25.3445 24.3982 25.3418 24.2529 25.2993C24.1076 25.2567 23.9764 25.1758 23.8732 25.065L17.472 18.6637C16.3265 19.6175 14.9682 20.2813 13.512 20.5991C12.0558 20.9169 10.5444 20.8793 9.10576 20.4894C7.66713 20.0996 6.34354 19.369 5.24696 18.3595C4.15039 17.35 3.31308 16.0912 2.80587 14.6896C2.29865 13.288 2.13646 11.7849 2.33299 10.3074C2.52953 8.82993 3.07902 7.4215 3.93499 6.20127C4.79096 4.98104 5.92821 3.98491 7.25057 3.29714C8.57292 2.60937 10.0415 2.2502 11.532 2.25ZM3.93823 11.5312C3.93823 12.5285 4.13465 13.5159 4.51627 14.4373C4.89789 15.3586 5.45724 16.1957 6.16239 16.9008C6.86753 17.606 7.70466 18.1653 8.62598 18.547C9.54729 18.9286 10.5348 19.125 11.532 19.125C12.5292 19.125 13.5167 18.9286 14.438 18.547C15.3593 18.1653 16.1964 17.606 16.9016 16.9008C17.6067 16.1957 18.1661 15.3586 18.5477 14.4373C18.9293 13.5159 19.1257 12.5285 19.1257 11.5312C19.1257 9.51726 18.3257 7.58576 16.9016 6.16166C15.4775 4.73755 13.546 3.9375 11.532 3.9375C9.51799 3.9375 7.58649 4.73755 6.16239 6.16166C4.73828 7.58576 3.93823 9.51726 3.93823 11.5312Z" fill="white"/>
</svg>
