<svg width="1348" height="112" viewBox="0 0 1348 112" fill="none" xmlns="http://www.w3.org/2000/svg">
<mask id="path-1-outside-1_238_1536" maskUnits="userSpaceOnUse" x="0.592285" y="0.152039" width="1348" height="112" fill="black">
<rect fill="white" x="0.592285" y="0.152039" width="1348" height="112"/>
<path d="M12.5923 79.127V12.152H41.5673C60.2823 12.152 69.4973 15.382 69.4973 28.302C69.4973 40.842 60.1873 41.222 53.0623 41.887V45.877C63.2273 46.257 74.4373 46.922 74.4373 60.982C74.4373 76.752 60.2823 79.127 42.2323 79.127H12.5923ZM29.9773 64.402H43.1823C52.0173 64.402 56.9573 64.687 56.9573 57.657C56.9573 50.627 51.7323 51.007 43.1823 51.007H29.9773V64.402ZM29.9773 37.517H43.2773C48.5973 37.517 52.7773 37.897 52.7773 31.817C52.7773 25.927 48.9773 26.022 43.2773 26.022H29.9773V37.517Z"/>
<path d="M79.0418 54.902C79.0418 39.417 89.6818 30.107 104.597 30.107C121.222 30.107 130.817 39.132 130.817 54.237V58.512H95.3818C95.9518 64.497 99.4668 67.822 105.357 67.822C110.392 67.822 113.812 65.827 114.762 62.122H130.912C129.582 72.762 120.177 80.077 105.357 80.077C89.1118 80.077 79.0418 69.912 79.0418 54.902ZM95.3818 50.152H114.952C114.477 44.832 110.772 41.887 105.072 41.887C99.4668 41.887 95.7618 44.832 95.3818 50.152Z"/>
<path d="M187.881 31.057V79.127H171.541V45.402H160.711C159.951 66.777 155.961 79.127 135.251 79.127V64.782C143.516 64.782 144.656 57.847 144.656 31.057H187.881Z"/>
<path d="M253.566 79.127H238.271V43.692L241.406 35.047H237.321L225.541 79.127H195.711V31.057H210.911V66.017L207.871 75.042H211.861L223.736 31.057H253.566V79.127Z"/>
<path d="M261.395 31.057H277.64V47.302H281.915L291.13 34.952C293.505 31.722 297.4 31.057 301.675 31.057H310.415V45.402H302.72L296.83 53.002L310.795 79.127H293.22L284.005 61.647H277.64V79.127H261.395V31.057Z"/>
<path d="M313.666 54.997C313.666 37.992 325.921 30.107 341.026 30.107C355.941 30.107 368.291 37.992 368.291 54.997C368.291 72.192 355.941 80.077 341.026 80.077C325.921 80.077 313.666 72.192 313.666 54.997ZM329.911 54.997C329.911 62.217 334.376 65.732 341.026 65.732C347.486 65.732 351.951 62.217 351.951 54.997C351.951 47.872 347.486 44.452 341.026 44.452C334.376 44.452 329.911 47.872 329.911 54.997Z"/>
<path d="M409.769 31.057H428.294L406.159 75.897V91.097C406.159 96.607 403.119 99.362 397.989 99.362H373.479V84.542H389.819V75.897L367.684 31.057H386.019L395.994 55.852V64.117H399.984V55.852L409.769 31.057Z"/>
<path d="M427.684 54.997C427.684 38.657 438.894 30.107 454.189 30.107C467.964 30.107 479.934 37.707 480.504 51.197H464.164C463.689 47.587 460.174 44.452 454.189 44.452C448.489 44.452 443.929 48.062 443.929 54.997C443.929 62.027 448.489 65.732 454.189 65.732C460.174 65.732 463.689 62.597 464.164 58.987H480.504C479.934 72.477 467.964 80.077 454.189 80.077C438.894 80.077 427.684 71.432 427.684 54.997Z"/>
<path d="M483.353 31.057H535.888V45.402H517.743V79.127H501.498V45.402H483.353V31.057Z"/>
<path d="M589.331 80.077C575.841 80.077 567.956 73.047 565.581 62.122H558.836V79.127H542.591V31.057H558.836V47.872H565.676C567.956 37.137 575.841 30.107 589.331 30.107C605.386 30.107 613.651 40.272 613.651 54.997C613.651 69.817 605.386 80.077 589.331 80.077ZM581.161 54.997C581.161 62.597 583.631 65.732 589.331 65.732C594.841 65.732 597.311 62.597 597.311 54.997C597.311 47.587 594.841 44.452 589.331 44.452C583.631 44.452 581.161 47.587 581.161 54.997Z"/>
<path d="M620.057 39.322C620.057 33.907 623.097 31.057 628.512 31.057H660.717V45.402H636.397V79.127H620.057V39.322Z"/>
<path d="M663.051 54.997C663.051 38.657 674.261 30.107 689.556 30.107C703.331 30.107 715.301 37.707 715.871 51.197H699.531C699.056 47.587 695.541 44.452 689.556 44.452C683.856 44.452 679.296 48.062 679.296 54.997C679.296 62.027 683.856 65.732 689.556 65.732C695.541 65.732 699.056 62.597 699.531 58.987H715.871C715.301 72.477 703.331 80.077 689.556 80.077C674.261 80.077 663.051 71.432 663.051 54.997Z"/>
<path d="M723.128 31.057H739.373V47.302H743.648L752.863 34.952C755.238 31.722 759.133 31.057 763.408 31.057H772.148V45.402H764.453L758.563 53.002L772.528 79.127H754.953L745.738 61.647H739.373V79.127H723.128V31.057Z"/>
<path d="M776.521 66.017C776.521 57.657 781.366 52.717 796.091 51.197L810.721 49.582C810.721 44.547 807.871 42.552 802.361 42.552C796.471 42.552 793.146 45.022 792.956 49.297H777.661C777.946 36.662 788.586 30.107 801.791 30.107C815.091 30.107 827.061 36.092 827.061 49.962V64.782H833.996V79.127H822.976C818.321 79.127 815.566 76.467 815.566 71.812V71.337L818.131 65.542H814.141C812.336 73.332 807.776 80.077 794.286 80.077C779.086 80.077 776.521 70.957 776.521 66.017ZM792.481 63.262C792.481 66.397 795.331 67.157 798.466 67.157C805.211 67.157 810.721 63.547 810.721 57.752L799.131 59.462C794.856 60.127 792.481 60.602 792.481 63.262Z"/>
<path d="M885.526 79.127H869.186V60.412H864.911L855.316 73.807C852.466 77.512 849.711 79.127 845.246 79.127H838.406V65.922H845.436L849.901 59.842C844.296 58.797 838.881 55.567 838.881 46.352C838.881 34.382 848.286 31.057 857.216 31.057H885.526V79.127ZM855.126 45.687C855.126 48.347 856.646 50.342 861.491 50.342H869.186V41.032H861.491C856.646 41.032 855.126 43.027 855.126 45.687Z"/>
<path d="M920.921 99.172V31.057H937.166V33.337L934.126 42.362H938.116C940.586 36.187 944.861 30.107 956.926 30.107C970.891 30.107 977.541 41.697 977.541 55.092C977.541 68.582 970.891 80.077 956.926 80.077C944.861 80.077 940.586 73.997 938.116 67.727H934.126L937.166 76.847V99.172H920.921ZM937.166 55.092C937.166 62.692 941.156 65.732 949.136 65.732C957.211 65.732 961.296 62.692 961.296 55.092C961.296 47.587 957.211 44.452 949.136 44.452C941.156 44.452 937.166 47.587 937.166 55.092Z"/>
<path d="M982.47 54.997C982.47 37.992 994.725 30.107 1009.83 30.107C1024.74 30.107 1037.09 37.992 1037.09 54.997C1037.09 72.192 1024.74 80.077 1009.83 80.077C994.725 80.077 982.47 72.192 982.47 54.997ZM998.715 54.997C998.715 62.217 1003.18 65.732 1009.83 65.732C1016.29 65.732 1020.75 62.217 1020.75 54.997C1020.75 47.872 1016.29 44.452 1009.83 44.452C1003.18 44.452 998.715 47.872 998.715 54.997Z"/>
<path d="M1042.03 54.997C1042.03 38.657 1053.24 30.107 1068.54 30.107C1082.31 30.107 1094.28 37.707 1094.85 51.197H1078.51C1078.04 47.587 1074.52 44.452 1068.54 44.452C1062.84 44.452 1058.28 48.062 1058.28 54.997C1058.28 62.027 1062.84 65.732 1068.54 65.732C1074.52 65.732 1078.04 62.597 1078.51 58.987H1094.85C1094.28 72.477 1082.31 80.077 1068.54 80.077C1053.24 80.077 1042.03 71.432 1042.03 54.997Z"/>
<path d="M1102.11 31.057H1152.36V79.127H1136.12V45.402H1118.35V79.127H1102.11V31.057Z"/>
<path d="M1218.04 79.127H1202.74V43.692L1205.88 35.047H1201.79L1190.01 79.127H1160.18V31.057H1175.38V66.017L1172.34 75.042H1176.33L1188.21 31.057H1218.04V79.127Z"/>
<path d="M1225.26 54.997C1225.26 38.657 1236.47 30.107 1251.76 30.107C1265.54 30.107 1277.51 37.707 1278.08 51.197H1261.74C1261.26 47.587 1257.75 44.452 1251.76 44.452C1246.06 44.452 1241.5 48.062 1241.5 54.997C1241.5 62.027 1246.06 65.732 1251.76 65.732C1257.75 65.732 1261.26 62.597 1261.74 58.987H1278.08C1277.51 72.477 1265.54 80.077 1251.76 80.077C1236.47 80.077 1225.26 71.432 1225.26 54.997Z"/>
<path d="M1312.03 40.842C1323.24 40.842 1335.69 44.072 1335.69 60.032C1335.69 75.992 1323.24 79.127 1312.03 79.127H1285.34V31.057H1301.58V40.842H1312.03ZM1301.58 65.637H1311.08C1317.16 65.637 1319.35 64.972 1319.35 60.032C1319.35 55.187 1317.16 54.427 1311.08 54.427H1301.58V65.637Z"/>
</mask>
<path d="M12.5923 79.127V12.152H41.5673C60.2823 12.152 69.4973 15.382 69.4973 28.302C69.4973 40.842 60.1873 41.222 53.0623 41.887V45.877C63.2273 46.257 74.4373 46.922 74.4373 60.982C74.4373 76.752 60.2823 79.127 42.2323 79.127H12.5923ZM29.9773 64.402H43.1823C52.0173 64.402 56.9573 64.687 56.9573 57.657C56.9573 50.627 51.7323 51.007 43.1823 51.007H29.9773V64.402ZM29.9773 37.517H43.2773C48.5973 37.517 52.7773 37.897 52.7773 31.817C52.7773 25.927 48.9773 26.022 43.2773 26.022H29.9773V37.517Z" fill="black"/>
<path d="M79.0418 54.902C79.0418 39.417 89.6818 30.107 104.597 30.107C121.222 30.107 130.817 39.132 130.817 54.237V58.512H95.3818C95.9518 64.497 99.4668 67.822 105.357 67.822C110.392 67.822 113.812 65.827 114.762 62.122H130.912C129.582 72.762 120.177 80.077 105.357 80.077C89.1118 80.077 79.0418 69.912 79.0418 54.902ZM95.3818 50.152H114.952C114.477 44.832 110.772 41.887 105.072 41.887C99.4668 41.887 95.7618 44.832 95.3818 50.152Z" fill="black"/>
<path d="M187.881 31.057V79.127H171.541V45.402H160.711C159.951 66.777 155.961 79.127 135.251 79.127V64.782C143.516 64.782 144.656 57.847 144.656 31.057H187.881Z" fill="black"/>
<path d="M253.566 79.127H238.271V43.692L241.406 35.047H237.321L225.541 79.127H195.711V31.057H210.911V66.017L207.871 75.042H211.861L223.736 31.057H253.566V79.127Z" fill="black"/>
<path d="M261.395 31.057H277.64V47.302H281.915L291.13 34.952C293.505 31.722 297.4 31.057 301.675 31.057H310.415V45.402H302.72L296.83 53.002L310.795 79.127H293.22L284.005 61.647H277.64V79.127H261.395V31.057Z" fill="black"/>
<path d="M313.666 54.997C313.666 37.992 325.921 30.107 341.026 30.107C355.941 30.107 368.291 37.992 368.291 54.997C368.291 72.192 355.941 80.077 341.026 80.077C325.921 80.077 313.666 72.192 313.666 54.997ZM329.911 54.997C329.911 62.217 334.376 65.732 341.026 65.732C347.486 65.732 351.951 62.217 351.951 54.997C351.951 47.872 347.486 44.452 341.026 44.452C334.376 44.452 329.911 47.872 329.911 54.997Z" fill="black"/>
<path d="M409.769 31.057H428.294L406.159 75.897V91.097C406.159 96.607 403.119 99.362 397.989 99.362H373.479V84.542H389.819V75.897L367.684 31.057H386.019L395.994 55.852V64.117H399.984V55.852L409.769 31.057Z" fill="black"/>
<path d="M427.684 54.997C427.684 38.657 438.894 30.107 454.189 30.107C467.964 30.107 479.934 37.707 480.504 51.197H464.164C463.689 47.587 460.174 44.452 454.189 44.452C448.489 44.452 443.929 48.062 443.929 54.997C443.929 62.027 448.489 65.732 454.189 65.732C460.174 65.732 463.689 62.597 464.164 58.987H480.504C479.934 72.477 467.964 80.077 454.189 80.077C438.894 80.077 427.684 71.432 427.684 54.997Z" fill="black"/>
<path d="M483.353 31.057H535.888V45.402H517.743V79.127H501.498V45.402H483.353V31.057Z" fill="black"/>
<path d="M589.331 80.077C575.841 80.077 567.956 73.047 565.581 62.122H558.836V79.127H542.591V31.057H558.836V47.872H565.676C567.956 37.137 575.841 30.107 589.331 30.107C605.386 30.107 613.651 40.272 613.651 54.997C613.651 69.817 605.386 80.077 589.331 80.077ZM581.161 54.997C581.161 62.597 583.631 65.732 589.331 65.732C594.841 65.732 597.311 62.597 597.311 54.997C597.311 47.587 594.841 44.452 589.331 44.452C583.631 44.452 581.161 47.587 581.161 54.997Z" fill="black"/>
<path d="M620.057 39.322C620.057 33.907 623.097 31.057 628.512 31.057H660.717V45.402H636.397V79.127H620.057V39.322Z" fill="black"/>
<path d="M663.051 54.997C663.051 38.657 674.261 30.107 689.556 30.107C703.331 30.107 715.301 37.707 715.871 51.197H699.531C699.056 47.587 695.541 44.452 689.556 44.452C683.856 44.452 679.296 48.062 679.296 54.997C679.296 62.027 683.856 65.732 689.556 65.732C695.541 65.732 699.056 62.597 699.531 58.987H715.871C715.301 72.477 703.331 80.077 689.556 80.077C674.261 80.077 663.051 71.432 663.051 54.997Z" fill="black"/>
<path d="M723.128 31.057H739.373V47.302H743.648L752.863 34.952C755.238 31.722 759.133 31.057 763.408 31.057H772.148V45.402H764.453L758.563 53.002L772.528 79.127H754.953L745.738 61.647H739.373V79.127H723.128V31.057Z" fill="black"/>
<path d="M776.521 66.017C776.521 57.657 781.366 52.717 796.091 51.197L810.721 49.582C810.721 44.547 807.871 42.552 802.361 42.552C796.471 42.552 793.146 45.022 792.956 49.297H777.661C777.946 36.662 788.586 30.107 801.791 30.107C815.091 30.107 827.061 36.092 827.061 49.962V64.782H833.996V79.127H822.976C818.321 79.127 815.566 76.467 815.566 71.812V71.337L818.131 65.542H814.141C812.336 73.332 807.776 80.077 794.286 80.077C779.086 80.077 776.521 70.957 776.521 66.017ZM792.481 63.262C792.481 66.397 795.331 67.157 798.466 67.157C805.211 67.157 810.721 63.547 810.721 57.752L799.131 59.462C794.856 60.127 792.481 60.602 792.481 63.262Z" fill="black"/>
<path d="M885.526 79.127H869.186V60.412H864.911L855.316 73.807C852.466 77.512 849.711 79.127 845.246 79.127H838.406V65.922H845.436L849.901 59.842C844.296 58.797 838.881 55.567 838.881 46.352C838.881 34.382 848.286 31.057 857.216 31.057H885.526V79.127ZM855.126 45.687C855.126 48.347 856.646 50.342 861.491 50.342H869.186V41.032H861.491C856.646 41.032 855.126 43.027 855.126 45.687Z" fill="black"/>
<path d="M920.921 99.172V31.057H937.166V33.337L934.126 42.362H938.116C940.586 36.187 944.861 30.107 956.926 30.107C970.891 30.107 977.541 41.697 977.541 55.092C977.541 68.582 970.891 80.077 956.926 80.077C944.861 80.077 940.586 73.997 938.116 67.727H934.126L937.166 76.847V99.172H920.921ZM937.166 55.092C937.166 62.692 941.156 65.732 949.136 65.732C957.211 65.732 961.296 62.692 961.296 55.092C961.296 47.587 957.211 44.452 949.136 44.452C941.156 44.452 937.166 47.587 937.166 55.092Z" fill="black"/>
<path d="M982.47 54.997C982.47 37.992 994.725 30.107 1009.83 30.107C1024.74 30.107 1037.09 37.992 1037.09 54.997C1037.09 72.192 1024.74 80.077 1009.83 80.077C994.725 80.077 982.47 72.192 982.47 54.997ZM998.715 54.997C998.715 62.217 1003.18 65.732 1009.83 65.732C1016.29 65.732 1020.75 62.217 1020.75 54.997C1020.75 47.872 1016.29 44.452 1009.83 44.452C1003.18 44.452 998.715 47.872 998.715 54.997Z" fill="black"/>
<path d="M1042.03 54.997C1042.03 38.657 1053.24 30.107 1068.54 30.107C1082.31 30.107 1094.28 37.707 1094.85 51.197H1078.51C1078.04 47.587 1074.52 44.452 1068.54 44.452C1062.84 44.452 1058.28 48.062 1058.28 54.997C1058.28 62.027 1062.84 65.732 1068.54 65.732C1074.52 65.732 1078.04 62.597 1078.51 58.987H1094.85C1094.28 72.477 1082.31 80.077 1068.54 80.077C1053.24 80.077 1042.03 71.432 1042.03 54.997Z" fill="black"/>
<path d="M1102.11 31.057H1152.36V79.127H1136.12V45.402H1118.35V79.127H1102.11V31.057Z" fill="black"/>
<path d="M1218.04 79.127H1202.74V43.692L1205.88 35.047H1201.79L1190.01 79.127H1160.18V31.057H1175.38V66.017L1172.34 75.042H1176.33L1188.21 31.057H1218.04V79.127Z" fill="black"/>
<path d="M1225.26 54.997C1225.26 38.657 1236.47 30.107 1251.76 30.107C1265.54 30.107 1277.51 37.707 1278.08 51.197H1261.74C1261.26 47.587 1257.75 44.452 1251.76 44.452C1246.06 44.452 1241.5 48.062 1241.5 54.997C1241.5 62.027 1246.06 65.732 1251.76 65.732C1257.75 65.732 1261.26 62.597 1261.74 58.987H1278.08C1277.51 72.477 1265.54 80.077 1251.76 80.077C1236.47 80.077 1225.26 71.432 1225.26 54.997Z" fill="black"/>
<path d="M1312.03 40.842C1323.24 40.842 1335.69 44.072 1335.69 60.032C1335.69 75.992 1323.24 79.127 1312.03 79.127H1285.34V31.057H1301.58V40.842H1312.03ZM1301.58 65.637H1311.08C1317.16 65.637 1319.35 64.972 1319.35 60.032C1319.35 55.187 1317.16 54.427 1311.08 54.427H1301.58V65.637Z" fill="black"/>
<path d="M12.5923 79.127V12.152H41.5673C60.2823 12.152 69.4973 15.382 69.4973 28.302C69.4973 40.842 60.1873 41.222 53.0623 41.887V45.877C63.2273 46.257 74.4373 46.922 74.4373 60.982C74.4373 76.752 60.2823 79.127 42.2323 79.127H12.5923ZM29.9773 64.402H43.1823C52.0173 64.402 56.9573 64.687 56.9573 57.657C56.9573 50.627 51.7323 51.007 43.1823 51.007H29.9773V64.402ZM29.9773 37.517H43.2773C48.5973 37.517 52.7773 37.897 52.7773 31.817C52.7773 25.927 48.9773 26.022 43.2773 26.022H29.9773V37.517Z" stroke="black" stroke-width="24" mask="url(#path-1-outside-1_238_1536)"/>
<path d="M79.0418 54.902C79.0418 39.417 89.6818 30.107 104.597 30.107C121.222 30.107 130.817 39.132 130.817 54.237V58.512H95.3818C95.9518 64.497 99.4668 67.822 105.357 67.822C110.392 67.822 113.812 65.827 114.762 62.122H130.912C129.582 72.762 120.177 80.077 105.357 80.077C89.1118 80.077 79.0418 69.912 79.0418 54.902ZM95.3818 50.152H114.952C114.477 44.832 110.772 41.887 105.072 41.887C99.4668 41.887 95.7618 44.832 95.3818 50.152Z" stroke="black" stroke-width="24" mask="url(#path-1-outside-1_238_1536)"/>
<path d="M187.881 31.057V79.127H171.541V45.402H160.711C159.951 66.777 155.961 79.127 135.251 79.127V64.782C143.516 64.782 144.656 57.847 144.656 31.057H187.881Z" stroke="black" stroke-width="24" mask="url(#path-1-outside-1_238_1536)"/>
<path d="M253.566 79.127H238.271V43.692L241.406 35.047H237.321L225.541 79.127H195.711V31.057H210.911V66.017L207.871 75.042H211.861L223.736 31.057H253.566V79.127Z" stroke="black" stroke-width="24" mask="url(#path-1-outside-1_238_1536)"/>
<path d="M261.395 31.057H277.64V47.302H281.915L291.13 34.952C293.505 31.722 297.4 31.057 301.675 31.057H310.415V45.402H302.72L296.83 53.002L310.795 79.127H293.22L284.005 61.647H277.64V79.127H261.395V31.057Z" stroke="black" stroke-width="24" mask="url(#path-1-outside-1_238_1536)"/>
<path d="M313.666 54.997C313.666 37.992 325.921 30.107 341.026 30.107C355.941 30.107 368.291 37.992 368.291 54.997C368.291 72.192 355.941 80.077 341.026 80.077C325.921 80.077 313.666 72.192 313.666 54.997ZM329.911 54.997C329.911 62.217 334.376 65.732 341.026 65.732C347.486 65.732 351.951 62.217 351.951 54.997C351.951 47.872 347.486 44.452 341.026 44.452C334.376 44.452 329.911 47.872 329.911 54.997Z" stroke="black" stroke-width="24" mask="url(#path-1-outside-1_238_1536)"/>
<path d="M409.769 31.057H428.294L406.159 75.897V91.097C406.159 96.607 403.119 99.362 397.989 99.362H373.479V84.542H389.819V75.897L367.684 31.057H386.019L395.994 55.852V64.117H399.984V55.852L409.769 31.057Z" stroke="black" stroke-width="24" mask="url(#path-1-outside-1_238_1536)"/>
<path d="M427.684 54.997C427.684 38.657 438.894 30.107 454.189 30.107C467.964 30.107 479.934 37.707 480.504 51.197H464.164C463.689 47.587 460.174 44.452 454.189 44.452C448.489 44.452 443.929 48.062 443.929 54.997C443.929 62.027 448.489 65.732 454.189 65.732C460.174 65.732 463.689 62.597 464.164 58.987H480.504C479.934 72.477 467.964 80.077 454.189 80.077C438.894 80.077 427.684 71.432 427.684 54.997Z" stroke="black" stroke-width="24" mask="url(#path-1-outside-1_238_1536)"/>
<path d="M483.353 31.057H535.888V45.402H517.743V79.127H501.498V45.402H483.353V31.057Z" stroke="black" stroke-width="24" mask="url(#path-1-outside-1_238_1536)"/>
<path d="M589.331 80.077C575.841 80.077 567.956 73.047 565.581 62.122H558.836V79.127H542.591V31.057H558.836V47.872H565.676C567.956 37.137 575.841 30.107 589.331 30.107C605.386 30.107 613.651 40.272 613.651 54.997C613.651 69.817 605.386 80.077 589.331 80.077ZM581.161 54.997C581.161 62.597 583.631 65.732 589.331 65.732C594.841 65.732 597.311 62.597 597.311 54.997C597.311 47.587 594.841 44.452 589.331 44.452C583.631 44.452 581.161 47.587 581.161 54.997Z" stroke="black" stroke-width="24" mask="url(#path-1-outside-1_238_1536)"/>
<path d="M620.057 39.322C620.057 33.907 623.097 31.057 628.512 31.057H660.717V45.402H636.397V79.127H620.057V39.322Z" stroke="black" stroke-width="24" mask="url(#path-1-outside-1_238_1536)"/>
<path d="M663.051 54.997C663.051 38.657 674.261 30.107 689.556 30.107C703.331 30.107 715.301 37.707 715.871 51.197H699.531C699.056 47.587 695.541 44.452 689.556 44.452C683.856 44.452 679.296 48.062 679.296 54.997C679.296 62.027 683.856 65.732 689.556 65.732C695.541 65.732 699.056 62.597 699.531 58.987H715.871C715.301 72.477 703.331 80.077 689.556 80.077C674.261 80.077 663.051 71.432 663.051 54.997Z" stroke="black" stroke-width="24" mask="url(#path-1-outside-1_238_1536)"/>
<path d="M723.128 31.057H739.373V47.302H743.648L752.863 34.952C755.238 31.722 759.133 31.057 763.408 31.057H772.148V45.402H764.453L758.563 53.002L772.528 79.127H754.953L745.738 61.647H739.373V79.127H723.128V31.057Z" stroke="black" stroke-width="24" mask="url(#path-1-outside-1_238_1536)"/>
<path d="M776.521 66.017C776.521 57.657 781.366 52.717 796.091 51.197L810.721 49.582C810.721 44.547 807.871 42.552 802.361 42.552C796.471 42.552 793.146 45.022 792.956 49.297H777.661C777.946 36.662 788.586 30.107 801.791 30.107C815.091 30.107 827.061 36.092 827.061 49.962V64.782H833.996V79.127H822.976C818.321 79.127 815.566 76.467 815.566 71.812V71.337L818.131 65.542H814.141C812.336 73.332 807.776 80.077 794.286 80.077C779.086 80.077 776.521 70.957 776.521 66.017ZM792.481 63.262C792.481 66.397 795.331 67.157 798.466 67.157C805.211 67.157 810.721 63.547 810.721 57.752L799.131 59.462C794.856 60.127 792.481 60.602 792.481 63.262Z" stroke="black" stroke-width="24" mask="url(#path-1-outside-1_238_1536)"/>
<path d="M885.526 79.127H869.186V60.412H864.911L855.316 73.807C852.466 77.512 849.711 79.127 845.246 79.127H838.406V65.922H845.436L849.901 59.842C844.296 58.797 838.881 55.567 838.881 46.352C838.881 34.382 848.286 31.057 857.216 31.057H885.526V79.127ZM855.126 45.687C855.126 48.347 856.646 50.342 861.491 50.342H869.186V41.032H861.491C856.646 41.032 855.126 43.027 855.126 45.687Z" stroke="black" stroke-width="24" mask="url(#path-1-outside-1_238_1536)"/>
<path d="M920.921 99.172V31.057H937.166V33.337L934.126 42.362H938.116C940.586 36.187 944.861 30.107 956.926 30.107C970.891 30.107 977.541 41.697 977.541 55.092C977.541 68.582 970.891 80.077 956.926 80.077C944.861 80.077 940.586 73.997 938.116 67.727H934.126L937.166 76.847V99.172H920.921ZM937.166 55.092C937.166 62.692 941.156 65.732 949.136 65.732C957.211 65.732 961.296 62.692 961.296 55.092C961.296 47.587 957.211 44.452 949.136 44.452C941.156 44.452 937.166 47.587 937.166 55.092Z" stroke="black" stroke-width="24" mask="url(#path-1-outside-1_238_1536)"/>
<path d="M982.47 54.997C982.47 37.992 994.725 30.107 1009.83 30.107C1024.74 30.107 1037.09 37.992 1037.09 54.997C1037.09 72.192 1024.74 80.077 1009.83 80.077C994.725 80.077 982.47 72.192 982.47 54.997ZM998.715 54.997C998.715 62.217 1003.18 65.732 1009.83 65.732C1016.29 65.732 1020.75 62.217 1020.75 54.997C1020.75 47.872 1016.29 44.452 1009.83 44.452C1003.18 44.452 998.715 47.872 998.715 54.997Z" stroke="black" stroke-width="24" mask="url(#path-1-outside-1_238_1536)"/>
<path d="M1042.03 54.997C1042.03 38.657 1053.24 30.107 1068.54 30.107C1082.31 30.107 1094.28 37.707 1094.85 51.197H1078.51C1078.04 47.587 1074.52 44.452 1068.54 44.452C1062.84 44.452 1058.28 48.062 1058.28 54.997C1058.28 62.027 1062.84 65.732 1068.54 65.732C1074.52 65.732 1078.04 62.597 1078.51 58.987H1094.85C1094.28 72.477 1082.31 80.077 1068.54 80.077C1053.24 80.077 1042.03 71.432 1042.03 54.997Z" stroke="black" stroke-width="24" mask="url(#path-1-outside-1_238_1536)"/>
<path d="M1102.11 31.057H1152.36V79.127H1136.12V45.402H1118.35V79.127H1102.11V31.057Z" stroke="black" stroke-width="24" mask="url(#path-1-outside-1_238_1536)"/>
<path d="M1218.04 79.127H1202.74V43.692L1205.88 35.047H1201.79L1190.01 79.127H1160.18V31.057H1175.38V66.017L1172.34 75.042H1176.33L1188.21 31.057H1218.04V79.127Z" stroke="black" stroke-width="24" mask="url(#path-1-outside-1_238_1536)"/>
<path d="M1225.26 54.997C1225.26 38.657 1236.47 30.107 1251.76 30.107C1265.54 30.107 1277.51 37.707 1278.08 51.197H1261.74C1261.26 47.587 1257.75 44.452 1251.76 44.452C1246.06 44.452 1241.5 48.062 1241.5 54.997C1241.5 62.027 1246.06 65.732 1251.76 65.732C1257.75 65.732 1261.26 62.597 1261.74 58.987H1278.08C1277.51 72.477 1265.54 80.077 1251.76 80.077C1236.47 80.077 1225.26 71.432 1225.26 54.997Z" stroke="black" stroke-width="24" mask="url(#path-1-outside-1_238_1536)"/>
<path d="M1312.03 40.842C1323.24 40.842 1335.69 44.072 1335.69 60.032C1335.69 75.992 1323.24 79.127 1312.03 79.127H1285.34V31.057H1301.58V40.842H1312.03ZM1301.58 65.637H1311.08C1317.16 65.637 1319.35 64.972 1319.35 60.032C1319.35 55.187 1317.16 54.427 1311.08 54.427H1301.58V65.637Z" stroke="black" stroke-width="24" mask="url(#path-1-outside-1_238_1536)"/>
</svg>
