<svg width="1173" height="113" viewBox="0 0 1173 113" fill="none" xmlns="http://www.w3.org/2000/svg">
<mask id="path-1-outside-1_257_1542" maskUnits="userSpaceOnUse" x="0.643066" y="0.996826" width="1172" height="112" fill="black">
<rect fill="white" x="0.643066" y="0.996826" width="1172" height="112"/>
<path d="M12.6431 12.9968H73.0631V79.9718H55.7731V28.1018H29.9331V79.9718H12.6431V12.9968Z"/>
<path d="M80.3076 66.8618C80.3076 58.5018 85.1526 53.5618 99.8776 52.0418L114.508 50.4268C114.508 45.3918 111.658 43.3968 106.148 43.3968C100.258 43.3968 96.9326 45.8668 96.7426 50.1418H81.4476C81.7326 37.5068 92.3726 30.9518 105.578 30.9518C118.878 30.9518 130.848 36.9368 130.848 50.8068V65.6268H137.783V79.9718H126.763C122.108 79.9718 119.353 77.3118 119.353 72.6568V72.1818L121.918 66.3868H117.928C116.123 74.1768 111.563 80.9218 98.0726 80.9218C82.8726 80.9218 80.3076 71.8018 80.3076 66.8618ZM96.2676 64.1068C96.2676 67.2418 99.1176 68.0018 102.253 68.0018C108.998 68.0018 114.508 64.3918 114.508 58.5968L102.918 60.3068C98.6426 60.9718 96.2676 61.4468 96.2676 64.1068Z"/>
<path d="M195.169 31.9018V79.9718H178.828V46.2468H167.998C167.238 67.6218 163.248 79.9718 142.538 79.9718V65.6268C150.803 65.6268 151.943 58.6918 151.943 31.9018H195.169Z"/>
<path d="M202.388 55.7468C202.388 40.2618 213.028 30.9518 227.943 30.9518C244.568 30.9518 254.163 39.9768 254.163 55.0818V59.3568H218.729C219.299 65.3418 222.813 68.6668 228.703 68.6668C233.738 68.6668 237.158 66.6718 238.108 62.9668H254.258C252.928 73.6068 243.523 80.9218 228.703 80.9218C212.458 80.9218 202.388 70.7568 202.388 55.7468ZM218.729 50.9968H238.298C237.823 45.6768 234.119 42.7318 228.419 42.7318C222.814 42.7318 219.108 45.6768 218.729 50.9968Z"/>
<path d="M254.509 79.9718L269.044 55.8418L254.509 31.9018H273.034L282.724 49.3818H285.384L295.169 31.9018H313.694L299.254 55.8418L313.694 79.9718H295.169L285.384 62.3968H282.724L273.034 79.9718H254.509Z"/>
<path d="M313.809 55.8418C313.809 39.5018 325.019 30.9518 340.314 30.9518C354.089 30.9518 366.059 38.5518 366.629 52.0418H350.289C349.814 48.4318 346.299 45.2968 340.314 45.2968C334.614 45.2968 330.054 48.9068 330.054 55.8418C330.054 62.8718 334.614 66.5768 340.314 66.5768C346.299 66.5768 349.814 63.4418 350.289 59.8318H366.629C366.059 73.3218 354.089 80.9218 340.314 80.9218C325.019 80.9218 313.809 72.2768 313.809 55.8418Z"/>
<path d="M373.887 31.9018H390.132V48.1468H394.407L403.622 35.7968C405.997 32.5668 409.892 31.9018 414.167 31.9018H422.907V46.2468H415.212L409.322 53.8468L423.287 79.9718H405.712L396.497 62.4918H390.132V79.9718H373.887V31.9018Z"/>
<path d="M427.28 66.8618C427.28 58.5018 432.125 53.5618 446.85 52.0418L461.48 50.4268C461.48 45.3918 458.63 43.3968 453.12 43.3968C447.23 43.3968 443.905 45.8668 443.715 50.1418H428.42C428.705 37.5068 439.345 30.9518 452.55 30.9518C465.85 30.9518 477.82 36.9368 477.82 50.8068V65.6268H484.755V79.9718H473.735C469.08 79.9718 466.325 77.3118 466.325 72.6568V72.1818L468.89 66.3868H464.9C463.095 74.1768 458.535 80.9218 445.045 80.9218C429.845 80.9218 427.28 71.8018 427.28 66.8618ZM443.24 64.1068C443.24 67.2418 446.09 68.0018 449.225 68.0018C455.97 68.0018 461.48 64.3918 461.48 58.5968L449.89 60.3068C445.615 60.9718 443.24 61.4468 443.24 64.1068Z"/>
<path d="M536.285 79.9718H519.945V61.2568H515.67L506.075 74.6518C503.225 78.3568 500.47 79.9718 496.005 79.9718H489.165V66.7668H496.195L500.66 60.6868C495.055 59.6418 489.64 56.4118 489.64 47.1968C489.64 35.2268 499.045 31.9018 507.975 31.9018H536.285V79.9718ZM505.885 46.5318C505.885 49.1918 507.405 51.1868 512.25 51.1868H519.945V41.8768H512.25C507.405 41.8768 505.885 43.8718 505.885 46.5318Z"/>
<path d="M571.68 79.9718V31.9018H602.84L606.83 75.8868H610.915L614.905 31.9018H646.255V79.9718H630.96V45.0118L634 35.8918H630.01L623.645 79.9718H594.005L587.83 35.8918H583.745L586.88 45.0118V79.9718H571.68Z"/>
<path d="M711.825 79.9718H696.53V44.5368L699.665 35.8918H695.58L683.8 79.9718H653.97V31.9018H669.17V66.8618L666.13 75.8868H670.12L681.995 31.9018H711.825V79.9718Z"/>
<path d="M719.654 31.9018H735.899V48.7168H757.939V31.9018H774.279V79.9718H757.939V62.9668H735.899V79.9718H719.654V31.9018Z"/>
<path d="M839.853 79.9718H824.558V44.5368L827.693 35.8918H823.608L811.828 79.9718H781.998V31.9018H797.198V66.8618L794.158 75.8868H798.148L810.023 31.9018H839.853V79.9718Z"/>
<path d="M846.987 66.8618C846.987 58.5018 851.832 53.5618 866.557 52.0418L881.187 50.4268C881.187 45.3918 878.337 43.3968 872.827 43.3968C866.937 43.3968 863.612 45.8668 863.422 50.1418H848.127C848.412 37.5068 859.052 30.9518 872.257 30.9518C885.557 30.9518 897.527 36.9368 897.527 50.8068V65.6268H904.462V79.9718H893.442C888.787 79.9718 886.032 77.3118 886.032 72.6568V72.1818L888.597 66.3868H884.607C882.802 74.1768 878.242 80.9218 864.752 80.9218C849.552 80.9218 846.987 71.8018 846.987 66.8618ZM862.947 64.1068C862.947 67.2418 865.797 68.0018 868.932 68.0018C875.677 68.0018 881.187 64.3918 881.187 58.5968L869.597 60.3068C865.322 60.9718 862.947 61.4468 862.947 64.1068Z"/>
<path d="M903.482 31.9018H956.017V46.2468H937.872V79.9718H921.627V46.2468H903.482V31.9018Z"/>
<path d="M1009.46 80.9218C995.97 80.9218 988.085 73.8918 985.71 62.9668H978.965V79.9718H962.72V31.9018H978.965V48.7168H985.805C988.085 37.9818 995.97 30.9518 1009.46 30.9518C1025.52 30.9518 1033.78 41.1168 1033.78 55.8418C1033.78 70.6618 1025.52 80.9218 1009.46 80.9218ZM1001.29 55.8418C1001.29 63.4418 1003.76 66.5768 1009.46 66.5768C1014.97 66.5768 1017.44 63.4418 1017.44 55.8418C1017.44 48.4318 1014.97 45.2968 1009.46 45.2968C1003.76 45.2968 1001.29 48.4318 1001.29 55.8418Z"/>
<path d="M1040.93 100.017V31.9018H1057.17V34.1818L1054.13 43.2068H1058.12C1060.59 37.0318 1064.87 30.9518 1076.93 30.9518C1090.9 30.9518 1097.55 42.5418 1097.55 55.9368C1097.55 69.4268 1090.9 80.9218 1076.93 80.9218C1064.87 80.9218 1060.59 74.8418 1058.12 68.5718H1054.13L1057.17 77.6918V100.017H1040.93ZM1057.17 55.9368C1057.17 63.5368 1061.16 66.5768 1069.14 66.5768C1077.22 66.5768 1081.3 63.5368 1081.3 55.9368C1081.3 48.4318 1077.22 45.2968 1069.14 45.2968C1061.16 45.2968 1057.17 48.4318 1057.17 55.9368Z"/>
<path d="M1102.86 66.8618C1102.86 58.5018 1107.7 53.5618 1122.43 52.0418L1137.06 50.4268C1137.06 45.3918 1134.21 43.3968 1128.7 43.3968C1122.81 43.3968 1119.48 45.8668 1119.29 50.1418H1104C1104.28 37.5068 1114.92 30.9518 1128.13 30.9518C1141.43 30.9518 1153.4 36.9368 1153.4 50.8068V65.6268H1160.33V79.9718H1149.31C1144.66 79.9718 1141.9 77.3118 1141.9 72.6568V72.1818L1144.47 66.3868H1140.48C1138.67 74.1768 1134.11 80.9218 1120.62 80.9218C1105.42 80.9218 1102.86 71.8018 1102.86 66.8618ZM1118.82 64.1068C1118.82 67.2418 1121.67 68.0018 1124.8 68.0018C1131.55 68.0018 1137.06 64.3918 1137.06 58.5968L1125.47 60.3068C1121.19 60.9718 1118.82 61.4468 1118.82 64.1068Z"/>
</mask>
<path d="M12.6431 12.9968H73.0631V79.9718H55.7731V28.1018H29.9331V79.9718H12.6431V12.9968Z" fill="black"/>
<path d="M80.3076 66.8618C80.3076 58.5018 85.1526 53.5618 99.8776 52.0418L114.508 50.4268C114.508 45.3918 111.658 43.3968 106.148 43.3968C100.258 43.3968 96.9326 45.8668 96.7426 50.1418H81.4476C81.7326 37.5068 92.3726 30.9518 105.578 30.9518C118.878 30.9518 130.848 36.9368 130.848 50.8068V65.6268H137.783V79.9718H126.763C122.108 79.9718 119.353 77.3118 119.353 72.6568V72.1818L121.918 66.3868H117.928C116.123 74.1768 111.563 80.9218 98.0726 80.9218C82.8726 80.9218 80.3076 71.8018 80.3076 66.8618ZM96.2676 64.1068C96.2676 67.2418 99.1176 68.0018 102.253 68.0018C108.998 68.0018 114.508 64.3918 114.508 58.5968L102.918 60.3068C98.6426 60.9718 96.2676 61.4468 96.2676 64.1068Z" fill="black"/>
<path d="M195.169 31.9018V79.9718H178.828V46.2468H167.998C167.238 67.6218 163.248 79.9718 142.538 79.9718V65.6268C150.803 65.6268 151.943 58.6918 151.943 31.9018H195.169Z" fill="black"/>
<path d="M202.388 55.7468C202.388 40.2618 213.028 30.9518 227.943 30.9518C244.568 30.9518 254.163 39.9768 254.163 55.0818V59.3568H218.729C219.299 65.3418 222.813 68.6668 228.703 68.6668C233.738 68.6668 237.158 66.6718 238.108 62.9668H254.258C252.928 73.6068 243.523 80.9218 228.703 80.9218C212.458 80.9218 202.388 70.7568 202.388 55.7468ZM218.729 50.9968H238.298C237.823 45.6768 234.119 42.7318 228.419 42.7318C222.814 42.7318 219.108 45.6768 218.729 50.9968Z" fill="black"/>
<path d="M254.509 79.9718L269.044 55.8418L254.509 31.9018H273.034L282.724 49.3818H285.384L295.169 31.9018H313.694L299.254 55.8418L313.694 79.9718H295.169L285.384 62.3968H282.724L273.034 79.9718H254.509Z" fill="black"/>
<path d="M313.809 55.8418C313.809 39.5018 325.019 30.9518 340.314 30.9518C354.089 30.9518 366.059 38.5518 366.629 52.0418H350.289C349.814 48.4318 346.299 45.2968 340.314 45.2968C334.614 45.2968 330.054 48.9068 330.054 55.8418C330.054 62.8718 334.614 66.5768 340.314 66.5768C346.299 66.5768 349.814 63.4418 350.289 59.8318H366.629C366.059 73.3218 354.089 80.9218 340.314 80.9218C325.019 80.9218 313.809 72.2768 313.809 55.8418Z" fill="black"/>
<path d="M373.887 31.9018H390.132V48.1468H394.407L403.622 35.7968C405.997 32.5668 409.892 31.9018 414.167 31.9018H422.907V46.2468H415.212L409.322 53.8468L423.287 79.9718H405.712L396.497 62.4918H390.132V79.9718H373.887V31.9018Z" fill="black"/>
<path d="M427.28 66.8618C427.28 58.5018 432.125 53.5618 446.85 52.0418L461.48 50.4268C461.48 45.3918 458.63 43.3968 453.12 43.3968C447.23 43.3968 443.905 45.8668 443.715 50.1418H428.42C428.705 37.5068 439.345 30.9518 452.55 30.9518C465.85 30.9518 477.82 36.9368 477.82 50.8068V65.6268H484.755V79.9718H473.735C469.08 79.9718 466.325 77.3118 466.325 72.6568V72.1818L468.89 66.3868H464.9C463.095 74.1768 458.535 80.9218 445.045 80.9218C429.845 80.9218 427.28 71.8018 427.28 66.8618ZM443.24 64.1068C443.24 67.2418 446.09 68.0018 449.225 68.0018C455.97 68.0018 461.48 64.3918 461.48 58.5968L449.89 60.3068C445.615 60.9718 443.24 61.4468 443.24 64.1068Z" fill="black"/>
<path d="M536.285 79.9718H519.945V61.2568H515.67L506.075 74.6518C503.225 78.3568 500.47 79.9718 496.005 79.9718H489.165V66.7668H496.195L500.66 60.6868C495.055 59.6418 489.64 56.4118 489.64 47.1968C489.64 35.2268 499.045 31.9018 507.975 31.9018H536.285V79.9718ZM505.885 46.5318C505.885 49.1918 507.405 51.1868 512.25 51.1868H519.945V41.8768H512.25C507.405 41.8768 505.885 43.8718 505.885 46.5318Z" fill="black"/>
<path d="M571.68 79.9718V31.9018H602.84L606.83 75.8868H610.915L614.905 31.9018H646.255V79.9718H630.96V45.0118L634 35.8918H630.01L623.645 79.9718H594.005L587.83 35.8918H583.745L586.88 45.0118V79.9718H571.68Z" fill="black"/>
<path d="M711.825 79.9718H696.53V44.5368L699.665 35.8918H695.58L683.8 79.9718H653.97V31.9018H669.17V66.8618L666.13 75.8868H670.12L681.995 31.9018H711.825V79.9718Z" fill="black"/>
<path d="M719.654 31.9018H735.899V48.7168H757.939V31.9018H774.279V79.9718H757.939V62.9668H735.899V79.9718H719.654V31.9018Z" fill="black"/>
<path d="M839.853 79.9718H824.558V44.5368L827.693 35.8918H823.608L811.828 79.9718H781.998V31.9018H797.198V66.8618L794.158 75.8868H798.148L810.023 31.9018H839.853V79.9718Z" fill="black"/>
<path d="M846.987 66.8618C846.987 58.5018 851.832 53.5618 866.557 52.0418L881.187 50.4268C881.187 45.3918 878.337 43.3968 872.827 43.3968C866.937 43.3968 863.612 45.8668 863.422 50.1418H848.127C848.412 37.5068 859.052 30.9518 872.257 30.9518C885.557 30.9518 897.527 36.9368 897.527 50.8068V65.6268H904.462V79.9718H893.442C888.787 79.9718 886.032 77.3118 886.032 72.6568V72.1818L888.597 66.3868H884.607C882.802 74.1768 878.242 80.9218 864.752 80.9218C849.552 80.9218 846.987 71.8018 846.987 66.8618ZM862.947 64.1068C862.947 67.2418 865.797 68.0018 868.932 68.0018C875.677 68.0018 881.187 64.3918 881.187 58.5968L869.597 60.3068C865.322 60.9718 862.947 61.4468 862.947 64.1068Z" fill="black"/>
<path d="M903.482 31.9018H956.017V46.2468H937.872V79.9718H921.627V46.2468H903.482V31.9018Z" fill="black"/>
<path d="M1009.46 80.9218C995.97 80.9218 988.085 73.8918 985.71 62.9668H978.965V79.9718H962.72V31.9018H978.965V48.7168H985.805C988.085 37.9818 995.97 30.9518 1009.46 30.9518C1025.52 30.9518 1033.78 41.1168 1033.78 55.8418C1033.78 70.6618 1025.52 80.9218 1009.46 80.9218ZM1001.29 55.8418C1001.29 63.4418 1003.76 66.5768 1009.46 66.5768C1014.97 66.5768 1017.44 63.4418 1017.44 55.8418C1017.44 48.4318 1014.97 45.2968 1009.46 45.2968C1003.76 45.2968 1001.29 48.4318 1001.29 55.8418Z" fill="black"/>
<path d="M1040.93 100.017V31.9018H1057.17V34.1818L1054.13 43.2068H1058.12C1060.59 37.0318 1064.87 30.9518 1076.93 30.9518C1090.9 30.9518 1097.55 42.5418 1097.55 55.9368C1097.55 69.4268 1090.9 80.9218 1076.93 80.9218C1064.87 80.9218 1060.59 74.8418 1058.12 68.5718H1054.13L1057.17 77.6918V100.017H1040.93ZM1057.17 55.9368C1057.17 63.5368 1061.16 66.5768 1069.14 66.5768C1077.22 66.5768 1081.3 63.5368 1081.3 55.9368C1081.3 48.4318 1077.22 45.2968 1069.14 45.2968C1061.16 45.2968 1057.17 48.4318 1057.17 55.9368Z" fill="black"/>
<path d="M1102.86 66.8618C1102.86 58.5018 1107.7 53.5618 1122.43 52.0418L1137.06 50.4268C1137.06 45.3918 1134.21 43.3968 1128.7 43.3968C1122.81 43.3968 1119.48 45.8668 1119.29 50.1418H1104C1104.28 37.5068 1114.92 30.9518 1128.13 30.9518C1141.43 30.9518 1153.4 36.9368 1153.4 50.8068V65.6268H1160.33V79.9718H1149.31C1144.66 79.9718 1141.9 77.3118 1141.9 72.6568V72.1818L1144.47 66.3868H1140.48C1138.67 74.1768 1134.11 80.9218 1120.62 80.9218C1105.42 80.9218 1102.86 71.8018 1102.86 66.8618ZM1118.82 64.1068C1118.82 67.2418 1121.67 68.0018 1124.8 68.0018C1131.55 68.0018 1137.06 64.3918 1137.06 58.5968L1125.47 60.3068C1121.19 60.9718 1118.82 61.4468 1118.82 64.1068Z" fill="black"/>
<path d="M12.6431 12.9968H73.0631V79.9718H55.7731V28.1018H29.9331V79.9718H12.6431V12.9968Z" stroke="black" stroke-width="24" mask="url(#path-1-outside-1_257_1542)"/>
<path d="M80.3076 66.8618C80.3076 58.5018 85.1526 53.5618 99.8776 52.0418L114.508 50.4268C114.508 45.3918 111.658 43.3968 106.148 43.3968C100.258 43.3968 96.9326 45.8668 96.7426 50.1418H81.4476C81.7326 37.5068 92.3726 30.9518 105.578 30.9518C118.878 30.9518 130.848 36.9368 130.848 50.8068V65.6268H137.783V79.9718H126.763C122.108 79.9718 119.353 77.3118 119.353 72.6568V72.1818L121.918 66.3868H117.928C116.123 74.1768 111.563 80.9218 98.0726 80.9218C82.8726 80.9218 80.3076 71.8018 80.3076 66.8618ZM96.2676 64.1068C96.2676 67.2418 99.1176 68.0018 102.253 68.0018C108.998 68.0018 114.508 64.3918 114.508 58.5968L102.918 60.3068C98.6426 60.9718 96.2676 61.4468 96.2676 64.1068Z" stroke="black" stroke-width="24" mask="url(#path-1-outside-1_257_1542)"/>
<path d="M195.169 31.9018V79.9718H178.828V46.2468H167.998C167.238 67.6218 163.248 79.9718 142.538 79.9718V65.6268C150.803 65.6268 151.943 58.6918 151.943 31.9018H195.169Z" stroke="black" stroke-width="24" mask="url(#path-1-outside-1_257_1542)"/>
<path d="M202.388 55.7468C202.388 40.2618 213.028 30.9518 227.943 30.9518C244.568 30.9518 254.163 39.9768 254.163 55.0818V59.3568H218.729C219.299 65.3418 222.813 68.6668 228.703 68.6668C233.738 68.6668 237.158 66.6718 238.108 62.9668H254.258C252.928 73.6068 243.523 80.9218 228.703 80.9218C212.458 80.9218 202.388 70.7568 202.388 55.7468ZM218.729 50.9968H238.298C237.823 45.6768 234.119 42.7318 228.419 42.7318C222.814 42.7318 219.108 45.6768 218.729 50.9968Z" stroke="black" stroke-width="24" mask="url(#path-1-outside-1_257_1542)"/>
<path d="M254.509 79.9718L269.044 55.8418L254.509 31.9018H273.034L282.724 49.3818H285.384L295.169 31.9018H313.694L299.254 55.8418L313.694 79.9718H295.169L285.384 62.3968H282.724L273.034 79.9718H254.509Z" stroke="black" stroke-width="24" mask="url(#path-1-outside-1_257_1542)"/>
<path d="M313.809 55.8418C313.809 39.5018 325.019 30.9518 340.314 30.9518C354.089 30.9518 366.059 38.5518 366.629 52.0418H350.289C349.814 48.4318 346.299 45.2968 340.314 45.2968C334.614 45.2968 330.054 48.9068 330.054 55.8418C330.054 62.8718 334.614 66.5768 340.314 66.5768C346.299 66.5768 349.814 63.4418 350.289 59.8318H366.629C366.059 73.3218 354.089 80.9218 340.314 80.9218C325.019 80.9218 313.809 72.2768 313.809 55.8418Z" stroke="black" stroke-width="24" mask="url(#path-1-outside-1_257_1542)"/>
<path d="M373.887 31.9018H390.132V48.1468H394.407L403.622 35.7968C405.997 32.5668 409.892 31.9018 414.167 31.9018H422.907V46.2468H415.212L409.322 53.8468L423.287 79.9718H405.712L396.497 62.4918H390.132V79.9718H373.887V31.9018Z" stroke="black" stroke-width="24" mask="url(#path-1-outside-1_257_1542)"/>
<path d="M427.28 66.8618C427.28 58.5018 432.125 53.5618 446.85 52.0418L461.48 50.4268C461.48 45.3918 458.63 43.3968 453.12 43.3968C447.23 43.3968 443.905 45.8668 443.715 50.1418H428.42C428.705 37.5068 439.345 30.9518 452.55 30.9518C465.85 30.9518 477.82 36.9368 477.82 50.8068V65.6268H484.755V79.9718H473.735C469.08 79.9718 466.325 77.3118 466.325 72.6568V72.1818L468.89 66.3868H464.9C463.095 74.1768 458.535 80.9218 445.045 80.9218C429.845 80.9218 427.28 71.8018 427.28 66.8618ZM443.24 64.1068C443.24 67.2418 446.09 68.0018 449.225 68.0018C455.97 68.0018 461.48 64.3918 461.48 58.5968L449.89 60.3068C445.615 60.9718 443.24 61.4468 443.24 64.1068Z" stroke="black" stroke-width="24" mask="url(#path-1-outside-1_257_1542)"/>
<path d="M536.285 79.9718H519.945V61.2568H515.67L506.075 74.6518C503.225 78.3568 500.47 79.9718 496.005 79.9718H489.165V66.7668H496.195L500.66 60.6868C495.055 59.6418 489.64 56.4118 489.64 47.1968C489.64 35.2268 499.045 31.9018 507.975 31.9018H536.285V79.9718ZM505.885 46.5318C505.885 49.1918 507.405 51.1868 512.25 51.1868H519.945V41.8768H512.25C507.405 41.8768 505.885 43.8718 505.885 46.5318Z" stroke="black" stroke-width="24" mask="url(#path-1-outside-1_257_1542)"/>
<path d="M571.68 79.9718V31.9018H602.84L606.83 75.8868H610.915L614.905 31.9018H646.255V79.9718H630.96V45.0118L634 35.8918H630.01L623.645 79.9718H594.005L587.83 35.8918H583.745L586.88 45.0118V79.9718H571.68Z" stroke="black" stroke-width="24" mask="url(#path-1-outside-1_257_1542)"/>
<path d="M711.825 79.9718H696.53V44.5368L699.665 35.8918H695.58L683.8 79.9718H653.97V31.9018H669.17V66.8618L666.13 75.8868H670.12L681.995 31.9018H711.825V79.9718Z" stroke="black" stroke-width="24" mask="url(#path-1-outside-1_257_1542)"/>
<path d="M719.654 31.9018H735.899V48.7168H757.939V31.9018H774.279V79.9718H757.939V62.9668H735.899V79.9718H719.654V31.9018Z" stroke="black" stroke-width="24" mask="url(#path-1-outside-1_257_1542)"/>
<path d="M839.853 79.9718H824.558V44.5368L827.693 35.8918H823.608L811.828 79.9718H781.998V31.9018H797.198V66.8618L794.158 75.8868H798.148L810.023 31.9018H839.853V79.9718Z" stroke="black" stroke-width="24" mask="url(#path-1-outside-1_257_1542)"/>
<path d="M846.987 66.8618C846.987 58.5018 851.832 53.5618 866.557 52.0418L881.187 50.4268C881.187 45.3918 878.337 43.3968 872.827 43.3968C866.937 43.3968 863.612 45.8668 863.422 50.1418H848.127C848.412 37.5068 859.052 30.9518 872.257 30.9518C885.557 30.9518 897.527 36.9368 897.527 50.8068V65.6268H904.462V79.9718H893.442C888.787 79.9718 886.032 77.3118 886.032 72.6568V72.1818L888.597 66.3868H884.607C882.802 74.1768 878.242 80.9218 864.752 80.9218C849.552 80.9218 846.987 71.8018 846.987 66.8618ZM862.947 64.1068C862.947 67.2418 865.797 68.0018 868.932 68.0018C875.677 68.0018 881.187 64.3918 881.187 58.5968L869.597 60.3068C865.322 60.9718 862.947 61.4468 862.947 64.1068Z" stroke="black" stroke-width="24" mask="url(#path-1-outside-1_257_1542)"/>
<path d="M903.482 31.9018H956.017V46.2468H937.872V79.9718H921.627V46.2468H903.482V31.9018Z" stroke="black" stroke-width="24" mask="url(#path-1-outside-1_257_1542)"/>
<path d="M1009.46 80.9218C995.97 80.9218 988.085 73.8918 985.71 62.9668H978.965V79.9718H962.72V31.9018H978.965V48.7168H985.805C988.085 37.9818 995.97 30.9518 1009.46 30.9518C1025.52 30.9518 1033.78 41.1168 1033.78 55.8418C1033.78 70.6618 1025.52 80.9218 1009.46 80.9218ZM1001.29 55.8418C1001.29 63.4418 1003.76 66.5768 1009.46 66.5768C1014.97 66.5768 1017.44 63.4418 1017.44 55.8418C1017.44 48.4318 1014.97 45.2968 1009.46 45.2968C1003.76 45.2968 1001.29 48.4318 1001.29 55.8418Z" stroke="black" stroke-width="24" mask="url(#path-1-outside-1_257_1542)"/>
<path d="M1040.93 100.017V31.9018H1057.17V34.1818L1054.13 43.2068H1058.12C1060.59 37.0318 1064.87 30.9518 1076.93 30.9518C1090.9 30.9518 1097.55 42.5418 1097.55 55.9368C1097.55 69.4268 1090.9 80.9218 1076.93 80.9218C1064.87 80.9218 1060.59 74.8418 1058.12 68.5718H1054.13L1057.17 77.6918V100.017H1040.93ZM1057.17 55.9368C1057.17 63.5368 1061.16 66.5768 1069.14 66.5768C1077.22 66.5768 1081.3 63.5368 1081.3 55.9368C1081.3 48.4318 1077.22 45.2968 1069.14 45.2968C1061.16 45.2968 1057.17 48.4318 1057.17 55.9368Z" stroke="black" stroke-width="24" mask="url(#path-1-outside-1_257_1542)"/>
<path d="M1102.86 66.8618C1102.86 58.5018 1107.7 53.5618 1122.43 52.0418L1137.06 50.4268C1137.06 45.3918 1134.21 43.3968 1128.7 43.3968C1122.81 43.3968 1119.48 45.8668 1119.29 50.1418H1104C1104.28 37.5068 1114.92 30.9518 1128.13 30.9518C1141.43 30.9518 1153.4 36.9368 1153.4 50.8068V65.6268H1160.33V79.9718H1149.31C1144.66 79.9718 1141.9 77.3118 1141.9 72.6568V72.1818L1144.47 66.3868H1140.48C1138.67 74.1768 1134.11 80.9218 1120.62 80.9218C1105.42 80.9218 1102.86 71.8018 1102.86 66.8618ZM1118.82 64.1068C1118.82 67.2418 1121.67 68.0018 1124.8 68.0018C1131.55 68.0018 1137.06 64.3918 1137.06 58.5968L1125.47 60.3068C1121.19 60.9718 1118.82 61.4468 1118.82 64.1068Z" stroke="black" stroke-width="24" mask="url(#path-1-outside-1_257_1542)"/>
</svg>
