<svg width="472" height="132" viewBox="0 0 472 132" fill="none" xmlns="http://www.w3.org/2000/svg">
<path fill-rule="evenodd" clip-rule="evenodd" d="M55.465 0H0V27.381H13.393V59.595H42.072V57.7194C45.1869 59.3741 48.9092 60.185 53.0546 60.185C57.1431 60.185 60.9247 59.5417 64.2436 58.048C66.4304 59.1799 68.77 59.595 70.8726 59.595H102.714C100.358 59.9377 97.8118 60.8125 95.5722 62.6702C92.6246 65.1151 91.2037 68.4297 90.899 71.741H36.6791V73.3979C33.0568 71.8358 29.036 71.151 24.93 71.151C18.4354 71.151 12.1181 73.2 7.34884 77.6939C2.51114 82.2522 0.059 88.5858 0.059 95.55C0.059 102.277 2.36047 108.641 7.17655 113.319C11.9745 117.979 18.46 120.185 25.402 120.185C29.3701 120.185 33.2099 119.541 36.6791 118.155V119.595H76.1501V127.914H104.239V119.056C106.847 119.814 109.616 120.185 112.462 120.185C118.491 120.185 124.224 118.697 128.811 115.382C131.913 113.14 134.28 110.2 135.743 106.792L136.985 103.095L137.274 99.5947V95.137L136.985 91.034C136.422 87.1261 135.016 83.4382 132.625 80.2859C133.94 78.1172 134.56 75.6325 134.56 73.13C134.56 69.1354 132.967 65.2435 129.612 62.5644C127.393 60.7926 124.888 59.9349 122.552 59.595H136.774V11.741H72.4594V14.7829C67.9524 12.0453 62.7661 11.151 58.1286 11.151C57.2471 11.151 56.3572 11.1859 55.465 11.2585V0ZM140.678 11.741V59.595H167.673C170.117 59.595 172.79 59.4155 175.421 58.8209V59.595H214.8V71.1605C211.221 71.2462 207.534 71.9151 204.129 73.3557V71.741H139.814V119.595H204.129V119.452C206.113 119.942 208.255 120.185 210.522 120.185C214.611 120.185 218.392 119.542 221.711 118.048C223.898 119.18 226.238 119.595 228.34 119.595H262.366V131.985H290.455V120.088C291.213 120.152 291.99 120.185 292.783 120.185C299.103 120.185 304.586 118.076 308.618 114.106C313.318 118.228 319.452 120.185 325.991 120.185C329.959 120.185 333.799 119.541 337.268 118.155V119.595H431.585C433.394 119.99 435.327 120.185 437.361 120.185C439.559 120.185 441.669 119.999 443.665 119.595H443.67L443.67 119.594C445.385 119.247 447.017 118.738 448.55 118.048C450.737 119.18 453.077 119.595 455.179 119.595H471.023V92.686H466.705C466.506 85.7742 463.724 79.9492 458.64 76.0619C453.741 72.317 447.731 71.151 442.435 71.151C439.097 71.151 435.639 71.6512 432.382 72.8067V71.741H417.954C416.027 71.741 414.019 71.9569 412.027 72.5642V71.741H348.024C347.694 68.2458 346.106 64.9317 343.141 62.5644C340.922 60.7926 338.417 59.9349 336.081 59.595H381.404V11.741H327.473V12.8878C324.695 11.7434 321.591 11.151 318.249 11.151C316.309 11.151 314.454 11.3474 312.697 11.741H240.506L238.956 15.2033L237.382 11.741H175.421V12.9128C172.048 11.9283 168.494 11.741 165.49 11.741H140.678ZM253.096 50.6894L259.039 38.65H262.311V59.595H287.832V71.6145C287.63 71.6542 287.429 71.6963 287.23 71.741H242.732C244.906 71.2283 247.141 70.1869 249.063 68.2969C252.149 65.2632 253.096 61.3586 253.096 58.029V50.6894ZM461.08 21.712H386.44V47.323H461.08V21.712Z" fill="#080808"/>
</svg>
