<svg width="48" height="48" viewBox="0 0 48 48" fill="none" xmlns="http://www.w3.org/2000/svg">
<path d="M25.7996 24.25C26.4996 24.25 27.0996 24 27.5996 23.5C28.0996 23 28.3496 22.4 28.3496 21.7C28.3496 21 28.0996 20.4 27.5996 19.9C27.0996 19.4 26.4996 19.15 25.7996 19.15C25.0996 19.15 24.4996 19.4 23.9996 19.9C23.4996 20.4 23.2496 21 23.2496 21.7C23.2496 22.4 23.4996 23 23.9996 23.5C24.4996 24 25.0996 24.25 25.7996 24.25ZM25.7996 44.7C20.8329 40.2334 17.1413 36.0917 14.7246 32.2751C12.3079 28.4584 11.0996 25.0666 11.0996 22.0999C11.0996 17.4999 12.5829 13.8334 15.5496 11.1C18.5163 8.36666 21.9329 7 25.7996 7C29.6663 7 33.0829 8.36666 36.0496 11.1C39.0163 13.8334 40.4996 17.4999 40.4996 22.0999C40.4996 25.0666 39.2913 28.4584 36.8746 32.2751C34.4579 36.0917 30.7663 40.2334 25.7996 44.7Z" fill="white"/>
</svg>
