<svg width="48" height="48" viewBox="0 0 48 48" fill="none" xmlns="http://www.w3.org/2000/svg">
<path d="M24 22.55C24.7 22.55 25.3 22.3 25.8 21.8C26.3 21.3 26.55 20.7 26.55 20C26.55 19.3 26.3 18.7 25.8 18.2C25.3 17.7 24.7 17.45 24 17.45C23.3 17.45 22.7 17.7 22.2 18.2C21.7 18.7 21.45 19.3 21.45 20C21.45 20.7 21.7 21.3 22.2 21.8C22.7 22.3 23.3 22.55 24 22.55ZM24 41.4501C28.3 37.7501 31.6417 33.9667 34.025 30.1C36.4083 26.2334 37.6 23 37.6 20.4C37.6 16.3 36.2917 12.9417 33.675 10.325C31.0583 7.70838 27.8333 6.40005 24 6.40005C20.1667 6.40005 16.9417 7.70838 14.325 10.325C11.7083 12.9417 10.4 16.3 10.4 20.4C10.4 23 11.6 26.2334 14 30.1C16.4 33.9667 19.7333 37.7501 24 41.4501ZM24 43C19.0333 38.5334 15.3417 34.3917 12.925 30.5751C10.5083 26.7584 9.29999 23.3667 9.29999 20.4C9.29999 15.8 10.7833 12.1334 13.75 9.40005C16.7167 6.66671 20.1333 5.30005 24 5.30005C27.8667 5.30005 31.2833 6.66671 34.25 9.40005C37.2167 12.1334 38.7 15.8 38.7 20.4C38.7 23.3667 37.4917 26.7584 35.075 30.5751C32.6583 34.3917 28.9667 38.5334 24 43Z" fill="#080808"/>
</svg>
