<svg width="481" height="152" viewBox="0 0 481 152" fill="none" xmlns="http://www.w3.org/2000/svg">
<path fill-rule="evenodd" clip-rule="evenodd" d="M7 0C3.13401 0 0 3.13401 0 7V131C0 134.866 3.13401 138 7 138H28H39V145C39 148.866 42.134 152 46 152H74C77.866 152 81 148.866 81 145V138H83V145C83 148.866 86.134 152 90 152H116C124.955 152 132.536 146.114 135.084 138L266 138C271.549 138 276.722 136.386 281.073 133.601C285.728 136.394 291.176 138 297 138H303C320.121 138 334 124.121 334 107V105C334 95.0387 329.302 86.1747 322 80.5033V77L412 77C417.756 77 423.107 75.2629 427.556 72.2843C432.323 75.2724 437.96 77 444 77H450C467.121 77 481 63.1208 481 46V44C481 26.8792 467.121 13 450 13H444C437.96 13 432.323 14.7276 427.556 17.7157C423.107 14.7371 417.756 13 412 13L323 13C319.67 13 316.475 13.5814 313.512 14.6483C312.294 13.6199 310.719 13 309 13H260C257.517 13 255.335 14.2933 254.092 16.2432C250.186 14.1727 245.73 13 241 13H196C191.105 13 186.503 14.2561 182.5 16.4635C178.497 14.2561 173.895 13 169 13H99C96.8388 13 94.9064 13.9794 93.6223 15.5186C90.0822 13.9013 86.1464 13 82 13H79C75.3889 13 71.9374 13.6836 68.7679 14.9285C64.0724 6.04989 54.7427 0 44 0H7Z" fill="white"/>
</svg>
