<svg width="545" height="134" viewBox="0 0 545 134" fill="none" xmlns="http://www.w3.org/2000/svg">
<rect width="545" height="134" rx="59" fill="#64C17E"/>
<path d="M110.475 91V23.32H130.155C148.203 23.32 158.379 28.504 158.379 45.688C158.379 62.968 148.203 68.152 130.155 68.152H119.211V91H110.475ZM119.211 60.664H130.443C141.675 60.664 149.739 58.36 149.739 45.688C149.739 33.112 141.675 30.808 130.443 30.808H119.211V60.664ZM167.238 66.52C167.238 51.064 176.454 42.328 190.086 42.328C204.198 42.328 213.414 50.872 213.414 65.656V68.728H175.494C175.782 78.04 180.678 85.144 190.566 85.144C198.726 85.144 203.526 80.92 205.158 74.296H213.606C211.686 83.128 205.35 91.96 190.661 91.96C175.109 91.96 167.238 80.632 167.238 66.52ZM175.59 62.68H205.062C204.486 54.04 198.63 49.048 190.086 49.048C182.214 49.048 176.262 54.04 175.59 62.68ZM232.038 72.376C232.038 81.592 236.454 85.72 246.054 85.72C255.078 85.72 257.958 82.168 257.958 76.696C257.958 71.8 254.982 68.824 248.262 68.824H242.022V62.776H248.262C254.598 62.776 256.902 60.088 256.902 55.672C256.902 52.024 254.502 48.568 245.574 48.568C236.358 48.568 233.094 52.408 233.094 58.168H224.838C224.838 48.184 231.654 42.328 245.382 42.328C258.438 42.328 265.062 47.896 265.062 55.096C265.062 60.952 261.702 64.6 256.422 65.752C261.894 66.808 266.118 70.84 266.118 77.368C266.118 86.2 258.918 91.96 245.766 91.96C232.038 91.96 223.782 86.008 223.782 72.376H232.038ZM297.384 56.632C308.712 56.632 318.12 60.28 318.12 73.816C318.12 87.352 308.712 91 297.384 91H278.376V43.288H286.92V56.632H297.384ZM286.92 83.896H296.424C304.296 83.896 309.576 82.936 309.576 73.816C309.576 64.792 304.296 63.736 296.424 63.736H286.92V83.896ZM328.416 60.376C328.416 41.752 336.768 33.304 353.568 28.12C364.032 24.856 367.008 23.128 367.872 19.48H377.76C376.032 29.176 367.488 31.288 354.72 34.648C342.048 38.104 334.752 45.016 334.752 56.632V57.112C337.536 48.472 345.12 42.328 355.584 42.328C370.656 42.328 379.488 52.504 379.488 66.52C379.488 81.112 371.232 91.96 354.048 91.96C337.536 91.96 328.416 80.92 328.416 60.376ZM336.96 67.48C336.96 76.408 342.912 84.664 354.048 84.664C364.992 84.664 370.944 77.944 370.944 66.616C370.944 56.248 365.088 49.624 354.048 49.624C343.488 49.624 336.96 56.344 336.96 67.48ZM389.05 77.752C389.05 70.168 393.658 64.888 404.986 63.832L423.706 62.008C423.322 53.368 419.482 49.24 410.842 49.24C404.218 49.24 399.322 52.312 398.554 60.28H390.106C391.162 49.432 398.554 42.328 411.034 42.328C424.858 42.328 432.25 50.872 432.25 63.736V83.704H439.258V91H430.522C426.874 91 424.762 88.888 424.762 85.24V79.192C422.554 85.912 416.986 91.96 405.178 91.96C391.162 91.96 389.05 82.744 389.05 77.752ZM397.498 76.696C397.498 82.168 401.05 84.952 406.522 84.952C416.89 84.952 423.706 77.656 423.706 68.056L406.426 69.88C400.57 70.456 397.498 72.088 397.498 76.696Z" fill="white"/>
</svg>
