<svg width="1119" height="112" viewBox="0 0 1119 112" fill="none" xmlns="http://www.w3.org/2000/svg">
<path fill-rule="evenodd" clip-rule="evenodd" d="M92.3494 18.93V0.0249939H19.3294V12.025C19.3294 25.5247 18.3398 36.0838 16.7986 43.7374C16.0288 47.5602 15.1613 50.4558 14.3175 52.5365C14.2907 52.6025 14.2641 52.6674 14.2376 52.7312C11.2986 53.5937 8.41808 55.1266 5.94759 57.617C1.59015 62.0096 0.234375 67.6428 0.234375 72.54V104.49H41.5244V91H61.9844V104.49H103.274V91H123.899C128.956 91 135.52 90.4852 141.729 87.933V91H330.322C333.591 91.6539 336.922 91.95 340.209 91.95C347.899 91.95 355.85 90.2973 362.69 86.21V91H403.665C410.539 91 418.216 90.0854 424.548 86.4078C426.192 85.4528 427.683 84.3469 429.007 83.1039C436.349 89.3288 445.794 91.95 455.321 91.95C462.806 91.95 470.383 90.2371 476.894 86.5156V91H551.391C554.185 91.6321 557.204 91.95 560.423 91.95C567.235 91.95 573.338 90.797 578.534 88.198C581.922 90.2493 585.691 91 589.113 91H612.133V90.9891C616.1 90.8735 619.65 89.8367 622.89 87.9321C623.036 87.8465 623.18 87.7596 623.322 87.6715V91H663.662V18.93H623.352C617.652 18.93 610.352 19.956 604.12 24.1319C601.717 25.7423 599.653 27.7023 597.979 29.9714C596.571 28.2843 594.966 26.7474 593.171 25.3751C585.869 19.792 576.797 17.98 568.593 17.98C562.269 17.98 555.752 19.1464 549.914 21.8592V18.93H529.174C525.2 18.93 521.085 19.5327 517.139 21.3824V18.93H476.894V23.4144C470.383 19.6929 462.806 17.98 455.321 17.98C445.534 17.98 435.81 20.7231 428.372 27.3186C428.071 27.5851 427.776 27.8561 427.487 28.1315C425.425 25.7159 422.956 23.936 420.414 22.6525C414.141 19.4848 406.571 18.93 400.15 18.93H362.69V23.7071C355.855 19.6356 347.906 17.98 340.209 17.98C333.649 17.98 326.924 19.159 320.856 21.9922V18.93H300.116C296.143 18.93 292.027 19.5327 288.081 21.3824V18.93H141.729V31.8156C136.146 29.5042 130.272 28.8409 125.449 28.7322V18.93H92.3494ZM616.488 77.7686L616.49 77.7678ZM123.138 54.3002L122.949 54.3C123.013 54.3 123.076 54.3001 123.138 54.3002ZM339.941 54.1399C340.005 54.0807 340.068 54.0271 340.129 53.9784C340.155 54.0004 340.182 54.0234 340.209 54.0474C340.225 54.0613 340.241 54.0756 340.257 54.0902C340.54 54.3492 340.75 54.6252 340.895 54.87C340.904 54.885 340.912 54.8999 340.921 54.9147C340.766 55.2009 340.531 55.5257 340.209 55.8234L340.193 55.8387C340.184 55.8463 340.176 55.8538 340.168 55.8614C340.154 55.8736 340.14 55.8855 340.127 55.8972C340.095 55.8703 340.063 55.8421 340.03 55.8123C339.705 55.5174 339.47 55.1966 339.315 54.9156C339.323 54.9005 339.332 54.8853 339.342 54.87C339.48 54.6415 339.677 54.3846 339.941 54.1399ZM340.91 56.3762C340.934 56.3836 340.946 56.3863 340.947 56.3858C340.947 56.3856 340.945 56.3848 340.941 56.3836C340.935 56.3819 340.925 56.3794 340.91 56.3762ZM756.913 18.93H675.058V91H780.618V57.275H786.664V110.95H826.909V91.4764C828.894 91.7897 830.974 91.95 833.149 91.95C839.003 91.95 844.332 90.7648 848.958 88.4994V111.235H885.468C890.092 111.235 895.572 109.97 899.889 105.726C904.244 101.445 905.638 95.8831 905.638 90.97V78.5706L908.198 73.3848V91H1057.84C1060.63 91.6321 1063.65 91.95 1066.87 91.95C1073.69 91.95 1079.79 90.797 1084.98 88.198C1088.37 90.2493 1092.14 91 1095.56 91H1118.58V52.655H1111.65V51.45C1111.65 40.4366 1107.43 31.3468 1099.62 25.3751C1092.32 19.792 1083.25 17.98 1075.04 17.98C1068.72 17.98 1062.2 19.1464 1056.36 21.8592V18.93H1035.62C1031.65 18.93 1027.53 19.5328 1023.59 21.3824V18.93H889.472L885.38 28.0706L881.222 18.93H841.823C839.091 18.302 836.192 17.98 833.149 17.98C830.098 17.98 827.206 18.2986 824.489 18.93H760.733C759.504 18.93 758.219 19.0156 756.913 19.2172V18.93ZM826.879 44.325C826.74 44.325 826.601 44.326 826.463 44.3281C826.601 44.326 826.74 44.325 826.879 44.325Z" fill="black"/>
</svg>
