<svg width="1095" height="119" viewBox="0 0 1095 119" fill="none" xmlns="http://www.w3.org/2000/svg">
<path fill-rule="evenodd" clip-rule="evenodd" d="M25.2923 7.125L0 98.1H43.1473L48.5623 77.865H57.3103L62.7253 98.1H106.084L105.697 96.7141C110.401 98.2975 115.505 99.05 120.835 99.05C132.283 99.05 142.247 96.1125 149.668 89.8239C155.053 95.9383 163.166 99.05 173.238 99.05C179.855 99.05 185.812 97.7804 190.838 94.977C194.356 97.2716 198.333 98.1 201.928 98.1H298.33V93.4233C304.553 97.2038 311.951 99.05 319.826 99.05C327.323 99.05 334.413 97.5607 340.476 94.3906V98.1H381.451C388.22 98.1 395.787 97.2798 402.045 93.8719C403.768 92.9336 405.441 91.7716 406.967 90.3508C414.284 96.4701 423.656 99.05 433.107 99.05C440.592 99.05 448.169 97.3371 454.68 93.6156V98.1H528.806C531.6 98.7322 534.619 99.05 537.838 99.05C544.454 99.05 550.412 97.7804 555.438 94.977C558.956 97.2716 562.933 98.1 566.528 98.1H589.548V98.0905C593.072 98.001 596.67 97.2644 600.146 95.385C600.346 95.2767 600.543 95.1661 600.737 95.0532V98.1H641.077V26.03H600.767C595.15 26.03 587.829 27.0195 581.563 31.2252C579.179 32.8252 577.133 34.7672 575.469 37.0121C573.815 35.103 571.913 33.4092 569.806 31.9472C562.52 26.8917 553.552 25.08 545.343 25.08C539.354 25.08 533.234 26.1269 527.7 28.5803V26.03H506.96C504.083 26.03 499.467 26.2229 494.925 28.2411V26.03H454.68V30.5144C448.169 26.7929 440.592 25.08 433.107 25.08C423.32 25.08 413.596 27.8231 406.158 34.4186C405.917 34.6317 405.681 34.8477 405.448 35.0666C403.229 32.4791 400.55 30.67 397.884 29.4203C391.732 26.5372 384.308 26.03 377.936 26.03H340.476V30.2256C334.193 26.6491 326.797 25.08 319.066 25.08C311.648 25.08 304.464 26.8239 298.33 30.5029V26.03H206.975V33.2674C206.403 32.8084 205.813 32.3682 205.207 31.9472C197.921 26.8917 188.953 25.08 180.743 25.08C172.321 25.08 163.637 27.1508 156.692 32.2928C155.041 33.5156 153.53 34.8836 152.179 36.3848C151.566 35.7397 150.929 35.1182 150.268 34.5214C156.376 29.9382 161.243 23.1671 162.473 13.5179L164.197 0H122.688L121.129 6.75873C120.66 6.96183 120.071 7.20207 119.337 7.48273C117.596 8.14745 115.343 8.92371 112.359 9.903C103.674 12.7276 95.0611 17.051 88.7757 24.8725C87.9596 25.888 87.2022 26.9378 86.5019 28.0213L80.6628 7.125H25.2923ZM15.793 86.1L34.413 19.125H34.4113L15.7913 86.1H15.793ZM66.5213 65.865L71.9363 86.1H71.938L66.523 65.865H66.5213ZM55.0263 23.4L62.4363 50.76H62.438L55.028 23.4H55.0263ZM91.9268 48.5152C91.9561 48.2643 91.9871 48.0155 92.02 47.7688C92.0413 47.6091 92.0633 47.4504 92.0861 47.2925C92.1902 46.571 92.3099 45.8683 92.4449 45.1838C94.763 33.4343 101.605 27.0436 111.689 22.9122C113.092 22.3372 114.559 21.8059 116.085 21.31C128.245 17.32 131.38 15.705 132.235 12H132.236C131.381 15.705 128.246 17.32 116.086 21.31C100.886 26.25 91.5763 34.705 91.5763 54.94C91.5763 75.27 101.931 87.05 120.836 87.05C120.836 87.05 120.835 87.05 120.835 87.05C112.638 87.05 106.049 84.8356 101.214 80.6701C98.1233 78.0076 95.7496 74.548 94.1311 70.36C92.6145 66.4359 91.7609 61.8722 91.6018 56.7256C91.5902 56.35 91.5823 55.9713 91.5781 55.5896C91.5758 55.374 91.5746 55.1575 91.5746 54.94C91.5746 52.6518 91.6936 50.5141 91.9268 48.5152ZM124.885 37.0801C124.865 37.08 124.845 37.08 124.825 37.08C124.491 37.08 124.161 37.0851 123.834 37.0954C123.725 37.0988 123.617 37.1028 123.509 37.1073L123.502 37.1076C119.134 37.2921 115.363 38.4004 112.229 40.3673C108.794 42.5237 106.125 45.712 104.276 49.8465C104.206 50.0039 104.137 50.1626 104.069 50.3226C103.948 50.6063 103.831 50.8942 103.718 51.1864C103.261 52.3684 102.866 53.6202 102.533 54.94C102.257 56.0336 102.024 57.174 101.835 58.36H97.8463L101.836 49.335C103.926 39.36 109.626 35.085 122.546 32.425C135.086 29.86 148.766 26.155 150.571 12H150.57M120.265 51.425C120.298 51.425 120.331 51.4251 120.363 51.4252C120.331 51.4251 120.299 51.425 120.266 51.425C120.266 51.425 120.265 51.425 120.265 51.425ZM120.836 72.705C120.836 72.705 120.836 72.705 120.836 72.705ZM133.66 62.065C133.66 68.8753 129.202 72.476 121.582 72.6944C129.203 72.4765 133.661 68.8758 133.661 62.065C133.661 55.0491 129.117 51.7037 121.286 51.4418C129.116 51.7041 133.66 55.0496 133.66 62.065ZM156.613 67.0074C157.61 64.8081 159.309 62.997 161.905 61.5741C162.036 61.502 162.17 61.4308 162.306 61.3606C164.726 60.1148 167.88 59.1838 171.908 58.5676C172.9 58.416 173.944 58.2835 175.043 58.17H175.045C160.32 59.69 155.475 64.63 155.475 72.99C155.475 77.6619 157.769 86.0726 170.875 86.9717C163.435 86.4617 159.478 83.5309 157.448 80.2373C155.902 77.7289 155.473 75.01 155.473 72.99C155.473 71.2723 155.678 69.699 156.131 68.27C156.268 67.8358 156.429 67.415 156.613 67.0074ZM189.673 56.555H189.675C189.675 51.9536 187.295 49.8913 182.679 49.5702C185.727 49.7825 187.8 50.7544 188.856 52.7157C189.092 53.1535 189.277 53.6407 189.411 54.1798C189.585 54.8817 189.673 55.6716 189.673 56.555ZM194.518 78.31L197.083 72.515L197.085 72.515L194.52 78.31V78.785C194.52 83.1693 196.964 85.784 201.137 86.0733C201.074 86.0689 201.011 86.064 200.948 86.0585C200.76 86.0421 200.575 86.0208 200.394 85.9948C198.969 85.7898 197.773 85.2878 196.84 84.515C196.563 84.2854 196.309 84.0318 196.079 83.755C195.294 82.81 194.79 81.594 194.602 80.1342C194.546 79.7053 194.518 79.2553 194.518 78.785V78.31ZM179.247 37.1085C166.744 37.5885 156.889 44.1166 156.615 56.27H156.613C156.662 54.092 157.019 52.0947 157.644 50.2804C158.034 49.146 158.53 48.0832 159.12 47.0926C159.726 46.0754 160.432 45.1343 161.227 44.27C165.333 39.8098 171.823 37.3931 179.247 37.1085ZM189.673 64.7253L189.675 64.725C189.675 70.221 184.719 73.7515 178.454 74.1013C178.658 74.0898 178.862 74.075 179.064 74.0567C179.111 74.0525 179.159 74.048 179.206 74.0434L179.266 74.0374C180.545 73.9071 181.761 73.6412 182.88 73.2507C183.192 73.1419 183.496 73.0235 183.792 72.8956C184.913 72.411 185.917 71.791 186.764 71.0485C187.521 70.3852 188.153 69.6241 188.632 68.7744L188.651 68.7407C189.308 67.5631 189.673 66.2165 189.673 64.7253ZM177.42 74.13C177.42 74.13 177.42 74.13 177.42 74.13ZM218.976 86.1H218.975V38.03H218.976V86.1ZM270.086 38.03H270.085V71.755H270.086V38.03ZM244.531 38.03H244.53V71.755H244.531V38.03ZM314.974 86.7278C307.724 85.7309 302.027 82.4646 298.33 77.539C295.207 73.3787 293.511 68.0349 293.511 61.875C293.511 55.5997 295.259 50.3384 298.33 46.3C301.929 41.5677 307.345 38.5144 313.898 37.4759C314.105 37.4431 314.313 37.4124 314.522 37.3836C302.037 39.1014 293.513 48.0147 293.513 61.875C293.513 75.3274 301.601 84.8884 314.974 86.7278ZM329.233 69.095H329.231L329.223 69.125C328.412 72.239 325.848 74.1385 322.044 74.6528C325.861 74.1372 328.43 72.2273 329.233 69.095ZM319.826 74.795C319.827 74.795 319.827 74.795 319.828 74.795C320.141 74.795 320.448 74.7872 320.749 74.7718M319.541 48.86C319.629 48.86 319.717 48.8607 319.804 48.8621C319.718 48.8607 319.631 48.86 319.543 48.86C319.542 48.86 319.542 48.86 319.541 48.86ZM329.418 57.095L329.421 57.125H329.423C329.003 52.422 326.059 49.5753 321.444 48.9782C322.131 49.0672 322.781 49.206 323.391 49.3934C325.68 50.0965 327.408 51.4833 328.426 53.485C328.956 54.5254 329.293 55.732 329.418 57.095ZM352.477 86.1H352.476V38.03H352.477V86.1ZM381.451 86.1H381.452ZM381.451 55.546C381.091 55.6872 380.669 55.7885 380.183 55.8579C382.269 55.5604 383.162 54.6768 383.162 52.565C383.162 50.5146 382.191 49.4965 379.909 49.1703C381.014 49.3284 381.811 49.6488 382.34 50.1701C382.903 50.7252 383.161 51.5079 383.161 52.565C383.161 53.8497 382.83 54.68 382.102 55.2002C381.912 55.3356 381.695 55.45 381.451 55.546ZM377.936 49.05C377.976 49.05 378.016 49.0501 378.056 49.0503C378.017 49.0501 377.977 49.05 377.937 49.05H377.936ZM385.717 73.9101C385.151 74.4724 384.32 74.8145 383.187 74.9734C385.639 74.63 386.677 73.4292 386.677 70.995C386.677 68.6746 385.67 67.6139 383.296 67.2997C383.452 67.3205 383.603 67.3445 383.748 67.3719C385.797 67.7597 386.676 68.8282 386.676 70.995C386.676 72.3037 386.376 73.2559 385.717 73.9101ZM406.602 61.97C406.602 60.3454 406.713 58.7977 406.927 57.3278C407.37 54.2997 408.252 51.6016 409.515 49.24C409.795 48.7157 410.094 48.208 410.411 47.717C414.376 41.573 421.164 38.0371 429.462 37.2491C416.065 38.522 406.604 46.9588 406.604 61.97C406.604 76.4864 415.349 84.9257 427.93 86.6982C422.003 85.8634 416.927 83.549 413.215 79.8165C411.48 78.0708 410.042 76.0148 408.956 73.655C407.463 70.4117 406.633 66.5943 406.603 62.2193C406.602 62.1364 406.602 62.0533 406.602 61.97ZM443.084 58.17C442.659 54.9431 439.805 52.096 434.93 51.5279C437.44 51.8207 439.415 52.7179 440.797 53.96C442.099 55.1297 442.876 56.6052 443.082 58.17H443.084ZM433.733 72.6933C434.219 72.6751 434.687 72.6356 435.137 72.5764C439.886 71.953 442.665 69.141 443.084 65.96H459.422C459.36 67.4344 459.161 68.8385 458.839 70.17C458.122 73.1348 456.791 75.7397 454.986 77.96C454.948 78.0066 454.91 78.0531 454.872 78.0993C454.808 78.1759 454.744 78.2519 454.68 78.3275C450.447 83.2887 443.789 86.246 436.342 86.9078C435.279 87.0022 434.2 87.0499 433.109 87.05M381.451 67.195C381.506 67.195 381.561 67.1952 381.616 67.1956C381.562 67.1952 381.507 67.195 381.452 67.195H381.451ZM466.682 86.1H466.68V38.03H466.682V86.1ZM489.29 68.62L498.505 86.1H498.507L489.292 68.62L489.29 68.62ZM503.7 38.201C500.749 38.5542 498.168 39.5409 496.415 41.925L487.2 54.275H487.202L496.417 41.925C498.169 39.5413 500.75 38.5544 503.7 38.201ZM520.073 72.99C520.073 71.5488 520.217 70.2092 520.531 68.9712C520.591 68.7338 520.657 68.5 520.73 68.27C520.868 67.8358 521.028 67.415 521.213 67.0075C521.643 66.0575 522.205 65.1801 522.913 64.375C523.928 63.2215 525.243 62.2167 526.906 61.3606C527.162 61.2286 527.427 61.1002 527.7 60.9752C528.852 60.4481 530.153 59.984 531.617 59.5827C523.096 61.9191 520.074 66.3885 520.074 72.99C520.074 76.9163 521.695 83.4835 529.991 86.0133C529.848 85.9697 529.708 85.925 529.569 85.8792C526.87 84.9873 524.908 83.6565 523.494 82.1368C520.754 79.1912 520.073 75.5356 520.073 72.99ZM536.508 58.5676C537.5 58.4159 538.544 58.2835 539.644 58.17H539.643C538.543 58.2835 537.499 58.416 536.508 58.5676ZM554.273 56.555H554.274C554.274 52.8218 552.708 50.7602 549.651 49.9435C551.428 50.4186 552.701 51.3148 553.456 52.7157C553.692 53.1536 553.877 53.6408 554.011 54.18C554.185 54.8819 554.273 55.6716 554.273 56.555ZM559.118 78.31L561.683 72.515L561.685 72.515L559.12 78.31V78.785C559.12 82.3969 560.778 84.8082 563.696 85.7073C562.829 85.4404 562.074 85.0403 561.44 84.515C561.163 84.2854 560.909 84.0318 560.679 83.755C559.894 82.81 559.39 81.594 559.201 80.1342C559.146 79.7053 559.118 79.2553 559.118 78.785V78.31ZM564.994 85.9948C565.175 86.0208 565.36 86.0421 565.548 86.0585C565.36 86.0421 565.175 86.0209 564.994 85.9948ZM537.852 37.8494C528.326 39.9187 521.443 46.1407 521.214 56.27H521.213C521.244 54.9 521.396 53.6014 521.661 52.375C521.817 51.6517 522.012 50.9535 522.243 50.2804C523.035 47.9812 524.257 45.9761 525.827 44.27C526.405 43.6418 527.031 43.0541 527.7 42.5072C530.448 40.2605 533.925 38.7022 537.852 37.8494ZM554.273 64.725H554.274C554.274 69.266 550.891 72.4649 546.181 73.6369C546.627 73.5261 547.06 73.3972 547.479 73.2507C547.791 73.1419 548.095 73.0235 548.391 72.8955C549.513 72.411 550.517 71.791 551.364 71.0485C552.121 70.3852 552.753 69.6241 553.232 68.7744L553.251 68.7407C553.908 67.5631 554.273 66.2164 554.273 64.725ZM543.865 74.0374L543.805 74.0434C543.758 74.048 543.711 74.0525 543.663 74.0567C543.731 74.0507 543.798 74.0442 543.865 74.0374ZM581.957 72.895H581.959V86.1H581.957V72.895ZM612.737 67.385V86.1H612.739V67.385H612.737ZM594.366 38.6839C587.85 40.135 582.432 44.24 582.432 53.325L582.432 53.3841C582.435 54.3161 582.493 55.1867 582.601 55.9997C582.789 57.4199 583.131 58.6647 583.597 59.755C583.616 59.7985 583.634 59.8418 583.653 59.8848C583.809 60.2378 583.978 60.5742 584.159 60.895C585.344 62.9946 587.048 64.4208 588.987 65.3818C589.172 65.4734 589.359 65.5608 589.548 65.6441C590.256 65.9567 590.991 66.2123 591.739 66.4205C586.794 65.0443 582.434 61.5941 582.434 53.325C582.434 44.2407 587.851 40.1353 594.366 38.6839ZM593.452 66.815L588.987 72.895H588.989L593.454 66.815C593.453 66.8149 593.453 66.8151 593.452 66.815ZM612.737 57.315H612.739V48.005H612.737V57.315ZM652.473 26.03V98.1H758.033V64.375H764.079V118.145H804.324V98.3372C806.765 98.8141 809.354 99.05 812.084 99.05C817.167 99.05 821.802 98.0112 825.88 96.1064V118.335H862.39C867.014 118.335 872.494 117.07 876.811 112.826C881.167 108.545 882.56 102.983 882.56 98.07V85.6705L884.963 80.802V98.1H1034.24C1037.03 98.7322 1040.05 99.05 1043.27 99.05C1049.88 99.05 1055.84 97.7804 1060.87 94.977C1064.39 97.2716 1068.36 98.1 1071.96 98.1H1094.98V59.755H1088.04V56.935C1088.04 45.9785 1083.05 37.3687 1075.24 31.9472C1067.95 26.8917 1058.98 25.08 1050.77 25.08C1044.78 25.08 1038.66 26.1269 1033.13 28.5803V26.03H1012.39C1009.51 26.03 1004.9 26.2229 1000.35 28.2412V26.03H866.005L862.302 35.4134L858.527 26.03H820.178C817.635 25.4074 814.931 25.08 812.084 25.08C808.931 25.08 805.968 25.3947 803.205 26.03H738.148C736.918 26.03 735.633 26.1156 734.328 26.3172V26.03H652.473ZM735.183 38.3712C731.637 39.2759 729.694 41.966 729.694 46.295V86.1H729.693V46.295C729.693 42.3271 731.325 39.7364 734.328 38.6352C734.602 38.5348 734.887 38.4467 735.183 38.3712ZM776.081 106.145H776.079V38.03H776.081V106.145ZM797.738 82.0155C795.647 79.8945 794.304 77.3138 793.274 74.7L793.276 74.7C795.184 79.5443 798.17 84.2755 804.993 86.1766C804.766 86.1133 804.543 86.0468 804.324 85.9773C803.123 85.596 802.047 85.1231 801.079 84.5753C800.659 84.3372 800.259 84.085 799.878 83.82C799.086 83.2696 798.377 82.664 797.738 82.0155ZM805.15 37.9094C798.216 39.7775 795.199 44.5277 793.276 49.335H793.274C794.299 46.7724 795.635 44.2262 797.71 42.124C798.353 41.4724 799.067 40.8635 799.865 40.31C800.244 40.0466 800.643 39.7958 801.061 39.5589C802.034 39.0089 803.116 38.5339 804.324 38.1511C804.593 38.0659 804.869 37.9853 805.15 37.9094ZM816.454 62.065C816.454 68.3511 813.66 71.5176 808.124 72.4246C813.661 71.518 816.456 68.3517 816.456 62.065C816.456 56.526 814.231 53.3678 809.819 52.093C814.23 53.3681 816.454 56.5267 816.454 62.065ZM804.294 51.425C804.321 51.425 804.348 51.425 804.375 51.4251C804.349 51.425 804.322 51.425 804.296 51.425C804.295 51.425 804.295 51.425 804.294 51.425ZM837.88 91.515H837.881V106.335H837.88V91.515ZM854.22 91.515H854.221V82.87L832.086 38.03H832.085L854.22 82.87V91.515ZM874.171 38.03L864.386 62.825V71.09L864.385 71.09V62.825L874.17 38.03H874.171ZM896.965 86.1H896.963V38.03H896.965V86.1ZM948.075 38.03H948.073V71.755H948.075V38.03ZM922.518 38.03H922.52V71.755H922.518V38.03ZM994.72 68.62L994.721 68.62L1003.94 86.1H1003.93L994.72 68.62ZM1006.99 38.5966C1004.94 39.135 1003.16 40.1374 1001.85 41.925L992.631 54.275H992.63L1001.84 41.925C1003.16 40.1369 1004.94 39.1349 1006.99 38.5966ZM972.111 38.03V86.1H972.11V38.03H972.111ZM1025.5 72.99C1025.5 71.5488 1025.65 70.2092 1025.96 68.9712C1026.02 68.7337 1026.09 68.5 1026.16 68.27C1026.3 67.8358 1026.46 67.4149 1026.64 67.0074C1027.07 66.0575 1027.63 65.18 1028.34 64.375C1029.1 63.5099 1030.03 62.7284 1031.15 62.0306C1027.08 64.5733 1025.5 68.227 1025.5 72.99C1025.5 76.1901 1026.58 81.145 1031.47 84.2379C1030.47 83.6051 1029.63 82.8944 1028.92 82.1368C1026.18 79.1912 1025.5 75.5356 1025.5 72.99ZM1032.34 61.3606C1032.59 61.2286 1032.86 61.1002 1033.13 60.9752C1032.86 61.1002 1032.59 61.2286 1032.34 61.3606ZM1041.94 58.5676C1042.93 58.4159 1043.97 58.2836 1045.07 58.17H1045.07C1043.97 58.2835 1042.93 58.416 1041.94 58.5676ZM1059.7 56.555H1059.7C1059.7 53.69 1058.78 51.8101 1056.97 50.7211C1057.79 51.2163 1058.43 51.8751 1058.89 52.7156C1059.12 53.1534 1059.31 53.6405 1059.44 54.1794C1059.61 54.8814 1059.7 55.6714 1059.7 56.555ZM1026.64 56.27C1026.82 48.6459 1030.76 43.2349 1036.76 40.1427C1035.44 40.82 1034.23 41.6085 1033.13 42.5072C1032.46 43.0541 1031.84 43.6418 1031.26 44.27C1029.69 45.9761 1028.46 47.9812 1027.67 50.2804C1027.44 50.9535 1027.25 51.6517 1027.09 52.375C1026.83 53.6014 1026.67 54.9 1026.64 56.27H1026.64ZM1070.98 86.0585C1070.79 86.0421 1070.6 86.0209 1070.42 85.9948C1070.6 86.0208 1070.79 86.0421 1070.98 86.0585ZM1067.39 84.9023C1065.56 83.6945 1064.55 81.6056 1064.55 78.785L1064.55 78.31V78.785C1064.55 79.2553 1064.58 79.7053 1064.63 80.1342C1064.82 81.594 1065.32 82.81 1066.11 83.755C1066.34 84.0318 1066.59 84.2854 1066.87 84.515C1067.04 84.6527 1067.21 84.7819 1067.39 84.9023ZM1059.7 64.725H1059.7C1059.7 68.0651 1057.87 70.6785 1055.03 72.294C1055.67 71.9288 1056.26 71.5126 1056.79 71.0485C1057.55 70.3852 1058.18 69.6241 1058.66 68.7745L1058.68 68.7407C1059.34 67.563 1059.7 66.2164 1059.7 64.725ZM680.623 82.015L692.498 38.03H692.5L680.625 82.015H680.623ZM707.034 86.1V50.665L710.169 42.02H710.168L707.033 50.665V86.1H707.034ZM664.474 86.1V38.03H664.473V86.1H664.474ZM1049.23 74.0434C1049.19 74.048 1049.14 74.0525 1049.09 74.0568C1049.16 74.0507 1049.23 74.0442 1049.3 74.0374L1049.23 74.0434ZM1052.91 73.2507C1053.22 73.142 1053.53 73.0234 1053.82 72.8956C1053.53 73.0235 1053.22 73.1419 1052.91 73.2507Z" fill="black"/>
</svg>
