<svg width="1133" height="105" viewBox="0 0 1133 105" fill="none" xmlns="http://www.w3.org/2000/svg">
<mask id="path-1-outside-1_253_1539" maskUnits="userSpaceOnUse" x="0.415039" y="0.0250244" width="1132" height="105" fill="black">
<rect fill="white" x="0.415039" y="0.0250244" width="1132" height="105"/>
<path d="M12.415 79V12.025H41.39C60.105 12.025 69.32 15.255 69.32 28.175C69.32 40.715 60.01 41.095 52.885 41.76V45.75C63.05 46.13 74.26 46.795 74.26 60.855C74.26 76.625 60.105 79 42.055 79H12.415ZM29.8 64.275H43.005C51.84 64.275 56.78 64.56 56.78 57.53C56.78 50.5 51.555 50.88 43.005 50.88H29.8V64.275ZM29.8 37.39H43.1C48.42 37.39 52.6 37.77 52.6 31.69C52.6 25.8 48.8 25.895 43.1 25.895H29.8V37.39Z"/>
<path d="M78.8646 54.87C78.8646 37.865 91.1196 29.98 106.225 29.98C121.14 29.98 133.49 37.865 133.49 54.87C133.49 72.065 121.14 79.95 106.225 79.95C91.1196 79.95 78.8646 72.065 78.8646 54.87ZM95.1096 54.87C95.1096 62.09 99.5746 65.605 106.225 65.605C112.685 65.605 117.15 62.09 117.15 54.87C117.15 47.745 112.685 44.325 106.225 44.325C99.5746 44.325 95.1096 47.745 95.1096 54.87Z"/>
<path d="M189.838 30.93V79H173.498V45.275H162.668C161.908 66.65 157.918 79 137.208 79V64.655C145.473 64.655 146.613 57.72 146.613 30.93H189.838Z"/>
<path d="M197.058 54.87C197.058 37.865 209.313 29.98 224.418 29.98C239.333 29.98 251.683 37.865 251.683 54.87C251.683 72.065 239.333 79.95 224.418 79.95C209.313 79.95 197.058 72.065 197.058 54.87ZM213.303 54.87C213.303 62.09 217.768 65.605 224.418 65.605C230.878 65.605 235.343 62.09 235.343 54.87C235.343 47.745 230.878 44.325 224.418 44.325C217.768 44.325 213.303 47.745 213.303 54.87Z"/>
<path d="M258.156 39.195C258.156 33.78 261.196 30.93 266.611 30.93H298.816V45.275H274.496V79H258.156V39.195Z"/>
<path d="M300.315 54.87C300.315 37.865 312.57 29.98 327.675 29.98C342.59 29.98 354.94 37.865 354.94 54.87C354.94 72.065 342.59 79.95 327.675 79.95C312.57 79.95 300.315 72.065 300.315 54.87ZM316.56 54.87C316.56 62.09 321.025 65.605 327.675 65.605C334.135 65.605 338.6 62.09 338.6 54.87C338.6 47.745 334.135 44.325 327.675 44.325C321.025 44.325 316.56 47.745 316.56 54.87Z"/>
<path d="M414.649 30.93V64.75H417.784C423.294 64.75 426.239 67.695 426.239 73.11V92.395H409.994V79H372.754V92.395H356.509V73.11C356.509 67.695 359.454 64.75 364.964 64.75H366.199C371.139 58.48 373.039 49.55 373.039 30.93H414.649ZM381.874 64.655H398.689V44.42H388.429C387.574 54.3 385.579 60.095 381.874 64.655Z"/>
<path d="M427.229 54.87C427.229 38.53 438.439 29.98 453.734 29.98C467.509 29.98 479.479 37.58 480.049 51.07H463.709C463.234 47.46 459.719 44.325 453.734 44.325C448.034 44.325 443.474 47.935 443.474 54.87C443.474 61.9 448.034 65.605 453.734 65.605C459.719 65.605 463.234 62.47 463.709 58.86H480.049C479.479 72.35 467.509 79.95 453.734 79.95C438.439 79.95 427.229 71.305 427.229 54.87Z"/>
<path d="M487.307 30.93H503.552V47.175H507.827L517.042 34.825C519.417 31.595 523.312 30.93 527.587 30.93H536.327V45.275H528.632L522.742 52.875L536.707 79H519.132L509.917 61.52H503.552V79H487.307V30.93Z"/>
<path d="M540.7 65.89C540.7 57.53 545.545 52.59 560.27 51.07L574.9 49.455C574.9 44.42 572.05 42.425 566.54 42.425C560.65 42.425 557.325 44.895 557.135 49.17H541.84C542.125 36.535 552.765 29.98 565.97 29.98C579.27 29.98 591.24 35.965 591.24 49.835V64.655H598.175V79H587.155C582.5 79 579.745 76.34 579.745 71.685V71.21L582.31 65.415H578.32C576.515 73.205 571.955 79.95 558.465 79.95C543.265 79.95 540.7 70.83 540.7 65.89ZM556.66 63.135C556.66 66.27 559.51 67.03 562.645 67.03C569.39 67.03 574.9 63.42 574.9 57.625L563.31 59.335C559.035 60 556.66 60.475 556.66 63.135Z"/>
<path d="M649.704 79H633.364V60.285H629.089L619.494 73.68C616.644 77.385 613.889 79 609.424 79H602.584V65.795H609.614L614.079 59.715C608.474 58.67 603.059 55.44 603.059 46.225C603.059 34.255 612.464 30.93 621.394 30.93H649.704V79ZM619.304 45.56C619.304 48.22 620.824 50.215 625.669 50.215H633.364V40.905H625.669C620.824 40.905 619.304 42.9 619.304 45.56Z"/>
<path d="M682.06 79L696.595 54.87L682.06 30.93H700.585L710.275 48.41H712.935L722.72 30.93H741.245L726.805 54.87L741.245 79H722.72L712.935 61.425H710.275L700.585 79H682.06Z"/>
<path d="M741.267 54.87C741.267 37.865 753.522 29.98 768.627 29.98C783.542 29.98 795.892 37.865 795.892 54.87C795.892 72.065 783.542 79.95 768.627 79.95C753.522 79.95 741.267 72.065 741.267 54.87ZM757.512 54.87C757.512 62.09 761.977 65.605 768.627 65.605C775.087 65.605 779.552 62.09 779.552 54.87C779.552 47.745 775.087 44.325 768.627 44.325C761.977 44.325 757.512 47.745 757.512 54.87Z"/>
<path d="M796.078 79L810.613 54.87L796.078 30.93H814.603L824.293 48.41H826.953L836.738 30.93H855.263L840.823 54.87L855.263 79H836.738L826.953 61.425H824.293L814.603 79H796.078Z"/>
<path d="M912.079 30.93V79H895.739V45.275H884.909C884.149 66.65 880.159 79 859.449 79V64.655C867.714 64.655 868.854 57.72 868.854 30.93H912.079Z"/>
<path d="M919.299 54.87C919.299 37.865 931.554 29.98 946.659 29.98C961.574 29.98 973.924 37.865 973.924 54.87C973.924 72.065 961.574 79.95 946.659 79.95C931.554 79.95 919.299 72.065 919.299 54.87ZM935.544 54.87C935.544 62.09 940.009 65.605 946.659 65.605C953.119 65.605 957.584 62.09 957.584 54.87C957.584 47.745 953.119 44.325 946.659 44.325C940.009 44.325 935.544 47.745 935.544 54.87Z"/>
<path d="M981.14 79V30.93H1012.3L1016.29 74.915H1020.37L1024.36 30.93H1055.71V79H1040.42V44.04L1043.46 34.92H1039.47L1033.1 79H1003.46L997.29 34.92H993.205L996.34 44.04V79H981.14Z"/>
<path d="M1062.74 65.89C1062.74 57.53 1067.58 52.59 1082.31 51.07L1096.94 49.455C1096.94 44.42 1094.09 42.425 1088.58 42.425C1082.69 42.425 1079.36 44.895 1079.17 49.17H1063.88C1064.16 36.535 1074.8 29.98 1088.01 29.98C1101.31 29.98 1113.28 35.965 1113.28 49.835V64.655H1120.21V79H1109.19C1104.54 79 1101.78 76.34 1101.78 71.685V71.21L1104.35 65.415H1100.36C1098.55 73.205 1093.99 79.95 1080.5 79.95C1065.3 79.95 1062.74 70.83 1062.74 65.89ZM1078.7 63.135C1078.7 66.27 1081.55 67.03 1084.68 67.03C1091.43 67.03 1096.94 63.42 1096.94 57.625L1085.35 59.335C1081.07 60 1078.7 60.475 1078.7 63.135Z"/>
</mask>
<path d="M12.415 79V12.025H41.39C60.105 12.025 69.32 15.255 69.32 28.175C69.32 40.715 60.01 41.095 52.885 41.76V45.75C63.05 46.13 74.26 46.795 74.26 60.855C74.26 76.625 60.105 79 42.055 79H12.415ZM29.8 64.275H43.005C51.84 64.275 56.78 64.56 56.78 57.53C56.78 50.5 51.555 50.88 43.005 50.88H29.8V64.275ZM29.8 37.39H43.1C48.42 37.39 52.6 37.77 52.6 31.69C52.6 25.8 48.8 25.895 43.1 25.895H29.8V37.39Z" fill="black"/>
<path d="M78.8646 54.87C78.8646 37.865 91.1196 29.98 106.225 29.98C121.14 29.98 133.49 37.865 133.49 54.87C133.49 72.065 121.14 79.95 106.225 79.95C91.1196 79.95 78.8646 72.065 78.8646 54.87ZM95.1096 54.87C95.1096 62.09 99.5746 65.605 106.225 65.605C112.685 65.605 117.15 62.09 117.15 54.87C117.15 47.745 112.685 44.325 106.225 44.325C99.5746 44.325 95.1096 47.745 95.1096 54.87Z" fill="black"/>
<path d="M189.838 30.93V79H173.498V45.275H162.668C161.908 66.65 157.918 79 137.208 79V64.655C145.473 64.655 146.613 57.72 146.613 30.93H189.838Z" fill="black"/>
<path d="M197.058 54.87C197.058 37.865 209.313 29.98 224.418 29.98C239.333 29.98 251.683 37.865 251.683 54.87C251.683 72.065 239.333 79.95 224.418 79.95C209.313 79.95 197.058 72.065 197.058 54.87ZM213.303 54.87C213.303 62.09 217.768 65.605 224.418 65.605C230.878 65.605 235.343 62.09 235.343 54.87C235.343 47.745 230.878 44.325 224.418 44.325C217.768 44.325 213.303 47.745 213.303 54.87Z" fill="black"/>
<path d="M258.156 39.195C258.156 33.78 261.196 30.93 266.611 30.93H298.816V45.275H274.496V79H258.156V39.195Z" fill="black"/>
<path d="M300.315 54.87C300.315 37.865 312.57 29.98 327.675 29.98C342.59 29.98 354.94 37.865 354.94 54.87C354.94 72.065 342.59 79.95 327.675 79.95C312.57 79.95 300.315 72.065 300.315 54.87ZM316.56 54.87C316.56 62.09 321.025 65.605 327.675 65.605C334.135 65.605 338.6 62.09 338.6 54.87C338.6 47.745 334.135 44.325 327.675 44.325C321.025 44.325 316.56 47.745 316.56 54.87Z" fill="black"/>
<path d="M414.649 30.93V64.75H417.784C423.294 64.75 426.239 67.695 426.239 73.11V92.395H409.994V79H372.754V92.395H356.509V73.11C356.509 67.695 359.454 64.75 364.964 64.75H366.199C371.139 58.48 373.039 49.55 373.039 30.93H414.649ZM381.874 64.655H398.689V44.42H388.429C387.574 54.3 385.579 60.095 381.874 64.655Z" fill="black"/>
<path d="M427.229 54.87C427.229 38.53 438.439 29.98 453.734 29.98C467.509 29.98 479.479 37.58 480.049 51.07H463.709C463.234 47.46 459.719 44.325 453.734 44.325C448.034 44.325 443.474 47.935 443.474 54.87C443.474 61.9 448.034 65.605 453.734 65.605C459.719 65.605 463.234 62.47 463.709 58.86H480.049C479.479 72.35 467.509 79.95 453.734 79.95C438.439 79.95 427.229 71.305 427.229 54.87Z" fill="black"/>
<path d="M487.307 30.93H503.552V47.175H507.827L517.042 34.825C519.417 31.595 523.312 30.93 527.587 30.93H536.327V45.275H528.632L522.742 52.875L536.707 79H519.132L509.917 61.52H503.552V79H487.307V30.93Z" fill="black"/>
<path d="M540.7 65.89C540.7 57.53 545.545 52.59 560.27 51.07L574.9 49.455C574.9 44.42 572.05 42.425 566.54 42.425C560.65 42.425 557.325 44.895 557.135 49.17H541.84C542.125 36.535 552.765 29.98 565.97 29.98C579.27 29.98 591.24 35.965 591.24 49.835V64.655H598.175V79H587.155C582.5 79 579.745 76.34 579.745 71.685V71.21L582.31 65.415H578.32C576.515 73.205 571.955 79.95 558.465 79.95C543.265 79.95 540.7 70.83 540.7 65.89ZM556.66 63.135C556.66 66.27 559.51 67.03 562.645 67.03C569.39 67.03 574.9 63.42 574.9 57.625L563.31 59.335C559.035 60 556.66 60.475 556.66 63.135Z" fill="black"/>
<path d="M649.704 79H633.364V60.285H629.089L619.494 73.68C616.644 77.385 613.889 79 609.424 79H602.584V65.795H609.614L614.079 59.715C608.474 58.67 603.059 55.44 603.059 46.225C603.059 34.255 612.464 30.93 621.394 30.93H649.704V79ZM619.304 45.56C619.304 48.22 620.824 50.215 625.669 50.215H633.364V40.905H625.669C620.824 40.905 619.304 42.9 619.304 45.56Z" fill="black"/>
<path d="M682.06 79L696.595 54.87L682.06 30.93H700.585L710.275 48.41H712.935L722.72 30.93H741.245L726.805 54.87L741.245 79H722.72L712.935 61.425H710.275L700.585 79H682.06Z" fill="black"/>
<path d="M741.267 54.87C741.267 37.865 753.522 29.98 768.627 29.98C783.542 29.98 795.892 37.865 795.892 54.87C795.892 72.065 783.542 79.95 768.627 79.95C753.522 79.95 741.267 72.065 741.267 54.87ZM757.512 54.87C757.512 62.09 761.977 65.605 768.627 65.605C775.087 65.605 779.552 62.09 779.552 54.87C779.552 47.745 775.087 44.325 768.627 44.325C761.977 44.325 757.512 47.745 757.512 54.87Z" fill="black"/>
<path d="M796.078 79L810.613 54.87L796.078 30.93H814.603L824.293 48.41H826.953L836.738 30.93H855.263L840.823 54.87L855.263 79H836.738L826.953 61.425H824.293L814.603 79H796.078Z" fill="black"/>
<path d="M912.079 30.93V79H895.739V45.275H884.909C884.149 66.65 880.159 79 859.449 79V64.655C867.714 64.655 868.854 57.72 868.854 30.93H912.079Z" fill="black"/>
<path d="M919.299 54.87C919.299 37.865 931.554 29.98 946.659 29.98C961.574 29.98 973.924 37.865 973.924 54.87C973.924 72.065 961.574 79.95 946.659 79.95C931.554 79.95 919.299 72.065 919.299 54.87ZM935.544 54.87C935.544 62.09 940.009 65.605 946.659 65.605C953.119 65.605 957.584 62.09 957.584 54.87C957.584 47.745 953.119 44.325 946.659 44.325C940.009 44.325 935.544 47.745 935.544 54.87Z" fill="black"/>
<path d="M981.14 79V30.93H1012.3L1016.29 74.915H1020.37L1024.36 30.93H1055.71V79H1040.42V44.04L1043.46 34.92H1039.47L1033.1 79H1003.46L997.29 34.92H993.205L996.34 44.04V79H981.14Z" fill="black"/>
<path d="M1062.74 65.89C1062.74 57.53 1067.58 52.59 1082.31 51.07L1096.94 49.455C1096.94 44.42 1094.09 42.425 1088.58 42.425C1082.69 42.425 1079.36 44.895 1079.17 49.17H1063.88C1064.16 36.535 1074.8 29.98 1088.01 29.98C1101.31 29.98 1113.28 35.965 1113.28 49.835V64.655H1120.21V79H1109.19C1104.54 79 1101.78 76.34 1101.78 71.685V71.21L1104.35 65.415H1100.36C1098.55 73.205 1093.99 79.95 1080.5 79.95C1065.3 79.95 1062.74 70.83 1062.74 65.89ZM1078.7 63.135C1078.7 66.27 1081.55 67.03 1084.68 67.03C1091.43 67.03 1096.94 63.42 1096.94 57.625L1085.35 59.335C1081.07 60 1078.7 60.475 1078.7 63.135Z" fill="black"/>
<path d="M12.415 79V12.025H41.39C60.105 12.025 69.32 15.255 69.32 28.175C69.32 40.715 60.01 41.095 52.885 41.76V45.75C63.05 46.13 74.26 46.795 74.26 60.855C74.26 76.625 60.105 79 42.055 79H12.415ZM29.8 64.275H43.005C51.84 64.275 56.78 64.56 56.78 57.53C56.78 50.5 51.555 50.88 43.005 50.88H29.8V64.275ZM29.8 37.39H43.1C48.42 37.39 52.6 37.77 52.6 31.69C52.6 25.8 48.8 25.895 43.1 25.895H29.8V37.39Z" stroke="black" stroke-width="24" mask="url(#path-1-outside-1_253_1539)"/>
<path d="M78.8646 54.87C78.8646 37.865 91.1196 29.98 106.225 29.98C121.14 29.98 133.49 37.865 133.49 54.87C133.49 72.065 121.14 79.95 106.225 79.95C91.1196 79.95 78.8646 72.065 78.8646 54.87ZM95.1096 54.87C95.1096 62.09 99.5746 65.605 106.225 65.605C112.685 65.605 117.15 62.09 117.15 54.87C117.15 47.745 112.685 44.325 106.225 44.325C99.5746 44.325 95.1096 47.745 95.1096 54.87Z" stroke="black" stroke-width="24" mask="url(#path-1-outside-1_253_1539)"/>
<path d="M189.838 30.93V79H173.498V45.275H162.668C161.908 66.65 157.918 79 137.208 79V64.655C145.473 64.655 146.613 57.72 146.613 30.93H189.838Z" stroke="black" stroke-width="24" mask="url(#path-1-outside-1_253_1539)"/>
<path d="M197.058 54.87C197.058 37.865 209.313 29.98 224.418 29.98C239.333 29.98 251.683 37.865 251.683 54.87C251.683 72.065 239.333 79.95 224.418 79.95C209.313 79.95 197.058 72.065 197.058 54.87ZM213.303 54.87C213.303 62.09 217.768 65.605 224.418 65.605C230.878 65.605 235.343 62.09 235.343 54.87C235.343 47.745 230.878 44.325 224.418 44.325C217.768 44.325 213.303 47.745 213.303 54.87Z" stroke="black" stroke-width="24" mask="url(#path-1-outside-1_253_1539)"/>
<path d="M258.156 39.195C258.156 33.78 261.196 30.93 266.611 30.93H298.816V45.275H274.496V79H258.156V39.195Z" stroke="black" stroke-width="24" mask="url(#path-1-outside-1_253_1539)"/>
<path d="M300.315 54.87C300.315 37.865 312.57 29.98 327.675 29.98C342.59 29.98 354.94 37.865 354.94 54.87C354.94 72.065 342.59 79.95 327.675 79.95C312.57 79.95 300.315 72.065 300.315 54.87ZM316.56 54.87C316.56 62.09 321.025 65.605 327.675 65.605C334.135 65.605 338.6 62.09 338.6 54.87C338.6 47.745 334.135 44.325 327.675 44.325C321.025 44.325 316.56 47.745 316.56 54.87Z" stroke="black" stroke-width="24" mask="url(#path-1-outside-1_253_1539)"/>
<path d="M414.649 30.93V64.75H417.784C423.294 64.75 426.239 67.695 426.239 73.11V92.395H409.994V79H372.754V92.395H356.509V73.11C356.509 67.695 359.454 64.75 364.964 64.75H366.199C371.139 58.48 373.039 49.55 373.039 30.93H414.649ZM381.874 64.655H398.689V44.42H388.429C387.574 54.3 385.579 60.095 381.874 64.655Z" stroke="black" stroke-width="24" mask="url(#path-1-outside-1_253_1539)"/>
<path d="M427.229 54.87C427.229 38.53 438.439 29.98 453.734 29.98C467.509 29.98 479.479 37.58 480.049 51.07H463.709C463.234 47.46 459.719 44.325 453.734 44.325C448.034 44.325 443.474 47.935 443.474 54.87C443.474 61.9 448.034 65.605 453.734 65.605C459.719 65.605 463.234 62.47 463.709 58.86H480.049C479.479 72.35 467.509 79.95 453.734 79.95C438.439 79.95 427.229 71.305 427.229 54.87Z" stroke="black" stroke-width="24" mask="url(#path-1-outside-1_253_1539)"/>
<path d="M487.307 30.93H503.552V47.175H507.827L517.042 34.825C519.417 31.595 523.312 30.93 527.587 30.93H536.327V45.275H528.632L522.742 52.875L536.707 79H519.132L509.917 61.52H503.552V79H487.307V30.93Z" stroke="black" stroke-width="24" mask="url(#path-1-outside-1_253_1539)"/>
<path d="M540.7 65.89C540.7 57.53 545.545 52.59 560.27 51.07L574.9 49.455C574.9 44.42 572.05 42.425 566.54 42.425C560.65 42.425 557.325 44.895 557.135 49.17H541.84C542.125 36.535 552.765 29.98 565.97 29.98C579.27 29.98 591.24 35.965 591.24 49.835V64.655H598.175V79H587.155C582.5 79 579.745 76.34 579.745 71.685V71.21L582.31 65.415H578.32C576.515 73.205 571.955 79.95 558.465 79.95C543.265 79.95 540.7 70.83 540.7 65.89ZM556.66 63.135C556.66 66.27 559.51 67.03 562.645 67.03C569.39 67.03 574.9 63.42 574.9 57.625L563.31 59.335C559.035 60 556.66 60.475 556.66 63.135Z" stroke="black" stroke-width="24" mask="url(#path-1-outside-1_253_1539)"/>
<path d="M649.704 79H633.364V60.285H629.089L619.494 73.68C616.644 77.385 613.889 79 609.424 79H602.584V65.795H609.614L614.079 59.715C608.474 58.67 603.059 55.44 603.059 46.225C603.059 34.255 612.464 30.93 621.394 30.93H649.704V79ZM619.304 45.56C619.304 48.22 620.824 50.215 625.669 50.215H633.364V40.905H625.669C620.824 40.905 619.304 42.9 619.304 45.56Z" stroke="black" stroke-width="24" mask="url(#path-1-outside-1_253_1539)"/>
<path d="M682.06 79L696.595 54.87L682.06 30.93H700.585L710.275 48.41H712.935L722.72 30.93H741.245L726.805 54.87L741.245 79H722.72L712.935 61.425H710.275L700.585 79H682.06Z" stroke="black" stroke-width="24" mask="url(#path-1-outside-1_253_1539)"/>
<path d="M741.267 54.87C741.267 37.865 753.522 29.98 768.627 29.98C783.542 29.98 795.892 37.865 795.892 54.87C795.892 72.065 783.542 79.95 768.627 79.95C753.522 79.95 741.267 72.065 741.267 54.87ZM757.512 54.87C757.512 62.09 761.977 65.605 768.627 65.605C775.087 65.605 779.552 62.09 779.552 54.87C779.552 47.745 775.087 44.325 768.627 44.325C761.977 44.325 757.512 47.745 757.512 54.87Z" stroke="black" stroke-width="24" mask="url(#path-1-outside-1_253_1539)"/>
<path d="M796.078 79L810.613 54.87L796.078 30.93H814.603L824.293 48.41H826.953L836.738 30.93H855.263L840.823 54.87L855.263 79H836.738L826.953 61.425H824.293L814.603 79H796.078Z" stroke="black" stroke-width="24" mask="url(#path-1-outside-1_253_1539)"/>
<path d="M912.079 30.93V79H895.739V45.275H884.909C884.149 66.65 880.159 79 859.449 79V64.655C867.714 64.655 868.854 57.72 868.854 30.93H912.079Z" stroke="black" stroke-width="24" mask="url(#path-1-outside-1_253_1539)"/>
<path d="M919.299 54.87C919.299 37.865 931.554 29.98 946.659 29.98C961.574 29.98 973.924 37.865 973.924 54.87C973.924 72.065 961.574 79.95 946.659 79.95C931.554 79.95 919.299 72.065 919.299 54.87ZM935.544 54.87C935.544 62.09 940.009 65.605 946.659 65.605C953.119 65.605 957.584 62.09 957.584 54.87C957.584 47.745 953.119 44.325 946.659 44.325C940.009 44.325 935.544 47.745 935.544 54.87Z" stroke="black" stroke-width="24" mask="url(#path-1-outside-1_253_1539)"/>
<path d="M981.14 79V30.93H1012.3L1016.29 74.915H1020.37L1024.36 30.93H1055.71V79H1040.42V44.04L1043.46 34.92H1039.47L1033.1 79H1003.46L997.29 34.92H993.205L996.34 44.04V79H981.14Z" stroke="black" stroke-width="24" mask="url(#path-1-outside-1_253_1539)"/>
<path d="M1062.74 65.89C1062.74 57.53 1067.58 52.59 1082.31 51.07L1096.94 49.455C1096.94 44.42 1094.09 42.425 1088.58 42.425C1082.69 42.425 1079.36 44.895 1079.17 49.17H1063.88C1064.16 36.535 1074.8 29.98 1088.01 29.98C1101.31 29.98 1113.28 35.965 1113.28 49.835V64.655H1120.21V79H1109.19C1104.54 79 1101.78 76.34 1101.78 71.685V71.21L1104.35 65.415H1100.36C1098.55 73.205 1093.99 79.95 1080.5 79.95C1065.3 79.95 1062.74 70.83 1062.74 65.89ZM1078.7 63.135C1078.7 66.27 1081.55 67.03 1084.68 67.03C1091.43 67.03 1096.94 63.42 1096.94 57.625L1085.35 59.335C1081.07 60 1078.7 60.475 1078.7 63.135Z" stroke="black" stroke-width="24" mask="url(#path-1-outside-1_253_1539)"/>
</svg>
