<svg width="267" height="80" viewBox="0 0 267 80" fill="none" xmlns="http://www.w3.org/2000/svg">
<path fill-rule="evenodd" clip-rule="evenodd" d="M0 19C0 8.50659 8.50659 0 19 0H59C62.866 0 66 3.13401 66 7V16H210C211.627 16 213.125 16.5552 214.313 17.4865C217.03 16.5239 219.954 16 223 16H235C249.359 16 261 27.6406 261 42V43C261 43.3577 260.993 43.7137 260.978 44.0678C264.381 44.5438 267 47.4661 267 51V73C267 76.866 263.866 80 260 80H244C240.894 80 237.971 79.2131 235.42 77.8276C232.23 79.2248 228.706 80 225 80H210H203H72C69.2435 80 66.8592 78.4068 65.7177 76.091C61.7358 78.5688 57.035 80 52 80H9C4.02944 80 0 75.9706 0 71V54V26V19Z" fill="white"/>
</svg>
