<svg width="552" height="224" viewBox="0 0 552 224" fill="none" xmlns="http://www.w3.org/2000/svg">
<path fill-rule="evenodd" clip-rule="evenodd" d="M336.364 21.7261H494.329C518.795 21.7261 538.98 40.0606 541.901 63.7428C547.778 65.7675 552 71.347 552 77.9129V113.873C552 122.148 545.293 128.856 537.02 128.856H470.36V209.017C470.36 217.292 463.654 224 455.38 224H119.087C100.98 224 85.1133 214.408 76.2881 200.027H68.9064V208.267C68.9064 216.542 62.1998 223.25 53.9268 223.25H14.9797C6.70662 223.25 0 216.542 0 208.267V172.308V40.4546V17.2318C0 8.95677 6.70662 2.24854 14.9797 2.24854H61.0421C79.8112 2.24854 96.7583 10.0514 108.818 22.5908C110.389 22.0309 112.082 21.7261 113.846 21.7261H241.853C247.366 8.94566 260.078 0.000136398 274.878 0.000135751L303.339 0.000134506C318.14 0.000133859 330.851 8.94566 336.364 21.7261Z" fill="white"/>
</svg>
