<svg width="208" height="79" viewBox="0 0 208 79" fill="none" xmlns="http://www.w3.org/2000/svg">
<rect width="208" height="79" rx="15" fill="white"/>
<path d="M21.021 55V17.635H30.667V46.573H44.606V46.52H45.083V17.635H54.729V46.52H57.008C60.188 46.52 61.884 48.269 61.884 51.396V62.526H52.238V55H21.021ZM64.9547 55V28.182H79.1587C85.9957 28.182 90.6067 29.56 90.6067 34.913C90.6067 38.835 87.6917 40.637 84.8827 41.114C88.9107 41.485 92.5677 43.34 92.5677 47.633C92.5677 53.039 87.9567 55 81.1197 55H64.9547ZM73.4347 48.852H81.1197C83.1867 48.852 84.0347 48.216 84.0347 46.573C84.0347 44.983 83.1867 44.453 81.1197 44.453H73.4347V48.852ZM73.4347 38.199H79.1587C81.2257 38.199 82.0737 37.828 82.0737 36.291C82.0737 34.86 81.2257 34.33 79.1587 34.33H73.4347V38.199ZM95.1514 41.485C95.1514 32.846 101.087 27.652 109.408 27.652C118.683 27.652 124.036 32.687 124.036 41.114V43.499H104.267C104.585 46.838 106.546 48.693 109.832 48.693C112.641 48.693 114.549 47.58 115.079 45.513H124.089C123.347 51.449 118.1 55.53 109.832 55.53C100.769 55.53 95.1514 49.859 95.1514 41.485ZM104.267 38.835H115.185C114.92 35.867 112.853 34.224 109.673 34.224C106.546 34.224 104.479 35.867 104.267 38.835ZM125.536 28.182H154.845V36.185H144.722V55H135.659V36.185H125.536V28.182ZM156.438 47.686C156.438 43.022 159.141 40.266 167.356 39.418L175.518 38.517C175.518 35.708 174.14 34.595 170.536 34.595C167.25 34.595 165.713 35.973 165.607 38.358H157.074C157.233 31.309 163.54 27.652 170.907 27.652C178.327 27.652 184.634 30.991 184.634 39.63V46.997H188.503V55H182.355C179.758 55 178.221 53.516 178.221 50.919V48.216C177.002 52.191 174.14 55.53 166.349 55.53C157.869 55.53 156.438 50.442 156.438 47.686ZM165.342 46.149C165.342 47.898 166.932 48.322 168.681 48.322C172.444 48.322 175.518 46.308 175.518 43.075L169.052 44.029C166.667 44.4 165.342 44.665 165.342 46.149Z" fill="white"/>
</svg>
