<svg width="1135" height="133" viewBox="0 0 1135 133" fill="none" xmlns="http://www.w3.org/2000/svg">
<path d="M611 44.2939C611 40.8849 613.776 38.1213 617.2 38.1213H636.267C651.419 38.1213 663.703 50.35 663.703 65.4349V71.7617H611V44.2939Z" fill="black"/>
<path d="M611 66.9025H639.407V83.8971C639.407 87.3102 636.643 90.077 633.232 90.077H617.176C613.765 90.077 611 87.3102 611 83.8971V66.9025Z" fill="black"/>
<path d="M652.121 52.2199C652.121 48.7686 654.897 45.9707 658.321 45.9707H815.807C826.765 45.9707 835.648 54.9238 835.648 65.9681V85.9654H652.121V52.2199Z" fill="black"/>
<path d="M628.191 66.9025H655.478V80.3587H628.191V66.9025Z" fill="black"/>
<path d="M639.406 65.0337H805.739V84.2515C805.739 87.6753 802.961 90.4509 799.533 90.4509H660.198C648.715 90.4509 639.406 81.1528 639.406 69.6831V65.0337Z" fill="black"/>
<path d="M796.395 63.1647H833.559C836.98 63.1647 839.753 65.9412 839.753 69.3661V84.2495C839.753 87.6744 836.98 90.4509 833.559 90.4509H796.395V63.1647Z" fill="black"/>
<path d="M710.047 51.9513V51.9513C710.047 43.6939 716.701 37 724.909 37L736.675 37C744.883 37 751.537 43.6939 751.537 51.9513V51.9513L710.047 51.9513Z" fill="black"/>
<path d="M620.723 80.2736H629.08V71.4178H633.489C643.638 71.4178 648.138 68.0223 648.138 59.7171C648.138 51.3202 643.638 47.9247 633.489 47.9247H620.723V80.2736ZM629.08 64.1221V55.2204H633.994C638.035 55.2204 639.826 56.3216 639.826 59.7171C639.826 63.0208 638.035 64.1221 633.994 64.1221H629.08Z" fill="white"/>
<path d="M649.839 68.5729C649.839 75.8228 654.707 80.7325 662.559 80.7325C669.723 80.7325 674.269 77.1993 674.912 72.0602H667.105C666.646 73.8497 664.993 74.8133 662.559 74.8133C659.712 74.8133 658.013 73.2073 657.737 70.3166H674.866V68.2517C674.866 60.956 670.228 56.5969 662.192 56.5969C654.982 56.5969 649.839 61.0937 649.839 68.5729ZM657.737 66.2787C657.921 63.7091 659.712 62.2867 662.421 62.2867C665.177 62.2867 666.968 63.7091 667.197 66.2787H657.737Z" fill="white"/>
<path d="M678.342 80.2736H685.689V63.3879L684.174 58.983H686.148L689.133 80.2736H703.461L706.538 58.983H708.466L706.997 63.3879V80.2736H714.39V57.0558H699.236L697.307 78.3005H695.333L693.404 57.0558H678.342V80.2736Z" fill="white"/>
<path d="M724.988 54.7615C727.56 54.7615 729.397 53.6144 729.397 51.1366C729.397 48.7047 727.56 47.4658 724.988 47.4658C722.371 47.4658 720.718 48.7047 720.718 51.1366C720.718 53.6144 722.371 54.7615 724.988 54.7615ZM717.825 68.5729C717.825 75.8228 722.692 80.7325 730.545 80.7325C737.709 80.7325 742.255 77.1993 742.898 72.0602H735.091C734.632 73.8497 732.979 74.8133 730.545 74.8133C727.698 74.8133 725.999 73.2073 725.723 70.3166H742.852V68.2517C742.852 60.956 738.214 56.5969 730.178 56.5969C722.968 56.5969 717.825 61.0937 717.825 68.5729ZM725.723 66.2787C725.907 63.7091 727.698 62.2867 730.407 62.2867C733.162 62.2867 734.953 63.7091 735.183 66.2787H725.723ZM732.106 51.1366C732.106 53.6144 733.759 54.7615 736.377 54.7615C738.949 54.7615 740.74 53.6144 740.74 51.1366C740.74 48.7047 738.949 47.4658 736.377 47.4658C733.759 47.4658 732.106 48.7047 732.106 51.1366Z" fill="white"/>
<path d="M745.225 68.6188C745.225 76.5569 750.644 80.7325 758.037 80.7325C764.696 80.7325 770.482 77.0617 770.758 70.546H762.859C762.63 72.2896 760.93 73.8038 758.037 73.8038C755.282 73.8038 753.078 72.0143 753.078 68.6188C753.078 65.2692 755.282 63.5256 758.037 63.5256C760.93 63.5256 762.63 65.0398 762.859 66.7834H770.758C770.482 60.2677 764.696 56.5969 758.037 56.5969C750.644 56.5969 745.225 60.7266 745.225 68.6188Z" fill="white"/>
<path d="M798.061 57.0558H777.167C777.167 69.9954 776.616 73.345 772.62 73.345V80.2736C782.631 80.2736 784.56 74.3086 784.927 63.9844H790.163V80.2736H798.061V57.0558Z" fill="white"/>
<path d="M801.511 73.9415C801.511 76.3275 802.75 80.7325 810.098 80.7325C816.619 80.7325 818.823 77.4746 819.696 73.712H821.624L820.384 76.511V76.7405C820.384 78.9888 821.716 80.2736 823.966 80.2736H829.293V73.345H825.941V66.1869C825.941 59.4877 820.155 56.5969 813.726 56.5969C807.343 56.5969 802.199 59.763 802.062 65.8657H809.455C809.547 63.8009 811.154 62.6079 814.001 62.6079C816.665 62.6079 818.042 63.5715 818.042 66.0034L810.97 66.7834C803.853 67.5176 801.511 69.9036 801.511 73.9415ZM809.225 72.6108C809.225 71.326 810.373 71.0966 812.44 70.7754L818.042 69.9495C818.042 72.7485 815.379 74.4921 812.119 74.4921C810.603 74.4921 809.225 74.125 809.225 72.6108Z" fill="white"/>
<path d="M876 43.9338C876 40.4869 878.776 37.6926 882.2 37.6926H901.267C916.419 37.6926 928.703 50.0572 928.703 65.3097V71.7068H876V43.9338Z" fill="black"/>
<path d="M876 66.8477H904.407V83.8423C904.407 87.2554 901.643 90.0222 898.232 90.0222H882.176C878.765 90.0222 876 87.2554 876 83.8423V66.8477Z" fill="black"/>
<path d="M916.742 52.1066C916.742 48.6875 919.522 45.9158 922.952 45.9158H1064.53C1067.96 45.9158 1070.74 48.6875 1070.74 52.1066V85.5368H916.742V52.1066Z" fill="black"/>
<path d="M893.191 66.8477H920.104V80.3039H893.191V66.8477Z" fill="black"/>
<path d="M904.406 64.9787H1070.74V84.1966C1070.74 87.6204 1067.96 90.3959 1064.53 90.3959H925.198C913.715 90.3959 904.406 81.0979 904.406 69.6282V64.9787Z" fill="black"/>
<path d="M885.707 80.2176H894.06V71.3389H898.467C908.61 71.3389 913.108 67.9346 913.108 59.6079C913.108 51.1891 908.61 47.7848 898.467 47.7848H885.707V80.2176ZM894.06 64.0242V55.0995H898.971C903.01 55.0995 904.8 56.2036 904.8 59.6079C904.8 62.9201 903.01 64.0242 898.971 64.0242H894.06Z" fill="white"/>
<path d="M914.853 68.5326C914.853 76.8593 920.774 80.6777 928.071 80.6777C935.277 80.6777 941.244 76.8593 941.244 68.5326C941.244 60.2979 935.277 56.4796 928.071 56.4796C920.774 56.4796 914.853 60.2979 914.853 68.5326ZM922.701 68.5326C922.701 65.0823 924.858 63.4262 928.071 63.4262C931.192 63.4262 933.349 65.0823 933.349 68.5326C933.349 72.0289 931.192 73.7311 928.071 73.7311C924.858 73.7311 922.701 72.0289 922.701 68.5326Z" fill="white"/>
<path d="M943.628 68.5326C943.628 76.4913 949.044 80.6777 956.434 80.6777C963.089 80.6777 968.872 76.9974 969.147 70.4648H961.253C961.024 72.2129 959.325 73.7311 956.434 73.7311C953.68 73.7311 951.477 71.9369 951.477 68.5326C951.477 65.1743 953.68 63.4262 956.434 63.4262C959.325 63.4262 961.024 64.9443 961.253 66.6925H969.147C968.872 60.1599 963.089 56.4796 956.434 56.4796C949.044 56.4796 943.628 60.6199 943.628 68.5326Z" fill="white"/>
<path d="M971.552 68.5326C971.552 76.4913 976.968 80.6777 984.358 80.6777C991.013 80.6777 996.796 76.9974 997.071 70.4648H989.177C988.948 72.2129 987.249 73.7311 984.358 73.7311C981.604 73.7311 979.401 71.9369 979.401 68.5326C979.401 65.1743 981.604 63.4262 984.358 63.4262C987.249 63.4262 988.948 64.9443 989.177 66.6925H997.071C996.796 60.1599 991.013 56.4796 984.358 56.4796C976.968 56.4796 971.552 60.6199 971.552 68.5326Z" fill="white"/>
<path d="M1028.53 80.2176V56.9396H1014.12L1008.38 78.2395H1006.45L1007.92 73.8691V56.9396H1000.58V80.2176H1014.99L1020.68 58.8718H1022.65L1021.14 63.0582V80.2176H1028.53Z" fill="white"/>
<path d="M1060.26 80.2176V56.9396H1045.85L1040.11 78.2395H1038.19L1039.66 73.8691V56.9396H1032.31V80.2176H1046.72L1052.41 58.8718H1054.39L1052.87 63.0582V80.2176H1060.26Z" fill="white"/>
<path d="M53 7.29388C53 3.88487 55.776 1.12132 59.2004 1.12132H78.2666C93.4195 1.12132 105.703 13.35 105.703 28.4349V34.7617H53V7.29388Z" fill="black"/>
<path d="M53 29.9025H81.4075V46.8972C81.4075 50.3102 78.6426 53.0771 75.2319 53.0771H59.1755C55.7649 53.0771 53 50.3102 53 46.8972V29.9025Z" fill="black"/>
<path d="M94.1211 15.2199C94.1211 11.7686 96.897 8.97076 100.321 8.97076H257.807C268.765 8.97076 277.648 17.9239 277.648 28.9681V48.9655H94.1211V15.2199Z" fill="black"/>
<path d="M70.1914 29.9025H97.4775V43.3587H70.1914V29.9025Z" fill="black"/>
<path d="M81.4062 28.0337H247.739V47.2516C247.739 50.6754 244.961 53.4509 241.533 53.4509H102.198C90.715 53.4509 81.4062 44.1529 81.4062 32.6832V28.0337Z" fill="black"/>
<path d="M238.395 26.1647H275.559C278.98 26.1647 281.753 28.9412 281.753 32.3661V47.2495C281.753 50.6744 278.98 53.4509 275.559 53.4509H238.395V26.1647Z" fill="black"/>
<path d="M152.047 14.9513V14.9513C152.047 6.69395 158.701 2.83116e-05 166.909 2.79528e-05L178.675 2.74385e-05C186.883 2.70798e-05 193.537 6.69395 193.537 14.9513V14.9513L152.047 14.9513Z" fill="black"/>
<path d="M62.7227 43.2736H71.0804V34.4178H75.4889C85.6376 34.4178 90.138 31.0223 90.138 22.7171C90.138 14.3202 85.6376 10.9247 75.4889 10.9247H62.7227V43.2736ZM71.0804 27.1221V18.2204H75.9941C80.0352 18.2204 81.8261 19.3217 81.8261 22.7171C81.8261 26.0209 80.0352 27.1221 75.9941 27.1221H71.0804Z" fill="white"/>
<path d="M91.8389 31.573C91.8389 38.8228 96.7066 43.7325 104.559 43.7325C111.723 43.7325 116.269 40.1993 116.912 35.0602H109.105C108.646 36.8497 106.993 37.8133 104.559 37.8133C101.712 37.8133 100.013 36.2073 99.7374 33.3166H116.866V31.2518C116.866 23.956 112.228 19.597 104.192 19.597C96.9821 19.597 91.8389 24.0937 91.8389 31.573ZM99.7374 29.2787C99.9211 26.7091 101.712 25.2867 104.421 25.2867C107.177 25.2867 108.968 26.7091 109.197 29.2787H99.7374Z" fill="white"/>
<path d="M120.342 43.2736H127.689V26.3879L126.174 21.983H128.148L131.133 43.2736H145.461L148.538 21.983H150.466L148.997 26.3879V43.2736H156.39V20.0558H141.236L139.307 41.3006H137.333L135.404 20.0558H120.342V43.2736Z" fill="white"/>
<path d="M166.988 17.7616C169.56 17.7616 171.397 16.6144 171.397 14.1367C171.397 11.7047 169.56 10.4659 166.988 10.4659C164.371 10.4659 162.718 11.7047 162.718 14.1367C162.718 16.6144 164.371 17.7616 166.988 17.7616ZM159.825 31.573C159.825 38.8228 164.692 43.7325 172.545 43.7325C179.709 43.7325 184.255 40.1993 184.898 35.0602H177.091C176.632 36.8497 174.979 37.8133 172.545 37.8133C169.698 37.8133 167.999 36.2073 167.723 33.3166H184.852V31.2518C184.852 23.956 180.214 19.597 172.178 19.597C164.968 19.597 159.825 24.0937 159.825 31.573ZM167.723 29.2787C167.907 26.7091 169.698 25.2867 172.407 25.2867C175.162 25.2867 176.953 26.7091 177.183 29.2787H167.723ZM174.106 14.1367C174.106 16.6144 175.759 17.7616 178.377 17.7616C180.949 17.7616 182.74 16.6144 182.74 14.1367C182.74 11.7047 180.949 10.4659 178.377 10.4659C175.759 10.4659 174.106 11.7047 174.106 14.1367Z" fill="white"/>
<path d="M187.225 31.6188C187.225 39.5569 192.644 43.7325 200.037 43.7325C206.696 43.7325 212.482 40.0617 212.758 33.546H204.859C204.63 35.2896 202.93 36.8038 200.037 36.8038C197.282 36.8038 195.078 35.0143 195.078 31.6188C195.078 28.2692 197.282 26.5256 200.037 26.5256C202.93 26.5256 204.63 28.0398 204.859 29.7834H212.758C212.482 23.2678 206.696 19.597 200.037 19.597C192.644 19.597 187.225 23.7266 187.225 31.6188Z" fill="white"/>
<path d="M240.061 20.0558H219.167C219.167 32.9954 218.616 36.345 214.62 36.345V43.2736C224.631 43.2736 226.56 37.3086 226.927 26.9845H232.163V43.2736H240.061V20.0558Z" fill="white"/>
<path d="M243.511 36.9415C243.511 39.3275 244.75 43.7325 252.098 43.7325C258.619 43.7325 260.823 40.4746 261.696 36.7121H263.624L262.384 39.5111V39.7405C262.384 41.9889 263.716 43.2736 265.966 43.2736H271.293V36.345H267.941V29.1869C267.941 22.4877 262.155 19.597 255.726 19.597C249.343 19.597 244.199 22.763 244.062 28.8657H251.455C251.547 26.8009 253.154 25.6079 256.001 25.6079C258.665 25.6079 260.042 26.5715 260.042 29.0034L252.97 29.7834C245.853 30.5176 243.511 32.9036 243.511 36.9415ZM251.225 35.6108C251.225 34.3261 252.373 34.0966 254.44 33.7754L260.042 32.9495C260.042 35.7485 257.379 37.4921 254.119 37.4921C252.603 37.4921 251.225 37.125 251.225 35.6108Z" fill="white"/>
<path d="M246 86.2411C246 82.7943 248.776 80 252.2 80H271.267C286.419 80 298.703 92.3646 298.703 107.617V114.014H246V86.2411Z" fill="black"/>
<path d="M246 109.155H274.407V126.15C274.407 129.563 271.643 132.33 268.232 132.33H252.176C248.765 132.33 246 129.563 246 126.15V109.155Z" fill="black"/>
<path d="M286.742 94.414C286.742 90.9949 289.522 88.2232 292.952 88.2232H434.531C437.96 88.2232 440.741 90.9949 440.741 94.414V127.844H286.742V94.414Z" fill="black"/>
<path d="M263.191 109.155H290.104V122.611H263.191V109.155Z" fill="black"/>
<path d="M274.406 107.286H440.739V126.504C440.739 129.928 437.961 132.703 434.533 132.703H295.198C283.715 132.703 274.406 123.405 274.406 111.936V107.286Z" fill="black"/>
<path d="M255.707 122.525H264.06V113.646H268.467C278.61 113.646 283.108 110.242 283.108 101.915C283.108 93.4965 278.61 90.0922 268.467 90.0922H255.707V122.525ZM264.06 106.332V97.4069H268.971C273.01 97.4069 274.8 98.511 274.8 101.915C274.8 105.228 273.01 106.332 268.971 106.332H264.06Z" fill="white"/>
<path d="M284.853 110.84C284.853 119.167 290.774 122.985 298.071 122.985C305.277 122.985 311.244 119.167 311.244 110.84C311.244 102.605 305.277 98.787 298.071 98.787C290.774 98.787 284.853 102.605 284.853 110.84ZM292.701 110.84C292.701 107.39 294.858 105.734 298.071 105.734C301.192 105.734 303.349 107.39 303.349 110.84C303.349 114.336 301.192 116.038 298.071 116.038C294.858 116.038 292.701 114.336 292.701 110.84Z" fill="white"/>
<path d="M313.628 110.84C313.628 118.799 319.044 122.985 326.434 122.985C333.089 122.985 338.872 119.305 339.147 112.772H331.253C331.024 114.52 329.325 116.038 326.434 116.038C323.68 116.038 321.477 114.244 321.477 110.84C321.477 107.482 323.68 105.734 326.434 105.734C329.325 105.734 331.024 107.252 331.253 109H339.147C338.872 102.467 333.089 98.787 326.434 98.787C319.044 98.787 313.628 102.927 313.628 110.84Z" fill="white"/>
<path d="M341.552 110.84C341.552 118.799 346.968 122.985 354.358 122.985C361.013 122.985 366.796 119.305 367.071 112.772H359.177C358.948 114.52 357.249 116.038 354.358 116.038C351.604 116.038 349.401 114.244 349.401 110.84C349.401 107.482 351.604 105.734 354.358 105.734C357.249 105.734 358.948 107.252 359.177 109H367.071C366.796 102.467 361.013 98.787 354.358 98.787C346.968 98.787 341.552 102.927 341.552 110.84Z" fill="white"/>
<path d="M398.53 122.525V99.247H384.118L378.381 120.547H376.453L377.922 116.176V99.247H370.578V122.525H384.99L390.681 101.179H392.655L391.14 105.366V122.525H398.53Z" fill="white"/>
<path d="M430.263 122.525V99.247H415.852L410.114 120.547H408.187L409.655 116.176V99.247H402.312V122.525H416.724L422.415 101.179H424.389L422.874 105.366V122.525H430.263Z" fill="white"/>
<rect y="30" width="7" height="35" fill="#FFCFDA"/>
<rect x="1128" y="30" width="7" height="35" fill="#FFCFDA"/>
</svg>
