<svg width="157" height="64" viewBox="0 0 157 64" fill="none" xmlns="http://www.w3.org/2000/svg">
<path d="M0 4.89968C0 2.54666 1.9075 0.63916 4.26051 0.63916H17.3616C27.7737 0.63916 36.2144 9.07984 36.2144 19.4919V48.996H0V4.89968Z" fill="black"/>
<path d="M0 11.5032H19.5984V59.2209C19.5984 61.574 17.6909 63.4815 15.3379 63.4815H4.26051C1.9075 63.4815 0 61.574 0 59.2209V11.5032Z" fill="black"/>
<path d="M28.1172 10.4382C28.1172 8.08523 30.0247 6.17773 32.3777 6.17773H140.595C148.124 6.17773 154.228 12.2817 154.228 19.8114V33.445H28.1172V10.4382Z" fill="black"/>
<path d="M11.9297 40.688H30.4629V56.8779H11.9297V40.688Z" fill="black"/>
<path d="M127.176 17.894H152.739C155.092 17.894 156.999 19.8015 156.999 22.1546V32.3798C156.999 34.7328 155.092 36.6403 152.739 36.6403H127.176V17.894Z" fill="black"/>
<path d="M19.5977 31.3147H133.779V59.4341C133.779 61.7871 131.872 63.6946 129.519 63.6946H33.8704C25.9878 63.6946 19.5977 57.3045 19.5977 49.4219V31.3147Z" fill="black"/>
<path d="M67.9531 10.2253C67.9531 4.5781 72.5311 0.000108519 78.1784 0.000108272L86.2733 0.000107918C91.9206 0.000107671 96.4986 4.5781 96.4986 10.2253L67.9531 10.2253Z" fill="black"/>
<path d="M6.69922 29.6107H12.4373V23.5259H15.464C22.4316 23.5259 25.5213 21.1928 25.5213 15.4863C25.5213 9.71669 22.4316 7.38364 15.464 7.38364H6.69922V29.6107ZM12.4373 18.513V12.3966H15.8108C18.5852 12.3966 19.8148 13.1532 19.8148 15.4863C19.8148 17.7563 18.5852 18.513 15.8108 18.513H12.4373Z" fill="white"/>
<path d="M26.6891 21.5712C26.6891 26.5525 30.031 29.926 35.4223 29.926C40.3406 29.926 43.4619 27.4984 43.9033 23.9673H38.5435C38.2283 25.1968 37.0933 25.8589 35.4223 25.8589C33.4676 25.8589 32.301 24.7555 32.1119 22.7692H43.8717V21.3505C43.8717 16.3375 40.6874 13.3424 35.1701 13.3424C30.2202 13.3424 26.6891 16.4321 26.6891 21.5712ZM32.1119 19.9948C32.238 18.2292 33.4676 17.2518 35.3277 17.2518C37.2194 17.2518 38.449 18.2292 38.6066 19.9948H32.1119Z" fill="white"/>
<path d="M46.2578 29.6107H51.3022V18.0085L50.2618 14.9818H51.6175L53.6668 29.6107H63.5035L65.6158 14.9818H66.94L65.9311 18.0085V29.6107H71.0071V13.6577H60.6029L59.2787 28.255H57.923L56.5989 13.6577H46.2578V29.6107Z" fill="white"/>
<path d="M78.2834 12.0813C80.0489 12.0813 81.31 11.2931 81.31 9.59058C81.31 7.91961 80.0489 7.06836 78.2834 7.06836C76.4863 7.06836 75.3513 7.91961 75.3513 9.59058C75.3513 11.2931 76.4863 12.0813 78.2834 12.0813ZM73.365 21.5712C73.365 26.5525 76.707 29.926 82.0982 29.926C87.0166 29.926 90.1378 27.4984 90.5792 23.9673H85.2195C84.9042 25.1968 83.7692 25.8589 82.0982 25.8589C80.1435 25.8589 78.977 24.7555 78.7878 22.7692H90.5477V21.3505C90.5477 16.3375 87.3634 13.3424 81.846 13.3424C76.8961 13.3424 73.365 16.4321 73.365 21.5712ZM78.7878 19.9948C78.9139 18.2292 80.1435 17.2518 82.0036 17.2518C83.8953 17.2518 85.1249 18.2292 85.2825 19.9948H78.7878ZM83.1702 9.59058C83.1702 11.2931 84.3052 12.0813 86.1023 12.0813C87.8678 12.0813 89.0974 11.2931 89.0974 9.59058C89.0974 7.91961 87.8678 7.06836 86.1023 7.06836C84.3052 7.06836 83.1702 7.91961 83.1702 9.59058Z" fill="white"/>
<path d="M92.177 21.6027C92.177 27.057 95.8973 29.926 100.973 29.926C105.545 29.926 109.517 27.4038 109.706 22.9268H104.284C104.126 24.1249 102.96 25.1653 100.973 25.1653C99.0816 25.1653 97.5683 23.9357 97.5683 21.6027C97.5683 19.3011 99.0816 18.1031 100.973 18.1031C102.96 18.1031 104.126 19.1435 104.284 20.3416H109.706C109.517 15.8646 105.545 13.3424 100.973 13.3424C95.8973 13.3424 92.177 16.1799 92.177 21.6027Z" fill="white"/>
<path d="M128.452 13.6577H114.107C114.107 22.5485 113.728 24.85 110.985 24.85V29.6107C117.858 29.6107 119.183 25.5121 119.435 18.4184H123.029V29.6107H128.452V13.6577Z" fill="white"/>
<path d="M130.82 25.2599C130.82 26.8994 131.671 29.926 136.716 29.926C141.193 29.926 142.706 27.6875 143.305 25.1023H144.629L143.778 27.0255V27.1831C143.778 28.728 144.692 29.6107 146.237 29.6107H149.894V24.85H147.593V19.9317C147.593 15.3286 143.62 13.3424 139.206 13.3424C134.824 13.3424 131.293 15.5178 131.198 19.711H136.274C136.337 18.2923 137.441 17.4725 139.396 17.4725C141.224 17.4725 142.17 18.1346 142.17 19.8056L137.315 20.3416C132.428 20.846 130.82 22.4855 130.82 25.2599ZM136.117 24.3456C136.117 23.4628 136.905 23.3052 138.324 23.0845L142.17 22.517C142.17 24.4402 140.341 25.6382 138.103 25.6382C137.063 25.6382 136.117 25.386 136.117 24.3456Z" fill="white"/>
<path d="M6.69922 56.665H12.4373V50.5801H15.464C22.4316 50.5801 25.5213 48.2471 25.5213 42.5406C25.5213 36.771 22.4316 34.4379 15.464 34.4379H6.69922V56.665ZM12.4373 45.5672V39.4508H15.8108C18.5852 39.4508 19.8148 40.2075 19.8148 42.5406C19.8148 44.8106 18.5852 45.5672 15.8108 45.5672H12.4373Z" fill="white"/>
<path d="M26.7199 48.6569C26.7199 54.3635 30.787 56.9803 35.7999 56.9803C40.7497 56.9803 44.8484 54.3635 44.8484 48.6569C44.8484 43.0135 40.7497 40.3967 35.7999 40.3967C30.787 40.3967 26.7199 43.0135 26.7199 48.6569ZM32.1111 48.6569C32.1111 46.2924 33.5929 45.1574 35.7999 45.1574C37.9438 45.1574 39.4256 46.2924 39.4256 48.6569C39.4256 51.0531 37.9438 52.2196 35.7999 52.2196C33.5929 52.2196 32.1111 51.0531 32.1111 48.6569Z" fill="white"/>
<path d="M46.4863 48.6569C46.4863 54.1113 50.2066 56.9803 55.2826 56.9803C59.8541 56.9803 63.8266 54.4581 64.0158 49.9811H58.593C58.4354 51.1792 57.2688 52.2196 55.2826 52.2196C53.3909 52.2196 51.8776 50.99 51.8776 48.6569C51.8776 46.3554 53.3909 45.1574 55.2826 45.1574C57.2688 45.1574 58.4354 46.1978 58.593 47.3958H64.0158C63.8266 42.9189 59.8541 40.3967 55.2826 40.3967C50.2066 40.3967 46.4863 43.2342 46.4863 48.6569Z" fill="white"/>
<path d="M65.6678 48.6569C65.6678 54.1113 69.3881 56.9803 74.4641 56.9803C79.0356 56.9803 83.0081 54.4581 83.1973 49.9811H77.7745C77.6168 51.1792 76.4503 52.2196 74.4641 52.2196C72.5724 52.2196 71.0591 50.99 71.0591 48.6569C71.0591 46.3554 72.5724 45.1574 74.4641 45.1574C76.4503 45.1574 77.6168 46.1978 77.7745 47.3958H83.1973C83.0081 42.9189 79.0356 40.3967 74.4641 40.3967C69.3881 40.3967 65.6678 43.2342 65.6678 48.6569Z" fill="white"/>
<path d="M104.806 56.665V40.7119H94.9066L90.9657 55.3093H89.6415L90.6504 52.3142V40.7119H85.6059V56.665H95.5057L99.4151 42.0361H100.771L99.7304 44.9051V56.665H104.806Z" fill="white"/>
<path d="M126.605 56.665V40.7119H116.705L112.764 55.3093H111.44L112.449 52.3142V40.7119H107.404V56.665H117.304L121.214 42.0361H122.569L121.529 44.9051V56.665H126.605Z" fill="white"/>
</svg>
