<svg width="1135" height="136" viewBox="0 0 1135 136" fill="none" xmlns="http://www.w3.org/2000/svg">
<path d="M332 65.9308V71.3254H340.782V80.1072H346.176V71.3254H355V65.9308H346.176V57.1072H340.782V65.9308H332Z" fill="black"/>
<path d="M750 61.1072V66.62H773V61.1072H750ZM750 76.1072H773V70.5944H750V76.1072Z" fill="black"/>
<path d="M387.875 11.3055C387.875 6.35024 391.892 2.33319 396.847 2.33319H424.437C446.364 2.33319 464.14 20.1086 464.14 42.0358V104.169H387.875V11.3055Z" fill="black"/>
<path d="M387.875 25.2123H429.148V125.702C429.148 130.658 425.131 134.675 420.175 134.675H396.847C391.892 134.675 387.875 130.658 387.875 125.702V25.2123Z" fill="black"/>
<path d="M447.094 22.9694C447.094 18.0141 451.111 13.9971 456.066 13.9971H683.963C699.82 13.9971 712.675 26.8516 712.675 42.7085V71.42H447.094V22.9694Z" fill="black"/>
<path d="M412.996 86.6731H452.026V120.768H412.996V86.6731Z" fill="black"/>
<path d="M655.699 38.6709H709.533C714.488 38.6709 718.506 42.6879 718.506 47.6432V69.1768C718.506 74.1321 714.488 78.1492 709.533 78.1492H655.699V38.6709Z" fill="black"/>
<path d="M429.145 66.9339H669.603V126.151C669.603 131.107 665.586 135.124 660.631 135.124H459.202C442.602 135.124 429.145 121.666 429.145 105.066V66.9339Z" fill="black"/>
<path d="M530.984 22.5206V22.5206C530.984 10.628 540.625 0.987039 552.518 0.987039L569.565 0.987038C581.458 0.987037 591.099 10.628 591.099 22.5206V22.5206L530.984 22.5206Z" fill="black"/>
<path d="M0 63.5297H12.1016V50.7289H18.4849C33.1798 50.7289 39.696 45.8209 39.696 33.816C39.696 21.6785 33.1798 16.7704 18.4849 16.7704H0V63.5297ZM12.1016 40.1832V27.3161H19.2163C25.0677 27.3161 27.6609 28.9079 27.6609 33.816C27.6609 38.5914 25.0677 40.1832 19.2163 40.1832H12.1016Z" fill="white"/>
<path d="M42.1588 46.6168C42.1588 57.0962 49.207 64.193 60.5772 64.193C70.9501 64.193 77.5328 59.0859 78.4637 51.6575H67.16C66.4951 54.2442 64.1013 55.637 60.5772 55.637C56.4547 55.637 53.9945 53.3156 53.5955 49.1371H78.3972V46.1525C78.3972 35.6068 71.6815 29.3059 60.0453 29.3059C49.606 29.3059 42.1588 35.8058 42.1588 46.6168ZM53.5955 43.3005C53.8615 39.5863 56.4547 37.5302 60.3778 37.5302C64.3673 37.5302 66.9605 39.5863 67.293 43.3005H53.5955Z" fill="white"/>
<path d="M83.4294 63.5297H94.0682V39.122L91.8739 32.7548H94.7331L99.0551 63.5297H119.801L124.256 32.7548H127.048L124.921 39.122V63.5297H135.626V29.9691H113.683L110.891 60.6777H108.032L105.239 29.9691H83.4294V63.5297Z" fill="white"/>
<path d="M150.972 26.6529C154.695 26.6529 157.355 24.9948 157.355 21.4132C157.355 17.898 154.695 16.1072 150.972 16.1072C147.182 16.1072 144.788 17.898 144.788 21.4132C144.788 24.9948 147.182 26.6529 150.972 26.6529ZM140.599 46.6168C140.599 57.0962 147.647 64.193 159.017 64.193C169.39 64.193 175.973 59.0859 176.904 51.6575H165.6C164.935 54.2442 162.541 55.637 159.017 55.637C154.895 55.637 152.435 53.3156 152.036 49.1371H176.837V46.1525C176.837 35.6068 170.122 29.3059 158.485 29.3059C148.046 29.3059 140.599 35.8058 140.599 46.6168ZM152.036 43.3005C152.302 39.5863 154.895 37.5302 158.818 37.5302C162.807 37.5302 165.401 39.5863 165.733 43.3005H152.036ZM161.278 21.4132C161.278 24.9948 163.672 26.6529 167.462 26.6529C171.185 26.6529 173.779 24.9948 173.779 21.4132C173.779 17.898 171.185 16.1072 167.462 16.1072C163.672 16.1072 161.278 17.898 161.278 21.4132Z" fill="white"/>
<path d="M180.274 46.6831C180.274 58.1574 188.12 64.193 198.825 64.193C208.466 64.193 216.844 58.887 217.243 49.4688H205.807C205.474 51.9891 203.014 54.1779 198.825 54.1779C194.835 54.1779 191.644 51.5912 191.644 46.6831C191.644 41.8414 194.835 39.321 198.825 39.321C203.014 39.321 205.474 41.5097 205.807 44.0301H217.243C216.844 34.6119 208.466 29.3059 198.825 29.3059C188.12 29.3059 180.274 35.2752 180.274 46.6831Z" fill="white"/>
<path d="M256.777 29.9691H226.523C226.523 48.6729 225.725 53.5146 219.94 53.5146V63.5297C234.436 63.5297 237.229 54.9074 237.76 39.9843H245.341V63.5297H256.777V29.9691Z" fill="white"/>
<path d="M261.772 54.3768C261.772 57.8257 263.567 64.193 274.206 64.193C283.648 64.193 286.84 59.4839 288.103 54.0452H290.896L289.1 58.091V58.4227C289.1 61.6726 291.029 63.5297 294.287 63.5297H302V53.5146H297.146V43.1679C297.146 33.4844 288.768 29.3059 279.459 29.3059C270.217 29.3059 262.769 33.8823 262.57 42.7036H273.275C273.408 39.719 275.735 37.9945 279.858 37.9945C283.715 37.9945 285.709 39.3873 285.709 42.9026L275.47 44.0301C265.163 45.0913 261.772 48.5402 261.772 54.3768ZM272.943 52.4534C272.943 50.5963 274.605 50.2647 277.597 49.8004L285.709 48.6065C285.709 52.6524 281.853 55.1727 277.132 55.1727C274.938 55.1727 272.943 54.6421 272.943 52.4534Z" fill="white"/>
<path d="M0 120.444H12.1016V107.643H18.4849C33.1798 107.643 39.696 102.735 39.696 90.7302C39.696 78.5927 33.1798 73.6846 18.4849 73.6846H0V120.444ZM12.1016 97.0974V84.2304H19.2163C25.0677 84.2304 27.6609 85.8222 27.6609 90.7302C27.6609 95.5056 25.0677 97.0974 19.2163 97.0974H12.1016Z" fill="white"/>
<path d="M42.2238 103.597C42.2238 115.602 50.8013 121.107 61.3736 121.107C71.8129 121.107 80.4569 115.602 80.4569 103.597C80.4569 91.7251 71.8129 86.2201 61.3736 86.2201C50.8013 86.2201 42.2238 91.7251 42.2238 103.597ZM53.594 103.597C53.594 98.6229 56.7191 96.2352 61.3736 96.2352C65.8951 96.2352 69.0202 98.6229 69.0202 103.597C69.0202 108.638 65.8951 111.092 61.3736 111.092C56.7191 111.092 53.594 108.638 53.594 103.597Z" fill="white"/>
<path d="M83.9114 103.597C83.9114 115.072 91.7575 121.107 102.463 121.107C112.104 121.107 120.482 115.801 120.881 106.383H109.445C109.112 108.903 106.652 111.092 102.463 111.092C98.4733 111.092 95.2816 108.505 95.2816 103.597C95.2816 98.7556 98.4733 96.2352 102.463 96.2352C106.652 96.2352 109.112 98.424 109.445 100.944H120.881C120.482 91.5261 112.104 86.2201 102.463 86.2201C91.7575 86.2201 83.9114 92.1894 83.9114 103.597Z" fill="white"/>
<path d="M124.365 103.597C124.365 115.072 132.211 121.107 142.917 121.107C152.558 121.107 160.936 115.801 161.335 106.383H149.898C149.566 108.903 147.106 111.092 142.917 111.092C138.927 111.092 135.736 108.505 135.736 103.597C135.736 98.7556 138.927 96.2352 142.917 96.2352C147.106 96.2352 149.566 98.424 149.898 100.944H161.335C160.936 91.5261 152.558 86.2201 142.917 86.2201C132.211 86.2201 124.365 92.1894 124.365 103.597Z" fill="white"/>
<path d="M206.909 120.444V86.8834H186.03L177.719 117.592H174.926L177.054 111.291V86.8834H166.415V120.444H187.294L195.539 89.669H198.398L196.204 95.7046V120.444H206.909Z" fill="white"/>
<path d="M252.882 120.444V86.8834H232.004L223.692 117.592H220.899L223.027 111.291V86.8834H212.388V120.444H233.267L241.512 89.669H244.371L242.177 95.7046V120.444H252.882Z" fill="white"/>
<path d="M804.367 10.3185C804.367 5.36318 808.384 1.34613 813.34 1.34613H840.929C862.857 1.34613 880.632 19.1216 880.632 41.0487V103.182H804.367V10.3185Z" fill="black"/>
<path d="M804.367 24.2253H845.64V124.715C845.64 129.671 841.623 133.688 836.668 133.688H813.34C808.384 133.688 804.367 129.671 804.367 124.715V24.2253Z" fill="black"/>
<path d="M863.586 21.9823C863.586 17.0271 867.603 13.01 872.558 13.01H1100.46C1116.31 13.01 1129.17 25.8646 1129.17 41.7215V70.4329H863.586V21.9823Z" fill="black"/>
<path d="M829.488 85.6861H868.518V119.781H829.488V85.6861Z" fill="black"/>
<path d="M1072.19 37.6838H1126.03C1130.98 37.6838 1135 41.7009 1135 46.6562V68.1898C1135 73.145 1130.98 77.1621 1126.03 77.1621H1072.19V37.6838Z" fill="black"/>
<path d="M845.637 65.9468H1086.1V125.164C1086.1 130.12 1082.08 134.137 1077.12 134.137H875.694C859.094 134.137 845.637 120.679 845.637 104.079V65.9468Z" fill="black"/>
<path d="M947.477 21.5336V21.5336C947.477 9.6409 957.117 -2.13174e-05 969.01 -2.18373e-05L986.058 -2.25825e-05C997.95 -2.31023e-05 1007.59 9.64089 1007.59 21.5336V21.5336L947.477 21.5336Z" fill="black"/>
<path d="M818.473 62.3577H830.557V49.5434H836.931C851.604 49.5434 858.111 44.6301 858.111 32.6126C858.111 20.4623 851.604 15.549 836.931 15.549H818.473V62.3577ZM830.557 38.9865V26.1059H837.661C843.504 26.1059 846.093 27.6994 846.093 32.6126C846.093 37.3931 843.504 38.9865 837.661 38.9865H830.557Z" fill="white"/>
<path d="M860.57 45.4269C860.57 55.9173 867.608 63.0216 878.961 63.0216C889.319 63.0216 895.892 57.9092 896.822 50.4729H885.534C884.87 53.0623 882.48 54.4566 878.961 54.4566C874.845 54.4566 872.388 52.1328 871.99 47.9499H896.755V44.9621C896.755 34.4053 890.049 28.0977 878.43 28.0977C868.006 28.0977 860.57 34.6045 860.57 45.4269ZM871.99 42.1071C872.255 38.389 874.845 36.3307 878.762 36.3307C882.746 36.3307 885.335 38.389 885.667 42.1071H871.99Z" fill="white"/>
<path d="M901.78 62.3577H912.403V37.9242L910.212 31.5503H913.067L917.383 62.3577H938.098L942.547 31.5503H945.335L943.211 37.9242V62.3577H953.9V28.7617H931.99L929.201 59.5027H926.346L923.558 28.7617H901.78V62.3577Z" fill="white"/>
<path d="M969.224 25.4419C972.942 25.4419 975.598 23.782 975.598 20.1967C975.598 16.6777 972.942 14.8851 969.224 14.8851C965.439 14.8851 963.049 16.6777 963.049 20.1967C963.049 23.782 965.439 25.4419 969.224 25.4419ZM958.866 45.4269C958.866 55.9173 965.904 63.0216 977.257 63.0216C987.615 63.0216 994.188 57.9092 995.118 50.4729H983.831C983.167 53.0623 980.776 54.4566 977.257 54.4566C973.141 54.4566 970.684 52.1328 970.286 47.9499H995.051V44.9621C995.051 34.4053 988.345 28.0977 976.726 28.0977C966.302 28.0977 958.866 34.6045 958.866 45.4269ZM970.286 42.1071C970.551 38.389 973.141 36.3307 977.058 36.3307C981.042 36.3307 983.631 38.389 983.963 42.1071H970.286ZM979.515 20.1967C979.515 23.782 981.905 25.4419 985.69 25.4419C989.408 25.4419 991.997 23.782 991.997 20.1967C991.997 16.6777 989.408 14.8851 985.69 14.8851C981.905 14.8851 979.515 16.6777 979.515 20.1967Z" fill="white"/>
<path d="M998.483 45.4933C998.483 56.9797 1006.32 63.0216 1017.01 63.0216C1026.63 63.0216 1035 57.71 1035.4 48.2819H1023.98C1023.65 50.8049 1021.19 52.9959 1017.01 52.9959C1013.02 52.9959 1009.84 50.4065 1009.84 45.4933C1009.84 40.6464 1013.02 38.1234 1017.01 38.1234C1021.19 38.1234 1023.65 40.3144 1023.98 42.8375H1035.4C1035 33.4093 1026.63 28.0977 1017.01 28.0977C1006.32 28.0977 998.483 34.0733 998.483 45.4933Z" fill="white"/>
<path d="M1074.87 28.7617H1044.66C1044.66 47.4851 1043.87 52.332 1038.09 52.332V62.3577C1052.57 62.3577 1055.35 53.7263 1055.89 38.7874H1063.45V62.3577H1074.87V28.7617Z" fill="white"/>
<path d="M1079.86 53.1951C1079.86 56.6477 1081.65 63.0216 1092.28 63.0216C1101.71 63.0216 1104.89 58.3076 1106.15 52.8632H1108.94L1107.15 56.9133V57.2452C1107.15 60.4986 1109.08 62.3577 1112.33 62.3577H1120.03V52.332H1115.18V41.9743C1115.18 32.2806 1106.82 28.0977 1097.52 28.0977C1088.29 28.0977 1080.86 32.679 1080.66 41.5096H1091.35C1091.48 38.5218 1093.8 36.7955 1097.92 36.7955C1101.77 36.7955 1103.76 38.1898 1103.76 41.7087L1093.54 42.8375C1083.25 43.8998 1079.86 47.3523 1079.86 53.1951ZM1091.02 51.2697C1091.02 49.4106 1092.68 49.0786 1095.66 48.6139L1103.76 47.4187C1103.76 51.4689 1099.91 53.9919 1095.2 53.9919C1093.01 53.9919 1091.02 53.4607 1091.02 51.2697Z" fill="white"/>
<path d="M818.473 119.332H830.557V106.518H836.931C851.604 106.518 858.111 101.604 858.111 89.5869C858.111 77.4366 851.604 72.5233 836.931 72.5233H818.473V119.332ZM830.557 95.9608V83.0802H837.661C843.504 83.0802 846.093 84.6737 846.093 89.5869C846.093 94.3674 843.504 95.9608 837.661 95.9608H830.557Z" fill="white"/>
<path d="M860.635 102.468C860.635 114.485 869.2 119.996 879.757 119.996C890.181 119.996 898.812 114.485 898.812 102.468C898.812 90.5828 890.181 85.072 879.757 85.072C869.2 85.072 860.635 90.5828 860.635 102.468ZM871.988 102.468C871.988 97.4879 875.109 95.0977 879.757 95.0977C884.271 95.0977 887.392 97.4879 887.392 102.468C887.392 107.514 884.271 109.97 879.757 109.97C875.109 109.97 871.988 107.514 871.988 102.468Z" fill="white"/>
<path d="M902.261 102.468C902.261 113.954 910.096 119.996 920.786 119.996C930.413 119.996 938.779 114.684 939.177 105.256H927.757C927.425 107.779 924.969 109.97 920.786 109.97C916.802 109.97 913.615 107.381 913.615 102.468C913.615 97.6207 916.802 95.0977 920.786 95.0977C924.969 95.0977 927.425 97.2887 927.757 99.8118H939.177C938.779 90.3836 930.413 85.072 920.786 85.072C910.096 85.072 902.261 91.0476 902.261 102.468Z" fill="white"/>
<path d="M942.656 102.468C942.656 113.954 950.491 119.996 961.18 119.996C970.808 119.996 979.174 114.684 979.572 105.256H968.152C967.82 107.779 965.363 109.97 961.18 109.97C957.197 109.97 954.01 107.381 954.01 102.468C954.01 97.6207 957.197 95.0977 961.18 95.0977C965.363 95.0977 967.82 97.2887 968.152 99.8118H979.572C979.174 90.3836 970.808 85.072 961.18 85.072C950.491 85.072 942.656 91.0476 942.656 102.468Z" fill="white"/>
<path d="M1025.08 119.332V85.736H1004.23L995.932 116.477H993.143L995.268 110.169V85.736H984.644V119.332H1005.49L1013.73 88.5246H1016.58L1014.39 94.5665V119.332H1025.08Z" fill="white"/>
<path d="M1070.99 119.332V85.736H1050.14L1041.84 116.477H1039.05L1041.17 110.169V85.736H1030.55V119.332H1051.4L1059.63 88.5246H1062.49L1060.3 94.5665V119.332H1070.99Z" fill="white"/>
</svg>
