<svg width="1136" height="102" viewBox="0 0 1136 102" fill="none" xmlns="http://www.w3.org/2000/svg">
<path d="M906 14.1481C906 10.7153 908.783 7.93253 912.216 7.93253H931.328C946.518 7.93253 958.832 20.2464 958.832 35.4363V78.479H906V14.1481Z" fill="black"/>
<path d="M906 23.7819H934.592V93.3961C934.592 96.8288 931.809 99.6116 928.376 99.6116H912.216C908.783 99.6116 906 96.8288 906 93.3961V23.7819Z" fill="black"/>
<path d="M947.023 22.2282C947.023 18.7954 949.806 16.0126 953.239 16.0126H1111.11C1122.1 16.0126 1131 24.9176 1131 35.9024V55.7922H947.023V22.2282Z" fill="black"/>
<path d="M923.402 66.3587H950.44V89.9778H923.402V66.3587Z" fill="black"/>
<path d="M1091.54 33.1053H1128.83C1132.26 33.1053 1135.04 35.8881 1135.04 39.3209V54.2382C1135.04 57.671 1132.26 60.4538 1128.83 60.4538H1091.54V33.1053Z" fill="black"/>
<path d="M934.59 52.6844H1101.17V93.7071C1101.17 97.1398 1098.38 99.9226 1094.95 99.9226H955.412C943.912 99.9226 934.59 90.6002 934.59 79.1005V52.6844Z" fill="black"/>
<path d="M1005.14 21.9173V21.9173C1005.14 13.6787 1011.82 7.00001 1020.05 7.00001L1031.86 7.00001C1040.1 7.00001 1046.78 13.6787 1046.78 21.9173V21.9173L1005.14 21.9173Z" fill="black"/>
<path d="M915.773 50.198H924.145V41.321H928.56C938.725 41.321 943.232 37.9173 943.232 29.5922C943.232 21.1751 938.725 17.7715 928.56 17.7715H915.773V50.198ZM924.145 34.0078V25.0847H929.066C933.114 25.0847 934.907 26.1886 934.907 29.5922C934.907 32.9039 933.114 34.0078 929.066 34.0078H924.145Z" fill="white"/>
<path d="M944.936 38.4693C944.936 45.7365 949.812 50.658 957.677 50.658C964.852 50.658 969.405 47.1164 970.049 41.9649H962.23C961.77 43.7587 960.114 44.7246 957.677 44.7246C954.825 44.7246 953.123 43.1148 952.847 40.2171H970.003V38.1473C970.003 30.8341 965.358 26.4646 957.309 26.4646C950.088 26.4646 944.936 30.9721 944.936 38.4693ZM952.847 36.1695C953.031 33.5938 954.825 32.168 957.539 32.168C960.298 32.168 962.092 33.5938 962.322 36.1695H952.847Z" fill="white"/>
<path d="M973.484 50.198H980.844V33.2718L979.326 28.8563H981.303L984.293 50.198H998.644L1001.73 28.8563H1003.66L1002.19 33.2718V50.198H1009.59V26.9245H994.412L992.48 48.2202H990.503L988.571 26.9245H973.484V50.198Z" fill="white"/>
<path d="M1020.21 24.6248C1022.78 24.6248 1024.62 23.4749 1024.62 20.9912C1024.62 18.5534 1022.78 17.3116 1020.21 17.3116C1017.58 17.3116 1015.93 18.5534 1015.93 20.9912C1015.93 23.4749 1017.58 24.6248 1020.21 24.6248ZM1013.03 38.4693C1013.03 45.7365 1017.91 50.658 1025.77 50.658C1032.95 50.658 1037.5 47.1164 1038.14 41.9649H1030.32C1029.86 43.7587 1028.21 44.7246 1025.77 44.7246C1022.92 44.7246 1021.22 43.1148 1020.94 40.2171H1038.1V38.1473C1038.1 30.8341 1033.45 26.4646 1025.4 26.4646C1018.18 26.4646 1013.03 30.9721 1013.03 38.4693ZM1020.94 36.1695C1021.13 33.5938 1022.92 32.168 1025.63 32.168C1028.39 32.168 1030.19 33.5938 1030.42 36.1695H1020.94ZM1027.33 20.9912C1027.33 23.4749 1028.99 24.6248 1031.61 24.6248C1034.19 24.6248 1035.98 23.4749 1035.98 20.9912C1035.98 18.5534 1034.19 17.3116 1031.61 17.3116C1028.99 17.3116 1027.33 18.5534 1027.33 20.9912Z" fill="white"/>
<path d="M1040.47 38.5153C1040.47 46.4724 1045.9 50.658 1053.31 50.658C1059.98 50.658 1065.77 46.9784 1066.05 40.4471H1058.14C1057.91 42.1949 1056.21 43.7127 1053.31 43.7127C1050.55 43.7127 1048.34 41.9189 1048.34 38.5153C1048.34 35.1576 1050.55 33.4098 1053.31 33.4098C1056.21 33.4098 1057.91 34.9277 1058.14 36.6755H1066.05C1065.77 30.1442 1059.98 26.4646 1053.31 26.4646C1045.9 26.4646 1040.47 30.6041 1040.47 38.5153Z" fill="white"/>
<path d="M1093.39 26.9245H1072.47C1072.47 39.8951 1071.92 43.2528 1067.91 43.2528V50.198C1077.94 50.198 1079.87 44.2187 1080.24 33.8698H1085.48V50.198H1093.39V26.9245Z" fill="white"/>
<path d="M1096.85 43.8507C1096.85 46.2425 1098.09 50.658 1105.45 50.658C1111.98 50.658 1114.19 47.3923 1115.06 43.6207H1117L1115.75 46.4264V46.6564C1115.75 48.9102 1117.09 50.198 1119.34 50.198H1124.68V43.2528H1121.32V36.0775C1121.32 29.3623 1115.52 26.4646 1109.08 26.4646C1102.69 26.4646 1097.54 29.6382 1097.4 35.7556H1104.81C1104.9 33.6858 1106.51 32.4899 1109.36 32.4899C1112.03 32.4899 1113.41 33.4558 1113.41 35.8936L1106.32 36.6755C1099.2 37.4114 1096.85 39.8031 1096.85 43.8507ZM1104.58 42.5169C1104.58 41.229 1105.73 40.999 1107.8 40.6771L1113.41 39.8491C1113.41 42.6548 1110.74 44.4027 1107.47 44.4027C1105.96 44.4027 1104.58 44.0347 1104.58 42.5169Z" fill="white"/>
<path d="M915.773 89.6668H924.145V80.7897H928.56C938.725 80.7897 943.232 77.3861 943.232 69.061C943.232 60.6439 938.725 57.2403 928.56 57.2403H915.773V89.6668ZM924.145 73.4765V64.5535H929.066C933.114 64.5535 934.907 65.6574 934.907 69.061C934.907 72.3726 933.114 73.4765 929.066 73.4765H924.145Z" fill="white"/>
<path d="M944.981 77.984C944.981 86.3091 950.914 90.1267 958.228 90.1267C965.449 90.1267 971.428 86.3091 971.428 77.984C971.428 69.7509 965.449 65.9333 958.228 65.9333C950.914 65.9333 944.981 69.7509 944.981 77.984ZM952.846 77.984C952.846 74.5344 955.008 72.8786 958.228 72.8786C961.355 72.8786 963.517 74.5344 963.517 77.984C963.517 81.4797 961.355 83.1815 958.228 83.1815C955.008 83.1815 952.846 81.4797 952.846 77.984Z" fill="white"/>
<path d="M973.818 77.984C973.818 85.9412 979.245 90.1267 986.65 90.1267C993.32 90.1267 999.115 86.4471 999.391 79.9158H991.48C991.25 81.6636 989.548 83.1815 986.65 83.1815C983.891 83.1815 981.683 81.3877 981.683 77.984C981.683 74.6264 983.891 72.8786 986.65 72.8786C989.548 72.8786 991.25 74.3964 991.48 76.1442H999.391C999.115 69.6129 993.32 65.9333 986.65 65.9333C979.245 65.9333 973.818 70.0729 973.818 77.984Z" fill="white"/>
<path d="M1001.8 77.984C1001.8 85.9412 1007.23 90.1267 1014.63 90.1267C1021.3 90.1267 1027.1 86.4471 1027.37 79.9158H1019.46C1019.23 81.6636 1017.53 83.1815 1014.63 83.1815C1011.87 83.1815 1009.67 81.3877 1009.67 77.984C1009.67 74.6264 1011.87 72.8786 1014.63 72.8786C1017.53 72.8786 1019.23 74.3964 1019.46 76.1442H1027.37C1027.1 69.6129 1021.3 65.9333 1014.63 65.9333C1007.23 65.9333 1001.8 70.0729 1001.8 77.984Z" fill="white"/>
<path d="M1058.9 89.6668V66.3933H1044.46L1038.71 87.689H1036.78L1038.25 83.3195V66.3933H1030.89V89.6668H1045.33L1051.03 68.3251H1053.01L1051.49 72.5106V89.6668H1058.9Z" fill="white"/>
<path d="M1090.7 89.6668V66.3933H1076.26L1070.51 87.689H1068.58L1070.05 83.3195V66.3933H1062.69V89.6668H1077.13L1082.84 68.3251H1084.81L1083.3 72.5106V89.6668H1090.7Z" fill="white"/>
<path d="M0 7.29389C0 3.88488 2.77601 1.12134 6.20039 1.12134H25.2666C40.4195 1.12134 52.7033 13.35 52.7033 28.4349V34.7618H0V7.29389Z" fill="black"/>
<path d="M0 29.9025H28.4075V46.8972C28.4075 50.3102 25.6426 53.077 22.2319 53.077H6.17554C2.76488 53.077 0 50.3102 0 46.8972V29.9025Z" fill="black"/>
<path d="M41.1211 15.2199C41.1211 11.7686 43.897 8.97076 47.3213 8.97076H204.807C215.765 8.97076 224.648 17.9239 224.648 28.9681V48.9655H41.1211V15.2199Z" fill="black"/>
<path d="M17.1914 29.9025H44.4775V43.3587H17.1914V29.9025Z" fill="black"/>
<path d="M28.4062 28.0337H194.739V47.2516C194.739 50.6754 191.961 53.4509 188.533 53.4509H49.1979C37.715 53.4509 28.4062 44.1529 28.4062 32.6832V28.0337Z" fill="black"/>
<path d="M185.395 26.1647H222.559C225.98 26.1647 228.753 28.9412 228.753 32.3661V47.2495C228.753 50.6744 225.98 53.4509 222.559 53.4509H185.395V26.1647Z" fill="black"/>
<path d="M99.0469 14.9513V14.9513C99.0469 6.69395 105.701 2.83116e-05 113.909 2.79528e-05L125.675 2.74385e-05C133.883 2.70798e-05 140.537 6.69395 140.537 14.9513V14.9513L99.0469 14.9513Z" fill="black"/>
<path d="M9.72266 43.2736H18.0804V34.4178H22.4889C32.6376 34.4178 37.138 31.0223 37.138 22.7171C37.138 14.3202 32.6376 10.9247 22.4889 10.9247H9.72266V43.2736ZM18.0804 27.1221V18.2204H22.9941C27.0352 18.2204 28.8261 19.3217 28.8261 22.7171C28.8261 26.0209 27.0352 27.1221 22.9941 27.1221H18.0804Z" fill="white"/>
<path d="M38.8389 31.573C38.8389 38.8228 43.7066 43.7325 51.5592 43.7325C58.723 43.7325 63.2692 40.1993 63.9121 35.0602H56.1054C55.6462 36.8497 53.993 37.8133 51.5592 37.8133C48.712 37.8133 47.0129 36.2073 46.7374 33.3166H63.8662V31.2518C63.8662 23.956 59.2281 19.597 51.1918 19.597C43.9821 19.597 38.8389 24.0937 38.8389 31.573ZM46.7374 29.2787C46.9211 26.7091 48.712 25.2867 51.4214 25.2867C54.1767 25.2867 55.9677 26.7091 56.1973 29.2787H46.7374Z" fill="white"/>
<path d="M67.3416 43.2736H74.6891V26.3879L73.1736 21.983H75.1483L78.1332 43.2736H92.4608L95.5375 21.983H97.4663L95.9968 26.3879V43.2736H103.39V20.0558H88.236L86.3073 41.3006H84.3326L82.4039 20.0558H67.3416V43.2736Z" fill="white"/>
<path d="M113.988 17.7616C116.56 17.7616 118.397 16.6144 118.397 14.1367C118.397 11.7047 116.56 10.4659 113.988 10.4659C111.371 10.4659 109.718 11.7047 109.718 14.1367C109.718 16.6144 111.371 17.7616 113.988 17.7616ZM106.825 31.573C106.825 38.8228 111.692 43.7325 119.545 43.7325C126.709 43.7325 131.255 40.1993 131.898 35.0602H124.091C123.632 36.8497 121.979 37.8133 119.545 37.8133C116.698 37.8133 114.999 36.2073 114.723 33.3166H131.852V31.2518C131.852 23.956 127.214 19.597 119.178 19.597C111.968 19.597 106.825 24.0937 106.825 31.573ZM114.723 29.2787C114.907 26.7091 116.698 25.2867 119.407 25.2867C122.162 25.2867 123.953 26.7091 124.183 29.2787H114.723ZM121.106 14.1367C121.106 16.6144 122.759 17.7616 125.377 17.7616C127.949 17.7616 129.74 16.6144 129.74 14.1367C129.74 11.7047 127.949 10.4659 125.377 10.4659C122.759 10.4659 121.106 11.7047 121.106 14.1367Z" fill="white"/>
<path d="M134.225 31.6188C134.225 39.5569 139.644 43.7325 147.037 43.7325C153.696 43.7325 159.482 40.0617 159.758 33.546H151.859C151.63 35.2896 149.93 36.8038 147.037 36.8038C144.282 36.8038 142.078 35.0143 142.078 31.6188C142.078 28.2692 144.282 26.5256 147.037 26.5256C149.93 26.5256 151.63 28.0398 151.859 29.7834H159.758C159.482 23.2678 153.696 19.597 147.037 19.597C139.644 19.597 134.225 23.7266 134.225 31.6188Z" fill="white"/>
<path d="M187.061 20.0558H166.167C166.167 32.9954 165.616 36.345 161.62 36.345V43.2736C171.631 43.2736 173.56 37.3086 173.927 26.9845H179.163V43.2736H187.061V20.0558Z" fill="white"/>
<path d="M190.511 36.9415C190.511 39.3275 191.75 43.7325 199.098 43.7325C205.619 43.7325 207.823 40.4746 208.696 36.7121H210.624L209.384 39.5111V39.7405C209.384 41.9889 210.716 43.2736 212.966 43.2736H218.293V36.345H214.941V29.1869C214.941 22.4877 209.155 19.597 202.726 19.597C196.343 19.597 191.199 22.763 191.062 28.8657H198.455C198.547 26.8009 200.154 25.6079 203.001 25.6079C205.665 25.6079 207.042 26.5715 207.042 29.0034L199.97 29.7834C192.853 30.5176 190.511 32.9036 190.511 36.9415ZM198.225 35.6108C198.225 34.3261 199.373 34.0966 201.44 33.7754L207.042 32.9495C207.042 35.7485 204.379 37.4921 201.119 37.4921C199.603 37.4921 198.225 37.125 198.225 35.6108Z" fill="white"/>
<path d="M140.555 55.2066C140.555 51.7597 143.331 48.9655 146.755 48.9655H165.821C180.974 48.9655 193.258 61.33 193.258 76.5825V82.9797H140.555V55.2066Z" fill="black"/>
<path d="M140.555 78.1205H168.962V95.1152C168.962 98.5282 166.197 101.295 162.787 101.295H146.73C143.32 101.295 140.555 98.5282 140.555 95.1152V78.1205Z" fill="black"/>
<path d="M181.297 63.3794C181.297 59.9603 184.077 57.1886 187.506 57.1886H329.086C332.515 57.1886 335.295 59.9603 335.295 63.3794V96.8096H181.297V63.3794Z" fill="black"/>
<path d="M157.746 78.1205H184.658V91.5767H157.746V78.1205Z" fill="black"/>
<path d="M168.961 76.2516H335.294V95.4694C335.294 98.8932 332.515 101.669 329.088 101.669H189.753C178.27 101.669 168.961 92.3707 168.961 80.901V76.2516Z" fill="black"/>
<path d="M150.262 91.4905H158.615V82.6117H163.021C173.165 82.6117 177.663 79.2074 177.663 70.8807C177.663 62.462 173.165 59.0577 163.021 59.0577H150.262V91.4905ZM158.615 75.2971V66.3723H163.526C167.565 66.3723 169.355 67.4764 169.355 70.8807C169.355 74.193 167.565 75.2971 163.526 75.2971H158.615Z" fill="white"/>
<path d="M179.407 79.8055C179.407 88.1322 185.328 91.9505 192.626 91.9505C199.832 91.9505 205.799 88.1322 205.799 79.8055C205.799 71.5708 199.832 67.7524 192.626 67.7524C185.328 67.7524 179.407 71.5708 179.407 79.8055ZM187.256 79.8055C187.256 76.3552 189.413 74.699 192.626 74.699C195.747 74.699 197.904 76.3552 197.904 79.8055C197.904 83.3018 195.747 85.0039 192.626 85.0039C189.413 85.0039 187.256 83.3018 187.256 79.8055Z" fill="white"/>
<path d="M208.183 79.8055C208.183 87.7642 213.599 91.9505 220.988 91.9505C227.644 91.9505 233.427 88.2702 233.702 81.7377H225.808C225.578 83.4858 223.88 85.0039 220.988 85.0039C218.235 85.0039 216.032 83.2098 216.032 79.8055C216.032 76.4472 218.235 74.699 220.988 74.699C223.88 74.699 225.578 76.2172 225.808 77.9653H233.702C233.427 71.4328 227.644 67.7524 220.988 67.7524C213.599 67.7524 208.183 71.8928 208.183 79.8055Z" fill="white"/>
<path d="M236.107 79.8055C236.107 87.7642 241.523 91.9505 248.912 91.9505C255.568 91.9505 261.351 88.2702 261.626 81.7377H253.732C253.502 83.4858 251.804 85.0039 248.912 85.0039C246.159 85.0039 243.956 83.2098 243.956 79.8055C243.956 76.4472 246.159 74.699 248.912 74.699C251.804 74.699 253.502 76.2172 253.732 77.9653H261.626C261.351 71.4328 255.568 67.7524 248.912 67.7524C241.523 67.7524 236.107 71.8928 236.107 79.8055Z" fill="white"/>
<path d="M293.084 91.4905V68.2125H278.672L272.935 89.5123H271.008L272.476 85.1419V68.2125H265.133V91.4905H279.544L285.236 70.1446H287.209L285.695 74.331V91.4905H293.084Z" fill="white"/>
<path d="M324.818 91.4905V68.2125H310.406L304.669 89.5123H302.741L304.21 85.1419V68.2125H296.866V91.4905H311.278L316.97 70.1446H318.943L317.429 74.331V91.4905H324.818Z" fill="white"/>
<path d="M411 34.2939C411 30.8849 413.776 28.1213 417.2 28.1213H436.267C451.419 28.1213 463.703 40.35 463.703 55.4349V61.7617H411V34.2939Z" fill="black"/>
<path d="M411 56.9025H439.407V73.8971C439.407 77.3102 436.643 80.077 433.232 80.077H417.176C413.765 80.077 411 77.3102 411 73.8971V56.9025Z" fill="black"/>
<path d="M452.121 42.2199C452.121 38.7686 454.897 35.9707 458.321 35.9707H615.807C626.765 35.9707 635.648 44.9238 635.648 55.9681V75.9654H452.121V42.2199Z" fill="black"/>
<path d="M428.191 56.9025H455.478V70.3587H428.191V56.9025Z" fill="black"/>
<path d="M439.406 55.0337H605.739V74.2515C605.739 77.6753 602.961 80.4509 599.533 80.4509H460.198C448.715 80.4509 439.406 71.1528 439.406 59.6831V55.0337Z" fill="black"/>
<path d="M596.395 53.1647H633.559C636.98 53.1647 639.753 55.9412 639.753 59.3661V74.2495C639.753 77.6744 636.98 80.4509 633.559 80.4509H596.395V53.1647Z" fill="black"/>
<path d="M510.047 41.9513V41.9513C510.047 33.6939 516.701 27 524.909 27L536.675 27C544.883 27 551.537 33.6939 551.537 41.9513V41.9513L510.047 41.9513Z" fill="black"/>
<path d="M420.723 70.2736H429.08V61.4178H433.489C443.638 61.4178 448.138 58.0223 448.138 49.7171C448.138 41.3202 443.638 37.9247 433.489 37.9247H420.723V70.2736ZM429.08 54.1221V45.2204H433.994C438.035 45.2204 439.826 46.3216 439.826 49.7171C439.826 53.0208 438.035 54.1221 433.994 54.1221H429.08Z" fill="white"/>
<path d="M449.839 58.5729C449.839 65.8228 454.707 70.7325 462.559 70.7325C469.723 70.7325 474.269 67.1993 474.912 62.0602H467.105C466.646 63.8497 464.993 64.8133 462.559 64.8133C459.712 64.8133 458.013 63.2073 457.737 60.3166H474.866V58.2517C474.866 50.956 470.228 46.5969 462.192 46.5969C454.982 46.5969 449.839 51.0937 449.839 58.5729ZM457.737 56.2787C457.921 53.7091 459.712 52.2867 462.421 52.2867C465.177 52.2867 466.968 53.7091 467.197 56.2787H457.737Z" fill="white"/>
<path d="M478.342 70.2736H485.689V53.3879L484.174 48.983H486.148L489.133 70.2736H503.461L506.538 48.983H508.466L506.997 53.3879V70.2736H514.39V47.0558H499.236L497.307 68.3005H495.333L493.404 47.0558H478.342V70.2736Z" fill="white"/>
<path d="M524.988 44.7615C527.56 44.7615 529.397 43.6144 529.397 41.1366C529.397 38.7047 527.56 37.4658 524.988 37.4658C522.371 37.4658 520.718 38.7047 520.718 41.1366C520.718 43.6144 522.371 44.7615 524.988 44.7615ZM517.825 58.5729C517.825 65.8228 522.692 70.7325 530.545 70.7325C537.709 70.7325 542.255 67.1993 542.898 62.0602H535.091C534.632 63.8497 532.979 64.8133 530.545 64.8133C527.698 64.8133 525.999 63.2073 525.723 60.3166H542.852V58.2517C542.852 50.956 538.214 46.5969 530.178 46.5969C522.968 46.5969 517.825 51.0937 517.825 58.5729ZM525.723 56.2787C525.907 53.7091 527.698 52.2867 530.407 52.2867C533.162 52.2867 534.953 53.7091 535.183 56.2787H525.723ZM532.106 41.1366C532.106 43.6144 533.759 44.7615 536.377 44.7615C538.949 44.7615 540.74 43.6144 540.74 41.1366C540.74 38.7047 538.949 37.4658 536.377 37.4658C533.759 37.4658 532.106 38.7047 532.106 41.1366Z" fill="white"/>
<path d="M545.225 58.6188C545.225 66.5569 550.644 70.7325 558.037 70.7325C564.696 70.7325 570.482 67.0617 570.758 60.546H562.859C562.63 62.2896 560.93 63.8038 558.037 63.8038C555.282 63.8038 553.078 62.0143 553.078 58.6188C553.078 55.2692 555.282 53.5256 558.037 53.5256C560.93 53.5256 562.63 55.0398 562.859 56.7834H570.758C570.482 50.2677 564.696 46.5969 558.037 46.5969C550.644 46.5969 545.225 50.7266 545.225 58.6188Z" fill="white"/>
<path d="M598.061 47.0558H577.167C577.167 59.9954 576.616 63.345 572.62 63.345V70.2736C582.631 70.2736 584.56 64.3086 584.927 53.9844H590.163V70.2736H598.061V47.0558Z" fill="white"/>
<path d="M601.511 63.9415C601.511 66.3275 602.75 70.7325 610.098 70.7325C616.619 70.7325 618.823 67.4746 619.696 63.712H621.624L620.384 66.511V66.7405C620.384 68.9888 621.716 70.2736 623.966 70.2736H629.293V63.345H625.941V56.1869C625.941 49.4877 620.155 46.5969 613.726 46.5969C607.343 46.5969 602.199 49.763 602.062 55.8657H609.455C609.547 53.8009 611.154 52.6079 614.001 52.6079C616.665 52.6079 618.042 53.5715 618.042 56.0034L610.97 56.7834C603.853 57.5176 601.511 59.9036 601.511 63.9415ZM609.225 62.6108C609.225 61.326 610.373 61.0966 612.44 60.7754L618.042 59.9495C618.042 62.7485 615.379 64.4921 612.119 64.4921C610.603 64.4921 609.225 64.125 609.225 62.6108Z" fill="white"/>
<path d="M635.453 33.9338C635.453 30.4869 638.229 27.6927 641.654 27.6927H660.72C675.873 27.6927 688.156 40.0573 688.156 55.3097V61.7069H635.453V33.9338Z" fill="black"/>
<path d="M635.453 56.8477H663.861V73.8424C663.861 77.2554 661.096 80.0223 657.685 80.0223H641.629C638.218 80.0223 635.453 77.2554 635.453 73.8424V56.8477Z" fill="black"/>
<path d="M676.195 42.1066C676.195 38.6876 678.975 35.9159 682.405 35.9159H823.984C827.414 35.9159 830.194 38.6876 830.194 42.1066V75.5368H676.195V42.1066Z" fill="black"/>
<path d="M652.645 56.8477H679.557V70.3039H652.645V56.8477Z" fill="black"/>
<path d="M663.859 54.9788H830.193V74.1967C830.193 77.6205 827.414 80.396 823.986 80.396H684.651C673.168 80.396 663.859 71.098 663.859 59.6283V54.9788Z" fill="black"/>
<path d="M645.16 70.2177H653.514V61.3389H657.92C668.063 61.3389 672.561 57.9346 672.561 49.6079C672.561 41.1892 668.063 37.7849 657.92 37.7849H645.16V70.2177ZM653.514 54.0243V45.0995H658.425C662.464 45.0995 664.254 46.2036 664.254 49.6079C664.254 52.9202 662.464 54.0243 658.425 54.0243H653.514Z" fill="white"/>
<path d="M674.306 58.5327C674.306 66.8594 680.227 70.6777 687.524 70.6777C694.73 70.6777 700.697 66.8594 700.697 58.5327C700.697 50.298 694.73 46.4796 687.524 46.4796C680.227 46.4796 674.306 50.298 674.306 58.5327ZM682.154 58.5327C682.154 55.0824 684.312 53.4262 687.524 53.4262C690.645 53.4262 692.803 55.0824 692.803 58.5327C692.803 62.029 690.645 63.7311 687.524 63.7311C684.312 63.7311 682.154 62.029 682.154 58.5327Z" fill="white"/>
<path d="M703.081 58.5327C703.081 66.4914 708.497 70.6777 715.887 70.6777C722.542 70.6777 728.325 66.9974 728.601 60.4649H720.706C720.477 62.213 718.778 63.7311 715.887 63.7311C713.133 63.7311 710.93 61.937 710.93 58.5327C710.93 55.1744 713.133 53.4262 715.887 53.4262C718.778 53.4262 720.477 54.9444 720.706 56.6925H728.601C728.325 50.16 722.542 46.4796 715.887 46.4796C708.497 46.4796 703.081 50.62 703.081 58.5327Z" fill="white"/>
<path d="M731.005 58.5327C731.005 66.4914 736.421 70.6777 743.811 70.6777C750.466 70.6777 756.249 66.9974 756.525 60.4649H748.63C748.401 62.213 746.702 63.7311 743.811 63.7311C741.057 63.7311 738.854 61.937 738.854 58.5327C738.854 55.1744 741.057 53.4262 743.811 53.4262C746.702 53.4262 748.401 54.9444 748.63 56.6925H756.525C756.249 50.16 750.466 46.4796 743.811 46.4796C736.421 46.4796 731.005 50.62 731.005 58.5327Z" fill="white"/>
<path d="M787.983 70.2177V46.9397H773.571L767.834 68.2395H765.906L767.375 63.8691V46.9397H760.031V70.2177H774.443L780.134 48.8718H782.108L780.593 53.0582V70.2177H787.983Z" fill="white"/>
<path d="M819.717 70.2177V46.9397H805.305L799.568 68.2395H797.64L799.109 63.8691V46.9397H791.765V70.2177H806.177L811.868 48.8718H813.842L812.327 53.0582V70.2177H819.717Z" fill="white"/>
</svg>
