<svg width="1134" height="271" viewBox="0 0 1134 271" fill="none" xmlns="http://www.w3.org/2000/svg">
<path d="M322.327 77.59L334.094 64.88L322.327 52.17L319.17 55.409L325.73 62.42H305.763V67.34H325.73L319.17 74.351L322.327 77.59Z" fill="black"/>
<path d="M752.327 77.59L764.094 64.88L752.327 52.17L749.17 55.409L755.73 62.42H735.763V67.34H755.73L749.17 74.351L752.327 77.59Z" fill="black"/>
<path d="M709 62C709 96.2417 631.098 124 535 124C438.902 124 361 96.2417 361 62C361 27.7583 438.902 0 535 0C631.098 0 709 27.7583 709 62Z" fill="#FFCFDA"/>
<path d="M1134 62C1134 96.2417 1056.55 124 961 124C865.455 124 788 96.2417 788 62C788 27.7583 865.455 0 961 0C1056.55 0 1134 27.7583 1134 62Z" fill="#FFCFDA"/>
<path d="M29.7204 25H8.33167C8.33167 37.2909 6.54928 44.9988 4.02076 47.707H3.8135C1.32644 47.707 0 49.0819 0 51.54V60.2895H7.5441V54.3732H26.9432V60.2895H34.4873V51.54C34.4873 49.0819 33.1609 47.707 30.6738 47.707H29.7204V25ZM11.3991 47.707C13.5545 45.7071 15.1297 40.1657 15.6685 31.6246H22.1763V47.707H11.3991Z" fill="black"/>
<path d="M48.7226 37.5826H44.1629V33.2912H37.0748V54.3732H48.7226C53.6138 54.3732 59.0439 52.9983 59.0439 45.9987C59.0439 38.9991 53.6138 37.5826 48.7226 37.5826ZM44.1629 48.4569V43.5405H48.308C50.9609 43.5405 51.9143 43.8739 51.9143 45.9987C51.9143 48.1653 50.9609 48.4569 48.308 48.4569H44.1629ZM61.7382 54.3732H68.8263V33.2912H61.7382V54.3732Z" fill="black"/>
<path d="M72.1301 54.3732H78.7623V35.4994L82.1198 54.3732H94.6381L97.9956 35.7493V54.3732H104.669V33.2912H91.4878L88.379 52.3317L85.2287 33.2912H72.1301V54.3732Z" fill="black"/>
<path d="M108.036 33.2912V54.3732H115.124V46.2904L121.507 54.3732H130.253L121.59 43.8322L126.067 39.5824H129.424V33.2912H125.611C123.746 33.2912 122.295 33.7078 121.01 34.9994L115.248 40.7074H115.124V33.2912H108.036Z" fill="black"/>
<path d="M131.167 43.7905C131.167 51.3317 136.514 54.7899 143.104 54.7899C149.612 54.7899 155.001 51.3317 155.001 43.7905C155.001 36.3326 149.612 32.8745 143.104 32.8745C136.514 32.8745 131.167 36.3326 131.167 43.7905ZM138.255 43.7905C138.255 40.6657 140.203 39.1658 143.104 39.1658C145.923 39.1658 147.871 40.6657 147.871 43.7905C147.871 46.957 145.923 48.4986 143.104 48.4986C140.203 48.4986 138.255 46.957 138.255 43.7905Z" fill="black"/>
<path d="M158.149 54.3732H170.792C176.139 54.3732 179.745 52.8316 179.745 48.5819C179.745 45.2071 176.885 43.7489 173.735 43.4572C175.932 43.0822 178.212 41.6657 178.212 38.5825C178.212 34.3744 174.605 33.2912 169.258 33.2912H158.149V54.3732ZM164.781 49.5402V46.082H170.792C172.408 46.082 173.072 46.4987 173.072 47.7486C173.072 49.0402 172.408 49.5402 170.792 49.5402H164.781ZM164.781 41.1657V38.1242H169.258C170.875 38.1242 171.538 38.5408 171.538 39.6658C171.538 40.874 170.875 41.1657 169.258 41.1657H164.781Z" fill="black"/>
<path d="M181.766 43.7905C181.766 50.9984 186.657 54.7899 193.331 54.7899C199.341 54.7899 204.564 51.4567 204.813 45.5404H197.683C197.476 47.1237 195.942 48.4986 193.331 48.4986C190.844 48.4986 188.854 46.8737 188.854 43.7905C188.854 40.749 190.844 39.1658 193.331 39.1658C195.942 39.1658 197.476 40.5407 197.683 42.124H204.813C204.564 36.2077 199.341 32.8745 193.331 32.8745C186.657 32.8745 181.766 36.6243 181.766 43.7905Z" fill="black"/>
<path d="M207.98 33.2912V54.3732H215.068V46.2904L221.451 54.3732H230.197L221.534 43.8322L226.011 39.5824H229.368V33.2912H225.555C223.69 33.2912 222.239 33.7078 220.954 34.9994L215.192 40.7074H215.068V33.2912H207.98Z" fill="black"/>
<path d="M231.438 48.6236C231.438 50.7901 232.558 54.7899 239.19 54.7899C245.283 54.7899 247.521 52.165 248.475 49.0402V51.1651C248.475 53.2066 249.677 54.3732 251.708 54.3732H256.516V48.0819H253.49V42.2906C253.49 35.4994 248.558 32.8745 242.755 32.8745C236.993 32.8745 232.06 35.7493 231.936 41.2907H238.609C238.692 39.4158 239.894 38.3325 242.464 38.3325C245.283 38.3325 246.361 39.2075 246.361 41.4157L239.977 42.124C233.552 42.7906 231.438 44.9571 231.438 48.6236ZM238.402 47.4153C238.402 46.2487 239.438 46.0404 241.304 45.7487L246.361 44.9988C246.361 47.5403 243.957 49.1235 241.014 49.1235C239.646 49.1235 238.402 48.7902 238.402 47.4153Z" fill="black"/>
<path d="M279 54.3732V33.2912H266.648C262.71 33.2912 258.648 34.7911 258.648 39.9158C258.648 44.1238 261.383 45.4988 263.87 45.9571L261.508 48.5819H258.44V54.3732H261.425C263.331 54.3732 264.368 53.4983 265.819 52.04L271.332 46.1654H271.87V54.3732H279ZM265.736 39.7074C265.736 38.5408 266.399 37.6659 268.513 37.6659H271.87V41.749H268.513C266.399 41.749 265.736 40.874 265.736 39.7074Z" fill="black"/>
<path d="M74.7458 90.1255V69.0435H62.3519L56.1342 87.834V69.0435H49.502V90.1255H61.8959L68.0721 71.2934V90.1255H74.7458Z" fill="black"/>
<path d="M77.9592 72.6683V90.1255H85.0888V75.3348H95.7003V69.0435H81.6483C79.2856 69.0435 77.9592 70.2934 77.9592 72.6683Z" fill="black"/>
<path d="M98.199 98.875H105.287V86.0841C106.448 88.2923 108.645 90.5422 113.246 90.5422C120.044 90.5422 122.904 85.5425 122.904 79.6262C122.904 73.6682 120.044 68.6268 113.246 68.6268C108.893 68.6268 106.572 70.6684 105.287 73.0849V69.0435H98.199V98.875ZM105.329 79.6262C105.329 76.3347 107.07 74.9181 110.51 74.9181C113.992 74.9181 115.816 76.3764 115.816 79.6262C115.816 82.876 113.992 84.2509 110.51 84.2509C107.07 84.2509 105.329 82.8343 105.329 79.6262Z" fill="black"/>
<path d="M141.214 69.0435L136.074 80.5845L130.851 69.0435H122.851L132.467 88.709V92.5004H125.379V99H136.074C138.312 99 139.638 97.7917 139.638 95.3752V88.709L149.297 69.0435H141.214Z" fill="black"/>
<path d="M151.227 90.1255H180.616V69.0435H173.528V83.8343H169.466V69.0435H162.378V83.8343H158.315V69.0435H151.227V90.1255Z" fill="black"/>
<path d="M184.016 69.0435V90.1255H191.104V82.0427L197.487 90.1255H206.234L197.57 79.5845L202.047 75.3348H205.405V69.0435H201.591C199.726 69.0435 198.275 69.4601 196.99 70.7517L191.228 76.4597H191.104V69.0435H184.016Z" fill="black"/>
<path d="M207.474 84.3759C207.474 86.5424 208.594 90.5422 215.226 90.5422C221.319 90.5422 223.558 87.9173 224.511 84.7925V86.9174C224.511 88.9589 225.713 90.1255 227.744 90.1255H232.552V83.8343H229.526V78.0429C229.526 71.2517 224.594 68.6268 218.791 68.6268C213.029 68.6268 208.096 71.5017 207.972 77.043H214.646C214.728 75.1681 215.931 74.0849 218.5 74.0849C221.319 74.0849 222.397 74.9598 222.397 77.168L216.013 77.8763C209.588 78.5429 207.474 80.7094 207.474 84.3759ZM214.438 83.1676C214.438 82.001 215.475 81.7927 217.34 81.5011L222.397 80.7511C222.397 83.2926 219.993 84.8759 217.05 84.8759C215.682 84.8759 214.438 84.5425 214.438 83.1676Z" fill="black"/>
<path d="M851.614 30H830.302C830.302 42.457 828.526 50.269 826.006 53.0138H825.8C823.322 53.0138 822 54.4073 822 56.8987V65.7664H829.517V59.7701H848.847V65.7664H856.364V56.8987C856.364 54.4073 855.042 53.0138 852.564 53.0138H851.614V30ZM833.358 53.0138C835.506 50.9869 837.075 45.3707 837.612 36.7141H844.097V53.0138H833.358Z" fill="black"/>
<path d="M870.548 42.7526H866.005V38.4032H858.942V59.7701H870.548C875.422 59.7701 880.832 58.3767 880.832 51.2825C880.832 44.1883 875.422 42.7526 870.548 42.7526ZM866.005 53.7739V48.7911H870.135C872.778 48.7911 873.728 49.1289 873.728 51.2825C873.728 53.4783 872.778 53.7739 870.135 53.7739H866.005ZM883.517 59.7701H890.58V38.4032H883.517V59.7701Z" fill="black"/>
<path d="M893.872 59.7701H900.48V40.6412L903.825 59.7701H916.299L919.644 40.8946V59.7701H926.294V38.4032H913.16L910.062 57.701L906.923 38.4032H893.872V59.7701Z" fill="black"/>
<path d="M929.648 38.4032V59.7701H936.711V51.5781L943.072 59.7701H951.786L943.154 49.0867L947.615 44.7795H950.96V38.4032H947.161C945.302 38.4032 943.856 38.8255 942.576 40.1345L936.835 45.9196H936.711V38.4032H929.648Z" fill="black"/>
<path d="M952.696 49.0444C952.696 56.6876 958.024 60.1924 964.592 60.1924C971.076 60.1924 976.445 56.6876 976.445 49.0444C976.445 41.4858 971.076 37.9809 964.592 37.9809C958.024 37.9809 952.696 41.4858 952.696 49.0444ZM959.759 49.0444C959.759 45.8774 961.7 44.3572 964.592 44.3572C967.4 44.3572 969.341 45.8774 969.341 49.0444C969.341 52.2537 967.4 53.8161 964.592 53.8161C961.7 53.8161 959.759 52.2537 959.759 49.0444Z" fill="black"/>
<path d="M979.582 59.7701H992.18C997.508 59.7701 1001.1 58.2077 1001.1 53.9006C1001.1 50.4802 998.251 49.0022 995.112 48.7066C997.301 48.3266 999.573 46.8909 999.573 43.7661C999.573 39.5011 995.98 38.4032 990.652 38.4032H979.582V59.7701ZM986.191 54.8718V51.3669H992.18C993.791 51.3669 994.451 51.7892 994.451 53.056C994.451 54.3651 993.791 54.8718 992.18 54.8718H986.191ZM986.191 46.3841V43.3016H990.652C992.262 43.3016 992.923 43.7238 992.923 44.864C992.923 46.0885 992.262 46.3841 990.652 46.3841H986.191Z" fill="black"/>
<path d="M1003.11 49.0444C1003.11 56.3497 1007.99 60.1924 1014.64 60.1924C1020.63 60.1924 1025.83 56.8142 1026.08 50.818H1018.97C1018.77 52.4226 1017.24 53.8161 1014.64 53.8161C1012.16 53.8161 1010.18 52.1693 1010.18 49.0444C1010.18 45.9619 1012.16 44.3572 1014.64 44.3572C1017.24 44.3572 1018.77 45.7507 1018.97 47.3554H1026.08C1025.83 41.3591 1020.63 37.9809 1014.64 37.9809C1007.99 37.9809 1003.11 41.7814 1003.11 49.0444Z" fill="black"/>
<path d="M1029.23 38.4032V59.7701H1036.3V51.5781L1042.66 59.7701H1051.37L1042.74 49.0867L1047.2 44.7795H1050.55V38.4032H1046.75C1044.89 38.4032 1043.44 38.8255 1042.16 40.1345L1036.42 45.9196H1036.3V38.4032H1029.23Z" fill="black"/>
<path d="M1052.61 53.9428C1052.61 56.1386 1053.72 60.1924 1060.33 60.1924C1066.4 60.1924 1068.63 57.5321 1069.58 54.3651V56.5187C1069.58 58.5878 1070.78 59.7701 1072.81 59.7701H1077.6V53.3938H1074.58V47.5243C1074.58 40.6412 1069.67 37.9809 1063.88 37.9809C1058.14 37.9809 1053.23 40.8946 1053.1 46.5108H1059.75C1059.84 44.6106 1061.03 43.5127 1063.6 43.5127C1066.4 43.5127 1067.48 44.3995 1067.48 46.6375L1061.12 47.3554C1054.72 48.031 1052.61 50.2268 1052.61 53.9428ZM1059.55 52.7182C1059.55 51.5359 1060.58 51.3247 1062.44 51.0291L1067.48 50.269C1067.48 52.8449 1065.08 54.4495 1062.15 54.4495C1060.79 54.4495 1059.55 54.1117 1059.55 52.7182Z" fill="black"/>
<path d="M1100 59.7701V38.4032H1087.69C1083.77 38.4032 1079.72 39.9234 1079.72 45.1173C1079.72 49.3823 1082.45 50.7758 1084.92 51.2403L1082.57 53.9006H1079.51V59.7701H1082.49C1084.39 59.7701 1085.42 58.8834 1086.87 57.4054L1092.36 51.4514H1092.9V59.7701H1100ZM1086.78 44.9062C1086.78 43.7238 1087.44 42.8371 1089.55 42.8371H1092.9V46.9753H1089.55C1087.44 46.9753 1086.78 46.0885 1086.78 44.9062Z" fill="black"/>
<path d="M896.478 96.0056V74.6387H884.128L877.933 93.6831V74.6387H871.325V96.0056H883.674L889.828 76.9189V96.0056H896.478Z" fill="black"/>
<path d="M899.68 78.3124V96.0056H906.784V81.015H917.357V74.6387H903.356C901.001 74.6387 899.68 75.9055 899.68 78.3124Z" fill="black"/>
<path d="M919.847 104.873H926.91V91.9096C928.066 94.1476 930.255 96.4279 934.84 96.4279C941.613 96.4279 944.463 91.3606 944.463 85.3644C944.463 79.3259 941.613 74.2164 934.84 74.2164C930.503 74.2164 928.19 76.2855 926.91 78.7347V74.6387H919.847V104.873ZM926.951 85.3644C926.951 82.0284 928.686 80.5927 932.114 80.5927C935.583 80.5927 937.401 82.0707 937.401 85.3644C937.401 88.6581 935.583 90.0516 932.114 90.0516C928.686 90.0516 926.951 88.6159 926.951 85.3644Z" fill="black"/>
<path d="M962.707 74.6387L957.586 86.3356L952.382 74.6387H944.41L953.993 94.5699V98.4126H946.93V105H957.586C959.816 105 961.138 103.775 961.138 101.326V94.5699L970.761 74.6387H962.707Z" fill="black"/>
<path d="M972.685 96.0056H1001.97V74.6387H994.906V89.6293H990.858V74.6387H983.796V89.6293H979.748V74.6387H972.685V96.0056Z" fill="black"/>
<path d="M1005.36 74.6387V96.0056H1012.42V87.8135L1018.78 96.0056H1027.49L1018.86 85.3221L1023.32 81.015H1026.67V74.6387H1022.87C1021.01 74.6387 1019.56 75.0609 1018.28 76.37L1012.54 82.1551H1012.42V74.6387H1005.36Z" fill="black"/>
<path d="M1028.73 90.1783C1028.73 92.3741 1029.85 96.4279 1036.45 96.4279C1042.53 96.4279 1044.76 93.7676 1045.71 90.6005V92.7541C1045.71 94.8233 1046.9 96.0056 1048.93 96.0056H1053.72V89.6293H1050.7V83.7597C1050.7 76.8767 1045.79 74.2164 1040.01 74.2164C1034.27 74.2164 1029.35 77.1301 1029.23 82.7463H1035.88C1035.96 80.8461 1037.16 79.7482 1039.72 79.7482C1042.53 79.7482 1043.6 80.6349 1043.6 82.873L1037.24 83.5908C1030.84 84.2665 1028.73 86.4623 1028.73 90.1783ZM1035.67 88.9537C1035.67 87.7713 1036.7 87.5602 1038.56 87.2646L1043.6 86.5045C1043.6 89.0804 1041.2 90.685 1038.27 90.685C1036.91 90.685 1035.67 90.3472 1035.67 88.9537Z" fill="black"/>
<path d="M337.327 253.59L349.094 240.88L337.327 228.17L334.17 231.409L340.73 238.42H320.763V243.34H340.73L334.17 250.351L337.327 253.59Z" fill="black"/>
<path d="M745.327 253.59L757.094 240.88L745.327 228.17L742.17 231.409L748.73 238.42H728.763V243.34H748.73L742.17 250.351L745.327 253.59Z" fill="black"/>
<path d="M0 225V254.099H7.51201V243.285H20.2659V254.099H27.8192V225H20.2659V236.681H7.51201V225H0Z" fill="black"/>
<path d="M31.0509 248.403C31.0509 250.549 32.1653 254.511 38.7693 254.511C44.8367 254.511 47.0655 251.911 48.0148 248.816V250.921C48.0148 252.943 49.2118 254.099 51.2343 254.099H56.0221V247.866H53.0091V242.129C53.0091 235.401 48.0974 232.801 42.3189 232.801C36.5817 232.801 31.67 235.649 31.5462 241.138H38.1914C38.274 239.281 39.471 238.208 42.03 238.208C44.8367 238.208 45.9098 239.075 45.9098 241.262L39.5535 241.964C33.1559 242.624 31.0509 244.771 31.0509 248.403ZM37.9851 247.206C37.9851 246.05 39.0169 245.844 40.8743 245.555L45.9098 244.812C45.9098 247.33 43.5159 248.898 40.5854 248.898C39.2233 248.898 37.9851 248.568 37.9851 247.206Z" fill="black"/>
<path d="M58.6405 254.099H87.9043V233.214H80.8464V247.866H76.8014V233.214H69.7434V247.866H65.6985V233.214H58.6405V254.099Z" fill="black"/>
<path d="M90.988 248.403C90.988 250.549 92.1024 254.511 98.7064 254.511C104.774 254.511 107.003 251.911 107.952 248.816V250.921C107.952 252.943 109.149 254.099 111.171 254.099H115.959V247.866H112.946V242.129C112.946 235.401 108.035 232.801 102.256 232.801C96.5189 232.801 91.6071 235.649 91.4833 241.138H98.1286C98.2111 239.281 99.4081 238.208 101.967 238.208C104.774 238.208 105.847 239.075 105.847 241.262L99.4906 241.964C93.093 242.624 90.988 244.771 90.988 248.403ZM97.9222 247.206C97.9222 246.05 98.9541 245.844 100.811 245.555L105.847 244.812C105.847 247.33 103.453 248.898 100.523 248.898C99.1604 248.898 97.9222 248.568 97.9222 247.206Z" fill="black"/>
<path d="M129.823 254.099H136.427V235.401L139.771 254.099H152.236L155.579 235.649V254.099H162.224V233.214H149.099L146.003 252.076L142.866 233.214H129.823V254.099Z" fill="black"/>
<path d="M190.712 254.099V233.214H178.371L172.18 251.829V233.214H165.576V254.099H177.917L184.067 235.443V254.099H190.712Z" fill="black"/>
<path d="M193.849 243.615C193.849 250.755 198.719 254.511 205.364 254.511C211.349 254.511 216.55 251.209 216.797 245.348H209.698C209.492 246.917 207.965 248.279 205.364 248.279C202.888 248.279 200.907 246.669 200.907 243.615C200.907 240.602 202.888 239.033 205.364 239.033C207.965 239.033 209.492 240.395 209.698 241.964H216.797C216.55 236.103 211.349 232.801 205.364 232.801C198.719 232.801 193.849 236.516 193.849 243.615Z" fill="black"/>
<path d="M218.96 243.615C218.96 250.755 223.831 254.511 230.476 254.511C236.461 254.511 241.661 251.209 241.909 245.348H234.81C234.603 246.917 233.076 248.279 230.476 248.279C227.999 248.279 226.018 246.669 226.018 243.615C226.018 240.602 227.999 239.033 230.476 239.033C233.076 239.033 234.603 240.395 234.81 241.964H241.909C241.661 236.103 236.461 232.801 230.476 232.801C223.831 232.801 218.96 236.516 218.96 243.615Z" fill="black"/>
<path d="M270.199 254.099V233.214H257.857L251.666 251.829V233.214H245.062V254.099H257.403L263.553 235.443V254.099H270.199Z" fill="black"/>
<path d="M293.611 254.099V233.214H281.312C277.39 233.214 273.346 234.7 273.346 239.776C273.346 243.945 276.07 245.307 278.546 245.761L276.194 248.362H273.139V254.099H276.111C278.01 254.099 279.041 253.232 280.486 251.787L285.976 245.968H286.512V254.099H293.611ZM280.404 239.57C280.404 238.414 281.064 237.548 283.169 237.548H286.512V241.592H283.169C281.064 241.592 280.404 240.726 280.404 239.57Z" fill="black"/>
<rect x="376" y="209" width="326.305" height="61.5228" rx="15" fill="#FFCFDA"/>
<rect x="784" y="209" width="326.305" height="61.5228" rx="15" fill="#FFCFDA"/>
<path d="M800.355 223.796V252.895H807.867V242.081H820.621V252.895H828.175V223.796H820.621V235.477H807.867V223.796H800.355Z" fill="black"/>
<path d="M831.406 247.199C831.406 249.345 832.521 253.308 839.125 253.308C845.192 253.308 847.421 250.708 848.37 247.612V249.717C848.37 251.739 849.567 252.895 851.59 252.895H856.378V246.663H853.365V240.925C853.365 234.198 848.453 231.597 842.674 231.597C836.937 231.597 832.025 234.445 831.902 239.935H838.547C838.629 238.077 839.826 237.004 842.385 237.004C845.192 237.004 846.265 237.871 846.265 240.059L839.909 240.76C833.511 241.421 831.406 243.567 831.406 247.199ZM838.341 246.002C838.341 244.847 839.372 244.64 841.23 244.351L846.265 243.608C846.265 246.126 843.871 247.694 840.941 247.694C839.579 247.694 838.341 247.364 838.341 246.002Z" fill="black"/>
<path d="M858.996 252.895H888.26V232.01H881.202V246.663H877.157V232.01H870.099V246.663H866.054V232.01H858.996V252.895Z" fill="black"/>
<path d="M891.343 247.199C891.343 249.345 892.458 253.308 899.062 253.308C905.129 253.308 907.358 250.708 908.307 247.612V249.717C908.307 251.739 909.504 252.895 911.527 252.895H916.315V246.663H913.302V240.925C913.302 234.198 908.39 231.597 902.612 231.597C896.874 231.597 891.963 234.445 891.839 239.935H898.484C898.567 238.077 899.764 237.004 902.323 237.004C905.129 237.004 906.202 237.871 906.202 240.059L899.846 240.76C893.448 241.421 891.343 243.567 891.343 247.199ZM898.278 246.002C898.278 244.847 899.31 244.64 901.167 244.351L906.202 243.608C906.202 246.126 903.808 247.694 900.878 247.694C899.516 247.694 898.278 247.364 898.278 246.002Z" fill="black"/>
<path d="M930.179 252.895H936.783V234.198L940.126 252.895H952.591L955.934 234.445V252.895H962.58V232.01H949.454L946.359 250.873L943.222 232.01H930.179V252.895Z" fill="black"/>
<path d="M991.068 252.895V232.01H978.727L972.536 250.625V232.01H965.932V252.895H978.273L984.423 234.239V252.895H991.068Z" fill="black"/>
<path d="M994.204 242.411C994.204 249.552 999.075 253.308 1005.72 253.308C1011.7 253.308 1016.91 250.006 1017.15 244.145H1010.05C1009.85 245.713 1008.32 247.075 1005.72 247.075C1003.24 247.075 1001.26 245.466 1001.26 242.411C1001.26 239.398 1003.24 237.83 1005.72 237.83C1008.32 237.83 1009.85 239.192 1010.05 240.76H1017.15C1016.91 234.899 1011.7 231.597 1005.72 231.597C999.075 231.597 994.204 235.312 994.204 242.411Z" fill="black"/>
<path d="M1019.32 242.411C1019.32 249.552 1024.19 253.308 1030.83 253.308C1036.82 253.308 1042.02 250.006 1042.26 244.145H1035.17C1034.96 245.713 1033.43 247.075 1030.83 247.075C1028.35 247.075 1026.37 245.466 1026.37 242.411C1026.37 239.398 1028.35 237.83 1030.83 237.83C1033.43 237.83 1034.96 239.192 1035.17 240.76H1042.26C1042.02 234.899 1036.82 231.597 1030.83 231.597C1024.19 231.597 1019.32 235.312 1019.32 242.411Z" fill="black"/>
<path d="M1070.55 252.895V232.01H1058.21L1052.02 250.625V232.01H1045.42V252.895H1057.76L1063.91 234.239V252.895H1070.55Z" fill="black"/>
<path d="M1093.97 252.895V232.01H1081.67C1077.75 232.01 1073.7 233.496 1073.7 238.573C1073.7 242.742 1076.43 244.104 1078.9 244.558L1076.55 247.158H1073.49V252.895H1076.47C1078.37 252.895 1079.4 252.028 1080.84 250.584L1086.33 244.764H1086.87V252.895H1093.97ZM1080.76 238.366C1080.76 237.211 1081.42 236.344 1083.52 236.344H1086.87V240.389H1083.52C1081.42 240.389 1080.76 239.522 1080.76 238.366Z" fill="black"/>
</svg>
