<svg width="701" height="83" viewBox="0 0 701 83" fill="none" xmlns="http://www.w3.org/2000/svg">
<path fill-rule="evenodd" clip-rule="evenodd" d="M143 17H150H200H215C216.895 17 218.614 17.753 219.874 18.976C222.654 17.7071 225.745 17 229 17H235C237.007 17 238.952 17.2689 240.8 17.7726C241.759 17.2788 242.847 17 244 17H258H278H286H309H380C392.15 17 402 26.8497 402 39H406V24C406 20.134 409.134 17 413 17H431C431.493 17 431.973 17.0509 432.437 17.1477C433.278 17.0501 434.133 17 435 17H441C446.319 17 451.196 18.8873 455 22.0286C458.804 18.8873 463.681 17 469 17H475C478.525 17 481.856 17.8291 484.81 19.3028C486.091 17.8885 487.942 17 490 17H541.038C541.549 10.2876 547.157 5 554 5H559C560.966 5 562.83 5.43631 564.5 6.21737C566.17 5.43631 568.034 5 570 5H575C582.18 5 588 10.8203 588 18C588 18.4865 587.973 18.9667 587.921 19.4393C590.941 17.8803 594.368 17 598 17H604C609.797 17 615.07 19.2421 619 22.9064C622.93 19.2421 628.203 17 634 17H640C644.094 17 647.927 18.1182 651.209 20.0658C652.469 18.2153 654.593 17 657 17H694C697.866 17 701 20.134 701 24V63C701 66.866 697.866 70 694 70H657C654.593 70 652.469 68.7847 651.209 66.9342C647.927 68.8818 644.094 70 640 70H634C628.203 70 622.93 67.7579 619 64.0936C615.07 67.7579 609.797 70 604 70H598C591.953 70 586.477 67.5607 582.5 63.6125C578.523 67.5607 573.047 70 567 70H561C558.261 70 555.639 69.4995 553.221 68.585C552.047 69.4731 550.585 70 549 70H490C487.942 70 486.091 69.1115 484.81 67.6972C481.856 69.1709 478.525 70 475 70H469C463.681 70 458.804 68.1127 455 64.9714C451.196 68.1127 446.319 70 441 70H438V76C438 79.866 434.866 83 431 83H413C409.134 83 406 79.866 406 76V70H395H392H301C294.696 70 289.01 67.3481 284.999 63.099C284.946 66.9194 281.833 70 278 70H258C254.167 70 251.054 66.9194 251.001 63.099C246.99 67.3481 241.304 70 235 70H229C225.745 70 222.654 69.2929 219.874 68.024C218.614 69.247 216.895 70 215 70H150C148.293 70 146.729 69.3892 145.514 68.3742C143.053 69.4209 140.344 70 137.5 70H106.5C104.629 70 102.817 69.7495 101.096 69.2801C100.162 69.741 99.1113 70 98 70H49H45H7C3.13401 70 0 66.866 0 63V11C0 7.13401 3.13401 4 7 4H49C52.866 4 56 7.13401 56 11V17H90.7496C95.4989 10.7933 102.786 6.63184 111.062 6.06604C111.518 2.64161 114.451 0 118 0H136C139.866 0 143 3.13401 143 7V17Z" fill="white"/>
</svg>
