<svg width="1082" height="120" viewBox="0 0 1082 120" fill="none" xmlns="http://www.w3.org/2000/svg">
<path fill-rule="evenodd" clip-rule="evenodd" d="M76 26.9304V8.02539H0.415039V99.0004H39.395C45.7968 99.0004 55.3145 98.788 63.5782 94.766V99.0004H145.433V92.7495C152.411 97.6863 160.977 99.9504 170.221 99.9504C178.079 99.9504 185.238 98.5664 191.355 95.6647V99.0004H203.355C212.906 99.0004 221.271 96.7824 227.645 91.4953V99.0004H333.67V94.2213C340.528 98.3088 348.509 99.9504 356.249 99.9504C365.664 99.9504 375.471 97.4728 383.15 91.0826C387.422 87.528 390.656 83.0735 392.743 77.9074V99.0004H432.988V78.9357C434.744 82.8869 437.211 86.4963 440.406 89.5996C447.586 96.5727 457.364 99.9504 468.016 99.9504C475.513 99.9504 482.604 98.4611 488.666 95.291V99.0004H562.792C565.586 99.6325 568.605 99.9504 571.824 99.9504C578.44 99.9504 584.398 98.6808 589.424 95.8774C592.942 98.172 596.919 99.0004 600.514 99.0004H623.534V60.6554H616.599V57.8354C616.599 46.8789 611.606 38.269 603.793 32.8476C596.507 27.7921 587.539 25.9804 579.329 25.9804C573.341 25.9804 567.22 27.0273 561.686 29.4807V26.9304H540.946C538.069 26.9304 533.453 27.1232 528.911 29.1415V26.9304H488.666V31.126C482.383 27.5495 474.988 25.9804 467.256 25.9804C461.629 25.9804 456.136 26.9841 451.134 29.075V26.9304H374.599V29.5888C368.793 27.0513 362.44 25.9804 356.249 25.9804C348.502 25.9804 340.523 27.6249 333.67 31.6966V26.9304H207.518C209.688 23.4352 211.238 19.2942 211.86 14.4183L213.584 0.900391H172.075L170.515 7.65912C170.046 7.86223 169.458 8.10246 168.723 8.38312C166.983 9.04784 164.73 9.8241 161.745 10.8034C153.061 13.628 144.448 17.9514 138.162 25.7728C137.856 26.1539 137.558 26.5397 137.268 26.9304H76ZM200.76 36.4652C200.399 36.1095 200.031 35.7616 199.654 35.4218C200.028 35.1416 200.397 34.8531 200.76 34.5564V36.4652ZM577.65 74.9571C577.663 74.9559 577.676 74.9547 577.69 74.9535C577.676 74.9547 577.663 74.9559 577.65 74.9571ZM43.1104 69.2832C43.1102 69.2834 43.102 69.2813 43.0865 69.2767C43.1028 69.2807 43.1106 69.2831 43.1104 69.2832ZM356.096 62.0387C356.12 62.0179 356.144 61.998 356.168 61.9788C356.195 62.0008 356.222 62.0238 356.249 62.0478C356.265 62.0617 356.281 62.076 356.297 62.0906C356.58 62.3496 356.789 62.6256 356.934 62.8704C356.943 62.8854 356.952 62.9003 356.96 62.9151C356.805 63.2013 356.571 63.5261 356.249 63.8238C356.235 63.8365 356.221 63.8492 356.207 63.8618C356.194 63.874 356.18 63.8859 356.167 63.8976C356.135 63.8707 356.103 63.8425 356.07 63.8127C355.745 63.5178 355.51 63.197 355.354 62.916C355.363 62.9009 355.372 62.8857 355.381 62.8704C355.52 62.6419 355.717 62.3849 355.981 62.1403C356.02 62.1044 356.058 62.0706 356.096 62.0387ZM356.986 64.3862C356.986 64.3867 356.973 64.3841 356.95 64.3766C356.975 64.382 356.987 64.3857 356.986 64.3862ZM631.444 26.9304V119.045H671.689V99.2376C674.13 99.7145 676.72 99.9504 679.449 99.9504C689.443 99.9504 697.708 95.9344 703.401 89.2151C703.529 89.3441 703.659 89.4723 703.79 89.5996C710.969 96.5727 720.748 99.9504 731.4 99.9504C738.897 99.9504 745.987 98.4611 752.05 95.291V99.0004H850.625V94.37C856.832 98.1192 864.201 99.9504 872.045 99.9504C881.358 99.9504 890.044 97.6521 896.911 92.6883C898.295 91.6878 899.581 90.5952 900.761 89.4195C901.141 89.7938 901.531 90.1603 901.932 90.5188C909.365 97.1653 919.099 99.9504 928.919 99.9504C937.887 99.9504 946.985 97.4921 954.225 92.067C955.584 91.0483 956.864 89.9333 958.051 88.7274C958.333 89.0223 958.622 89.3131 958.917 89.5996C966.096 96.5727 975.875 99.9504 986.527 99.9504C992.916 99.9504 999.008 98.869 1004.42 96.5878V99.0004H1016.42C1025.97 99.0004 1034.34 96.7824 1040.71 91.4952V99.0004H1081.05V26.9304H1013.83V36.1091C1013.64 35.9294 1013.45 35.7513 1013.26 35.575C1005.97 28.8225 996.172 25.9804 985.767 25.9804C975.826 25.9804 966.304 29.1126 959.167 35.8373C958.74 36.24 958.325 36.6521 957.922 37.0733C956.772 35.9172 955.535 34.8458 954.225 33.8638C946.985 28.4387 937.887 25.9804 928.919 25.9804C919.963 25.9804 911.06 28.2777 903.912 33.7224C904.736 31.4842 905.135 29.0956 905.135 26.6754C905.135 20.9164 902.852 15.4006 898.105 11.61C893.734 8.11959 888.516 7.07539 884.11 7.07539C880.464 7.07539 876.212 7.77688 872.363 10.08C868.506 7.81024 864.248 7.07539 860.55 7.07539C856.138 7.07539 850.839 8.1024 846.441 11.751C841.697 15.686 839.715 21.2365 839.715 26.6754C839.715 26.7603 839.715 26.8453 839.716 26.9304H752.05V31.126C745.767 27.5495 738.372 25.9804 730.64 25.9804C720.699 25.9804 711.177 29.1126 704.04 35.8373C703.778 36.0849 703.519 36.336 703.266 36.5906C697.594 29.9724 689.389 25.9804 679.449 25.9804C676.296 25.9804 673.333 26.2951 670.57 26.9304H631.444ZM700.064 62.7754C700.064 62.8387 700.064 62.902 700.064 62.9654C700.064 62.902 700.064 62.8387 700.064 62.7754ZM950.798 47.0704C950.913 47.211 951.025 47.3532 951.136 47.4969C951.025 47.3532 950.913 47.211 950.798 47.0704ZM907.5 79.0033C907.339 78.8007 907.181 78.5947 907.026 78.3854C907.181 78.5947 907.339 78.8007 907.5 79.0033Z" fill="#F5F5F5"/>
</svg>
